<?xml version="1.0" encoding="utf-8" standalone="no"?>
<!DOCTYPE svg PUBLIC "-//W3C//DTD SVG 1.1//EN"
  "http://www.w3.org/Graphics/SVG/1.1/DTD/svg11.dtd">
<svg xmlns:xlink="http://www.w3.org/1999/xlink" width="2016pt" height="720pt" viewBox="0 0 2016 720" xmlns="http://www.w3.org/2000/svg" version="1.1">
 <metadata>
  <rdf:RDF xmlns:dc="http://purl.org/dc/elements/1.1/" xmlns:cc="http://creativecommons.org/ns#" xmlns:rdf="http://www.w3.org/1999/02/22-rdf-syntax-ns#">
   <cc:Work>
    <dc:type rdf:resource="http://purl.org/dc/dcmitype/StillImage"/>
    <dc:date>2025-05-07T13:05:51.431671</dc:date>
    <dc:format>image/svg+xml</dc:format>
    <dc:creator>
     <cc:Agent>
      <dc:title>Matplotlib v3.9.0, https://matplotlib.org/</dc:title>
     </cc:Agent>
    </dc:creator>
   </cc:Work>
  </rdf:RDF>
 </metadata>
 <defs>
  <style type="text/css">*{stroke-linejoin: round; stroke-linecap: butt}</style>
 </defs>
 <g id="figure_1">
  <g id="patch_1">
   <path d="M 0 720 
L 2016 720 
L 2016 0 
L 0 0 
L 0 720 
z
" style="fill: none; opacity: 0"/>
  </g>
  <g id="axes_1">
   <g id="patch_2">
    <path d="M 252 352.938462 
L 711.529412 352.938462 
L 711.529412 86.4 
L 252 86.4 
z
" style="fill: #eaeaf2"/>
   </g>
   <g id="matplotlib.axis_1">
    <g id="xtick_1">
     <g id="line2d_1">
      <path d="M 252 352.938462 
L 252 86.4 
" clip-path="url(#ped940825e1)" style="fill: none; stroke: #ffffff; stroke-linecap: round"/>
     </g>
    </g>
    <g id="xtick_2">
     <g id="line2d_2">
      <path d="M 379.647059 352.938462 
L 379.647059 86.4 
" clip-path="url(#ped940825e1)" style="fill: none; stroke: #ffffff; stroke-linecap: round"/>
     </g>
    </g>
    <g id="xtick_3">
     <g id="line2d_3">
      <path d="M 507.294118 352.938462 
L 507.294118 86.4 
" clip-path="url(#ped940825e1)" style="fill: none; stroke: #ffffff; stroke-linecap: round"/>
     </g>
    </g>
    <g id="xtick_4">
     <g id="line2d_4">
      <path d="M 634.941176 352.938462 
L 634.941176 86.4 
" clip-path="url(#ped940825e1)" style="fill: none; stroke: #ffffff; stroke-linecap: round"/>
     </g>
    </g>
   </g>
   <g id="matplotlib.axis_2">
    <g id="ytick_1">
     <g id="line2d_5">
      <path d="M 252 340.823077 
L 711.529412 340.823077 
" clip-path="url(#ped940825e1)" style="fill: none; stroke: #ffffff; stroke-linecap: round"/>
     </g>
     <g id="text_1">
      <!-- -200 -->
      <g style="fill: #262626" transform="translate(165.451875 354.601866) scale(0.385 -0.385)">
       <defs>
        <path id="ArialMT-2d" d="M 203 1375 
L 203 1941 
L 1931 1941 
L 1931 1375 
L 203 1375 
z
" transform="scale(0.015625)"/>
        <path id="ArialMT-32" d="M 3222 541 
L 3222 0 
L 194 0 
Q 188 203 259 391 
Q 375 700 629 1000 
Q 884 1300 1366 1694 
Q 2113 2306 2375 2664 
Q 2638 3022 2638 3341 
Q 2638 3675 2398 3904 
Q 2159 4134 1775 4134 
Q 1369 4134 1125 3890 
Q 881 3647 878 3216 
L 300 3275 
Q 359 3922 746 4261 
Q 1134 4600 1788 4600 
Q 2447 4600 2831 4234 
Q 3216 3869 3216 3328 
Q 3216 3053 3103 2787 
Q 2991 2522 2730 2228 
Q 2469 1934 1863 1422 
Q 1356 997 1212 845 
Q 1069 694 975 541 
L 3222 541 
z
" transform="scale(0.015625)"/>
        <path id="ArialMT-30" d="M 266 2259 
Q 266 3072 433 3567 
Q 600 4063 929 4331 
Q 1259 4600 1759 4600 
Q 2128 4600 2406 4451 
Q 2684 4303 2865 4023 
Q 3047 3744 3150 3342 
Q 3253 2941 3253 2259 
Q 3253 1453 3087 958 
Q 2922 463 2592 192 
Q 2263 -78 1759 -78 
Q 1097 -78 719 397 
Q 266 969 266 2259 
z
M 844 2259 
Q 844 1131 1108 757 
Q 1372 384 1759 384 
Q 2147 384 2411 759 
Q 2675 1134 2675 2259 
Q 2675 3391 2411 3762 
Q 2147 4134 1753 4134 
Q 1366 4134 1134 3806 
Q 844 3388 844 2259 
z
" transform="scale(0.015625)"/>
       </defs>
       <use xlink:href="#ArialMT-2d"/>
       <use xlink:href="#ArialMT-32" x="33.300781"/>
       <use xlink:href="#ArialMT-30" x="88.916016"/>
       <use xlink:href="#ArialMT-30" x="144.53125"/>
      </g>
     </g>
    </g>
    <g id="ytick_2">
     <g id="line2d_6">
      <path d="M 252 219.669231 
L 711.529412 219.669231 
" clip-path="url(#ped940825e1)" style="fill: none; stroke: #ffffff; stroke-linecap: round"/>
     </g>
     <g id="text_2">
      <!-- 0 -->
      <g style="fill: #262626" transform="translate(221.090391 233.44802) scale(0.385 -0.385)">
       <use xlink:href="#ArialMT-30"/>
      </g>
     </g>
    </g>
    <g id="ytick_3">
     <g id="line2d_7">
      <path d="M 252 98.515385 
L 711.529412 98.515385 
" clip-path="url(#ped940825e1)" style="fill: none; stroke: #ffffff; stroke-linecap: round"/>
     </g>
     <g id="text_3">
      <!-- 200 -->
      <g style="fill: #262626" transform="translate(178.271172 112.294174) scale(0.385 -0.385)">
       <use xlink:href="#ArialMT-32"/>
       <use xlink:href="#ArialMT-30" x="55.615234"/>
       <use xlink:href="#ArialMT-30" x="111.230469"/>
      </g>
     </g>
    </g>
    <g id="text_4">
     <!-- PGSE -->
     <g style="fill: #262626" transform="translate(153.104375 278.026262) rotate(-90) scale(0.42 -0.42)">
      <defs>
       <path id="ArialMT-50" d="M 494 0 
L 494 4581 
L 2222 4581 
Q 2678 4581 2919 4538 
Q 3256 4481 3484 4323 
Q 3713 4166 3852 3881 
Q 3991 3597 3991 3256 
Q 3991 2672 3619 2267 
Q 3247 1863 2275 1863 
L 1100 1863 
L 1100 0 
L 494 0 
z
M 1100 2403 
L 2284 2403 
Q 2872 2403 3119 2622 
Q 3366 2841 3366 3238 
Q 3366 3525 3220 3729 
Q 3075 3934 2838 4000 
Q 2684 4041 2272 4041 
L 1100 4041 
L 1100 2403 
z
" transform="scale(0.015625)"/>
       <path id="ArialMT-47" d="M 2638 1797 
L 2638 2334 
L 4578 2338 
L 4578 638 
Q 4131 281 3656 101 
Q 3181 -78 2681 -78 
Q 2006 -78 1454 211 
Q 903 500 622 1047 
Q 341 1594 341 2269 
Q 341 2938 620 3517 
Q 900 4097 1425 4378 
Q 1950 4659 2634 4659 
Q 3131 4659 3532 4498 
Q 3934 4338 4162 4050 
Q 4391 3763 4509 3300 
L 3963 3150 
Q 3859 3500 3706 3700 
Q 3553 3900 3268 4020 
Q 2984 4141 2638 4141 
Q 2222 4141 1919 4014 
Q 1616 3888 1430 3681 
Q 1244 3475 1141 3228 
Q 966 2803 966 2306 
Q 966 1694 1177 1281 
Q 1388 869 1791 669 
Q 2194 469 2647 469 
Q 3041 469 3416 620 
Q 3791 772 3984 944 
L 3984 1797 
L 2638 1797 
z
" transform="scale(0.015625)"/>
       <path id="ArialMT-53" d="M 288 1472 
L 859 1522 
Q 900 1178 1048 958 
Q 1197 738 1509 602 
Q 1822 466 2213 466 
Q 2559 466 2825 569 
Q 3091 672 3220 851 
Q 3350 1031 3350 1244 
Q 3350 1459 3225 1620 
Q 3100 1781 2813 1891 
Q 2628 1963 1997 2114 
Q 1366 2266 1113 2400 
Q 784 2572 623 2826 
Q 463 3081 463 3397 
Q 463 3744 659 4045 
Q 856 4347 1234 4503 
Q 1613 4659 2075 4659 
Q 2584 4659 2973 4495 
Q 3363 4331 3572 4012 
Q 3781 3694 3797 3291 
L 3216 3247 
Q 3169 3681 2898 3903 
Q 2628 4125 2100 4125 
Q 1550 4125 1298 3923 
Q 1047 3722 1047 3438 
Q 1047 3191 1225 3031 
Q 1400 2872 2139 2705 
Q 2878 2538 3153 2413 
Q 3553 2228 3743 1945 
Q 3934 1663 3934 1294 
Q 3934 928 3725 604 
Q 3516 281 3123 101 
Q 2731 -78 2241 -78 
Q 1619 -78 1198 103 
Q 778 284 539 648 
Q 300 1013 288 1472 
z
" transform="scale(0.015625)"/>
       <path id="ArialMT-45" d="M 506 0 
L 506 4581 
L 3819 4581 
L 3819 4041 
L 1113 4041 
L 1113 2638 
L 3647 2638 
L 3647 2100 
L 1113 2100 
L 1113 541 
L 3925 541 
L 3925 0 
L 506 0 
z
" transform="scale(0.015625)"/>
      </defs>
      <use xlink:href="#ArialMT-50"/>
      <use xlink:href="#ArialMT-47" x="66.699219"/>
      <use xlink:href="#ArialMT-53" x="144.482422"/>
      <use xlink:href="#ArialMT-45" x="211.181641"/>
     </g>
    </g>
   </g>
   <g id="patch_3">
    <path d="M 252 352.938462 
L 264.254118 352.938462 
L 264.254118 86.4 
L 252 86.4 
z
" clip-path="url(#ped940825e1)" style="fill: #ff0000; opacity: 0.1; stroke: #ffffff; stroke-linejoin: miter"/>
   </g>
   <g id="patch_4">
    <path d="M 264.254118 352.938462 
L 447.453176 352.938462 
L 447.453176 86.4 
L 264.254118 86.4 
z
" clip-path="url(#ped940825e1)" style="fill: #0000ff; opacity: 0.1; stroke: #ffffff; stroke-linejoin: miter"/>
   </g>
   <g id="patch_5">
    <path d="M 447.453176 352.938462 
L 539.359059 352.938462 
L 539.359059 86.4 
L 447.453176 86.4 
z
" clip-path="url(#ped940825e1)" style="fill: #008000; opacity: 0.1; stroke: #ffffff; stroke-linejoin: miter"/>
   </g>
   <g id="line2d_8">
    <path d="M 252 219.669231 
L 711.529412 219.669231 
" clip-path="url(#ped940825e1)" style="fill: none; stroke: #000000; stroke-linecap: round"/>
   </g>
   <g id="line2d_9">
    <path d="M 252 98.515385 
L 711.529412 98.515385 
" clip-path="url(#ped940825e1)" style="fill: none; stroke-dasharray: 3.7,1.6; stroke-dashoffset: 0; stroke: #000000"/>
   </g>
   <g id="line2d_10">
    <path d="M 252 340.823077 
L 711.529412 340.823077 
" clip-path="url(#ped940825e1)" style="fill: none; stroke-dasharray: 3.7,1.6; stroke-dashoffset: 0; stroke: #000000"/>
   </g>
   <g id="line2d_11">
    <path d="M 252 219.669231 
L 264.203059 219.669231 
L 275.180706 128.803846 
L 288.507059 128.803846 
L 299.484706 219.669231 
L 412.273647 219.669231 
L 423.251294 128.803846 
L 436.577647 128.803846 
L 447.453176 219.669231 
L 447.453176 219.669231 
" clip-path="url(#ped940825e1)" style="fill: none; stroke: #000000; stroke-width: 7; stroke-linecap: round"/>
   </g>
   <g id="patch_6">
    <path d="M 252 352.938462 
L 252 86.4 
" style="fill: none; stroke: #ffffff; stroke-width: 1.25; stroke-linejoin: miter; stroke-linecap: square"/>
   </g>
   <g id="patch_7">
    <path d="M 711.529412 352.938462 
L 711.529412 86.4 
" style="fill: none; stroke: #ffffff; stroke-width: 1.25; stroke-linejoin: miter; stroke-linecap: square"/>
   </g>
   <g id="patch_8">
    <path d="M 252 352.938462 
L 711.529412 352.938462 
" style="fill: none; stroke: #ffffff; stroke-width: 1.25; stroke-linejoin: miter; stroke-linecap: square"/>
   </g>
   <g id="patch_9">
    <path d="M 252 86.4 
L 711.529412 86.4 
" style="fill: none; stroke: #ffffff; stroke-width: 1.25; stroke-linejoin: miter; stroke-linecap: square"/>
   </g>
   <g id="text_5">
    <!-- Gradient (mT/m) -->
    <g style="fill: #262626" transform="translate(327.762518 77.560313) scale(0.42 -0.42)">
     <defs>
      <path id="ArialMT-72" d="M 416 0 
L 416 3319 
L 922 3319 
L 922 2816 
Q 1116 3169 1280 3281 
Q 1444 3394 1641 3394 
Q 1925 3394 2219 3213 
L 2025 2691 
Q 1819 2813 1613 2813 
Q 1428 2813 1281 2702 
Q 1134 2591 1072 2394 
Q 978 2094 978 1738 
L 978 0 
L 416 0 
z
" transform="scale(0.015625)"/>
      <path id="ArialMT-61" d="M 2588 409 
Q 2275 144 1986 34 
Q 1697 -75 1366 -75 
Q 819 -75 525 192 
Q 231 459 231 875 
Q 231 1119 342 1320 
Q 453 1522 633 1644 
Q 813 1766 1038 1828 
Q 1203 1872 1538 1913 
Q 2219 1994 2541 2106 
Q 2544 2222 2544 2253 
Q 2544 2597 2384 2738 
Q 2169 2928 1744 2928 
Q 1347 2928 1158 2789 
Q 969 2650 878 2297 
L 328 2372 
Q 403 2725 575 2942 
Q 747 3159 1072 3276 
Q 1397 3394 1825 3394 
Q 2250 3394 2515 3294 
Q 2781 3194 2906 3042 
Q 3031 2891 3081 2659 
Q 3109 2516 3109 2141 
L 3109 1391 
Q 3109 606 3145 398 
Q 3181 191 3288 0 
L 2700 0 
Q 2613 175 2588 409 
z
M 2541 1666 
Q 2234 1541 1622 1453 
Q 1275 1403 1131 1340 
Q 988 1278 909 1158 
Q 831 1038 831 891 
Q 831 666 1001 516 
Q 1172 366 1500 366 
Q 1825 366 2078 508 
Q 2331 650 2450 897 
Q 2541 1088 2541 1459 
L 2541 1666 
z
" transform="scale(0.015625)"/>
      <path id="ArialMT-64" d="M 2575 0 
L 2575 419 
Q 2259 -75 1647 -75 
Q 1250 -75 917 144 
Q 584 363 401 755 
Q 219 1147 219 1656 
Q 219 2153 384 2558 
Q 550 2963 881 3178 
Q 1213 3394 1622 3394 
Q 1922 3394 2156 3267 
Q 2391 3141 2538 2938 
L 2538 4581 
L 3097 4581 
L 3097 0 
L 2575 0 
z
M 797 1656 
Q 797 1019 1065 703 
Q 1334 388 1700 388 
Q 2069 388 2326 689 
Q 2584 991 2584 1609 
Q 2584 2291 2321 2609 
Q 2059 2928 1675 2928 
Q 1300 2928 1048 2622 
Q 797 2316 797 1656 
z
" transform="scale(0.015625)"/>
      <path id="ArialMT-69" d="M 425 3934 
L 425 4581 
L 988 4581 
L 988 3934 
L 425 3934 
z
M 425 0 
L 425 3319 
L 988 3319 
L 988 0 
L 425 0 
z
" transform="scale(0.015625)"/>
      <path id="ArialMT-65" d="M 2694 1069 
L 3275 997 
Q 3138 488 2766 206 
Q 2394 -75 1816 -75 
Q 1088 -75 661 373 
Q 234 822 234 1631 
Q 234 2469 665 2931 
Q 1097 3394 1784 3394 
Q 2450 3394 2872 2941 
Q 3294 2488 3294 1666 
Q 3294 1616 3291 1516 
L 816 1516 
Q 847 969 1125 678 
Q 1403 388 1819 388 
Q 2128 388 2347 550 
Q 2566 713 2694 1069 
z
M 847 1978 
L 2700 1978 
Q 2663 2397 2488 2606 
Q 2219 2931 1791 2931 
Q 1403 2931 1139 2672 
Q 875 2413 847 1978 
z
" transform="scale(0.015625)"/>
      <path id="ArialMT-6e" d="M 422 0 
L 422 3319 
L 928 3319 
L 928 2847 
Q 1294 3394 1984 3394 
Q 2284 3394 2536 3286 
Q 2788 3178 2913 3003 
Q 3038 2828 3088 2588 
Q 3119 2431 3119 2041 
L 3119 0 
L 2556 0 
L 2556 2019 
Q 2556 2363 2490 2533 
Q 2425 2703 2258 2804 
Q 2091 2906 1866 2906 
Q 1506 2906 1245 2678 
Q 984 2450 984 1813 
L 984 0 
L 422 0 
z
" transform="scale(0.015625)"/>
      <path id="ArialMT-74" d="M 1650 503 
L 1731 6 
Q 1494 -44 1306 -44 
Q 1000 -44 831 53 
Q 663 150 594 308 
Q 525 466 525 972 
L 525 2881 
L 113 2881 
L 113 3319 
L 525 3319 
L 525 4141 
L 1084 4478 
L 1084 3319 
L 1650 3319 
L 1650 2881 
L 1084 2881 
L 1084 941 
Q 1084 700 1114 631 
Q 1144 563 1211 522 
Q 1278 481 1403 481 
Q 1497 481 1650 503 
z
" transform="scale(0.015625)"/>
      <path id="ArialMT-20" transform="scale(0.015625)"/>
      <path id="ArialMT-28" d="M 1497 -1347 
Q 1031 -759 709 28 
Q 388 816 388 1659 
Q 388 2403 628 3084 
Q 909 3875 1497 4659 
L 1900 4659 
Q 1522 4009 1400 3731 
Q 1209 3300 1100 2831 
Q 966 2247 966 1656 
Q 966 153 1900 -1347 
L 1497 -1347 
z
" transform="scale(0.015625)"/>
      <path id="ArialMT-6d" d="M 422 0 
L 422 3319 
L 925 3319 
L 925 2853 
Q 1081 3097 1340 3245 
Q 1600 3394 1931 3394 
Q 2300 3394 2536 3241 
Q 2772 3088 2869 2813 
Q 3263 3394 3894 3394 
Q 4388 3394 4653 3120 
Q 4919 2847 4919 2278 
L 4919 0 
L 4359 0 
L 4359 2091 
Q 4359 2428 4304 2576 
Q 4250 2725 4106 2815 
Q 3963 2906 3769 2906 
Q 3419 2906 3187 2673 
Q 2956 2441 2956 1928 
L 2956 0 
L 2394 0 
L 2394 2156 
Q 2394 2531 2256 2718 
Q 2119 2906 1806 2906 
Q 1569 2906 1367 2781 
Q 1166 2656 1075 2415 
Q 984 2175 984 1722 
L 984 0 
L 422 0 
z
" transform="scale(0.015625)"/>
      <path id="ArialMT-54" d="M 1659 0 
L 1659 4041 
L 150 4041 
L 150 4581 
L 3781 4581 
L 3781 4041 
L 2266 4041 
L 2266 0 
L 1659 0 
z
" transform="scale(0.015625)"/>
      <path id="ArialMT-2f" d="M 0 -78 
L 1328 4659 
L 1778 4659 
L 453 -78 
L 0 -78 
z
" transform="scale(0.015625)"/>
      <path id="ArialMT-29" d="M 791 -1347 
L 388 -1347 
Q 1322 153 1322 1656 
Q 1322 2244 1188 2822 
Q 1081 3291 891 3722 
Q 769 4003 388 4659 
L 791 4659 
Q 1378 3875 1659 3084 
Q 1900 2403 1900 1659 
Q 1900 816 1576 28 
Q 1253 -759 791 -1347 
z
" transform="scale(0.015625)"/>
     </defs>
     <use xlink:href="#ArialMT-47"/>
     <use xlink:href="#ArialMT-72" x="77.783203"/>
     <use xlink:href="#ArialMT-61" x="111.083984"/>
     <use xlink:href="#ArialMT-64" x="166.699219"/>
     <use xlink:href="#ArialMT-69" x="222.314453"/>
     <use xlink:href="#ArialMT-65" x="244.53125"/>
     <use xlink:href="#ArialMT-6e" x="300.146484"/>
     <use xlink:href="#ArialMT-74" x="355.761719"/>
     <use xlink:href="#ArialMT-20" x="383.544922"/>
     <use xlink:href="#ArialMT-28" x="411.328125"/>
     <use xlink:href="#ArialMT-6d" x="444.628906"/>
     <use xlink:href="#ArialMT-54" x="527.929688"/>
     <use xlink:href="#ArialMT-2f" x="589.013672"/>
     <use xlink:href="#ArialMT-6d" x="616.796875"/>
     <use xlink:href="#ArialMT-29" x="700.097656"/>
    </g>
   </g>
  </g>
  <g id="axes_2">
   <g id="patch_10">
    <path d="M 803.435294 352.938462 
L 1262.964706 352.938462 
L 1262.964706 86.4 
L 803.435294 86.4 
z
" style="fill: #eaeaf2"/>
   </g>
   <g id="matplotlib.axis_3">
    <g id="xtick_5">
     <g id="line2d_12">
      <path d="M 803.435294 352.938462 
L 803.435294 86.4 
" clip-path="url(#pa1e2f9fdca)" style="fill: none; stroke: #ffffff; stroke-linecap: round"/>
     </g>
    </g>
    <g id="xtick_6">
     <g id="line2d_13">
      <path d="M 931.082353 352.938462 
L 931.082353 86.4 
" clip-path="url(#pa1e2f9fdca)" style="fill: none; stroke: #ffffff; stroke-linecap: round"/>
     </g>
    </g>
    <g id="xtick_7">
     <g id="line2d_14">
      <path d="M 1058.729412 352.938462 
L 1058.729412 86.4 
" clip-path="url(#pa1e2f9fdca)" style="fill: none; stroke: #ffffff; stroke-linecap: round"/>
     </g>
    </g>
    <g id="xtick_8">
     <g id="line2d_15">
      <path d="M 1186.376471 352.938462 
L 1186.376471 86.4 
" clip-path="url(#pa1e2f9fdca)" style="fill: none; stroke: #ffffff; stroke-linecap: round"/>
     </g>
    </g>
   </g>
   <g id="matplotlib.axis_4">
    <g id="ytick_4">
     <g id="line2d_16">
      <path d="M 803.435294 340.823077 
L 1262.964706 340.823077 
" clip-path="url(#pa1e2f9fdca)" style="fill: none; stroke: #ffffff; stroke-linecap: round"/>
     </g>
     <g id="text_6">
      <!-- -200 -->
      <g style="fill: #262626" transform="translate(716.887169 354.601866) scale(0.385 -0.385)">
       <use xlink:href="#ArialMT-2d"/>
       <use xlink:href="#ArialMT-32" x="33.300781"/>
       <use xlink:href="#ArialMT-30" x="88.916016"/>
       <use xlink:href="#ArialMT-30" x="144.53125"/>
      </g>
     </g>
    </g>
    <g id="ytick_5">
     <g id="line2d_17">
      <path d="M 803.435294 219.669231 
L 1262.964706 219.669231 
" clip-path="url(#pa1e2f9fdca)" style="fill: none; stroke: #ffffff; stroke-linecap: round"/>
     </g>
     <g id="text_7">
      <!-- 0 -->
      <g style="fill: #262626" transform="translate(772.525685 233.44802) scale(0.385 -0.385)">
       <use xlink:href="#ArialMT-30"/>
      </g>
     </g>
    </g>
    <g id="ytick_6">
     <g id="line2d_18">
      <path d="M 803.435294 98.515385 
L 1262.964706 98.515385 
" clip-path="url(#pa1e2f9fdca)" style="fill: none; stroke: #ffffff; stroke-linecap: round"/>
     </g>
     <g id="text_8">
      <!-- 200 -->
      <g style="fill: #262626" transform="translate(729.706466 112.294174) scale(0.385 -0.385)">
       <use xlink:href="#ArialMT-32"/>
       <use xlink:href="#ArialMT-30" x="55.615234"/>
       <use xlink:href="#ArialMT-30" x="111.230469"/>
      </g>
     </g>
    </g>
   </g>
   <g id="patch_11">
    <path d="M 803.435294 352.938462 
L 815.689412 352.938462 
L 815.689412 86.4 
L 803.435294 86.4 
z
" clip-path="url(#pa1e2f9fdca)" style="fill: #ff0000; opacity: 0.1; stroke: #ffffff; stroke-linejoin: miter"/>
   </g>
   <g id="patch_12">
    <path d="M 815.689412 352.938462 
L 998.888471 352.938462 
L 998.888471 86.4 
L 815.689412 86.4 
z
" clip-path="url(#pa1e2f9fdca)" style="fill: #0000ff; opacity: 0.1; stroke: #ffffff; stroke-linejoin: miter"/>
   </g>
   <g id="patch_13">
    <path d="M 998.888471 352.938462 
L 1090.794353 352.938462 
L 1090.794353 86.4 
L 998.888471 86.4 
z
" clip-path="url(#pa1e2f9fdca)" style="fill: #008000; opacity: 0.1; stroke: #ffffff; stroke-linejoin: miter"/>
   </g>
   <g id="line2d_19">
    <path d="M 803.435294 219.669231 
L 1262.964706 219.669231 
" clip-path="url(#pa1e2f9fdca)" style="fill: none; stroke: #000000; stroke-linecap: round"/>
   </g>
   <g id="line2d_20">
    <path d="M 803.435294 98.515385 
L 1262.964706 98.515385 
" clip-path="url(#pa1e2f9fdca)" style="fill: none; stroke-dasharray: 3.7,1.6; stroke-dashoffset: 0; stroke: #000000"/>
   </g>
   <g id="line2d_21">
    <path d="M 803.435294 340.823077 
L 1262.964706 340.823077 
" clip-path="url(#pa1e2f9fdca)" style="fill: none; stroke-dasharray: 3.7,1.6; stroke-dashoffset: 0; stroke: #000000"/>
   </g>
   <g id="line2d_22">
    <path d="M 803.435294 219.669231 
L 815.587294 219.669231 
L 815.740471 177.009426 
L 826.462824 177.009426 
L 826.616 219.669231 
L 839.891294 219.669231 
L 840.044471 262.329036 
L 850.766824 262.329036 
L 850.92 219.669231 
L 963.657882 219.669231 
L 963.811059 177.009426 
L 974.533412 177.009426 
L 974.686588 219.669231 
L 987.961882 219.669231 
L 988.115059 262.329036 
L 998.837412 262.329036 
L 998.837412 262.329036 
" clip-path="url(#pa1e2f9fdca)" style="fill: none; stroke: #000000; stroke-width: 7; stroke-linecap: round"/>
   </g>
   <g id="patch_14">
    <path d="M 803.435294 352.938462 
L 803.435294 86.4 
" style="fill: none; stroke: #ffffff; stroke-width: 1.25; stroke-linejoin: miter; stroke-linecap: square"/>
   </g>
   <g id="patch_15">
    <path d="M 1262.964706 352.938462 
L 1262.964706 86.4 
" style="fill: none; stroke: #ffffff; stroke-width: 1.25; stroke-linejoin: miter; stroke-linecap: square"/>
   </g>
   <g id="patch_16">
    <path d="M 803.435294 352.938462 
L 1262.964706 352.938462 
" style="fill: none; stroke: #ffffff; stroke-width: 1.25; stroke-linejoin: miter; stroke-linecap: square"/>
   </g>
   <g id="patch_17">
    <path d="M 803.435294 86.4 
L 1262.964706 86.4 
" style="fill: none; stroke: #ffffff; stroke-width: 1.25; stroke-linejoin: miter; stroke-linecap: square"/>
   </g>
   <g id="text_9">
    <!-- Slew Rate (T/m/s) -->
    <g style="fill: #262626" transform="translate(865.186875 77.560313) scale(0.42 -0.42)">
     <defs>
      <path id="ArialMT-6c" d="M 409 0 
L 409 4581 
L 972 4581 
L 972 0 
L 409 0 
z
" transform="scale(0.015625)"/>
      <path id="ArialMT-77" d="M 1034 0 
L 19 3319 
L 600 3319 
L 1128 1403 
L 1325 691 
Q 1338 744 1497 1375 
L 2025 3319 
L 2603 3319 
L 3100 1394 
L 3266 759 
L 3456 1400 
L 4025 3319 
L 4572 3319 
L 3534 0 
L 2950 0 
L 2422 1988 
L 2294 2553 
L 1622 0 
L 1034 0 
z
" transform="scale(0.015625)"/>
      <path id="ArialMT-52" d="M 503 0 
L 503 4581 
L 2534 4581 
Q 3147 4581 3465 4457 
Q 3784 4334 3975 4021 
Q 4166 3709 4166 3331 
Q 4166 2844 3850 2509 
Q 3534 2175 2875 2084 
Q 3116 1969 3241 1856 
Q 3506 1613 3744 1247 
L 4541 0 
L 3778 0 
L 3172 953 
Q 2906 1366 2734 1584 
Q 2563 1803 2427 1890 
Q 2291 1978 2150 2013 
Q 2047 2034 1813 2034 
L 1109 2034 
L 1109 0 
L 503 0 
z
M 1109 2559 
L 2413 2559 
Q 2828 2559 3062 2645 
Q 3297 2731 3419 2920 
Q 3541 3109 3541 3331 
Q 3541 3656 3305 3865 
Q 3069 4075 2559 4075 
L 1109 4075 
L 1109 2559 
z
" transform="scale(0.015625)"/>
      <path id="ArialMT-73" d="M 197 991 
L 753 1078 
Q 800 744 1014 566 
Q 1228 388 1613 388 
Q 2000 388 2187 545 
Q 2375 703 2375 916 
Q 2375 1106 2209 1216 
Q 2094 1291 1634 1406 
Q 1016 1563 777 1677 
Q 538 1791 414 1992 
Q 291 2194 291 2438 
Q 291 2659 392 2848 
Q 494 3038 669 3163 
Q 800 3259 1026 3326 
Q 1253 3394 1513 3394 
Q 1903 3394 2198 3281 
Q 2494 3169 2634 2976 
Q 2775 2784 2828 2463 
L 2278 2388 
Q 2241 2644 2061 2787 
Q 1881 2931 1553 2931 
Q 1166 2931 1000 2803 
Q 834 2675 834 2503 
Q 834 2394 903 2306 
Q 972 2216 1119 2156 
Q 1203 2125 1616 2013 
Q 2213 1853 2448 1751 
Q 2684 1650 2818 1456 
Q 2953 1263 2953 975 
Q 2953 694 2789 445 
Q 2625 197 2315 61 
Q 2006 -75 1616 -75 
Q 969 -75 630 194 
Q 291 463 197 991 
z
" transform="scale(0.015625)"/>
     </defs>
     <use xlink:href="#ArialMT-53"/>
     <use xlink:href="#ArialMT-6c" x="66.699219"/>
     <use xlink:href="#ArialMT-65" x="88.916016"/>
     <use xlink:href="#ArialMT-77" x="144.53125"/>
     <use xlink:href="#ArialMT-20" x="216.748047"/>
     <use xlink:href="#ArialMT-52" x="244.53125"/>
     <use xlink:href="#ArialMT-61" x="316.748047"/>
     <use xlink:href="#ArialMT-74" x="372.363281"/>
     <use xlink:href="#ArialMT-65" x="400.146484"/>
     <use xlink:href="#ArialMT-20" x="455.761719"/>
     <use xlink:href="#ArialMT-28" x="483.544922"/>
     <use xlink:href="#ArialMT-54" x="516.845703"/>
     <use xlink:href="#ArialMT-2f" x="577.929688"/>
     <use xlink:href="#ArialMT-6d" x="605.712891"/>
     <use xlink:href="#ArialMT-2f" x="689.013672"/>
     <use xlink:href="#ArialMT-73" x="716.796875"/>
     <use xlink:href="#ArialMT-29" x="766.796875"/>
    </g>
   </g>
  </g>
  <g id="axes_3">
   <g id="patch_18">
    <path d="M 1354.870588 352.938462 
L 1814.4 352.938462 
L 1814.4 86.4 
L 1354.870588 86.4 
z
" style="fill: #eaeaf2"/>
   </g>
   <g id="matplotlib.axis_5">
    <g id="xtick_9">
     <g id="line2d_23">
      <path d="M 1354.870588 352.938462 
L 1354.870588 86.4 
" clip-path="url(#pa02c98eb0a)" style="fill: none; stroke: #ffffff; stroke-linecap: round"/>
     </g>
    </g>
    <g id="xtick_10">
     <g id="line2d_24">
      <path d="M 1482.517647 352.938462 
L 1482.517647 86.4 
" clip-path="url(#pa02c98eb0a)" style="fill: none; stroke: #ffffff; stroke-linecap: round"/>
     </g>
    </g>
    <g id="xtick_11">
     <g id="line2d_25">
      <path d="M 1610.164706 352.938462 
L 1610.164706 86.4 
" clip-path="url(#pa02c98eb0a)" style="fill: none; stroke: #ffffff; stroke-linecap: round"/>
     </g>
    </g>
    <g id="xtick_12">
     <g id="line2d_26">
      <path d="M 1737.811765 352.938462 
L 1737.811765 86.4 
" clip-path="url(#pa02c98eb0a)" style="fill: none; stroke: #ffffff; stroke-linecap: round"/>
     </g>
    </g>
   </g>
   <g id="matplotlib.axis_6">
    <g id="ytick_7">
     <g id="line2d_27">
      <path d="M 1354.870588 352.938462 
L 1814.4 352.938462 
" clip-path="url(#pa02c98eb0a)" style="fill: none; stroke: #ffffff; stroke-linecap: round"/>
     </g>
     <g id="text_10">
      <!-- 0 -->
      <g style="fill: #262626" transform="translate(1323.960979 366.717251) scale(0.385 -0.385)">
       <use xlink:href="#ArialMT-30"/>
      </g>
     </g>
    </g>
    <g id="ytick_8">
     <g id="line2d_28">
      <path d="M 1354.870588 220.988728 
L 1814.4 220.988728 
" clip-path="url(#pa02c98eb0a)" style="fill: none; stroke: #ffffff; stroke-linecap: round"/>
     </g>
     <g id="text_11">
      <!-- 50 -->
      <g style="fill: #262626" transform="translate(1302.551369 234.767517) scale(0.385 -0.385)">
       <defs>
        <path id="ArialMT-35" d="M 266 1200 
L 856 1250 
Q 922 819 1161 601 
Q 1400 384 1738 384 
Q 2144 384 2425 690 
Q 2706 997 2706 1503 
Q 2706 1984 2436 2262 
Q 2166 2541 1728 2541 
Q 1456 2541 1237 2417 
Q 1019 2294 894 2097 
L 366 2166 
L 809 4519 
L 3088 4519 
L 3088 3981 
L 1259 3981 
L 1013 2750 
Q 1425 3038 1878 3038 
Q 2478 3038 2890 2622 
Q 3303 2206 3303 1553 
Q 3303 931 2941 478 
Q 2500 -78 1738 -78 
Q 1113 -78 717 272 
Q 322 622 266 1200 
z
" transform="scale(0.015625)"/>
       </defs>
       <use xlink:href="#ArialMT-35"/>
       <use xlink:href="#ArialMT-30" x="55.615234"/>
      </g>
     </g>
    </g>
    <g id="ytick_9">
     <g id="line2d_29">
      <path d="M 1354.870588 89.038995 
L 1814.4 89.038995 
" clip-path="url(#pa02c98eb0a)" style="fill: none; stroke: #ffffff; stroke-linecap: round"/>
     </g>
     <g id="text_12">
      <!-- 100 -->
      <g style="fill: #262626" transform="translate(1281.14176 102.817784) scale(0.385 -0.385)">
       <defs>
        <path id="ArialMT-31" d="M 2384 0 
L 1822 0 
L 1822 3584 
Q 1619 3391 1289 3197 
Q 959 3003 697 2906 
L 697 3450 
Q 1169 3672 1522 3987 
Q 1875 4303 2022 4600 
L 2384 4600 
L 2384 0 
z
" transform="scale(0.015625)"/>
       </defs>
       <use xlink:href="#ArialMT-31"/>
       <use xlink:href="#ArialMT-30" x="55.615234"/>
       <use xlink:href="#ArialMT-30" x="111.230469"/>
      </g>
     </g>
    </g>
   </g>
   <g id="patch_19">
    <path d="M 1354.870588 352.938462 
L 1367.124706 352.938462 
L 1367.124706 86.4 
L 1354.870588 86.4 
z
" clip-path="url(#pa02c98eb0a)" style="fill: #ff0000; opacity: 0.1; stroke: #ffffff; stroke-linejoin: miter"/>
   </g>
   <g id="patch_20">
    <path d="M 1367.124706 352.938462 
L 1550.323765 352.938462 
L 1550.323765 86.4 
L 1367.124706 86.4 
z
" clip-path="url(#pa02c98eb0a)" style="fill: #0000ff; opacity: 0.1; stroke: #ffffff; stroke-linejoin: miter"/>
   </g>
   <g id="patch_21">
    <path d="M 1550.323765 352.938462 
L 1642.229647 352.938462 
L 1642.229647 86.4 
L 1550.323765 86.4 
z
" clip-path="url(#pa02c98eb0a)" style="fill: #008000; opacity: 0.1; stroke: #ffffff; stroke-linejoin: miter"/>
   </g>
   <g id="line2d_30">
    <path d="M 1354.870588 352.938462 
L 1814.4 352.938462 
" clip-path="url(#pa02c98eb0a)" style="fill: none; stroke: #000000; stroke-linecap: round"/>
   </g>
   <g id="line2d_31">
    <path d="M 1354.870588 115.428941 
L 1814.4 115.428941 
" clip-path="url(#pa02c98eb0a)" style="fill: none; stroke-dasharray: 3.7,1.6; stroke-dashoffset: 0; stroke: #000000"/>
   </g>
   <g id="line2d_32">
    <path d="M 1354.870588 352.938462 
L 1367.022588 352.938462 
L 1367.533176 279.653734 
L 1368.094824 230.444767 
L 1368.707529 195.496835 
L 1369.371294 169.632268 
L 1370.086118 149.873232 
L 1370.852 134.392604 
L 1371.72 121.34285 
L 1372.639059 110.909661 
L 1373.609176 102.413647 
L 1374.630353 95.387906 
L 1375.702588 89.501544 
L 1376.825882 84.513915 
L 1377.898118 80.585524 
L 1378.408706 152.226202 
L 1378.970353 199.769006 
L 1379.583059 233.049198 
L 1380.246824 257.261785 
L 1380.961647 275.398792 
L 1381.727529 289.298586 
L 1382.544471 300.14877 
L 1383.412471 308.747791 
L 1384.331529 315.65016 
L 1385.301647 321.251436 
L 1386.322824 325.840198 
L 1387.395059 329.631015 
L 1388.518353 332.786057 
L 1389.692706 335.429624 
L 1390.918118 337.658176 
L 1391.326588 338.30501 
L 1391.428706 349.400725 
L 1391.939294 282.65262 
L 1392.500941 236.56913 
L 1393.113647 203.116651 
L 1393.777412 177.896618 
L 1394.543294 157.125409 
L 1395.360235 140.963187 
L 1396.228235 128.067901 
L 1397.147294 117.568738 
L 1398.117412 108.876873 
L 1399.189647 101.254986 
L 1400.312941 94.854948 
L 1401.487294 89.415176 
L 1402.202118 86.583644 
L 1402.712706 158.028356 
L 1403.274353 205.366587 
L 1403.887059 238.435816 
L 1404.550824 262.433152 
L 1405.265647 280.352582 
L 1406.031529 294.034267 
L 1406.848471 304.66742 
L 1407.716471 313.051909 
L 1408.635529 319.743471 
L 1409.554588 324.888302 
L 1410.524706 329.135825 
L 1411.545882 332.66136 
L 1412.618118 335.601944 
L 1413.741412 338.065643 
L 1414.966824 340.218897 
L 1416.243294 342.019064 
L 1417.621882 343.583427 
L 1419.102588 344.933809 
L 1420.736471 346.127007 
L 1422.574588 347.19245 
L 1424.668 348.143592 
L 1427.067765 348.985654 
L 1429.927059 349.744435 
L 1433.348 350.412508 
L 1437.534824 350.995153 
L 1442.844941 351.499467 
L 1449.788941 351.924316 
L 1459.336941 352.272213 
L 1473.378118 352.544044 
L 1496.252471 352.74114 
L 1515.093176 352.814994 
L 1515.603765 279.775762 
L 1516.165412 230.565237 
L 1516.778118 195.615637 
L 1517.441882 169.749296 
L 1518.156706 149.98839 
L 1518.922588 134.505802 
L 1519.790588 121.453881 
L 1520.709647 111.018457 
L 1521.679765 102.520149 
L 1522.700941 95.492062 
L 1523.773176 89.603311 
L 1524.896471 84.613256 
L 1525.968706 80.682622 
L 1526.479294 152.322256 
L 1527.040941 199.863928 
L 1527.653647 233.142906 
L 1528.317412 257.354201 
L 1529.032235 275.489844 
L 1529.798118 289.388204 
L 1530.615059 300.236893 
L 1531.483059 308.834362 
L 1532.402118 315.735127 
L 1533.372235 321.334753 
L 1534.393412 325.921823 
L 1535.465647 329.710914 
L 1536.588941 332.864198 
L 1537.763294 335.505983 
L 1538.988706 337.732733 
L 1539.397176 338.378979 
L 1539.499294 349.326903 
L 1540.009882 282.579522 
L 1540.571529 236.496818 
L 1541.184235 203.045183 
L 1541.848 177.82605 
L 1542.613882 157.055862 
L 1543.430824 140.894706 
L 1544.298824 128.000529 
L 1545.217882 117.502514 
L 1546.188 108.811834 
L 1547.260235 101.191222 
L 1548.383529 94.792486 
L 1549.557882 89.354036 
L 1550.272706 86.523291 
L 1550.272706 86.523291 
" clip-path="url(#pa02c98eb0a)" style="fill: none; stroke: #000000; stroke-width: 7; stroke-linecap: round"/>
   </g>
   <g id="patch_22">
    <path d="M 1354.870588 352.938462 
L 1354.870588 86.4 
" style="fill: none; stroke: #ffffff; stroke-width: 1.25; stroke-linejoin: miter; stroke-linecap: square"/>
   </g>
   <g id="patch_23">
    <path d="M 1814.4 352.938462 
L 1814.4 86.4 
" style="fill: none; stroke: #ffffff; stroke-width: 1.25; stroke-linejoin: miter; stroke-linecap: square"/>
   </g>
   <g id="patch_24">
    <path d="M 1354.870588 352.938462 
L 1814.4 352.938462 
" style="fill: none; stroke: #ffffff; stroke-width: 1.25; stroke-linejoin: miter; stroke-linecap: square"/>
   </g>
   <g id="patch_25">
    <path d="M 1354.870588 86.4 
L 1814.4 86.4 
" style="fill: none; stroke: #ffffff; stroke-width: 1.25; stroke-linejoin: miter; stroke-linecap: square"/>
   </g>
   <g id="text_13">
    <!-- PNS (% Threshold) -->
    <g style="fill: #262626" transform="translate(1404.120607 77.560313) scale(0.42 -0.42)">
     <defs>
      <path id="ArialMT-4e" d="M 488 0 
L 488 4581 
L 1109 4581 
L 3516 984 
L 3516 4581 
L 4097 4581 
L 4097 0 
L 3475 0 
L 1069 3600 
L 1069 0 
L 488 0 
z
" transform="scale(0.015625)"/>
      <path id="ArialMT-25" d="M 372 3481 
Q 372 3972 619 4315 
Q 866 4659 1334 4659 
Q 1766 4659 2048 4351 
Q 2331 4044 2331 3447 
Q 2331 2866 2045 2552 
Q 1759 2238 1341 2238 
Q 925 2238 648 2547 
Q 372 2856 372 3481 
z
M 1350 4272 
Q 1141 4272 1002 4090 
Q 863 3909 863 3425 
Q 863 2984 1003 2804 
Q 1144 2625 1350 2625 
Q 1563 2625 1702 2806 
Q 1841 2988 1841 3469 
Q 1841 3913 1700 4092 
Q 1559 4272 1350 4272 
z
M 1353 -169 
L 3859 4659 
L 4316 4659 
L 1819 -169 
L 1353 -169 
z
M 3334 1075 
Q 3334 1569 3581 1911 
Q 3828 2253 4300 2253 
Q 4731 2253 5014 1945 
Q 5297 1638 5297 1041 
Q 5297 459 5011 145 
Q 4725 -169 4303 -169 
Q 3888 -169 3611 142 
Q 3334 453 3334 1075 
z
M 4316 1866 
Q 4103 1866 3964 1684 
Q 3825 1503 3825 1019 
Q 3825 581 3965 400 
Q 4106 219 4313 219 
Q 4528 219 4667 400 
Q 4806 581 4806 1063 
Q 4806 1506 4665 1686 
Q 4525 1866 4316 1866 
z
" transform="scale(0.015625)"/>
      <path id="ArialMT-68" d="M 422 0 
L 422 4581 
L 984 4581 
L 984 2938 
Q 1378 3394 1978 3394 
Q 2347 3394 2619 3248 
Q 2891 3103 3008 2847 
Q 3125 2591 3125 2103 
L 3125 0 
L 2563 0 
L 2563 2103 
Q 2563 2525 2380 2717 
Q 2197 2909 1863 2909 
Q 1613 2909 1392 2779 
Q 1172 2650 1078 2428 
Q 984 2206 984 1816 
L 984 0 
L 422 0 
z
" transform="scale(0.015625)"/>
      <path id="ArialMT-6f" d="M 213 1659 
Q 213 2581 725 3025 
Q 1153 3394 1769 3394 
Q 2453 3394 2887 2945 
Q 3322 2497 3322 1706 
Q 3322 1066 3130 698 
Q 2938 331 2570 128 
Q 2203 -75 1769 -75 
Q 1072 -75 642 372 
Q 213 819 213 1659 
z
M 791 1659 
Q 791 1022 1069 705 
Q 1347 388 1769 388 
Q 2188 388 2466 706 
Q 2744 1025 2744 1678 
Q 2744 2294 2464 2611 
Q 2184 2928 1769 2928 
Q 1347 2928 1069 2612 
Q 791 2297 791 1659 
z
" transform="scale(0.015625)"/>
     </defs>
     <use xlink:href="#ArialMT-50"/>
     <use xlink:href="#ArialMT-4e" x="66.699219"/>
     <use xlink:href="#ArialMT-53" x="138.916016"/>
     <use xlink:href="#ArialMT-20" x="205.615234"/>
     <use xlink:href="#ArialMT-28" x="233.398438"/>
     <use xlink:href="#ArialMT-25" x="266.699219"/>
     <use xlink:href="#ArialMT-20" x="355.615234"/>
     <use xlink:href="#ArialMT-54" x="381.648438"/>
     <use xlink:href="#ArialMT-68" x="442.732422"/>
     <use xlink:href="#ArialMT-72" x="498.347656"/>
     <use xlink:href="#ArialMT-65" x="531.648438"/>
     <use xlink:href="#ArialMT-73" x="587.263672"/>
     <use xlink:href="#ArialMT-68" x="637.263672"/>
     <use xlink:href="#ArialMT-6f" x="692.878906"/>
     <use xlink:href="#ArialMT-6c" x="748.494141"/>
     <use xlink:href="#ArialMT-64" x="770.710938"/>
     <use xlink:href="#ArialMT-29" x="826.326172"/>
    </g>
   </g>
  </g>
  <g id="axes_4">
   <g id="patch_26">
    <path d="M 252 640.8 
L 711.529412 640.8 
L 711.529412 374.261538 
L 252 374.261538 
z
" style="fill: #eaeaf2"/>
   </g>
   <g id="matplotlib.axis_7">
    <g id="xtick_13">
     <g id="line2d_33">
      <path d="M 252 640.8 
L 252 374.261538 
" clip-path="url(#p0a6457019a)" style="fill: none; stroke: #ffffff; stroke-linecap: round"/>
     </g>
     <g id="text_14">
      <!-- 0 -->
      <g style="fill: #262626" transform="translate(241.295195 677.857578) scale(0.385 -0.385)">
       <use xlink:href="#ArialMT-30"/>
      </g>
     </g>
    </g>
    <g id="xtick_14">
     <g id="line2d_34">
      <path d="M 379.647059 640.8 
L 379.647059 374.261538 
" clip-path="url(#p0a6457019a)" style="fill: none; stroke: #ffffff; stroke-linecap: round"/>
     </g>
     <g id="text_15">
      <!-- 25 -->
      <g style="fill: #262626" transform="translate(358.237449 677.857578) scale(0.385 -0.385)">
       <use xlink:href="#ArialMT-32"/>
       <use xlink:href="#ArialMT-35" x="55.615234"/>
      </g>
     </g>
    </g>
    <g id="xtick_15">
     <g id="line2d_35">
      <path d="M 507.294118 640.8 
L 507.294118 374.261538 
" clip-path="url(#p0a6457019a)" style="fill: none; stroke: #ffffff; stroke-linecap: round"/>
     </g>
     <g id="text_16">
      <!-- 50 -->
      <g style="fill: #262626" transform="translate(485.884508 677.857578) scale(0.385 -0.385)">
       <use xlink:href="#ArialMT-35"/>
       <use xlink:href="#ArialMT-30" x="55.615234"/>
      </g>
     </g>
    </g>
    <g id="xtick_16">
     <g id="line2d_36">
      <path d="M 634.941176 640.8 
L 634.941176 374.261538 
" clip-path="url(#p0a6457019a)" style="fill: none; stroke: #ffffff; stroke-linecap: round"/>
     </g>
     <g id="text_17">
      <!-- 75 -->
      <g style="fill: #262626" transform="translate(613.531567 677.857578) scale(0.385 -0.385)">
       <defs>
        <path id="ArialMT-37" d="M 303 3981 
L 303 4522 
L 3269 4522 
L 3269 4084 
Q 2831 3619 2401 2847 
Q 1972 2075 1738 1259 
Q 1569 684 1522 0 
L 944 0 
Q 953 541 1156 1306 
Q 1359 2072 1739 2783 
Q 2119 3494 2547 3981 
L 303 3981 
z
" transform="scale(0.015625)"/>
       </defs>
       <use xlink:href="#ArialMT-37"/>
       <use xlink:href="#ArialMT-35" x="55.615234"/>
      </g>
     </g>
    </g>
    <g id="text_18">
     <!-- Time [ms] -->
     <g style="fill: #262626" transform="translate(390.395018 719.572266) scale(0.42 -0.42)">
      <defs>
       <path id="ArialMT-5b" d="M 434 -1272 
L 434 4581 
L 1675 4581 
L 1675 4116 
L 997 4116 
L 997 -806 
L 1675 -806 
L 1675 -1272 
L 434 -1272 
z
" transform="scale(0.015625)"/>
       <path id="ArialMT-5d" d="M 1363 -1272 
L 122 -1272 
L 122 -806 
L 800 -806 
L 800 4116 
L 122 4116 
L 122 4581 
L 1363 4581 
L 1363 -1272 
z
" transform="scale(0.015625)"/>
      </defs>
      <use xlink:href="#ArialMT-54"/>
      <use xlink:href="#ArialMT-69" x="57.333984"/>
      <use xlink:href="#ArialMT-6d" x="79.550781"/>
      <use xlink:href="#ArialMT-65" x="162.851562"/>
      <use xlink:href="#ArialMT-20" x="218.466797"/>
      <use xlink:href="#ArialMT-5b" x="246.25"/>
      <use xlink:href="#ArialMT-6d" x="274.033203"/>
      <use xlink:href="#ArialMT-73" x="357.333984"/>
      <use xlink:href="#ArialMT-5d" x="407.333984"/>
     </g>
    </g>
   </g>
   <g id="matplotlib.axis_8">
    <g id="ytick_10">
     <g id="line2d_37">
      <path d="M 252 628.684615 
L 711.529412 628.684615 
" clip-path="url(#p0a6457019a)" style="fill: none; stroke: #ffffff; stroke-linecap: round"/>
     </g>
     <g id="text_19">
      <!-- -200 -->
      <g style="fill: #262626" transform="translate(165.451875 642.463404) scale(0.385 -0.385)">
       <use xlink:href="#ArialMT-2d"/>
       <use xlink:href="#ArialMT-32" x="33.300781"/>
       <use xlink:href="#ArialMT-30" x="88.916016"/>
       <use xlink:href="#ArialMT-30" x="144.53125"/>
      </g>
     </g>
    </g>
    <g id="ytick_11">
     <g id="line2d_38">
      <path d="M 252 507.530769 
L 711.529412 507.530769 
" clip-path="url(#p0a6457019a)" style="fill: none; stroke: #ffffff; stroke-linecap: round"/>
     </g>
     <g id="text_20">
      <!-- 0 -->
      <g style="fill: #262626" transform="translate(221.090391 521.309558) scale(0.385 -0.385)">
       <use xlink:href="#ArialMT-30"/>
      </g>
     </g>
    </g>
    <g id="ytick_12">
     <g id="line2d_39">
      <path d="M 252 386.376923 
L 711.529412 386.376923 
" clip-path="url(#p0a6457019a)" style="fill: none; stroke: #ffffff; stroke-linecap: round"/>
     </g>
     <g id="text_21">
      <!-- 200 -->
      <g style="fill: #262626" transform="translate(178.271172 400.155712) scale(0.385 -0.385)">
       <use xlink:href="#ArialMT-32"/>
       <use xlink:href="#ArialMT-30" x="55.615234"/>
       <use xlink:href="#ArialMT-30" x="111.230469"/>
      </g>
     </g>
    </g>
    <g id="text_22">
     <!-- GrOpt -->
     <g style="fill: #262626" transform="translate(153.104375 564.703269) rotate(-90) scale(0.42 -0.42)">
      <defs>
       <path id="ArialMT-4f" d="M 309 2231 
Q 309 3372 921 4017 
Q 1534 4663 2503 4663 
Q 3138 4663 3647 4359 
Q 4156 4056 4423 3514 
Q 4691 2972 4691 2284 
Q 4691 1588 4409 1038 
Q 4128 488 3612 205 
Q 3097 -78 2500 -78 
Q 1853 -78 1343 234 
Q 834 547 571 1087 
Q 309 1628 309 2231 
z
M 934 2222 
Q 934 1394 1379 917 
Q 1825 441 2497 441 
Q 3181 441 3623 922 
Q 4066 1403 4066 2288 
Q 4066 2847 3877 3264 
Q 3688 3681 3323 3911 
Q 2959 4141 2506 4141 
Q 1863 4141 1398 3698 
Q 934 3256 934 2222 
z
" transform="scale(0.015625)"/>
       <path id="ArialMT-70" d="M 422 -1272 
L 422 3319 
L 934 3319 
L 934 2888 
Q 1116 3141 1344 3267 
Q 1572 3394 1897 3394 
Q 2322 3394 2647 3175 
Q 2972 2956 3137 2557 
Q 3303 2159 3303 1684 
Q 3303 1175 3120 767 
Q 2938 359 2589 142 
Q 2241 -75 1856 -75 
Q 1575 -75 1351 44 
Q 1128 163 984 344 
L 984 -1272 
L 422 -1272 
z
M 931 1641 
Q 931 1000 1190 694 
Q 1450 388 1819 388 
Q 2194 388 2461 705 
Q 2728 1022 2728 1688 
Q 2728 2322 2467 2637 
Q 2206 2953 1844 2953 
Q 1484 2953 1207 2617 
Q 931 2281 931 1641 
z
" transform="scale(0.015625)"/>
      </defs>
      <use xlink:href="#ArialMT-47"/>
      <use xlink:href="#ArialMT-72" x="77.783203"/>
      <use xlink:href="#ArialMT-4f" x="111.083984"/>
      <use xlink:href="#ArialMT-70" x="188.867188"/>
      <use xlink:href="#ArialMT-74" x="244.482422"/>
     </g>
    </g>
   </g>
   <g id="patch_27">
    <path d="M 252 640.8 
L 264.254118 640.8 
L 264.254118 374.261538 
L 252 374.261538 
z
" clip-path="url(#p0a6457019a)" style="fill: #ff0000; opacity: 0.1; stroke: #ffffff; stroke-linejoin: miter"/>
   </g>
   <g id="patch_28">
    <path d="M 264.254118 640.8 
L 408.444235 640.8 
L 408.444235 374.261538 
L 264.254118 374.261538 
z
" clip-path="url(#p0a6457019a)" style="fill: #0000ff; opacity: 0.1; stroke: #ffffff; stroke-linejoin: miter"/>
   </g>
   <g id="patch_29">
    <path d="M 408.444235 640.8 
L 500.350118 640.8 
L 500.350118 374.261538 
L 408.444235 374.261538 
z
" clip-path="url(#p0a6457019a)" style="fill: #008000; opacity: 0.1; stroke: #ffffff; stroke-linejoin: miter"/>
   </g>
   <g id="line2d_40">
    <path d="M 252 507.530769 
L 711.529412 507.530769 
" clip-path="url(#p0a6457019a)" style="fill: none; stroke: #000000; stroke-linecap: round"/>
   </g>
   <g id="line2d_41">
    <path d="M 252 386.376923 
L 711.529412 386.376923 
" clip-path="url(#p0a6457019a)" style="fill: none; stroke-dasharray: 3.7,1.6; stroke-dashoffset: 0; stroke: #000000"/>
   </g>
   <g id="line2d_42">
    <path d="M 252 628.684615 
L 711.529412 628.684615 
" clip-path="url(#p0a6457019a)" style="fill: none; stroke-dasharray: 3.7,1.6; stroke-dashoffset: 0; stroke: #000000"/>
   </g>
   <g id="line2d_43">
    <path d="M 252 507.530769 
L 264.254118 507.530769 
L 264.662588 516.172331 
L 265.071059 521.365496 
L 266.296471 531.197976 
L 268.338824 545.530704 
L 271.606588 566.761519 
L 276.916706 599.613834 
L 281.409882 626.687656 
L 281.818353 627.473077 
L 298.157176 627.473077 
L 298.565647 625.990376 
L 298.974118 617.354589 
L 299.382588 612.3707 
L 300.608 602.270019 
L 302.650353 587.52664 
L 305.918118 565.766519 
L 310.819765 534.802426 
L 317.763765 492.473545 
L 326.750118 439.221429 
L 335.328 389.262297 
L 335.736471 387.588462 
L 345.948235 387.588462 
L 346.356706 388.225676 
L 346.765176 396.861472 
L 347.173647 402.76045 
L 348.399059 413.353177 
L 350.441412 428.614955 
L 353.300706 448.185912 
L 357.385412 474.577212 
L 362.695529 507.530769 
L 390.063059 507.530769 
L 390.471529 516.16961 
L 390.88 521.12038 
L 392.105412 530.739053 
L 394.147765 544.802481 
L 397.824 568.236073 
L 400.274824 583.324331 
L 400.683294 578.738095 
L 401.500235 561.465419 
L 402.317176 553.065896 
L 403.951059 539.33072 
L 405.993412 524.272161 
L 408.444235 507.530769 
L 408.444235 507.530769 
" clip-path="url(#p0a6457019a)" style="fill: none; stroke: #000000; stroke-width: 7; stroke-linecap: round"/>
   </g>
   <g id="patch_30">
    <path d="M 252 640.8 
L 252 374.261538 
" style="fill: none; stroke: #ffffff; stroke-width: 1.25; stroke-linejoin: miter; stroke-linecap: square"/>
   </g>
   <g id="patch_31">
    <path d="M 711.529412 640.8 
L 711.529412 374.261538 
" style="fill: none; stroke: #ffffff; stroke-width: 1.25; stroke-linejoin: miter; stroke-linecap: square"/>
   </g>
   <g id="patch_32">
    <path d="M 252 640.8 
L 711.529412 640.8 
" style="fill: none; stroke: #ffffff; stroke-width: 1.25; stroke-linejoin: miter; stroke-linecap: square"/>
   </g>
   <g id="patch_33">
    <path d="M 252 374.261538 
L 711.529412 374.261538 
" style="fill: none; stroke: #ffffff; stroke-width: 1.25; stroke-linejoin: miter; stroke-linecap: square"/>
   </g>
  </g>
  <g id="axes_5">
   <g id="patch_34">
    <path d="M 803.435294 640.8 
L 1262.964706 640.8 
L 1262.964706 374.261538 
L 803.435294 374.261538 
z
" style="fill: #eaeaf2"/>
   </g>
   <g id="matplotlib.axis_9">
    <g id="xtick_17">
     <g id="line2d_44">
      <path d="M 803.435294 640.8 
L 803.435294 374.261538 
" clip-path="url(#pd6ff68361a)" style="fill: none; stroke: #ffffff; stroke-linecap: round"/>
     </g>
     <g id="text_23">
      <!-- 0 -->
      <g style="fill: #262626" transform="translate(792.730489 677.857578) scale(0.385 -0.385)">
       <use xlink:href="#ArialMT-30"/>
      </g>
     </g>
    </g>
    <g id="xtick_18">
     <g id="line2d_45">
      <path d="M 931.082353 640.8 
L 931.082353 374.261538 
" clip-path="url(#pd6ff68361a)" style="fill: none; stroke: #ffffff; stroke-linecap: round"/>
     </g>
     <g id="text_24">
      <!-- 25 -->
      <g style="fill: #262626" transform="translate(909.672744 677.857578) scale(0.385 -0.385)">
       <use xlink:href="#ArialMT-32"/>
       <use xlink:href="#ArialMT-35" x="55.615234"/>
      </g>
     </g>
    </g>
    <g id="xtick_19">
     <g id="line2d_46">
      <path d="M 1058.729412 640.8 
L 1058.729412 374.261538 
" clip-path="url(#pd6ff68361a)" style="fill: none; stroke: #ffffff; stroke-linecap: round"/>
     </g>
     <g id="text_25">
      <!-- 50 -->
      <g style="fill: #262626" transform="translate(1037.319802 677.857578) scale(0.385 -0.385)">
       <use xlink:href="#ArialMT-35"/>
       <use xlink:href="#ArialMT-30" x="55.615234"/>
      </g>
     </g>
    </g>
    <g id="xtick_20">
     <g id="line2d_47">
      <path d="M 1186.376471 640.8 
L 1186.376471 374.261538 
" clip-path="url(#pd6ff68361a)" style="fill: none; stroke: #ffffff; stroke-linecap: round"/>
     </g>
     <g id="text_26">
      <!-- 75 -->
      <g style="fill: #262626" transform="translate(1164.966861 677.857578) scale(0.385 -0.385)">
       <use xlink:href="#ArialMT-37"/>
       <use xlink:href="#ArialMT-35" x="55.615234"/>
      </g>
     </g>
    </g>
    <g id="text_27">
     <!-- Time [ms] -->
     <g style="fill: #262626" transform="translate(941.830312 719.572266) scale(0.42 -0.42)">
      <use xlink:href="#ArialMT-54"/>
      <use xlink:href="#ArialMT-69" x="57.333984"/>
      <use xlink:href="#ArialMT-6d" x="79.550781"/>
      <use xlink:href="#ArialMT-65" x="162.851562"/>
      <use xlink:href="#ArialMT-20" x="218.466797"/>
      <use xlink:href="#ArialMT-5b" x="246.25"/>
      <use xlink:href="#ArialMT-6d" x="274.033203"/>
      <use xlink:href="#ArialMT-73" x="357.333984"/>
      <use xlink:href="#ArialMT-5d" x="407.333984"/>
     </g>
    </g>
   </g>
   <g id="matplotlib.axis_10">
    <g id="ytick_13">
     <g id="line2d_48">
      <path d="M 803.435294 628.684615 
L 1262.964706 628.684615 
" clip-path="url(#pd6ff68361a)" style="fill: none; stroke: #ffffff; stroke-linecap: round"/>
     </g>
     <g id="text_28">
      <!-- -200 -->
      <g style="fill: #262626" transform="translate(716.887169 642.463404) scale(0.385 -0.385)">
       <use xlink:href="#ArialMT-2d"/>
       <use xlink:href="#ArialMT-32" x="33.300781"/>
       <use xlink:href="#ArialMT-30" x="88.916016"/>
       <use xlink:href="#ArialMT-30" x="144.53125"/>
      </g>
     </g>
    </g>
    <g id="ytick_14">
     <g id="line2d_49">
      <path d="M 803.435294 507.530769 
L 1262.964706 507.530769 
" clip-path="url(#pd6ff68361a)" style="fill: none; stroke: #ffffff; stroke-linecap: round"/>
     </g>
     <g id="text_29">
      <!-- 0 -->
      <g style="fill: #262626" transform="translate(772.525685 521.309558) scale(0.385 -0.385)">
       <use xlink:href="#ArialMT-30"/>
      </g>
     </g>
    </g>
    <g id="ytick_15">
     <g id="line2d_50">
      <path d="M 803.435294 386.376923 
L 1262.964706 386.376923 
" clip-path="url(#pd6ff68361a)" style="fill: none; stroke: #ffffff; stroke-linecap: round"/>
     </g>
     <g id="text_30">
      <!-- 200 -->
      <g style="fill: #262626" transform="translate(729.706466 400.155712) scale(0.385 -0.385)">
       <use xlink:href="#ArialMT-32"/>
       <use xlink:href="#ArialMT-30" x="55.615234"/>
       <use xlink:href="#ArialMT-30" x="111.230469"/>
      </g>
     </g>
    </g>
   </g>
   <g id="patch_35">
    <path d="M 803.435294 640.8 
L 815.689412 640.8 
L 815.689412 374.261538 
L 803.435294 374.261538 
z
" clip-path="url(#pd6ff68361a)" style="fill: #ff0000; opacity: 0.1; stroke: #ffffff; stroke-linejoin: miter"/>
   </g>
   <g id="patch_36">
    <path d="M 815.689412 640.8 
L 959.879529 640.8 
L 959.879529 374.261538 
L 815.689412 374.261538 
z
" clip-path="url(#pd6ff68361a)" style="fill: #0000ff; opacity: 0.1; stroke: #ffffff; stroke-linejoin: miter"/>
   </g>
   <g id="patch_37">
    <path d="M 959.879529 640.8 
L 1051.785412 640.8 
L 1051.785412 374.261538 
L 959.879529 374.261538 
z
" clip-path="url(#pd6ff68361a)" style="fill: #008000; opacity: 0.1; stroke: #ffffff; stroke-linejoin: miter"/>
   </g>
   <g id="line2d_51">
    <path d="M 803.435294 507.530769 
L 1262.964706 507.530769 
" clip-path="url(#pd6ff68361a)" style="fill: none; stroke: #000000; stroke-linecap: round"/>
   </g>
   <g id="line2d_52">
    <path d="M 803.435294 386.376923 
L 1262.964706 386.376923 
" clip-path="url(#pd6ff68361a)" style="fill: none; stroke-dasharray: 3.7,1.6; stroke-dashoffset: 0; stroke: #000000"/>
   </g>
   <g id="line2d_53">
    <path d="M 803.435294 628.684615 
L 1262.964706 628.684615 
" clip-path="url(#pd6ff68361a)" style="fill: none; stroke-dasharray: 3.7,1.6; stroke-dashoffset: 0; stroke: #000000"/>
   </g>
   <g id="line2d_54">
    <path d="M 803.435294 507.530769 
L 815.280941 507.530769 
L 815.689412 615.550295 
L 816.097882 572.445329 
L 816.506353 551.121605 
L 816.914824 548.130717 
L 817.323294 546.245989 
L 818.140235 543.962814 
L 818.957176 542.602586 
L 819.774118 541.685705 
L 820.999529 540.749083 
L 822.224941 540.106614 
L 823.858824 539.503962 
L 825.901176 538.983155 
L 828.760471 538.491643 
L 832.436706 538.076534 
L 832.845176 517.348528 
L 833.253647 507.530769 
L 849.184 507.530769 
L 849.592471 488.997011 
L 850.000941 399.583426 
L 850.409412 445.23216 
L 850.817882 462.849312 
L 851.226353 465.794721 
L 851.634824 467.689764 
L 852.451765 470.03638 
L 853.268706 471.468146 
L 854.085647 472.451747 
L 855.311059 473.475941 
L 856.536471 474.192663 
L 858.170353 474.878085 
L 860.212706 475.482537 
L 863.072 476.065272 
L 866.748235 476.567605 
L 875.734588 477.450702 
L 883.904 477.875888 
L 886.354824 477.926095 
L 886.763294 486.60783 
L 887.171765 507.530769 
L 896.975059 507.530769 
L 897.383529 515.495953 
L 897.792 615.478212 
L 898.608941 554.670534 
L 899.017412 551.250595 
L 899.425882 549.080269 
L 900.242824 546.412301 
L 901.059765 544.778568 
L 901.876706 543.656957 
L 903.102118 542.380377 
L 904.327529 541.540403 
L 905.961412 540.719456 
L 908.003765 539.988357 
L 910.454588 539.355237 
L 913.313882 538.826154 
L 913.722353 538.803164 
L 914.130824 507.530769 
L 941.089882 507.530769 
L 941.498353 615.516284 
L 941.906824 569.415384 
L 942.315294 550.123421 
L 942.723765 547.255231 
L 943.132235 545.447077 
L 943.949176 543.260654 
L 944.766118 541.963942 
L 945.583059 541.094758 
L 946.808471 540.213578 
L 948.033882 539.614901 
L 949.667765 539.059424 
L 950.893176 538.864136 
L 951.301647 538.771137 
L 951.710118 450.202818 
L 952.118588 399.577063 
L 952.527059 399.57602 
L 952.935529 452.084068 
L 953.344 457.983438 
L 953.752471 461.513409 
L 954.569412 465.776245 
L 955.386353 468.30567 
L 956.203294 470.001696 
L 957.020235 471.226364 
L 958.245647 472.541535 
L 959.062588 473.195185 
L 959.471059 473.418067 
L 959.471059 473.418067 
" clip-path="url(#pd6ff68361a)" style="fill: none; stroke: #000000; stroke-width: 7; stroke-linecap: round"/>
   </g>
   <g id="patch_38">
    <path d="M 803.435294 640.8 
L 803.435294 374.261538 
" style="fill: none; stroke: #ffffff; stroke-width: 1.25; stroke-linejoin: miter; stroke-linecap: square"/>
   </g>
   <g id="patch_39">
    <path d="M 1262.964706 640.8 
L 1262.964706 374.261538 
" style="fill: none; stroke: #ffffff; stroke-width: 1.25; stroke-linejoin: miter; stroke-linecap: square"/>
   </g>
   <g id="patch_40">
    <path d="M 803.435294 640.8 
L 1262.964706 640.8 
" style="fill: none; stroke: #ffffff; stroke-width: 1.25; stroke-linejoin: miter; stroke-linecap: square"/>
   </g>
   <g id="patch_41">
    <path d="M 803.435294 374.261538 
L 1262.964706 374.261538 
" style="fill: none; stroke: #ffffff; stroke-width: 1.25; stroke-linejoin: miter; stroke-linecap: square"/>
   </g>
  </g>
  <g id="axes_6">
   <g id="patch_42">
    <path d="M 1354.870588 640.8 
L 1814.4 640.8 
L 1814.4 374.261538 
L 1354.870588 374.261538 
z
" style="fill: #eaeaf2"/>
   </g>
   <g id="matplotlib.axis_11">
    <g id="xtick_21">
     <g id="line2d_55">
      <path d="M 1354.870588 640.8 
L 1354.870588 374.261538 
" clip-path="url(#p640e360641)" style="fill: none; stroke: #ffffff; stroke-linecap: round"/>
     </g>
     <g id="text_31">
      <!-- 0 -->
      <g style="fill: #262626" transform="translate(1344.165784 677.857578) scale(0.385 -0.385)">
       <use xlink:href="#ArialMT-30"/>
      </g>
     </g>
    </g>
    <g id="xtick_22">
     <g id="line2d_56">
      <path d="M 1482.517647 640.8 
L 1482.517647 374.261538 
" clip-path="url(#p640e360641)" style="fill: none; stroke: #ffffff; stroke-linecap: round"/>
     </g>
     <g id="text_32">
      <!-- 25 -->
      <g style="fill: #262626" transform="translate(1461.108038 677.857578) scale(0.385 -0.385)">
       <use xlink:href="#ArialMT-32"/>
       <use xlink:href="#ArialMT-35" x="55.615234"/>
      </g>
     </g>
    </g>
    <g id="xtick_23">
     <g id="line2d_57">
      <path d="M 1610.164706 640.8 
L 1610.164706 374.261538 
" clip-path="url(#p640e360641)" style="fill: none; stroke: #ffffff; stroke-linecap: round"/>
     </g>
     <g id="text_33">
      <!-- 50 -->
      <g style="fill: #262626" transform="translate(1588.755097 677.857578) scale(0.385 -0.385)">
       <use xlink:href="#ArialMT-35"/>
       <use xlink:href="#ArialMT-30" x="55.615234"/>
      </g>
     </g>
    </g>
    <g id="xtick_24">
     <g id="line2d_58">
      <path d="M 1737.811765 640.8 
L 1737.811765 374.261538 
" clip-path="url(#p640e360641)" style="fill: none; stroke: #ffffff; stroke-linecap: round"/>
     </g>
     <g id="text_34">
      <!-- 75 -->
      <g style="fill: #262626" transform="translate(1716.402155 677.857578) scale(0.385 -0.385)">
       <use xlink:href="#ArialMT-37"/>
       <use xlink:href="#ArialMT-35" x="55.615234"/>
      </g>
     </g>
    </g>
    <g id="text_35">
     <!-- Time [ms] -->
     <g style="fill: #262626" transform="translate(1493.265607 719.572266) scale(0.42 -0.42)">
      <use xlink:href="#ArialMT-54"/>
      <use xlink:href="#ArialMT-69" x="57.333984"/>
      <use xlink:href="#ArialMT-6d" x="79.550781"/>
      <use xlink:href="#ArialMT-65" x="162.851562"/>
      <use xlink:href="#ArialMT-20" x="218.466797"/>
      <use xlink:href="#ArialMT-5b" x="246.25"/>
      <use xlink:href="#ArialMT-6d" x="274.033203"/>
      <use xlink:href="#ArialMT-73" x="357.333984"/>
      <use xlink:href="#ArialMT-5d" x="407.333984"/>
     </g>
    </g>
   </g>
   <g id="matplotlib.axis_12">
    <g id="ytick_16">
     <g id="line2d_59">
      <path d="M 1354.870588 640.8 
L 1814.4 640.8 
" clip-path="url(#p640e360641)" style="fill: none; stroke: #ffffff; stroke-linecap: round"/>
     </g>
     <g id="text_36">
      <!-- 0 -->
      <g style="fill: #262626" transform="translate(1323.960979 654.578789) scale(0.385 -0.385)">
       <use xlink:href="#ArialMT-30"/>
      </g>
     </g>
    </g>
    <g id="ytick_17">
     <g id="line2d_60">
      <path d="M 1354.870588 508.850267 
L 1814.4 508.850267 
" clip-path="url(#p640e360641)" style="fill: none; stroke: #ffffff; stroke-linecap: round"/>
     </g>
     <g id="text_37">
      <!-- 50 -->
      <g style="fill: #262626" transform="translate(1302.551369 522.629056) scale(0.385 -0.385)">
       <use xlink:href="#ArialMT-35"/>
       <use xlink:href="#ArialMT-30" x="55.615234"/>
      </g>
     </g>
    </g>
    <g id="ytick_18">
     <g id="line2d_61">
      <path d="M 1354.870588 376.900533 
L 1814.4 376.900533 
" clip-path="url(#p640e360641)" style="fill: none; stroke: #ffffff; stroke-linecap: round"/>
     </g>
     <g id="text_38">
      <!-- 100 -->
      <g style="fill: #262626" transform="translate(1281.14176 390.679322) scale(0.385 -0.385)">
       <use xlink:href="#ArialMT-31"/>
       <use xlink:href="#ArialMT-30" x="55.615234"/>
       <use xlink:href="#ArialMT-30" x="111.230469"/>
      </g>
     </g>
    </g>
   </g>
   <g id="patch_43">
    <path d="M 1354.870588 640.8 
L 1367.124706 640.8 
L 1367.124706 374.261538 
L 1354.870588 374.261538 
z
" clip-path="url(#p640e360641)" style="fill: #ff0000; opacity: 0.1; stroke: #ffffff; stroke-linejoin: miter"/>
   </g>
   <g id="patch_44">
    <path d="M 1367.124706 640.8 
L 1511.314824 640.8 
L 1511.314824 374.261538 
L 1367.124706 374.261538 
z
" clip-path="url(#p640e360641)" style="fill: #0000ff; opacity: 0.1; stroke: #ffffff; stroke-linejoin: miter"/>
   </g>
   <g id="patch_45">
    <path d="M 1511.314824 640.8 
L 1603.220706 640.8 
L 1603.220706 374.261538 
L 1511.314824 374.261538 
z
" clip-path="url(#p640e360641)" style="fill: #008000; opacity: 0.1; stroke: #ffffff; stroke-linejoin: miter"/>
   </g>
   <g id="line2d_62">
    <path d="M 1354.870588 640.8 
L 1814.4 640.8 
" clip-path="url(#p640e360641)" style="fill: none; stroke: #000000; stroke-linecap: round"/>
   </g>
   <g id="line2d_63">
    <path d="M 1354.870588 403.29048 
L 1814.4 403.29048 
" clip-path="url(#p640e360641)" style="fill: none; stroke-dasharray: 3.7,1.6; stroke-dashoffset: 0; stroke: #000000"/>
   </g>
   <g id="line2d_64">
    <path d="M 1354.870588 640.8 
L 1366.716235 640.8 
L 1367.124706 452.943668 
L 1367.533176 405.637858 
L 1383.872 405.663609 
L 1385.097412 509.548146 
L 1385.914353 544.443874 
L 1386.731294 565.637942 
L 1387.548235 579.827044 
L 1388.365176 589.956003 
L 1389.182118 597.523849 
L 1389.999059 603.374325 
L 1390.816 608.018645 
L 1392.041412 613.409665 
L 1393.266824 617.492777 
L 1394.492235 620.676716 
L 1395.717647 623.217699 
L 1396.943059 625.284264 
L 1398.168471 626.991659 
L 1399.802353 628.846724 
L 1400.619294 629.63201 
L 1401.027765 619.373138 
L 1401.436235 442.550758 
L 1401.844706 405.667054 
L 1419.408941 405.659468 
L 1420.225882 405.952193 
L 1423.493647 406.409153 
L 1430.029176 407.059709 
L 1436.973176 407.552712 
L 1437.790118 407.505321 
L 1438.198588 422.56917 
L 1438.607059 468.741102 
L 1439.015529 499.278569 
L 1439.832471 537.176168 
L 1440.649412 559.753813 
L 1441.466353 574.721037 
L 1442.283294 585.356273 
L 1443.100235 593.291282 
L 1443.917176 599.429937 
L 1444.734118 604.313464 
L 1445.959529 610.004885 
L 1447.184941 614.342069 
L 1448.410353 617.747945 
L 1448.818824 632.57718 
L 1449.227294 465.217347 
L 1449.635765 404.357199 
L 1453.720471 404.514168 
L 1454.537412 404.823748 
L 1457.805176 405.377751 
L 1463.523765 406.076988 
L 1465.157647 406.16937 
L 1465.566118 460.442255 
L 1465.974588 495.675515 
L 1466.791529 538.530666 
L 1467.608471 563.492151 
L 1468.425412 579.728085 
L 1469.242353 591.065471 
L 1470.059294 599.384202 
L 1470.876235 605.715153 
L 1471.693176 610.670521 
L 1472.510118 614.636539 
L 1473.735529 619.26677 
L 1474.960941 622.783207 
L 1476.186353 625.522996 
L 1477.411765 627.702078 
L 1478.637176 629.464843 
L 1479.862588 630.911271 
L 1481.496471 632.468032 
L 1483.130353 633.705497 
L 1485.172706 634.923848 
L 1487.215059 635.87472 
L 1489.665882 636.761472 
L 1492.525176 637.546086 
L 1492.933647 449.843958 
L 1493.342118 407.878277 
L 1501.511529 407.412201 
L 1502.328471 407.067139 
L 1502.736941 406.972722 
L 1503.145412 560.785427 
L 1503.553882 532.80448 
L 1503.962353 405.412861 
L 1504.370824 404.677929 
L 1508.864 405.360117 
L 1510.497882 405.557227 
L 1510.906353 405.50131 
L 1510.906353 405.50131 
" clip-path="url(#p640e360641)" style="fill: none; stroke: #000000; stroke-width: 7; stroke-linecap: round"/>
   </g>
   <g id="patch_46">
    <path d="M 1354.870588 640.8 
L 1354.870588 374.261538 
" style="fill: none; stroke: #ffffff; stroke-width: 1.25; stroke-linejoin: miter; stroke-linecap: square"/>
   </g>
   <g id="patch_47">
    <path d="M 1814.4 640.8 
L 1814.4 374.261538 
" style="fill: none; stroke: #ffffff; stroke-width: 1.25; stroke-linejoin: miter; stroke-linecap: square"/>
   </g>
   <g id="patch_48">
    <path d="M 1354.870588 640.8 
L 1814.4 640.8 
" style="fill: none; stroke: #ffffff; stroke-width: 1.25; stroke-linejoin: miter; stroke-linecap: square"/>
   </g>
   <g id="patch_49">
    <path d="M 1354.870588 374.261538 
L 1814.4 374.261538 
" style="fill: none; stroke: #ffffff; stroke-width: 1.25; stroke-linejoin: miter; stroke-linecap: square"/>
   </g>
  </g>
 </g>
 <defs>
  <clipPath id="ped940825e1">
   <rect x="252" y="86.4" width="459.529412" height="266.538462"/>
  </clipPath>
  <clipPath id="pa1e2f9fdca">
   <rect x="803.435294" y="86.4" width="459.529412" height="266.538462"/>
  </clipPath>
  <clipPath id="pa02c98eb0a">
   <rect x="1354.870588" y="86.4" width="459.529412" height="266.538462"/>
  </clipPath>
  <clipPath id="p0a6457019a">
   <rect x="252" y="374.261538" width="459.529412" height="266.538462"/>
  </clipPath>
  <clipPath id="pd6ff68361a">
   <rect x="803.435294" y="374.261538" width="459.529412" height="266.538462"/>
  </clipPath>
  <clipPath id="p640e360641">
   <rect x="1354.870588" y="374.261538" width="459.529412" height="266.538462"/>
  </clipPath>
 </defs>
</svg>
