<?xml version="1.0" encoding="utf-8" standalone="no"?>
<!DOCTYPE svg PUBLIC "-//W3C//DTD SVG 1.1//EN"
  "http://www.w3.org/Graphics/SVG/1.1/DTD/svg11.dtd">
<svg xmlns:xlink="http://www.w3.org/1999/xlink" width="2016pt" height="936pt" viewBox="0 0 2016 936" xmlns="http://www.w3.org/2000/svg" version="1.1">
 <metadata>
  <rdf:RDF xmlns:dc="http://purl.org/dc/elements/1.1/" xmlns:cc="http://creativecommons.org/ns#" xmlns:rdf="http://www.w3.org/1999/02/22-rdf-syntax-ns#">
   <cc:Work>
    <dc:type rdf:resource="http://purl.org/dc/dcmitype/StillImage"/>
    <dc:date>2025-05-06T15:06:00.695424</dc:date>
    <dc:format>image/svg+xml</dc:format>
    <dc:creator>
     <cc:Agent>
      <dc:title>Matplotlib v3.9.0, https://matplotlib.org/</dc:title>
     </cc:Agent>
    </dc:creator>
   </cc:Work>
  </rdf:RDF>
 </metadata>
 <defs>
  <style type="text/css">*{stroke-linejoin: round; stroke-linecap: butt}</style>
 </defs>
 <g id="figure_1">
  <g id="patch_1">
   <path d="M 0 936 
L 2016 936 
L 2016 0 
L 0 0 
L 0 936 
z
" style="fill: none; opacity: 0"/>
  </g>
  <g id="axes_1">
   <g id="patch_2">
    <path d="M 252 458.82 
L 711.529412 458.82 
L 711.529412 112.32 
L 252 112.32 
z
" style="fill: #eaeaf2"/>
   </g>
   <g id="matplotlib.axis_1">
    <g id="xtick_1">
     <g id="line2d_1">
      <path d="M 252 458.82 
L 252 112.32 
" clip-path="url(#pe02dbdb6f3)" style="fill: none; stroke: #ffffff; stroke-linecap: round"/>
     </g>
    </g>
    <g id="xtick_2">
     <g id="line2d_2">
      <path d="M 539.205882 458.82 
L 539.205882 112.32 
" clip-path="url(#pe02dbdb6f3)" style="fill: none; stroke: #ffffff; stroke-linecap: round"/>
     </g>
    </g>
   </g>
   <g id="matplotlib.axis_2">
    <g id="ytick_1">
     <g id="line2d_3">
      <path d="M 252 458.82 
L 711.529412 458.82 
" clip-path="url(#pe02dbdb6f3)" style="fill: none; stroke: #ffffff; stroke-linecap: round"/>
     </g>
     <g id="text_1">
      <!-- -45 -->
      <g style="fill: #262626" transform="translate(186.861484 472.598789) scale(0.385 -0.385)">
       <defs>
        <path id="ArialMT-2d" d="M 203 1375 
L 203 1941 
L 1931 1941 
L 1931 1375 
L 203 1375 
z
" transform="scale(0.015625)"/>
        <path id="ArialMT-34" d="M 2069 0 
L 2069 1097 
L 81 1097 
L 81 1613 
L 2172 4581 
L 2631 4581 
L 2631 1613 
L 3250 1613 
L 3250 1097 
L 2631 1097 
L 2631 0 
L 2069 0 
z
M 2069 1613 
L 2069 3678 
L 634 1613 
L 2069 1613 
z
" transform="scale(0.015625)"/>
        <path id="ArialMT-35" d="M 266 1200 
L 856 1250 
Q 922 819 1161 601 
Q 1400 384 1738 384 
Q 2144 384 2425 690 
Q 2706 997 2706 1503 
Q 2706 1984 2436 2262 
Q 2166 2541 1728 2541 
Q 1456 2541 1237 2417 
Q 1019 2294 894 2097 
L 366 2166 
L 809 4519 
L 3088 4519 
L 3088 3981 
L 1259 3981 
L 1013 2750 
Q 1425 3038 1878 3038 
Q 2478 3038 2890 2622 
Q 3303 2206 3303 1553 
Q 3303 931 2941 478 
Q 2500 -78 1738 -78 
Q 1113 -78 717 272 
Q 322 622 266 1200 
z
" transform="scale(0.015625)"/>
       </defs>
       <use xlink:href="#ArialMT-2d"/>
       <use xlink:href="#ArialMT-34" x="33.300781"/>
       <use xlink:href="#ArialMT-35" x="88.916016"/>
      </g>
     </g>
    </g>
    <g id="ytick_2">
     <g id="line2d_4">
      <path d="M 252 285.57 
L 711.529412 285.57 
" clip-path="url(#pe02dbdb6f3)" style="fill: none; stroke: #ffffff; stroke-linecap: round"/>
     </g>
     <g id="text_2">
      <!-- 0 -->
      <g style="fill: #262626" transform="translate(221.090391 299.348789) scale(0.385 -0.385)">
       <defs>
        <path id="ArialMT-30" d="M 266 2259 
Q 266 3072 433 3567 
Q 600 4063 929 4331 
Q 1259 4600 1759 4600 
Q 2128 4600 2406 4451 
Q 2684 4303 2865 4023 
Q 3047 3744 3150 3342 
Q 3253 2941 3253 2259 
Q 3253 1453 3087 958 
Q 2922 463 2592 192 
Q 2263 -78 1759 -78 
Q 1097 -78 719 397 
Q 266 969 266 2259 
z
M 844 2259 
Q 844 1131 1108 757 
Q 1372 384 1759 384 
Q 2147 384 2411 759 
Q 2675 1134 2675 2259 
Q 2675 3391 2411 3762 
Q 2147 4134 1753 4134 
Q 1366 4134 1134 3806 
Q 844 3388 844 2259 
z
" transform="scale(0.015625)"/>
       </defs>
       <use xlink:href="#ArialMT-30"/>
      </g>
     </g>
    </g>
    <g id="ytick_3">
     <g id="line2d_5">
      <path d="M 252 112.32 
L 711.529412 112.32 
" clip-path="url(#pe02dbdb6f3)" style="fill: none; stroke: #ffffff; stroke-linecap: round"/>
     </g>
     <g id="text_3">
      <!-- 45 -->
      <g style="fill: #262626" transform="translate(199.680781 126.098789) scale(0.385 -0.385)">
       <use xlink:href="#ArialMT-34"/>
       <use xlink:href="#ArialMT-35" x="55.615234"/>
      </g>
     </g>
    </g>
    <g id="text_4">
     <!-- PGSE -->
     <g style="fill: #262626" transform="translate(174.513984 343.927031) rotate(-90) scale(0.42 -0.42)">
      <defs>
       <path id="ArialMT-50" d="M 494 0 
L 494 4581 
L 2222 4581 
Q 2678 4581 2919 4538 
Q 3256 4481 3484 4323 
Q 3713 4166 3852 3881 
Q 3991 3597 3991 3256 
Q 3991 2672 3619 2267 
Q 3247 1863 2275 1863 
L 1100 1863 
L 1100 0 
L 494 0 
z
M 1100 2403 
L 2284 2403 
Q 2872 2403 3119 2622 
Q 3366 2841 3366 3238 
Q 3366 3525 3220 3729 
Q 3075 3934 2838 4000 
Q 2684 4041 2272 4041 
L 1100 4041 
L 1100 2403 
z
" transform="scale(0.015625)"/>
       <path id="ArialMT-47" d="M 2638 1797 
L 2638 2334 
L 4578 2338 
L 4578 638 
Q 4131 281 3656 101 
Q 3181 -78 2681 -78 
Q 2006 -78 1454 211 
Q 903 500 622 1047 
Q 341 1594 341 2269 
Q 341 2938 620 3517 
Q 900 4097 1425 4378 
Q 1950 4659 2634 4659 
Q 3131 4659 3532 4498 
Q 3934 4338 4162 4050 
Q 4391 3763 4509 3300 
L 3963 3150 
Q 3859 3500 3706 3700 
Q 3553 3900 3268 4020 
Q 2984 4141 2638 4141 
Q 2222 4141 1919 4014 
Q 1616 3888 1430 3681 
Q 1244 3475 1141 3228 
Q 966 2803 966 2306 
Q 966 1694 1177 1281 
Q 1388 869 1791 669 
Q 2194 469 2647 469 
Q 3041 469 3416 620 
Q 3791 772 3984 944 
L 3984 1797 
L 2638 1797 
z
" transform="scale(0.015625)"/>
       <path id="ArialMT-53" d="M 288 1472 
L 859 1522 
Q 900 1178 1048 958 
Q 1197 738 1509 602 
Q 1822 466 2213 466 
Q 2559 466 2825 569 
Q 3091 672 3220 851 
Q 3350 1031 3350 1244 
Q 3350 1459 3225 1620 
Q 3100 1781 2813 1891 
Q 2628 1963 1997 2114 
Q 1366 2266 1113 2400 
Q 784 2572 623 2826 
Q 463 3081 463 3397 
Q 463 3744 659 4045 
Q 856 4347 1234 4503 
Q 1613 4659 2075 4659 
Q 2584 4659 2973 4495 
Q 3363 4331 3572 4012 
Q 3781 3694 3797 3291 
L 3216 3247 
Q 3169 3681 2898 3903 
Q 2628 4125 2100 4125 
Q 1550 4125 1298 3923 
Q 1047 3722 1047 3438 
Q 1047 3191 1225 3031 
Q 1400 2872 2139 2705 
Q 2878 2538 3153 2413 
Q 3553 2228 3743 1945 
Q 3934 1663 3934 1294 
Q 3934 928 3725 604 
Q 3516 281 3123 101 
Q 2731 -78 2241 -78 
Q 1619 -78 1198 103 
Q 778 284 539 648 
Q 300 1013 288 1472 
z
" transform="scale(0.015625)"/>
       <path id="ArialMT-45" d="M 506 0 
L 506 4581 
L 3819 4581 
L 3819 4041 
L 1113 4041 
L 1113 2638 
L 3647 2638 
L 3647 2100 
L 1113 2100 
L 1113 541 
L 3925 541 
L 3925 0 
L 506 0 
z
" transform="scale(0.015625)"/>
      </defs>
      <use xlink:href="#ArialMT-50"/>
      <use xlink:href="#ArialMT-47" x="66.699219"/>
      <use xlink:href="#ArialMT-53" x="144.482422"/>
      <use xlink:href="#ArialMT-45" x="211.181641"/>
     </g>
    </g>
   </g>
   <g id="patch_3">
    <path d="M 252 458.82 
L 269.232353 458.82 
L 269.232353 112.32 
L 252 112.32 
z
" clip-path="url(#pe02dbdb6f3)" style="fill: #ff0000; opacity: 0.1; stroke: #ffffff; stroke-linejoin: miter"/>
   </g>
   <g id="patch_4">
    <path d="M 269.232353 458.82 
L 594.119647 458.82 
L 594.119647 112.32 
L 269.232353 112.32 
z
" clip-path="url(#pe02dbdb6f3)" style="fill: #0000ff; opacity: 0.1; stroke: #ffffff; stroke-linejoin: miter"/>
   </g>
   <g id="patch_5">
    <path d="M 594.119647 458.82 
L 697.513765 458.82 
L 697.513765 112.32 
L 594.119647 112.32 
z
" clip-path="url(#pe02dbdb6f3)" style="fill: #008000; opacity: 0.1; stroke: #ffffff; stroke-linejoin: miter"/>
   </g>
   <g id="line2d_6">
    <path d="M 252 285.57 
L 711.529412 285.57 
" clip-path="url(#pe02dbdb6f3)" style="fill: none; stroke: #000000; stroke-linecap: round"/>
   </g>
   <g id="line2d_7">
    <path d="M 252 139.27 
L 711.529412 139.27 
" clip-path="url(#pe02dbdb6f3)" style="fill: none; stroke-dasharray: 3.7,1.6; stroke-dashoffset: 0; stroke: #000000"/>
   </g>
   <g id="line2d_8">
    <path d="M 252 431.87 
L 711.529412 431.87 
" clip-path="url(#pe02dbdb6f3)" style="fill: none; stroke-dasharray: 3.7,1.6; stroke-dashoffset: 0; stroke: #000000"/>
   </g>
   <g id="line2d_9">
    <path d="M 252 285.57 
L 269.232353 285.57 
L 270.323735 139.27 
L 366.020735 139.27 
L 367.112118 285.57 
L 496.297324 285.57 
L 497.388706 139.27 
L 593.085706 139.27 
L 594.119647 285.57 
L 594.119647 285.57 
" clip-path="url(#pe02dbdb6f3)" style="fill: none; stroke: #000000; stroke-width: 7; stroke-linecap: round"/>
   </g>
   <g id="patch_6">
    <path d="M 252 458.82 
L 252 112.32 
" style="fill: none; stroke: #ffffff; stroke-width: 1.25; stroke-linejoin: miter; stroke-linecap: square"/>
   </g>
   <g id="patch_7">
    <path d="M 711.529412 458.82 
L 711.529412 112.32 
" style="fill: none; stroke: #ffffff; stroke-width: 1.25; stroke-linejoin: miter; stroke-linecap: square"/>
   </g>
   <g id="patch_8">
    <path d="M 252 458.82 
L 711.529412 458.82 
" style="fill: none; stroke: #ffffff; stroke-width: 1.25; stroke-linejoin: miter; stroke-linecap: square"/>
   </g>
   <g id="patch_9">
    <path d="M 252 112.32 
L 711.529412 112.32 
" style="fill: none; stroke: #ffffff; stroke-width: 1.25; stroke-linejoin: miter; stroke-linecap: square"/>
   </g>
   <g id="text_5">
    <!-- Gradient (mT/m) -->
    <g style="fill: #262626" transform="translate(327.762518 103.480312) scale(0.42 -0.42)">
     <defs>
      <path id="ArialMT-72" d="M 416 0 
L 416 3319 
L 922 3319 
L 922 2816 
Q 1116 3169 1280 3281 
Q 1444 3394 1641 3394 
Q 1925 3394 2219 3213 
L 2025 2691 
Q 1819 2813 1613 2813 
Q 1428 2813 1281 2702 
Q 1134 2591 1072 2394 
Q 978 2094 978 1738 
L 978 0 
L 416 0 
z
" transform="scale(0.015625)"/>
      <path id="ArialMT-61" d="M 2588 409 
Q 2275 144 1986 34 
Q 1697 -75 1366 -75 
Q 819 -75 525 192 
Q 231 459 231 875 
Q 231 1119 342 1320 
Q 453 1522 633 1644 
Q 813 1766 1038 1828 
Q 1203 1872 1538 1913 
Q 2219 1994 2541 2106 
Q 2544 2222 2544 2253 
Q 2544 2597 2384 2738 
Q 2169 2928 1744 2928 
Q 1347 2928 1158 2789 
Q 969 2650 878 2297 
L 328 2372 
Q 403 2725 575 2942 
Q 747 3159 1072 3276 
Q 1397 3394 1825 3394 
Q 2250 3394 2515 3294 
Q 2781 3194 2906 3042 
Q 3031 2891 3081 2659 
Q 3109 2516 3109 2141 
L 3109 1391 
Q 3109 606 3145 398 
Q 3181 191 3288 0 
L 2700 0 
Q 2613 175 2588 409 
z
M 2541 1666 
Q 2234 1541 1622 1453 
Q 1275 1403 1131 1340 
Q 988 1278 909 1158 
Q 831 1038 831 891 
Q 831 666 1001 516 
Q 1172 366 1500 366 
Q 1825 366 2078 508 
Q 2331 650 2450 897 
Q 2541 1088 2541 1459 
L 2541 1666 
z
" transform="scale(0.015625)"/>
      <path id="ArialMT-64" d="M 2575 0 
L 2575 419 
Q 2259 -75 1647 -75 
Q 1250 -75 917 144 
Q 584 363 401 755 
Q 219 1147 219 1656 
Q 219 2153 384 2558 
Q 550 2963 881 3178 
Q 1213 3394 1622 3394 
Q 1922 3394 2156 3267 
Q 2391 3141 2538 2938 
L 2538 4581 
L 3097 4581 
L 3097 0 
L 2575 0 
z
M 797 1656 
Q 797 1019 1065 703 
Q 1334 388 1700 388 
Q 2069 388 2326 689 
Q 2584 991 2584 1609 
Q 2584 2291 2321 2609 
Q 2059 2928 1675 2928 
Q 1300 2928 1048 2622 
Q 797 2316 797 1656 
z
" transform="scale(0.015625)"/>
      <path id="ArialMT-69" d="M 425 3934 
L 425 4581 
L 988 4581 
L 988 3934 
L 425 3934 
z
M 425 0 
L 425 3319 
L 988 3319 
L 988 0 
L 425 0 
z
" transform="scale(0.015625)"/>
      <path id="ArialMT-65" d="M 2694 1069 
L 3275 997 
Q 3138 488 2766 206 
Q 2394 -75 1816 -75 
Q 1088 -75 661 373 
Q 234 822 234 1631 
Q 234 2469 665 2931 
Q 1097 3394 1784 3394 
Q 2450 3394 2872 2941 
Q 3294 2488 3294 1666 
Q 3294 1616 3291 1516 
L 816 1516 
Q 847 969 1125 678 
Q 1403 388 1819 388 
Q 2128 388 2347 550 
Q 2566 713 2694 1069 
z
M 847 1978 
L 2700 1978 
Q 2663 2397 2488 2606 
Q 2219 2931 1791 2931 
Q 1403 2931 1139 2672 
Q 875 2413 847 1978 
z
" transform="scale(0.015625)"/>
      <path id="ArialMT-6e" d="M 422 0 
L 422 3319 
L 928 3319 
L 928 2847 
Q 1294 3394 1984 3394 
Q 2284 3394 2536 3286 
Q 2788 3178 2913 3003 
Q 3038 2828 3088 2588 
Q 3119 2431 3119 2041 
L 3119 0 
L 2556 0 
L 2556 2019 
Q 2556 2363 2490 2533 
Q 2425 2703 2258 2804 
Q 2091 2906 1866 2906 
Q 1506 2906 1245 2678 
Q 984 2450 984 1813 
L 984 0 
L 422 0 
z
" transform="scale(0.015625)"/>
      <path id="ArialMT-74" d="M 1650 503 
L 1731 6 
Q 1494 -44 1306 -44 
Q 1000 -44 831 53 
Q 663 150 594 308 
Q 525 466 525 972 
L 525 2881 
L 113 2881 
L 113 3319 
L 525 3319 
L 525 4141 
L 1084 4478 
L 1084 3319 
L 1650 3319 
L 1650 2881 
L 1084 2881 
L 1084 941 
Q 1084 700 1114 631 
Q 1144 563 1211 522 
Q 1278 481 1403 481 
Q 1497 481 1650 503 
z
" transform="scale(0.015625)"/>
      <path id="ArialMT-20" transform="scale(0.015625)"/>
      <path id="ArialMT-28" d="M 1497 -1347 
Q 1031 -759 709 28 
Q 388 816 388 1659 
Q 388 2403 628 3084 
Q 909 3875 1497 4659 
L 1900 4659 
Q 1522 4009 1400 3731 
Q 1209 3300 1100 2831 
Q 966 2247 966 1656 
Q 966 153 1900 -1347 
L 1497 -1347 
z
" transform="scale(0.015625)"/>
      <path id="ArialMT-6d" d="M 422 0 
L 422 3319 
L 925 3319 
L 925 2853 
Q 1081 3097 1340 3245 
Q 1600 3394 1931 3394 
Q 2300 3394 2536 3241 
Q 2772 3088 2869 2813 
Q 3263 3394 3894 3394 
Q 4388 3394 4653 3120 
Q 4919 2847 4919 2278 
L 4919 0 
L 4359 0 
L 4359 2091 
Q 4359 2428 4304 2576 
Q 4250 2725 4106 2815 
Q 3963 2906 3769 2906 
Q 3419 2906 3187 2673 
Q 2956 2441 2956 1928 
L 2956 0 
L 2394 0 
L 2394 2156 
Q 2394 2531 2256 2718 
Q 2119 2906 1806 2906 
Q 1569 2906 1367 2781 
Q 1166 2656 1075 2415 
Q 984 2175 984 1722 
L 984 0 
L 422 0 
z
" transform="scale(0.015625)"/>
      <path id="ArialMT-54" d="M 1659 0 
L 1659 4041 
L 150 4041 
L 150 4581 
L 3781 4581 
L 3781 4041 
L 2266 4041 
L 2266 0 
L 1659 0 
z
" transform="scale(0.015625)"/>
      <path id="ArialMT-2f" d="M 0 -78 
L 1328 4659 
L 1778 4659 
L 453 -78 
L 0 -78 
z
" transform="scale(0.015625)"/>
      <path id="ArialMT-29" d="M 791 -1347 
L 388 -1347 
Q 1322 153 1322 1656 
Q 1322 2244 1188 2822 
Q 1081 3291 891 3722 
Q 769 4003 388 4659 
L 791 4659 
Q 1378 3875 1659 3084 
Q 1900 2403 1900 1659 
Q 1900 816 1576 28 
Q 1253 -759 791 -1347 
z
" transform="scale(0.015625)"/>
     </defs>
     <use xlink:href="#ArialMT-47"/>
     <use xlink:href="#ArialMT-72" x="77.783203"/>
     <use xlink:href="#ArialMT-61" x="111.083984"/>
     <use xlink:href="#ArialMT-64" x="166.699219"/>
     <use xlink:href="#ArialMT-69" x="222.314453"/>
     <use xlink:href="#ArialMT-65" x="244.53125"/>
     <use xlink:href="#ArialMT-6e" x="300.146484"/>
     <use xlink:href="#ArialMT-74" x="355.761719"/>
     <use xlink:href="#ArialMT-20" x="383.544922"/>
     <use xlink:href="#ArialMT-28" x="411.328125"/>
     <use xlink:href="#ArialMT-6d" x="444.628906"/>
     <use xlink:href="#ArialMT-54" x="527.929688"/>
     <use xlink:href="#ArialMT-2f" x="589.013672"/>
     <use xlink:href="#ArialMT-6d" x="616.796875"/>
     <use xlink:href="#ArialMT-29" x="700.097656"/>
    </g>
   </g>
  </g>
  <g id="axes_2">
   <g id="patch_10">
    <path d="M 803.435294 458.82 
L 1262.964706 458.82 
L 1262.964706 112.32 
L 803.435294 112.32 
z
" style="fill: #eaeaf2"/>
   </g>
   <g id="matplotlib.axis_3">
    <g id="xtick_3">
     <g id="line2d_10">
      <path d="M 803.435294 458.82 
L 803.435294 112.32 
" clip-path="url(#pdbe1512168)" style="fill: none; stroke: #ffffff; stroke-linecap: round"/>
     </g>
    </g>
    <g id="xtick_4">
     <g id="line2d_11">
      <path d="M 1090.641176 458.82 
L 1090.641176 112.32 
" clip-path="url(#pdbe1512168)" style="fill: none; stroke: #ffffff; stroke-linecap: round"/>
     </g>
    </g>
   </g>
   <g id="matplotlib.axis_4">
    <g id="ytick_4">
     <g id="line2d_12">
      <path d="M 803.435294 434.780526 
L 1262.964706 434.780526 
" clip-path="url(#pdbe1512168)" style="fill: none; stroke: #ffffff; stroke-linecap: round"/>
     </g>
     <g id="text_6">
      <!-- −200 -->
      <g style="fill: #262626" transform="translate(707.22006 448.559315) scale(0.385 -0.385)">
       <defs>
        <path id="ArialMT-2212" d="M 3381 1997 
L 356 1997 
L 356 2522 
L 3381 2522 
L 3381 1997 
z
" transform="scale(0.015625)"/>
        <path id="ArialMT-32" d="M 3222 541 
L 3222 0 
L 194 0 
Q 188 203 259 391 
Q 375 700 629 1000 
Q 884 1300 1366 1694 
Q 2113 2306 2375 2664 
Q 2638 3022 2638 3341 
Q 2638 3675 2398 3904 
Q 2159 4134 1775 4134 
Q 1369 4134 1125 3890 
Q 881 3647 878 3216 
L 300 3275 
Q 359 3922 746 4261 
Q 1134 4600 1788 4600 
Q 2447 4600 2831 4234 
Q 3216 3869 3216 3328 
Q 3216 3053 3103 2787 
Q 2991 2522 2730 2228 
Q 2469 1934 1863 1422 
Q 1356 997 1212 845 
Q 1069 694 975 541 
L 3222 541 
z
" transform="scale(0.015625)"/>
       </defs>
       <use xlink:href="#ArialMT-2212"/>
       <use xlink:href="#ArialMT-32" x="58.398438"/>
       <use xlink:href="#ArialMT-30" x="114.013672"/>
       <use xlink:href="#ArialMT-30" x="169.628906"/>
      </g>
     </g>
    </g>
    <g id="ytick_5">
     <g id="line2d_13">
      <path d="M 803.435294 285.57 
L 1262.964706 285.57 
" clip-path="url(#pdbe1512168)" style="fill: none; stroke: #ffffff; stroke-linecap: round"/>
     </g>
     <g id="text_7">
      <!-- 0 -->
      <g style="fill: #262626" transform="translate(772.525685 299.348789) scale(0.385 -0.385)">
       <use xlink:href="#ArialMT-30"/>
      </g>
     </g>
    </g>
    <g id="ytick_6">
     <g id="line2d_14">
      <path d="M 803.435294 136.359474 
L 1262.964706 136.359474 
" clip-path="url(#pdbe1512168)" style="fill: none; stroke: #ffffff; stroke-linecap: round"/>
     </g>
     <g id="text_8">
      <!-- 200 -->
      <g style="fill: #262626" transform="translate(729.706466 150.138263) scale(0.385 -0.385)">
       <use xlink:href="#ArialMT-32"/>
       <use xlink:href="#ArialMT-30" x="55.615234"/>
       <use xlink:href="#ArialMT-30" x="111.230469"/>
      </g>
     </g>
    </g>
   </g>
   <g id="patch_11">
    <path d="M 803.435294 458.82 
L 820.667647 458.82 
L 820.667647 112.32 
L 803.435294 112.32 
z
" clip-path="url(#pdbe1512168)" style="fill: #ff0000; opacity: 0.1; stroke: #ffffff; stroke-linejoin: miter"/>
   </g>
   <g id="patch_12">
    <path d="M 820.667647 458.82 
L 1145.554941 458.82 
L 1145.554941 112.32 
L 820.667647 112.32 
z
" clip-path="url(#pdbe1512168)" style="fill: #0000ff; opacity: 0.1; stroke: #ffffff; stroke-linejoin: miter"/>
   </g>
   <g id="patch_13">
    <path d="M 1145.554941 458.82 
L 1248.949059 458.82 
L 1248.949059 112.32 
L 1145.554941 112.32 
z
" clip-path="url(#pdbe1512168)" style="fill: #008000; opacity: 0.1; stroke: #ffffff; stroke-linejoin: miter"/>
   </g>
   <g id="line2d_15">
    <path d="M 803.435294 285.57 
L 1262.964706 285.57 
" clip-path="url(#pdbe1512168)" style="fill: none; stroke: #000000; stroke-linecap: round"/>
   </g>
   <g id="line2d_16">
    <path d="M 803.435294 136.359474 
L 1262.964706 136.359474 
" clip-path="url(#pdbe1512168)" style="fill: none; stroke-dasharray: 3.7,1.6; stroke-dashoffset: 0; stroke: #000000"/>
   </g>
   <g id="line2d_17">
    <path d="M 803.435294 434.780526 
L 1262.964706 434.780526 
" clip-path="url(#pdbe1512168)" style="fill: none; stroke-dasharray: 3.7,1.6; stroke-dashoffset: 0; stroke: #000000"/>
   </g>
   <g id="line2d_18">
    <path d="M 803.435294 285.57 
L 820.610206 285.57 
L 820.725088 128.07 
L 821.644147 128.07 
L 821.759029 285.57 
L 917.398588 285.57 
L 917.513471 443.07 
L 918.432529 443.07 
L 918.547412 285.57 
L 1047.675176 285.57 
L 1047.790059 128.07 
L 1048.709118 128.07 
L 1048.824 285.57 
L 1144.463559 285.57 
L 1144.578441 443.07 
L 1145.4975 443.07 
L 1145.4975 443.07 
" clip-path="url(#pdbe1512168)" style="fill: none; stroke: #000000; stroke-width: 7; stroke-linecap: round"/>
   </g>
   <g id="patch_14">
    <path d="M 803.435294 458.82 
L 803.435294 112.32 
" style="fill: none; stroke: #ffffff; stroke-width: 1.25; stroke-linejoin: miter; stroke-linecap: square"/>
   </g>
   <g id="patch_15">
    <path d="M 1262.964706 458.82 
L 1262.964706 112.32 
" style="fill: none; stroke: #ffffff; stroke-width: 1.25; stroke-linejoin: miter; stroke-linecap: square"/>
   </g>
   <g id="patch_16">
    <path d="M 803.435294 458.82 
L 1262.964706 458.82 
" style="fill: none; stroke: #ffffff; stroke-width: 1.25; stroke-linejoin: miter; stroke-linecap: square"/>
   </g>
   <g id="patch_17">
    <path d="M 803.435294 112.32 
L 1262.964706 112.32 
" style="fill: none; stroke: #ffffff; stroke-width: 1.25; stroke-linejoin: miter; stroke-linecap: square"/>
   </g>
   <g id="text_9">
    <!-- Slew Rate (T/m/s) -->
    <g style="fill: #262626" transform="translate(865.186875 103.480312) scale(0.42 -0.42)">
     <defs>
      <path id="ArialMT-6c" d="M 409 0 
L 409 4581 
L 972 4581 
L 972 0 
L 409 0 
z
" transform="scale(0.015625)"/>
      <path id="ArialMT-77" d="M 1034 0 
L 19 3319 
L 600 3319 
L 1128 1403 
L 1325 691 
Q 1338 744 1497 1375 
L 2025 3319 
L 2603 3319 
L 3100 1394 
L 3266 759 
L 3456 1400 
L 4025 3319 
L 4572 3319 
L 3534 0 
L 2950 0 
L 2422 1988 
L 2294 2553 
L 1622 0 
L 1034 0 
z
" transform="scale(0.015625)"/>
      <path id="ArialMT-52" d="M 503 0 
L 503 4581 
L 2534 4581 
Q 3147 4581 3465 4457 
Q 3784 4334 3975 4021 
Q 4166 3709 4166 3331 
Q 4166 2844 3850 2509 
Q 3534 2175 2875 2084 
Q 3116 1969 3241 1856 
Q 3506 1613 3744 1247 
L 4541 0 
L 3778 0 
L 3172 953 
Q 2906 1366 2734 1584 
Q 2563 1803 2427 1890 
Q 2291 1978 2150 2013 
Q 2047 2034 1813 2034 
L 1109 2034 
L 1109 0 
L 503 0 
z
M 1109 2559 
L 2413 2559 
Q 2828 2559 3062 2645 
Q 3297 2731 3419 2920 
Q 3541 3109 3541 3331 
Q 3541 3656 3305 3865 
Q 3069 4075 2559 4075 
L 1109 4075 
L 1109 2559 
z
" transform="scale(0.015625)"/>
      <path id="ArialMT-73" d="M 197 991 
L 753 1078 
Q 800 744 1014 566 
Q 1228 388 1613 388 
Q 2000 388 2187 545 
Q 2375 703 2375 916 
Q 2375 1106 2209 1216 
Q 2094 1291 1634 1406 
Q 1016 1563 777 1677 
Q 538 1791 414 1992 
Q 291 2194 291 2438 
Q 291 2659 392 2848 
Q 494 3038 669 3163 
Q 800 3259 1026 3326 
Q 1253 3394 1513 3394 
Q 1903 3394 2198 3281 
Q 2494 3169 2634 2976 
Q 2775 2784 2828 2463 
L 2278 2388 
Q 2241 2644 2061 2787 
Q 1881 2931 1553 2931 
Q 1166 2931 1000 2803 
Q 834 2675 834 2503 
Q 834 2394 903 2306 
Q 972 2216 1119 2156 
Q 1203 2125 1616 2013 
Q 2213 1853 2448 1751 
Q 2684 1650 2818 1456 
Q 2953 1263 2953 975 
Q 2953 694 2789 445 
Q 2625 197 2315 61 
Q 2006 -75 1616 -75 
Q 969 -75 630 194 
Q 291 463 197 991 
z
" transform="scale(0.015625)"/>
     </defs>
     <use xlink:href="#ArialMT-53"/>
     <use xlink:href="#ArialMT-6c" x="66.699219"/>
     <use xlink:href="#ArialMT-65" x="88.916016"/>
     <use xlink:href="#ArialMT-77" x="144.53125"/>
     <use xlink:href="#ArialMT-20" x="216.748047"/>
     <use xlink:href="#ArialMT-52" x="244.53125"/>
     <use xlink:href="#ArialMT-61" x="316.748047"/>
     <use xlink:href="#ArialMT-74" x="372.363281"/>
     <use xlink:href="#ArialMT-65" x="400.146484"/>
     <use xlink:href="#ArialMT-20" x="455.761719"/>
     <use xlink:href="#ArialMT-28" x="483.544922"/>
     <use xlink:href="#ArialMT-54" x="516.845703"/>
     <use xlink:href="#ArialMT-2f" x="577.929688"/>
     <use xlink:href="#ArialMT-6d" x="605.712891"/>
     <use xlink:href="#ArialMT-2f" x="689.013672"/>
     <use xlink:href="#ArialMT-73" x="716.796875"/>
     <use xlink:href="#ArialMT-29" x="766.796875"/>
    </g>
   </g>
  </g>
  <g id="axes_3">
   <g id="patch_18">
    <path d="M 1354.870588 458.82 
L 1814.4 458.82 
L 1814.4 112.32 
L 1354.870588 112.32 
z
" style="fill: #eaeaf2"/>
   </g>
   <g id="matplotlib.axis_5">
    <g id="xtick_5">
     <g id="line2d_19">
      <path d="M 1354.870588 458.82 
L 1354.870588 112.32 
" clip-path="url(#p4681268730)" style="fill: none; stroke: #ffffff; stroke-linecap: round"/>
     </g>
    </g>
    <g id="xtick_6">
     <g id="line2d_20">
      <path d="M 1642.076471 458.82 
L 1642.076471 112.32 
" clip-path="url(#p4681268730)" style="fill: none; stroke: #ffffff; stroke-linecap: round"/>
     </g>
    </g>
   </g>
   <g id="matplotlib.axis_6">
    <g id="ytick_7">
     <g id="line2d_21">
      <path d="M 1354.870588 458.82 
L 1814.4 458.82 
" clip-path="url(#p4681268730)" style="fill: none; stroke: #ffffff; stroke-linecap: round"/>
     </g>
     <g id="text_10">
      <!-- 0 -->
      <g style="fill: #262626" transform="translate(1323.960979 472.598789) scale(0.385 -0.385)">
       <use xlink:href="#ArialMT-30"/>
      </g>
     </g>
    </g>
    <g id="ytick_8">
     <g id="line2d_22">
      <path d="M 1354.870588 287.285347 
L 1814.4 287.285347 
" clip-path="url(#p4681268730)" style="fill: none; stroke: #ffffff; stroke-linecap: round"/>
     </g>
     <g id="text_11">
      <!-- 50 -->
      <g style="fill: #262626" transform="translate(1302.551369 301.064136) scale(0.385 -0.385)">
       <use xlink:href="#ArialMT-35"/>
       <use xlink:href="#ArialMT-30" x="55.615234"/>
      </g>
     </g>
    </g>
    <g id="ytick_9">
     <g id="line2d_23">
      <path d="M 1354.870588 115.750693 
L 1814.4 115.750693 
" clip-path="url(#p4681268730)" style="fill: none; stroke: #ffffff; stroke-linecap: round"/>
     </g>
     <g id="text_12">
      <!-- 100 -->
      <g style="fill: #262626" transform="translate(1281.14176 129.529482) scale(0.385 -0.385)">
       <defs>
        <path id="ArialMT-31" d="M 2384 0 
L 1822 0 
L 1822 3584 
Q 1619 3391 1289 3197 
Q 959 3003 697 2906 
L 697 3450 
Q 1169 3672 1522 3987 
Q 1875 4303 2022 4600 
L 2384 4600 
L 2384 0 
z
" transform="scale(0.015625)"/>
       </defs>
       <use xlink:href="#ArialMT-31"/>
       <use xlink:href="#ArialMT-30" x="55.615234"/>
       <use xlink:href="#ArialMT-30" x="111.230469"/>
      </g>
     </g>
    </g>
   </g>
   <g id="patch_19">
    <path d="M 1354.870588 458.82 
L 1372.102941 458.82 
L 1372.102941 112.32 
L 1354.870588 112.32 
z
" clip-path="url(#p4681268730)" style="fill: #ff0000; opacity: 0.1; stroke: #ffffff; stroke-linejoin: miter"/>
   </g>
   <g id="patch_20">
    <path d="M 1372.102941 458.82 
L 1696.990235 458.82 
L 1696.990235 112.32 
L 1372.102941 112.32 
z
" clip-path="url(#p4681268730)" style="fill: #0000ff; opacity: 0.1; stroke: #ffffff; stroke-linejoin: miter"/>
   </g>
   <g id="patch_21">
    <path d="M 1696.990235 458.82 
L 1800.384353 458.82 
L 1800.384353 112.32 
L 1696.990235 112.32 
z
" clip-path="url(#p4681268730)" style="fill: #008000; opacity: 0.1; stroke: #ffffff; stroke-linejoin: miter"/>
   </g>
   <g id="line2d_24">
    <path d="M 1354.870588 458.82 
L 1814.4 458.82 
" clip-path="url(#p4681268730)" style="fill: none; stroke: #000000; stroke-linecap: round"/>
   </g>
   <g id="line2d_25">
    <path d="M 1354.870588 150.057624 
L 1814.4 150.057624 
" clip-path="url(#p4681268730)" style="fill: none; stroke-dasharray: 3.7,1.6; stroke-dashoffset: 0; stroke: #000000"/>
   </g>
   <g id="line2d_26">
    <path d="M 1354.870588 458.82 
L 1372.0455 458.82 
L 1372.562471 195.647513 
L 1373.079441 25.530661 
L 1373.538971 157.60611 
L 1374.055941 244.650661 
L 1374.630353 303.304889 
L 1375.204765 340.712726 
L 1375.836618 368.121081 
L 1376.525912 388.382689 
L 1377.215206 402.530834 
L 1377.961941 413.528094 
L 1378.766118 422.116394 
L 1379.570294 428.472573 
L 1380.431912 433.608975 
L 1381.350971 437.77166 
L 1382.327471 441.157618 
L 1383.361412 443.923353 
L 1384.452794 446.192716 
L 1385.601618 448.063584 
L 1386.807882 449.613345 
L 1388.129029 450.955354 
L 1389.6225 452.147042 
L 1391.288294 453.182506 
L 1393.183853 454.092424 
L 1395.424059 454.909821 
L 1398.066353 455.628019 
L 1401.283059 456.263812 
L 1405.303941 456.823053 
L 1410.473647 457.308206 
L 1417.424029 457.724351 
L 1427.189029 458.070287 
L 1441.779088 458.346399 
L 1465.846941 458.555649 
L 1468.833882 458.571493 
L 1469.350853 195.893423 
L 1469.867824 25.774015 
L 1470.327353 157.847224 
L 1470.844324 244.889293 
L 1471.418735 303.540808 
L 1471.993147 340.945977 
L 1472.625 368.35145 
L 1473.314294 388.609974 
L 1474.003588 402.755097 
L 1474.750324 413.749151 
L 1475.5545 422.334074 
L 1476.358676 428.686952 
L 1477.220294 433.819901 
L 1478.139353 437.978994 
L 1479.115853 441.361235 
L 1480.149794 444.123142 
L 1481.241176 446.388579 
L 1482.39 448.25544 
L 1483.596265 449.801124 
L 1484.917412 451.138815 
L 1486.410882 452.325799 
L 1488.076676 453.356226 
L 1489.972235 454.260667 
L 1492.212441 455.07192 
L 1494.854735 455.783293 
L 1498.071441 456.411343 
L 1502.092324 456.961694 
L 1507.319471 457.440798 
L 1514.327294 457.845747 
L 1524.207176 458.177925 
L 1539.141882 458.438326 
L 1564.243676 458.628267 
L 1599.110471 458.727727 
L 1599.627441 195.738914 
L 1600.144412 25.621202 
L 1600.603941 157.695895 
L 1601.120912 244.739605 
L 1601.695324 303.392913 
L 1602.269735 340.799842 
L 1602.901588 368.207213 
L 1603.590882 388.467765 
L 1604.280176 402.614871 
L 1605.026912 413.611026 
L 1605.831088 422.198158 
L 1606.635265 428.55319 
L 1607.496882 433.688387 
L 1608.415941 437.849815 
L 1609.392441 441.234466 
L 1610.426382 443.99885 
L 1611.517765 446.26682 
L 1612.666588 448.136261 
L 1613.872853 449.684563 
L 1615.194 451.02502 
L 1616.687471 452.215007 
L 1618.353265 453.24864 
L 1620.248824 454.156555 
L 1622.489029 454.971691 
L 1625.131324 455.687358 
L 1628.348029 456.320255 
L 1632.368912 456.876139 
L 1637.596059 457.361676 
L 1644.546441 457.771472 
L 1654.368882 458.112117 
L 1669.131265 458.382196 
L 1693.601206 458.583298 
L 1695.898853 458.59474 
L 1696.415824 195.870311 
L 1696.932794 25.751037 
L 1696.932794 25.751037 
" clip-path="url(#p4681268730)" style="fill: none; stroke: #000000; stroke-width: 7; stroke-linecap: round"/>
   </g>
   <g id="patch_22">
    <path d="M 1354.870588 458.82 
L 1354.870588 112.32 
" style="fill: none; stroke: #ffffff; stroke-width: 1.25; stroke-linejoin: miter; stroke-linecap: square"/>
   </g>
   <g id="patch_23">
    <path d="M 1814.4 458.82 
L 1814.4 112.32 
" style="fill: none; stroke: #ffffff; stroke-width: 1.25; stroke-linejoin: miter; stroke-linecap: square"/>
   </g>
   <g id="patch_24">
    <path d="M 1354.870588 458.82 
L 1814.4 458.82 
" style="fill: none; stroke: #ffffff; stroke-width: 1.25; stroke-linejoin: miter; stroke-linecap: square"/>
   </g>
   <g id="patch_25">
    <path d="M 1354.870588 112.32 
L 1814.4 112.32 
" style="fill: none; stroke: #ffffff; stroke-width: 1.25; stroke-linejoin: miter; stroke-linecap: square"/>
   </g>
   <g id="text_13">
    <!-- PNS (% Threshold) -->
    <g style="fill: #262626" transform="translate(1404.120607 103.480312) scale(0.42 -0.42)">
     <defs>
      <path id="ArialMT-4e" d="M 488 0 
L 488 4581 
L 1109 4581 
L 3516 984 
L 3516 4581 
L 4097 4581 
L 4097 0 
L 3475 0 
L 1069 3600 
L 1069 0 
L 488 0 
z
" transform="scale(0.015625)"/>
      <path id="ArialMT-25" d="M 372 3481 
Q 372 3972 619 4315 
Q 866 4659 1334 4659 
Q 1766 4659 2048 4351 
Q 2331 4044 2331 3447 
Q 2331 2866 2045 2552 
Q 1759 2238 1341 2238 
Q 925 2238 648 2547 
Q 372 2856 372 3481 
z
M 1350 4272 
Q 1141 4272 1002 4090 
Q 863 3909 863 3425 
Q 863 2984 1003 2804 
Q 1144 2625 1350 2625 
Q 1563 2625 1702 2806 
Q 1841 2988 1841 3469 
Q 1841 3913 1700 4092 
Q 1559 4272 1350 4272 
z
M 1353 -169 
L 3859 4659 
L 4316 4659 
L 1819 -169 
L 1353 -169 
z
M 3334 1075 
Q 3334 1569 3581 1911 
Q 3828 2253 4300 2253 
Q 4731 2253 5014 1945 
Q 5297 1638 5297 1041 
Q 5297 459 5011 145 
Q 4725 -169 4303 -169 
Q 3888 -169 3611 142 
Q 3334 453 3334 1075 
z
M 4316 1866 
Q 4103 1866 3964 1684 
Q 3825 1503 3825 1019 
Q 3825 581 3965 400 
Q 4106 219 4313 219 
Q 4528 219 4667 400 
Q 4806 581 4806 1063 
Q 4806 1506 4665 1686 
Q 4525 1866 4316 1866 
z
" transform="scale(0.015625)"/>
      <path id="ArialMT-68" d="M 422 0 
L 422 4581 
L 984 4581 
L 984 2938 
Q 1378 3394 1978 3394 
Q 2347 3394 2619 3248 
Q 2891 3103 3008 2847 
Q 3125 2591 3125 2103 
L 3125 0 
L 2563 0 
L 2563 2103 
Q 2563 2525 2380 2717 
Q 2197 2909 1863 2909 
Q 1613 2909 1392 2779 
Q 1172 2650 1078 2428 
Q 984 2206 984 1816 
L 984 0 
L 422 0 
z
" transform="scale(0.015625)"/>
      <path id="ArialMT-6f" d="M 213 1659 
Q 213 2581 725 3025 
Q 1153 3394 1769 3394 
Q 2453 3394 2887 2945 
Q 3322 2497 3322 1706 
Q 3322 1066 3130 698 
Q 2938 331 2570 128 
Q 2203 -75 1769 -75 
Q 1072 -75 642 372 
Q 213 819 213 1659 
z
M 791 1659 
Q 791 1022 1069 705 
Q 1347 388 1769 388 
Q 2188 388 2466 706 
Q 2744 1025 2744 1678 
Q 2744 2294 2464 2611 
Q 2184 2928 1769 2928 
Q 1347 2928 1069 2612 
Q 791 2297 791 1659 
z
" transform="scale(0.015625)"/>
     </defs>
     <use xlink:href="#ArialMT-50"/>
     <use xlink:href="#ArialMT-4e" x="66.699219"/>
     <use xlink:href="#ArialMT-53" x="138.916016"/>
     <use xlink:href="#ArialMT-20" x="205.615234"/>
     <use xlink:href="#ArialMT-28" x="233.398438"/>
     <use xlink:href="#ArialMT-25" x="266.699219"/>
     <use xlink:href="#ArialMT-20" x="355.615234"/>
     <use xlink:href="#ArialMT-54" x="381.648438"/>
     <use xlink:href="#ArialMT-68" x="442.732422"/>
     <use xlink:href="#ArialMT-72" x="498.347656"/>
     <use xlink:href="#ArialMT-65" x="531.648438"/>
     <use xlink:href="#ArialMT-73" x="587.263672"/>
     <use xlink:href="#ArialMT-68" x="637.263672"/>
     <use xlink:href="#ArialMT-6f" x="692.878906"/>
     <use xlink:href="#ArialMT-6c" x="748.494141"/>
     <use xlink:href="#ArialMT-64" x="770.710938"/>
     <use xlink:href="#ArialMT-29" x="826.326172"/>
    </g>
   </g>
  </g>
  <g id="axes_4">
   <g id="patch_26">
    <path d="M 252 833.04 
L 711.529412 833.04 
L 711.529412 486.54 
L 252 486.54 
z
" style="fill: #eaeaf2"/>
   </g>
   <g id="matplotlib.axis_7">
    <g id="xtick_7">
     <g id="line2d_27">
      <path d="M 252 833.04 
L 252 486.54 
" clip-path="url(#pa140a74d82)" style="fill: none; stroke: #ffffff; stroke-linecap: round"/>
     </g>
     <g id="text_14">
      <!-- 0 -->
      <g style="fill: #262626" transform="translate(241.295195 870.097578) scale(0.385 -0.385)">
       <use xlink:href="#ArialMT-30"/>
      </g>
     </g>
    </g>
    <g id="xtick_8">
     <g id="line2d_28">
      <path d="M 539.205882 833.04 
L 539.205882 486.54 
" clip-path="url(#pa140a74d82)" style="fill: none; stroke: #ffffff; stroke-linecap: round"/>
     </g>
     <g id="text_15">
      <!-- 50 -->
      <g style="fill: #262626" transform="translate(517.796273 870.097578) scale(0.385 -0.385)">
       <use xlink:href="#ArialMT-35"/>
       <use xlink:href="#ArialMT-30" x="55.615234"/>
      </g>
     </g>
    </g>
    <g id="text_16">
     <!-- Time [ms] -->
     <g style="fill: #262626" transform="translate(390.395018 911.812266) scale(0.42 -0.42)">
      <defs>
       <path id="ArialMT-5b" d="M 434 -1272 
L 434 4581 
L 1675 4581 
L 1675 4116 
L 997 4116 
L 997 -806 
L 1675 -806 
L 1675 -1272 
L 434 -1272 
z
" transform="scale(0.015625)"/>
       <path id="ArialMT-5d" d="M 1363 -1272 
L 122 -1272 
L 122 -806 
L 800 -806 
L 800 4116 
L 122 4116 
L 122 4581 
L 1363 4581 
L 1363 -1272 
z
" transform="scale(0.015625)"/>
      </defs>
      <use xlink:href="#ArialMT-54"/>
      <use xlink:href="#ArialMT-69" x="57.333984"/>
      <use xlink:href="#ArialMT-6d" x="79.550781"/>
      <use xlink:href="#ArialMT-65" x="162.851562"/>
      <use xlink:href="#ArialMT-20" x="218.466797"/>
      <use xlink:href="#ArialMT-5b" x="246.25"/>
      <use xlink:href="#ArialMT-6d" x="274.033203"/>
      <use xlink:href="#ArialMT-73" x="357.333984"/>
      <use xlink:href="#ArialMT-5d" x="407.333984"/>
     </g>
    </g>
   </g>
   <g id="matplotlib.axis_8">
    <g id="ytick_10">
     <g id="line2d_29">
      <path d="M 252 833.04 
L 711.529412 833.04 
" clip-path="url(#pa140a74d82)" style="fill: none; stroke: #ffffff; stroke-linecap: round"/>
     </g>
     <g id="text_17">
      <!-- -45 -->
      <g style="fill: #262626" transform="translate(186.861484 846.818789) scale(0.385 -0.385)">
       <use xlink:href="#ArialMT-2d"/>
       <use xlink:href="#ArialMT-34" x="33.300781"/>
       <use xlink:href="#ArialMT-35" x="88.916016"/>
      </g>
     </g>
    </g>
    <g id="ytick_11">
     <g id="line2d_30">
      <path d="M 252 659.79 
L 711.529412 659.79 
" clip-path="url(#pa140a74d82)" style="fill: none; stroke: #ffffff; stroke-linecap: round"/>
     </g>
     <g id="text_18">
      <!-- 0 -->
      <g style="fill: #262626" transform="translate(221.090391 673.568789) scale(0.385 -0.385)">
       <use xlink:href="#ArialMT-30"/>
      </g>
     </g>
    </g>
    <g id="ytick_12">
     <g id="line2d_31">
      <path d="M 252 486.54 
L 711.529412 486.54 
" clip-path="url(#pa140a74d82)" style="fill: none; stroke: #ffffff; stroke-linecap: round"/>
     </g>
     <g id="text_19">
      <!-- 45 -->
      <g style="fill: #262626" transform="translate(199.680781 500.318789) scale(0.385 -0.385)">
       <use xlink:href="#ArialMT-34"/>
       <use xlink:href="#ArialMT-35" x="55.615234"/>
      </g>
     </g>
    </g>
    <g id="text_20">
     <!-- GrOpt -->
     <g style="fill: #262626" transform="translate(174.513984 716.9625) rotate(-90) scale(0.42 -0.42)">
      <defs>
       <path id="ArialMT-4f" d="M 309 2231 
Q 309 3372 921 4017 
Q 1534 4663 2503 4663 
Q 3138 4663 3647 4359 
Q 4156 4056 4423 3514 
Q 4691 2972 4691 2284 
Q 4691 1588 4409 1038 
Q 4128 488 3612 205 
Q 3097 -78 2500 -78 
Q 1853 -78 1343 234 
Q 834 547 571 1087 
Q 309 1628 309 2231 
z
M 934 2222 
Q 934 1394 1379 917 
Q 1825 441 2497 441 
Q 3181 441 3623 922 
Q 4066 1403 4066 2288 
Q 4066 2847 3877 3264 
Q 3688 3681 3323 3911 
Q 2959 4141 2506 4141 
Q 1863 4141 1398 3698 
Q 934 3256 934 2222 
z
" transform="scale(0.015625)"/>
       <path id="ArialMT-70" d="M 422 -1272 
L 422 3319 
L 934 3319 
L 934 2888 
Q 1116 3141 1344 3267 
Q 1572 3394 1897 3394 
Q 2322 3394 2647 3175 
Q 2972 2956 3137 2557 
Q 3303 2159 3303 1684 
Q 3303 1175 3120 767 
Q 2938 359 2589 142 
Q 2241 -75 1856 -75 
Q 1575 -75 1351 44 
Q 1128 163 984 344 
L 984 -1272 
L 422 -1272 
z
M 931 1641 
Q 931 1000 1190 694 
Q 1450 388 1819 388 
Q 2194 388 2461 705 
Q 2728 1022 2728 1688 
Q 2728 2322 2467 2637 
Q 2206 2953 1844 2953 
Q 1484 2953 1207 2617 
Q 931 2281 931 1641 
z
" transform="scale(0.015625)"/>
      </defs>
      <use xlink:href="#ArialMT-47"/>
      <use xlink:href="#ArialMT-72" x="77.783203"/>
      <use xlink:href="#ArialMT-4f" x="111.083984"/>
      <use xlink:href="#ArialMT-70" x="188.867188"/>
      <use xlink:href="#ArialMT-74" x="244.482422"/>
     </g>
    </g>
   </g>
   <g id="patch_27">
    <path d="M 252 833.04 
L 269.232353 833.04 
L 269.232353 486.54 
L 252 486.54 
z
" clip-path="url(#pa140a74d82)" style="fill: #ff0000; opacity: 0.1; stroke: #ffffff; stroke-linejoin: miter"/>
   </g>
   <g id="patch_28">
    <path d="M 269.232353 833.04 
L 574.589647 833.04 
L 574.589647 486.54 
L 269.232353 486.54 
z
" clip-path="url(#pa140a74d82)" style="fill: #0000ff; opacity: 0.1; stroke: #ffffff; stroke-linejoin: miter"/>
   </g>
   <g id="patch_29">
    <path d="M 574.589647 833.04 
L 677.983765 833.04 
L 677.983765 486.54 
L 574.589647 486.54 
z
" clip-path="url(#pa140a74d82)" style="fill: #008000; opacity: 0.1; stroke: #ffffff; stroke-linejoin: miter"/>
   </g>
   <g id="line2d_32">
    <path d="M 252 659.79 
L 711.529412 659.79 
" clip-path="url(#pa140a74d82)" style="fill: none; stroke: #000000; stroke-linecap: round"/>
   </g>
   <g id="line2d_33">
    <path d="M 252 513.49 
L 711.529412 513.49 
" clip-path="url(#pa140a74d82)" style="fill: none; stroke-dasharray: 3.7,1.6; stroke-dashoffset: 0; stroke: #000000"/>
   </g>
   <g id="line2d_34">
    <path d="M 252 806.09 
L 711.529412 806.09 
" clip-path="url(#pa140a74d82)" style="fill: none; stroke-dasharray: 3.7,1.6; stroke-dashoffset: 0; stroke: #000000"/>
   </g>
   <g id="line2d_35">
    <path d="M 252 659.79 
L 269.462118 659.79 
L 269.921647 721.221498 
L 270.840706 771.931932 
L 271.300235 792.447275 
L 271.759765 804.627 
L 400.428 804.627 
L 400.887529 802.99041 
L 401.347059 742.007974 
L 402.266118 691.812326 
L 404.104235 614.345363 
L 406.401882 526.410456 
L 406.861412 514.953 
L 445.461882 514.953 
L 445.921412 546.638485 
L 446.380941 595.293675 
L 447.759529 659.79 
L 482.683765 659.79 
L 483.143294 721.296167 
L 484.062353 771.492408 
L 484.521882 791.90602 
L 484.981412 804.627 
L 572.292 804.627 
L 572.751529 769.688344 
L 573.211059 723.679073 
L 574.589647 659.79 
L 574.589647 659.79 
" clip-path="url(#pa140a74d82)" style="fill: none; stroke: #000000; stroke-width: 7; stroke-linecap: round"/>
   </g>
   <g id="patch_30">
    <path d="M 252 833.04 
L 252 486.54 
" style="fill: none; stroke: #ffffff; stroke-width: 1.25; stroke-linejoin: miter; stroke-linecap: square"/>
   </g>
   <g id="patch_31">
    <path d="M 711.529412 833.04 
L 711.529412 486.54 
" style="fill: none; stroke: #ffffff; stroke-width: 1.25; stroke-linejoin: miter; stroke-linecap: square"/>
   </g>
   <g id="patch_32">
    <path d="M 252 833.04 
L 711.529412 833.04 
" style="fill: none; stroke: #ffffff; stroke-width: 1.25; stroke-linejoin: miter; stroke-linecap: square"/>
   </g>
   <g id="patch_33">
    <path d="M 252 486.54 
L 711.529412 486.54 
" style="fill: none; stroke: #ffffff; stroke-width: 1.25; stroke-linejoin: miter; stroke-linecap: square"/>
   </g>
  </g>
  <g id="axes_5">
   <g id="patch_34">
    <path d="M 803.435294 833.04 
L 1262.964706 833.04 
L 1262.964706 486.54 
L 803.435294 486.54 
z
" style="fill: #eaeaf2"/>
   </g>
   <g id="matplotlib.axis_9">
    <g id="xtick_9">
     <g id="line2d_36">
      <path d="M 803.435294 833.04 
L 803.435294 486.54 
" clip-path="url(#p2b9f46a8ff)" style="fill: none; stroke: #ffffff; stroke-linecap: round"/>
     </g>
     <g id="text_21">
      <!-- 0 -->
      <g style="fill: #262626" transform="translate(792.730489 870.097578) scale(0.385 -0.385)">
       <use xlink:href="#ArialMT-30"/>
      </g>
     </g>
    </g>
    <g id="xtick_10">
     <g id="line2d_37">
      <path d="M 1090.641176 833.04 
L 1090.641176 486.54 
" clip-path="url(#p2b9f46a8ff)" style="fill: none; stroke: #ffffff; stroke-linecap: round"/>
     </g>
     <g id="text_22">
      <!-- 50 -->
      <g style="fill: #262626" transform="translate(1069.231567 870.097578) scale(0.385 -0.385)">
       <use xlink:href="#ArialMT-35"/>
       <use xlink:href="#ArialMT-30" x="55.615234"/>
      </g>
     </g>
    </g>
    <g id="text_23">
     <!-- Time [ms] -->
     <g style="fill: #262626" transform="translate(941.830312 911.812266) scale(0.42 -0.42)">
      <use xlink:href="#ArialMT-54"/>
      <use xlink:href="#ArialMT-69" x="57.333984"/>
      <use xlink:href="#ArialMT-6d" x="79.550781"/>
      <use xlink:href="#ArialMT-65" x="162.851562"/>
      <use xlink:href="#ArialMT-20" x="218.466797"/>
      <use xlink:href="#ArialMT-5b" x="246.25"/>
      <use xlink:href="#ArialMT-6d" x="274.033203"/>
      <use xlink:href="#ArialMT-73" x="357.333984"/>
      <use xlink:href="#ArialMT-5d" x="407.333984"/>
     </g>
    </g>
   </g>
   <g id="matplotlib.axis_10">
    <g id="ytick_13">
     <g id="line2d_38">
      <path d="M 803.435294 809.000526 
L 1262.964706 809.000526 
" clip-path="url(#p2b9f46a8ff)" style="fill: none; stroke: #ffffff; stroke-linecap: round"/>
     </g>
     <g id="text_24">
      <!-- −200 -->
      <g style="fill: #262626" transform="translate(707.22006 822.779315) scale(0.385 -0.385)">
       <use xlink:href="#ArialMT-2212"/>
       <use xlink:href="#ArialMT-32" x="58.398438"/>
       <use xlink:href="#ArialMT-30" x="114.013672"/>
       <use xlink:href="#ArialMT-30" x="169.628906"/>
      </g>
     </g>
    </g>
    <g id="ytick_14">
     <g id="line2d_39">
      <path d="M 803.435294 659.79 
L 1262.964706 659.79 
" clip-path="url(#p2b9f46a8ff)" style="fill: none; stroke: #ffffff; stroke-linecap: round"/>
     </g>
     <g id="text_25">
      <!-- 0 -->
      <g style="fill: #262626" transform="translate(772.525685 673.568789) scale(0.385 -0.385)">
       <use xlink:href="#ArialMT-30"/>
      </g>
     </g>
    </g>
    <g id="ytick_15">
     <g id="line2d_40">
      <path d="M 803.435294 510.579474 
L 1262.964706 510.579474 
" clip-path="url(#p2b9f46a8ff)" style="fill: none; stroke: #ffffff; stroke-linecap: round"/>
     </g>
     <g id="text_26">
      <!-- 200 -->
      <g style="fill: #262626" transform="translate(729.706466 524.358263) scale(0.385 -0.385)">
       <use xlink:href="#ArialMT-32"/>
       <use xlink:href="#ArialMT-30" x="55.615234"/>
       <use xlink:href="#ArialMT-30" x="111.230469"/>
      </g>
     </g>
    </g>
   </g>
   <g id="patch_35">
    <path d="M 803.435294 833.04 
L 820.667647 833.04 
L 820.667647 486.54 
L 803.435294 486.54 
z
" clip-path="url(#p2b9f46a8ff)" style="fill: #ff0000; opacity: 0.1; stroke: #ffffff; stroke-linejoin: miter"/>
   </g>
   <g id="patch_36">
    <path d="M 820.667647 833.04 
L 1126.024941 833.04 
L 1126.024941 486.54 
L 820.667647 486.54 
z
" clip-path="url(#p2b9f46a8ff)" style="fill: #0000ff; opacity: 0.1; stroke: #ffffff; stroke-linejoin: miter"/>
   </g>
   <g id="patch_37">
    <path d="M 1126.024941 833.04 
L 1229.419059 833.04 
L 1229.419059 486.54 
L 1126.024941 486.54 
z
" clip-path="url(#p2b9f46a8ff)" style="fill: #008000; opacity: 0.1; stroke: #ffffff; stroke-linejoin: miter"/>
   </g>
   <g id="line2d_41">
    <path d="M 803.435294 659.79 
L 1262.964706 659.79 
" clip-path="url(#p2b9f46a8ff)" style="fill: none; stroke: #000000; stroke-linecap: round"/>
   </g>
   <g id="line2d_42">
    <path d="M 803.435294 510.579474 
L 1262.964706 510.579474 
" clip-path="url(#p2b9f46a8ff)" style="fill: none; stroke-dasharray: 3.7,1.6; stroke-dashoffset: 0; stroke: #000000"/>
   </g>
   <g id="line2d_43">
    <path d="M 803.435294 809.000526 
L 1262.964706 809.000526 
" clip-path="url(#p2b9f46a8ff)" style="fill: none; stroke-dasharray: 3.7,1.6; stroke-dashoffset: 0; stroke: #000000"/>
   </g>
   <g id="line2d_44">
    <path d="M 803.435294 659.79 
L 820.437882 659.79 
L 820.897412 808.592372 
L 821.356941 729.47053 
L 821.816471 712.942758 
L 822.276 709.483266 
L 822.735529 689.292323 
L 823.195059 659.79 
L 951.403765 659.79 
L 951.863294 655.825772 
L 952.322824 512.075367 
L 952.782353 591.228367 
L 953.241882 606.765285 
L 953.701412 610.175932 
L 954.160941 612.367198 
L 955.08 615.063122 
L 955.999059 616.687713 
L 956.918118 617.790785 
L 957.377647 618.221701 
L 957.837176 632.037192 
L 958.296706 659.79 
L 996.437647 659.79 
L 996.897176 736.540127 
L 997.356706 777.644975 
L 997.816235 715.782495 
L 998.275765 711.248703 
L 998.735294 708.564948 
L 999.194824 659.79 
L 1033.659529 659.79 
L 1034.119059 808.77324 
L 1034.578588 728.506996 
L 1035.038118 712.660789 
L 1035.497647 709.236845 
L 1035.957176 690.603379 
L 1036.416706 659.79 
L 1123.267765 659.79 
L 1123.727294 575.159883 
L 1124.186824 548.344098 
L 1124.646353 604.469821 
L 1125.105882 608.833885 
L 1125.565412 611.311064 
L 1125.565412 611.311064 
" clip-path="url(#p2b9f46a8ff)" style="fill: none; stroke: #000000; stroke-width: 7; stroke-linecap: round"/>
   </g>
   <g id="patch_38">
    <path d="M 803.435294 833.04 
L 803.435294 486.54 
" style="fill: none; stroke: #ffffff; stroke-width: 1.25; stroke-linejoin: miter; stroke-linecap: square"/>
   </g>
   <g id="patch_39">
    <path d="M 1262.964706 833.04 
L 1262.964706 486.54 
" style="fill: none; stroke: #ffffff; stroke-width: 1.25; stroke-linejoin: miter; stroke-linecap: square"/>
   </g>
   <g id="patch_40">
    <path d="M 803.435294 833.04 
L 1262.964706 833.04 
" style="fill: none; stroke: #ffffff; stroke-width: 1.25; stroke-linejoin: miter; stroke-linecap: square"/>
   </g>
   <g id="patch_41">
    <path d="M 803.435294 486.54 
L 1262.964706 486.54 
" style="fill: none; stroke: #ffffff; stroke-width: 1.25; stroke-linejoin: miter; stroke-linecap: square"/>
   </g>
  </g>
  <g id="axes_6">
   <g id="patch_42">
    <path d="M 1354.870588 833.04 
L 1814.4 833.04 
L 1814.4 486.54 
L 1354.870588 486.54 
z
" style="fill: #eaeaf2"/>
   </g>
   <g id="matplotlib.axis_11">
    <g id="xtick_11">
     <g id="line2d_45">
      <path d="M 1354.870588 833.04 
L 1354.870588 486.54 
" clip-path="url(#p26acb2e3c3)" style="fill: none; stroke: #ffffff; stroke-linecap: round"/>
     </g>
     <g id="text_27">
      <!-- 0 -->
      <g style="fill: #262626" transform="translate(1344.165784 870.097578) scale(0.385 -0.385)">
       <use xlink:href="#ArialMT-30"/>
      </g>
     </g>
    </g>
    <g id="xtick_12">
     <g id="line2d_46">
      <path d="M 1642.076471 833.04 
L 1642.076471 486.54 
" clip-path="url(#p26acb2e3c3)" style="fill: none; stroke: #ffffff; stroke-linecap: round"/>
     </g>
     <g id="text_28">
      <!-- 50 -->
      <g style="fill: #262626" transform="translate(1620.666861 870.097578) scale(0.385 -0.385)">
       <use xlink:href="#ArialMT-35"/>
       <use xlink:href="#ArialMT-30" x="55.615234"/>
      </g>
     </g>
    </g>
    <g id="text_29">
     <!-- Time [ms] -->
     <g style="fill: #262626" transform="translate(1493.265607 911.812266) scale(0.42 -0.42)">
      <use xlink:href="#ArialMT-54"/>
      <use xlink:href="#ArialMT-69" x="57.333984"/>
      <use xlink:href="#ArialMT-6d" x="79.550781"/>
      <use xlink:href="#ArialMT-65" x="162.851562"/>
      <use xlink:href="#ArialMT-20" x="218.466797"/>
      <use xlink:href="#ArialMT-5b" x="246.25"/>
      <use xlink:href="#ArialMT-6d" x="274.033203"/>
      <use xlink:href="#ArialMT-73" x="357.333984"/>
      <use xlink:href="#ArialMT-5d" x="407.333984"/>
     </g>
    </g>
   </g>
   <g id="matplotlib.axis_12">
    <g id="ytick_16">
     <g id="line2d_47">
      <path d="M 1354.870588 833.04 
L 1814.4 833.04 
" clip-path="url(#p26acb2e3c3)" style="fill: none; stroke: #ffffff; stroke-linecap: round"/>
     </g>
     <g id="text_30">
      <!-- 0 -->
      <g style="fill: #262626" transform="translate(1323.960979 846.818789) scale(0.385 -0.385)">
       <use xlink:href="#ArialMT-30"/>
      </g>
     </g>
    </g>
    <g id="ytick_17">
     <g id="line2d_48">
      <path d="M 1354.870588 661.505347 
L 1814.4 661.505347 
" clip-path="url(#p26acb2e3c3)" style="fill: none; stroke: #ffffff; stroke-linecap: round"/>
     </g>
     <g id="text_31">
      <!-- 50 -->
      <g style="fill: #262626" transform="translate(1302.551369 675.284136) scale(0.385 -0.385)">
       <use xlink:href="#ArialMT-35"/>
       <use xlink:href="#ArialMT-30" x="55.615234"/>
      </g>
     </g>
    </g>
    <g id="ytick_18">
     <g id="line2d_49">
      <path d="M 1354.870588 489.970693 
L 1814.4 489.970693 
" clip-path="url(#p26acb2e3c3)" style="fill: none; stroke: #ffffff; stroke-linecap: round"/>
     </g>
     <g id="text_32">
      <!-- 100 -->
      <g style="fill: #262626" transform="translate(1281.14176 503.749482) scale(0.385 -0.385)">
       <use xlink:href="#ArialMT-31"/>
       <use xlink:href="#ArialMT-30" x="55.615234"/>
       <use xlink:href="#ArialMT-30" x="111.230469"/>
      </g>
     </g>
    </g>
   </g>
   <g id="patch_43">
    <path d="M 1354.870588 833.04 
L 1372.102941 833.04 
L 1372.102941 486.54 
L 1354.870588 486.54 
z
" clip-path="url(#p26acb2e3c3)" style="fill: #ff0000; opacity: 0.1; stroke: #ffffff; stroke-linejoin: miter"/>
   </g>
   <g id="patch_44">
    <path d="M 1372.102941 833.04 
L 1677.460235 833.04 
L 1677.460235 486.54 
L 1372.102941 486.54 
z
" clip-path="url(#p26acb2e3c3)" style="fill: #0000ff; opacity: 0.1; stroke: #ffffff; stroke-linejoin: miter"/>
   </g>
   <g id="patch_45">
    <path d="M 1677.460235 833.04 
L 1780.854353 833.04 
L 1780.854353 486.54 
L 1677.460235 486.54 
z
" clip-path="url(#p26acb2e3c3)" style="fill: #008000; opacity: 0.1; stroke: #ffffff; stroke-linejoin: miter"/>
   </g>
   <g id="line2d_50">
    <path d="M 1354.870588 833.04 
L 1814.4 833.04 
" clip-path="url(#p26acb2e3c3)" style="fill: none; stroke: #000000; stroke-linecap: round"/>
   </g>
   <g id="line2d_51">
    <path d="M 1354.870588 524.277624 
L 1814.4 524.277624 
" clip-path="url(#p26acb2e3c3)" style="fill: none; stroke-dasharray: 3.7,1.6; stroke-dashoffset: 0; stroke: #000000"/>
   </g>
   <g id="line2d_52">
    <path d="M 1354.870588 833.04 
L 1371.873176 833.04 
L 1372.332706 559.881623 
L 1372.792235 527.336805 
L 1373.711294 527.349681 
L 1374.170824 560.3506 
L 1374.630353 633.130176 
L 1375.089882 679.471837 
L 1375.549412 711.043989 
L 1376.008941 733.623346 
L 1376.928 763.174287 
L 1377.847059 781.165922 
L 1378.766118 792.964009 
L 1379.685176 801.131086 
L 1380.604235 807.02383 
L 1381.523294 811.417494 
L 1382.442353 814.78209 
L 1383.361412 817.416404 
L 1384.280471 819.517916 
L 1385.199529 821.221468 
L 1386.578118 823.230157 
L 1387.956706 824.766453 
L 1389.335294 825.967818 
L 1391.173412 827.201231 
L 1393.011529 828.13778 
L 1395.309176 829.022289 
L 1398.066353 829.800267 
L 1401.283059 830.452708 
L 1405.418824 831.03763 
L 1410.473647 831.517928 
L 1417.366588 831.937022 
L 1427.016706 832.284413 
L 1441.721647 832.566007 
L 1465.617176 832.775206 
L 1502.839059 832.903621 
L 1503.298588 825.898251 
L 1503.758118 557.276418 
L 1504.217647 527.497373 
L 1508.812941 527.491085 
L 1509.272471 552.165981 
L 1509.732 618.571265 
L 1510.191529 662.087403 
L 1510.651059 692.636366 
L 1511.570118 732.323082 
L 1512.489176 756.628545 
L 1513.408235 772.799116 
L 1514.327294 784.187813 
L 1515.246353 792.551582 
L 1516.165412 798.895164 
L 1517.084471 803.831818 
L 1518.003529 807.755286 
L 1518.922588 810.928832 
L 1519.841647 813.53444 
L 1521.220235 816.650982 
L 1522.598824 819.07221 
L 1523.977412 820.992078 
L 1525.356 822.540897 
L 1526.734588 823.808987 
L 1528.572706 825.171549 
L 1530.410824 826.253886 
L 1532.708471 827.320386 
L 1535.465647 828.300101 
L 1538.682353 829.157191 
L 1542.358588 829.881984 
L 1546.953882 830.53685 
L 1547.872941 830.643486 
L 1548.792 527.287184 
L 1550.170588 527.191783 
L 1550.630118 613.292874 
L 1551.089647 666.871182 
L 1551.549176 702.743778 
L 1552.008706 728.047905 
L 1552.468235 746.613031 
L 1553.387294 771.558361 
L 1554.306353 787.142785 
L 1555.225412 797.541786 
L 1556.144471 804.828656 
L 1557.063529 810.131967 
L 1557.982588 814.110251 
L 1558.901647 817.169338 
L 1559.820706 819.57063 
L 1560.739765 821.488764 
L 1562.118353 823.713266 
L 1563.496941 825.383052 
L 1564.875529 826.666146 
L 1566.254118 827.671617 
L 1568.092235 828.70366 
L 1569.930353 829.484922 
L 1572.228 830.218096 
L 1574.985176 830.85583 
L 1578.661412 831.442811 
L 1583.256706 831.920515 
L 1585.094824 832.060028 
L 1585.554353 558.601032 
L 1586.013882 527.971056 
L 1586.932941 527.973436 
L 1587.392471 558.152308 
L 1587.852 631.529163 
L 1588.311529 678.185726 
L 1588.771059 709.945084 
L 1589.230588 732.646562 
L 1590.149647 762.347507 
L 1591.068706 780.430825 
L 1591.987765 792.294164 
L 1592.906824 800.512433 
L 1593.825882 806.44788 
L 1594.744941 810.87856 
L 1595.664 814.276043 
L 1596.583059 816.940051 
L 1597.502118 819.068666 
L 1598.421176 820.797147 
L 1599.799765 822.839792 
L 1601.178353 824.40655 
L 1602.556941 825.635409 
L 1604.395059 826.901544 
L 1606.233176 827.866978 
L 1608.530824 828.783052 
L 1611.288 829.593373 
L 1614.504706 830.277349 
L 1618.640471 830.895093 
L 1623.695294 831.406558 
L 1630.588235 831.856808 
L 1639.778824 832.219662 
L 1653.564706 832.519724 
L 1674.703059 832.741652 
L 1675.622118 527.63296 
L 1676.541176 527.566081 
L 1677.000706 527.235995 
L 1677.000706 527.235995 
" clip-path="url(#p26acb2e3c3)" style="fill: none; stroke: #000000; stroke-width: 7; stroke-linecap: round"/>
   </g>
   <g id="patch_46">
    <path d="M 1354.870588 833.04 
L 1354.870588 486.54 
" style="fill: none; stroke: #ffffff; stroke-width: 1.25; stroke-linejoin: miter; stroke-linecap: square"/>
   </g>
   <g id="patch_47">
    <path d="M 1814.4 833.04 
L 1814.4 486.54 
" style="fill: none; stroke: #ffffff; stroke-width: 1.25; stroke-linejoin: miter; stroke-linecap: square"/>
   </g>
   <g id="patch_48">
    <path d="M 1354.870588 833.04 
L 1814.4 833.04 
" style="fill: none; stroke: #ffffff; stroke-width: 1.25; stroke-linejoin: miter; stroke-linecap: square"/>
   </g>
   <g id="patch_49">
    <path d="M 1354.870588 486.54 
L 1814.4 486.54 
" style="fill: none; stroke: #ffffff; stroke-width: 1.25; stroke-linejoin: miter; stroke-linecap: square"/>
   </g>
  </g>
 </g>
 <defs>
  <clipPath id="pe02dbdb6f3">
   <rect x="252" y="112.32" width="459.529412" height="346.5"/>
  </clipPath>
  <clipPath id="pdbe1512168">
   <rect x="803.435294" y="112.32" width="459.529412" height="346.5"/>
  </clipPath>
  <clipPath id="p4681268730">
   <rect x="1354.870588" y="112.32" width="459.529412" height="346.5"/>
  </clipPath>
  <clipPath id="pa140a74d82">
   <rect x="252" y="486.54" width="459.529412" height="346.5"/>
  </clipPath>
  <clipPath id="p2b9f46a8ff">
   <rect x="803.435294" y="486.54" width="459.529412" height="346.5"/>
  </clipPath>
  <clipPath id="p26acb2e3c3">
   <rect x="1354.870588" y="486.54" width="459.529412" height="346.5"/>
  </clipPath>
 </defs>
</svg>
