<?xml version="1.0" encoding="utf-8" standalone="no"?>
<!DOCTYPE svg PUBLIC "-//W3C//DTD SVG 1.1//EN"
  "http://www.w3.org/Graphics/SVG/1.1/DTD/svg11.dtd">
<svg xmlns:xlink="http://www.w3.org/1999/xlink" width="2016pt" height="720pt" viewBox="0 0 2016 720" xmlns="http://www.w3.org/2000/svg" version="1.1">
 <metadata>
  <rdf:RDF xmlns:dc="http://purl.org/dc/elements/1.1/" xmlns:cc="http://creativecommons.org/ns#" xmlns:rdf="http://www.w3.org/1999/02/22-rdf-syntax-ns#">
   <cc:Work>
    <dc:type rdf:resource="http://purl.org/dc/dcmitype/StillImage"/>
    <dc:date>2025-05-06T15:08:38.464962</dc:date>
    <dc:format>image/svg+xml</dc:format>
    <dc:creator>
     <cc:Agent>
      <dc:title>Matplotlib v3.9.0, https://matplotlib.org/</dc:title>
     </cc:Agent>
    </dc:creator>
   </cc:Work>
  </rdf:RDF>
 </metadata>
 <defs>
  <style type="text/css">*{stroke-linejoin: round; stroke-linecap: butt}</style>
 </defs>
 <g id="figure_1">
  <g id="patch_1">
   <path d="M 0 720 
L 2016 720 
L 2016 0 
L 0 0 
L 0 720 
z
" style="fill: none; opacity: 0"/>
  </g>
  <g id="axes_1">
   <g id="patch_2">
    <path d="M 252 352.938462 
L 711.529412 352.938462 
L 711.529412 86.4 
L 252 86.4 
z
" style="fill: #eaeaf2"/>
   </g>
   <g id="matplotlib.axis_1">
    <g id="xtick_1">
     <g id="line2d_1">
      <path d="M 252 352.938462 
L 252 86.4 
" clip-path="url(#p10dbcd5c3b)" style="fill: none; stroke: #ffffff; stroke-linecap: round"/>
     </g>
    </g>
    <g id="xtick_2">
     <g id="line2d_2">
      <path d="M 395.602941 352.938462 
L 395.602941 86.4 
" clip-path="url(#p10dbcd5c3b)" style="fill: none; stroke: #ffffff; stroke-linecap: round"/>
     </g>
    </g>
    <g id="xtick_3">
     <g id="line2d_3">
      <path d="M 539.205882 352.938462 
L 539.205882 86.4 
" clip-path="url(#p10dbcd5c3b)" style="fill: none; stroke: #ffffff; stroke-linecap: round"/>
     </g>
    </g>
    <g id="xtick_4">
     <g id="line2d_4">
      <path d="M 682.808824 352.938462 
L 682.808824 86.4 
" clip-path="url(#p10dbcd5c3b)" style="fill: none; stroke: #ffffff; stroke-linecap: round"/>
     </g>
    </g>
   </g>
   <g id="matplotlib.axis_2">
    <g id="ytick_1">
     <g id="line2d_5">
      <path d="M 252 219.669231 
L 711.529412 219.669231 
" clip-path="url(#p10dbcd5c3b)" style="fill: none; stroke: #ffffff; stroke-linecap: round"/>
     </g>
     <g id="text_1">
      <!-- 0 -->
      <g style="fill: #262626" transform="translate(221.090391 233.44802) scale(0.385 -0.385)">
       <defs>
        <path id="ArialMT-30" d="M 266 2259 
Q 266 3072 433 3567 
Q 600 4063 929 4331 
Q 1259 4600 1759 4600 
Q 2128 4600 2406 4451 
Q 2684 4303 2865 4023 
Q 3047 3744 3150 3342 
Q 3253 2941 3253 2259 
Q 3253 1453 3087 958 
Q 2922 463 2592 192 
Q 2263 -78 1759 -78 
Q 1097 -78 719 397 
Q 266 969 266 2259 
z
M 844 2259 
Q 844 1131 1108 757 
Q 1372 384 1759 384 
Q 2147 384 2411 759 
Q 2675 1134 2675 2259 
Q 2675 3391 2411 3762 
Q 2147 4134 1753 4134 
Q 1366 4134 1134 3806 
Q 844 3388 844 2259 
z
" transform="scale(0.015625)"/>
       </defs>
       <use xlink:href="#ArialMT-30"/>
      </g>
     </g>
    </g>
    <g id="ytick_2">
     <g id="line2d_6">
      <path d="M 252 98.515385 
L 711.529412 98.515385 
" clip-path="url(#p10dbcd5c3b)" style="fill: none; stroke: #ffffff; stroke-linecap: round"/>
     </g>
     <g id="text_2">
      <!-- 200 -->
      <g style="fill: #262626" transform="translate(178.271172 112.294174) scale(0.385 -0.385)">
       <defs>
        <path id="ArialMT-32" d="M 3222 541 
L 3222 0 
L 194 0 
Q 188 203 259 391 
Q 375 700 629 1000 
Q 884 1300 1366 1694 
Q 2113 2306 2375 2664 
Q 2638 3022 2638 3341 
Q 2638 3675 2398 3904 
Q 2159 4134 1775 4134 
Q 1369 4134 1125 3890 
Q 881 3647 878 3216 
L 300 3275 
Q 359 3922 746 4261 
Q 1134 4600 1788 4600 
Q 2447 4600 2831 4234 
Q 3216 3869 3216 3328 
Q 3216 3053 3103 2787 
Q 2991 2522 2730 2228 
Q 2469 1934 1863 1422 
Q 1356 997 1212 845 
Q 1069 694 975 541 
L 3222 541 
z
" transform="scale(0.015625)"/>
       </defs>
       <use xlink:href="#ArialMT-32"/>
       <use xlink:href="#ArialMT-30" x="55.615234"/>
       <use xlink:href="#ArialMT-30" x="111.230469"/>
      </g>
     </g>
    </g>
    <g id="text_3">
     <!-- PGSE -->
     <g style="fill: #262626" transform="translate(165.923672 278.026262) rotate(-90) scale(0.42 -0.42)">
      <defs>
       <path id="ArialMT-50" d="M 494 0 
L 494 4581 
L 2222 4581 
Q 2678 4581 2919 4538 
Q 3256 4481 3484 4323 
Q 3713 4166 3852 3881 
Q 3991 3597 3991 3256 
Q 3991 2672 3619 2267 
Q 3247 1863 2275 1863 
L 1100 1863 
L 1100 0 
L 494 0 
z
M 1100 2403 
L 2284 2403 
Q 2872 2403 3119 2622 
Q 3366 2841 3366 3238 
Q 3366 3525 3220 3729 
Q 3075 3934 2838 4000 
Q 2684 4041 2272 4041 
L 1100 4041 
L 1100 2403 
z
" transform="scale(0.015625)"/>
       <path id="ArialMT-47" d="M 2638 1797 
L 2638 2334 
L 4578 2338 
L 4578 638 
Q 4131 281 3656 101 
Q 3181 -78 2681 -78 
Q 2006 -78 1454 211 
Q 903 500 622 1047 
Q 341 1594 341 2269 
Q 341 2938 620 3517 
Q 900 4097 1425 4378 
Q 1950 4659 2634 4659 
Q 3131 4659 3532 4498 
Q 3934 4338 4162 4050 
Q 4391 3763 4509 3300 
L 3963 3150 
Q 3859 3500 3706 3700 
Q 3553 3900 3268 4020 
Q 2984 4141 2638 4141 
Q 2222 4141 1919 4014 
Q 1616 3888 1430 3681 
Q 1244 3475 1141 3228 
Q 966 2803 966 2306 
Q 966 1694 1177 1281 
Q 1388 869 1791 669 
Q 2194 469 2647 469 
Q 3041 469 3416 620 
Q 3791 772 3984 944 
L 3984 1797 
L 2638 1797 
z
" transform="scale(0.015625)"/>
       <path id="ArialMT-53" d="M 288 1472 
L 859 1522 
Q 900 1178 1048 958 
Q 1197 738 1509 602 
Q 1822 466 2213 466 
Q 2559 466 2825 569 
Q 3091 672 3220 851 
Q 3350 1031 3350 1244 
Q 3350 1459 3225 1620 
Q 3100 1781 2813 1891 
Q 2628 1963 1997 2114 
Q 1366 2266 1113 2400 
Q 784 2572 623 2826 
Q 463 3081 463 3397 
Q 463 3744 659 4045 
Q 856 4347 1234 4503 
Q 1613 4659 2075 4659 
Q 2584 4659 2973 4495 
Q 3363 4331 3572 4012 
Q 3781 3694 3797 3291 
L 3216 3247 
Q 3169 3681 2898 3903 
Q 2628 4125 2100 4125 
Q 1550 4125 1298 3923 
Q 1047 3722 1047 3438 
Q 1047 3191 1225 3031 
Q 1400 2872 2139 2705 
Q 2878 2538 3153 2413 
Q 3553 2228 3743 1945 
Q 3934 1663 3934 1294 
Q 3934 928 3725 604 
Q 3516 281 3123 101 
Q 2731 -78 2241 -78 
Q 1619 -78 1198 103 
Q 778 284 539 648 
Q 300 1013 288 1472 
z
" transform="scale(0.015625)"/>
       <path id="ArialMT-45" d="M 506 0 
L 506 4581 
L 3819 4581 
L 3819 4041 
L 1113 4041 
L 1113 2638 
L 3647 2638 
L 3647 2100 
L 1113 2100 
L 1113 541 
L 3925 541 
L 3925 0 
L 506 0 
z
" transform="scale(0.015625)"/>
      </defs>
      <use xlink:href="#ArialMT-50"/>
      <use xlink:href="#ArialMT-47" x="66.699219"/>
      <use xlink:href="#ArialMT-53" x="144.482422"/>
      <use xlink:href="#ArialMT-45" x="211.181641"/>
     </g>
    </g>
   </g>
   <g id="patch_3">
    <path d="M 252 352.938462 
L 265.785882 352.938462 
L 265.785882 86.4 
L 252 86.4 
z
" clip-path="url(#p10dbcd5c3b)" style="fill: #ff0000; opacity: 0.1; stroke: #ffffff; stroke-linejoin: miter"/>
   </g>
   <g id="patch_4">
    <path d="M 265.785882 352.938462 
L 607.216235 352.938462 
L 607.216235 86.4 
L 265.785882 86.4 
z
" clip-path="url(#p10dbcd5c3b)" style="fill: #0000ff; opacity: 0.1; stroke: #ffffff; stroke-linejoin: miter"/>
   </g>
   <g id="patch_5">
    <path d="M 607.216235 352.938462 
L 710.610353 352.938462 
L 710.610353 86.4 
L 607.216235 86.4 
z
" clip-path="url(#p10dbcd5c3b)" style="fill: #008000; opacity: 0.1; stroke: #ffffff; stroke-linejoin: miter"/>
   </g>
   <g id="line2d_7">
    <path d="M 252 219.669231 
L 711.529412 219.669231 
" clip-path="url(#p10dbcd5c3b)" style="fill: none; stroke: #000000; stroke-linecap: round"/>
   </g>
   <g id="line2d_8">
    <path d="M 252 98.515385 
L 711.529412 98.515385 
" clip-path="url(#p10dbcd5c3b)" style="fill: none; stroke-dasharray: 3.7,1.6; stroke-dashoffset: 0; stroke: #000000"/>
   </g>
   <g id="line2d_9">
    <path d="M 252 340.823077 
L 711.529412 340.823077 
" clip-path="url(#p10dbcd5c3b)" style="fill: none; stroke-dasharray: 3.7,1.6; stroke-dashoffset: 0; stroke: #000000"/>
   </g>
   <g id="line2d_10">
    <path d="M 252 219.669231 
L 265.728441 219.669231 
L 281.065235 128.803846 
L 304.041706 128.803846 
L 334.657853 310.534615 
L 357.691765 310.534615 
L 373.028559 219.669231 
L 499.973559 219.669231 
L 515.310353 128.803846 
L 538.286824 128.803846 
L 568.902971 310.534615 
L 591.936882 310.534615 
L 607.216235 219.669231 
L 607.216235 219.669231 
" clip-path="url(#p10dbcd5c3b)" style="fill: none; stroke: #000000; stroke-width: 7; stroke-linecap: round"/>
   </g>
   <g id="patch_6">
    <path d="M 252 352.938462 
L 252 86.4 
" style="fill: none; stroke: #ffffff; stroke-width: 1.25; stroke-linejoin: miter; stroke-linecap: square"/>
   </g>
   <g id="patch_7">
    <path d="M 711.529412 352.938462 
L 711.529412 86.4 
" style="fill: none; stroke: #ffffff; stroke-width: 1.25; stroke-linejoin: miter; stroke-linecap: square"/>
   </g>
   <g id="patch_8">
    <path d="M 252 352.938462 
L 711.529412 352.938462 
" style="fill: none; stroke: #ffffff; stroke-width: 1.25; stroke-linejoin: miter; stroke-linecap: square"/>
   </g>
   <g id="patch_9">
    <path d="M 252 86.4 
L 711.529412 86.4 
" style="fill: none; stroke: #ffffff; stroke-width: 1.25; stroke-linejoin: miter; stroke-linecap: square"/>
   </g>
   <g id="text_4">
    <!-- Gradient (mT/m) -->
    <g style="fill: #262626" transform="translate(327.762518 77.560313) scale(0.42 -0.42)">
     <defs>
      <path id="ArialMT-72" d="M 416 0 
L 416 3319 
L 922 3319 
L 922 2816 
Q 1116 3169 1280 3281 
Q 1444 3394 1641 3394 
Q 1925 3394 2219 3213 
L 2025 2691 
Q 1819 2813 1613 2813 
Q 1428 2813 1281 2702 
Q 1134 2591 1072 2394 
Q 978 2094 978 1738 
L 978 0 
L 416 0 
z
" transform="scale(0.015625)"/>
      <path id="ArialMT-61" d="M 2588 409 
Q 2275 144 1986 34 
Q 1697 -75 1366 -75 
Q 819 -75 525 192 
Q 231 459 231 875 
Q 231 1119 342 1320 
Q 453 1522 633 1644 
Q 813 1766 1038 1828 
Q 1203 1872 1538 1913 
Q 2219 1994 2541 2106 
Q 2544 2222 2544 2253 
Q 2544 2597 2384 2738 
Q 2169 2928 1744 2928 
Q 1347 2928 1158 2789 
Q 969 2650 878 2297 
L 328 2372 
Q 403 2725 575 2942 
Q 747 3159 1072 3276 
Q 1397 3394 1825 3394 
Q 2250 3394 2515 3294 
Q 2781 3194 2906 3042 
Q 3031 2891 3081 2659 
Q 3109 2516 3109 2141 
L 3109 1391 
Q 3109 606 3145 398 
Q 3181 191 3288 0 
L 2700 0 
Q 2613 175 2588 409 
z
M 2541 1666 
Q 2234 1541 1622 1453 
Q 1275 1403 1131 1340 
Q 988 1278 909 1158 
Q 831 1038 831 891 
Q 831 666 1001 516 
Q 1172 366 1500 366 
Q 1825 366 2078 508 
Q 2331 650 2450 897 
Q 2541 1088 2541 1459 
L 2541 1666 
z
" transform="scale(0.015625)"/>
      <path id="ArialMT-64" d="M 2575 0 
L 2575 419 
Q 2259 -75 1647 -75 
Q 1250 -75 917 144 
Q 584 363 401 755 
Q 219 1147 219 1656 
Q 219 2153 384 2558 
Q 550 2963 881 3178 
Q 1213 3394 1622 3394 
Q 1922 3394 2156 3267 
Q 2391 3141 2538 2938 
L 2538 4581 
L 3097 4581 
L 3097 0 
L 2575 0 
z
M 797 1656 
Q 797 1019 1065 703 
Q 1334 388 1700 388 
Q 2069 388 2326 689 
Q 2584 991 2584 1609 
Q 2584 2291 2321 2609 
Q 2059 2928 1675 2928 
Q 1300 2928 1048 2622 
Q 797 2316 797 1656 
z
" transform="scale(0.015625)"/>
      <path id="ArialMT-69" d="M 425 3934 
L 425 4581 
L 988 4581 
L 988 3934 
L 425 3934 
z
M 425 0 
L 425 3319 
L 988 3319 
L 988 0 
L 425 0 
z
" transform="scale(0.015625)"/>
      <path id="ArialMT-65" d="M 2694 1069 
L 3275 997 
Q 3138 488 2766 206 
Q 2394 -75 1816 -75 
Q 1088 -75 661 373 
Q 234 822 234 1631 
Q 234 2469 665 2931 
Q 1097 3394 1784 3394 
Q 2450 3394 2872 2941 
Q 3294 2488 3294 1666 
Q 3294 1616 3291 1516 
L 816 1516 
Q 847 969 1125 678 
Q 1403 388 1819 388 
Q 2128 388 2347 550 
Q 2566 713 2694 1069 
z
M 847 1978 
L 2700 1978 
Q 2663 2397 2488 2606 
Q 2219 2931 1791 2931 
Q 1403 2931 1139 2672 
Q 875 2413 847 1978 
z
" transform="scale(0.015625)"/>
      <path id="ArialMT-6e" d="M 422 0 
L 422 3319 
L 928 3319 
L 928 2847 
Q 1294 3394 1984 3394 
Q 2284 3394 2536 3286 
Q 2788 3178 2913 3003 
Q 3038 2828 3088 2588 
Q 3119 2431 3119 2041 
L 3119 0 
L 2556 0 
L 2556 2019 
Q 2556 2363 2490 2533 
Q 2425 2703 2258 2804 
Q 2091 2906 1866 2906 
Q 1506 2906 1245 2678 
Q 984 2450 984 1813 
L 984 0 
L 422 0 
z
" transform="scale(0.015625)"/>
      <path id="ArialMT-74" d="M 1650 503 
L 1731 6 
Q 1494 -44 1306 -44 
Q 1000 -44 831 53 
Q 663 150 594 308 
Q 525 466 525 972 
L 525 2881 
L 113 2881 
L 113 3319 
L 525 3319 
L 525 4141 
L 1084 4478 
L 1084 3319 
L 1650 3319 
L 1650 2881 
L 1084 2881 
L 1084 941 
Q 1084 700 1114 631 
Q 1144 563 1211 522 
Q 1278 481 1403 481 
Q 1497 481 1650 503 
z
" transform="scale(0.015625)"/>
      <path id="ArialMT-20" transform="scale(0.015625)"/>
      <path id="ArialMT-28" d="M 1497 -1347 
Q 1031 -759 709 28 
Q 388 816 388 1659 
Q 388 2403 628 3084 
Q 909 3875 1497 4659 
L 1900 4659 
Q 1522 4009 1400 3731 
Q 1209 3300 1100 2831 
Q 966 2247 966 1656 
Q 966 153 1900 -1347 
L 1497 -1347 
z
" transform="scale(0.015625)"/>
      <path id="ArialMT-6d" d="M 422 0 
L 422 3319 
L 925 3319 
L 925 2853 
Q 1081 3097 1340 3245 
Q 1600 3394 1931 3394 
Q 2300 3394 2536 3241 
Q 2772 3088 2869 2813 
Q 3263 3394 3894 3394 
Q 4388 3394 4653 3120 
Q 4919 2847 4919 2278 
L 4919 0 
L 4359 0 
L 4359 2091 
Q 4359 2428 4304 2576 
Q 4250 2725 4106 2815 
Q 3963 2906 3769 2906 
Q 3419 2906 3187 2673 
Q 2956 2441 2956 1928 
L 2956 0 
L 2394 0 
L 2394 2156 
Q 2394 2531 2256 2718 
Q 2119 2906 1806 2906 
Q 1569 2906 1367 2781 
Q 1166 2656 1075 2415 
Q 984 2175 984 1722 
L 984 0 
L 422 0 
z
" transform="scale(0.015625)"/>
      <path id="ArialMT-54" d="M 1659 0 
L 1659 4041 
L 150 4041 
L 150 4581 
L 3781 4581 
L 3781 4041 
L 2266 4041 
L 2266 0 
L 1659 0 
z
" transform="scale(0.015625)"/>
      <path id="ArialMT-2f" d="M 0 -78 
L 1328 4659 
L 1778 4659 
L 453 -78 
L 0 -78 
z
" transform="scale(0.015625)"/>
      <path id="ArialMT-29" d="M 791 -1347 
L 388 -1347 
Q 1322 153 1322 1656 
Q 1322 2244 1188 2822 
Q 1081 3291 891 3722 
Q 769 4003 388 4659 
L 791 4659 
Q 1378 3875 1659 3084 
Q 1900 2403 1900 1659 
Q 1900 816 1576 28 
Q 1253 -759 791 -1347 
z
" transform="scale(0.015625)"/>
     </defs>
     <use xlink:href="#ArialMT-47"/>
     <use xlink:href="#ArialMT-72" x="77.783203"/>
     <use xlink:href="#ArialMT-61" x="111.083984"/>
     <use xlink:href="#ArialMT-64" x="166.699219"/>
     <use xlink:href="#ArialMT-69" x="222.314453"/>
     <use xlink:href="#ArialMT-65" x="244.53125"/>
     <use xlink:href="#ArialMT-6e" x="300.146484"/>
     <use xlink:href="#ArialMT-74" x="355.761719"/>
     <use xlink:href="#ArialMT-20" x="383.544922"/>
     <use xlink:href="#ArialMT-28" x="411.328125"/>
     <use xlink:href="#ArialMT-6d" x="444.628906"/>
     <use xlink:href="#ArialMT-54" x="527.929688"/>
     <use xlink:href="#ArialMT-2f" x="589.013672"/>
     <use xlink:href="#ArialMT-6d" x="616.796875"/>
     <use xlink:href="#ArialMT-29" x="700.097656"/>
    </g>
   </g>
  </g>
  <g id="axes_2">
   <g id="patch_10">
    <path d="M 803.435294 352.938462 
L 1262.964706 352.938462 
L 1262.964706 86.4 
L 803.435294 86.4 
z
" style="fill: #eaeaf2"/>
   </g>
   <g id="matplotlib.axis_3">
    <g id="xtick_5">
     <g id="line2d_11">
      <path d="M 803.435294 352.938462 
L 803.435294 86.4 
" clip-path="url(#p26cbb0e88d)" style="fill: none; stroke: #ffffff; stroke-linecap: round"/>
     </g>
    </g>
    <g id="xtick_6">
     <g id="line2d_12">
      <path d="M 947.038235 352.938462 
L 947.038235 86.4 
" clip-path="url(#p26cbb0e88d)" style="fill: none; stroke: #ffffff; stroke-linecap: round"/>
     </g>
    </g>
    <g id="xtick_7">
     <g id="line2d_13">
      <path d="M 1090.641176 352.938462 
L 1090.641176 86.4 
" clip-path="url(#p26cbb0e88d)" style="fill: none; stroke: #ffffff; stroke-linecap: round"/>
     </g>
    </g>
    <g id="xtick_8">
     <g id="line2d_14">
      <path d="M 1234.244118 352.938462 
L 1234.244118 86.4 
" clip-path="url(#p26cbb0e88d)" style="fill: none; stroke: #ffffff; stroke-linecap: round"/>
     </g>
    </g>
   </g>
   <g id="matplotlib.axis_4">
    <g id="ytick_3">
     <g id="line2d_15">
      <path d="M 803.435294 219.669231 
L 1262.964706 219.669231 
" clip-path="url(#p26cbb0e88d)" style="fill: none; stroke: #ffffff; stroke-linecap: round"/>
     </g>
     <g id="text_5">
      <!-- 0 -->
      <g style="fill: #262626" transform="translate(772.525685 233.44802) scale(0.385 -0.385)">
       <use xlink:href="#ArialMT-30"/>
      </g>
     </g>
    </g>
    <g id="ytick_4">
     <g id="line2d_16">
      <path d="M 803.435294 98.515385 
L 1262.964706 98.515385 
" clip-path="url(#p26cbb0e88d)" style="fill: none; stroke: #ffffff; stroke-linecap: round"/>
     </g>
     <g id="text_6">
      <!-- 200 -->
      <g style="fill: #262626" transform="translate(729.706466 112.294174) scale(0.385 -0.385)">
       <use xlink:href="#ArialMT-32"/>
       <use xlink:href="#ArialMT-30" x="55.615234"/>
       <use xlink:href="#ArialMT-30" x="111.230469"/>
      </g>
     </g>
    </g>
   </g>
   <g id="patch_11">
    <path d="M 803.435294 352.938462 
L 817.221176 352.938462 
L 817.221176 86.4 
L 803.435294 86.4 
z
" clip-path="url(#p26cbb0e88d)" style="fill: #ff0000; opacity: 0.1; stroke: #ffffff; stroke-linejoin: miter"/>
   </g>
   <g id="patch_12">
    <path d="M 817.221176 352.938462 
L 1158.651529 352.938462 
L 1158.651529 86.4 
L 817.221176 86.4 
z
" clip-path="url(#p26cbb0e88d)" style="fill: #0000ff; opacity: 0.1; stroke: #ffffff; stroke-linejoin: miter"/>
   </g>
   <g id="patch_13">
    <path d="M 1158.651529 352.938462 
L 1262.045647 352.938462 
L 1262.045647 86.4 
L 1158.651529 86.4 
z
" clip-path="url(#p26cbb0e88d)" style="fill: #008000; opacity: 0.1; stroke: #ffffff; stroke-linejoin: miter"/>
   </g>
   <g id="line2d_17">
    <path d="M 803.435294 219.669231 
L 1262.964706 219.669231 
" clip-path="url(#p26cbb0e88d)" style="fill: none; stroke: #000000; stroke-linecap: round"/>
   </g>
   <g id="line2d_18">
    <path d="M 803.435294 98.515385 
L 1262.964706 98.515385 
" clip-path="url(#p26cbb0e88d)" style="fill: none; stroke-dasharray: 3.7,1.6; stroke-dashoffset: 0; stroke: #000000"/>
   </g>
   <g id="line2d_19">
    <path d="M 803.435294 340.823077 
L 1262.964706 340.823077 
" clip-path="url(#p26cbb0e88d)" style="fill: none; stroke-dasharray: 3.7,1.6; stroke-dashoffset: 0; stroke: #000000"/>
   </g>
   <g id="line2d_20">
    <path d="M 803.435294 219.669231 
L 817.106294 219.669231 
L 817.221176 185.509312 
L 832.385647 185.509312 
L 832.500529 219.669231 
L 855.419559 219.669231 
L 855.534441 253.82915 
L 870.698912 253.82915 
L 870.756353 219.669231 
L 870.871235 253.82915 
L 886.035706 253.82915 
L 886.150588 219.669231 
L 909.069618 219.669231 
L 909.1845 185.509312 
L 924.348971 185.509312 
L 924.463853 219.669231 
L 1051.351412 219.669231 
L 1051.466294 185.509312 
L 1066.630765 185.509312 
L 1066.745647 219.669231 
L 1089.664676 219.669231 
L 1089.779559 253.82915 
L 1104.944029 253.82915 
L 1105.001471 219.669231 
L 1105.116353 253.82915 
L 1120.280824 253.82915 
L 1120.395706 219.669231 
L 1143.314735 219.669231 
L 1143.429618 185.509312 
L 1158.594088 185.509312 
L 1158.594088 185.509312 
" clip-path="url(#p26cbb0e88d)" style="fill: none; stroke: #000000; stroke-width: 7; stroke-linecap: round"/>
   </g>
   <g id="patch_14">
    <path d="M 803.435294 352.938462 
L 803.435294 86.4 
" style="fill: none; stroke: #ffffff; stroke-width: 1.25; stroke-linejoin: miter; stroke-linecap: square"/>
   </g>
   <g id="patch_15">
    <path d="M 1262.964706 352.938462 
L 1262.964706 86.4 
" style="fill: none; stroke: #ffffff; stroke-width: 1.25; stroke-linejoin: miter; stroke-linecap: square"/>
   </g>
   <g id="patch_16">
    <path d="M 803.435294 352.938462 
L 1262.964706 352.938462 
" style="fill: none; stroke: #ffffff; stroke-width: 1.25; stroke-linejoin: miter; stroke-linecap: square"/>
   </g>
   <g id="patch_17">
    <path d="M 803.435294 86.4 
L 1262.964706 86.4 
" style="fill: none; stroke: #ffffff; stroke-width: 1.25; stroke-linejoin: miter; stroke-linecap: square"/>
   </g>
   <g id="text_7">
    <!-- Slew Rate (T/m/s) -->
    <g style="fill: #262626" transform="translate(865.186875 77.560313) scale(0.42 -0.42)">
     <defs>
      <path id="ArialMT-6c" d="M 409 0 
L 409 4581 
L 972 4581 
L 972 0 
L 409 0 
z
" transform="scale(0.015625)"/>
      <path id="ArialMT-77" d="M 1034 0 
L 19 3319 
L 600 3319 
L 1128 1403 
L 1325 691 
Q 1338 744 1497 1375 
L 2025 3319 
L 2603 3319 
L 3100 1394 
L 3266 759 
L 3456 1400 
L 4025 3319 
L 4572 3319 
L 3534 0 
L 2950 0 
L 2422 1988 
L 2294 2553 
L 1622 0 
L 1034 0 
z
" transform="scale(0.015625)"/>
      <path id="ArialMT-52" d="M 503 0 
L 503 4581 
L 2534 4581 
Q 3147 4581 3465 4457 
Q 3784 4334 3975 4021 
Q 4166 3709 4166 3331 
Q 4166 2844 3850 2509 
Q 3534 2175 2875 2084 
Q 3116 1969 3241 1856 
Q 3506 1613 3744 1247 
L 4541 0 
L 3778 0 
L 3172 953 
Q 2906 1366 2734 1584 
Q 2563 1803 2427 1890 
Q 2291 1978 2150 2013 
Q 2047 2034 1813 2034 
L 1109 2034 
L 1109 0 
L 503 0 
z
M 1109 2559 
L 2413 2559 
Q 2828 2559 3062 2645 
Q 3297 2731 3419 2920 
Q 3541 3109 3541 3331 
Q 3541 3656 3305 3865 
Q 3069 4075 2559 4075 
L 1109 4075 
L 1109 2559 
z
" transform="scale(0.015625)"/>
      <path id="ArialMT-73" d="M 197 991 
L 753 1078 
Q 800 744 1014 566 
Q 1228 388 1613 388 
Q 2000 388 2187 545 
Q 2375 703 2375 916 
Q 2375 1106 2209 1216 
Q 2094 1291 1634 1406 
Q 1016 1563 777 1677 
Q 538 1791 414 1992 
Q 291 2194 291 2438 
Q 291 2659 392 2848 
Q 494 3038 669 3163 
Q 800 3259 1026 3326 
Q 1253 3394 1513 3394 
Q 1903 3394 2198 3281 
Q 2494 3169 2634 2976 
Q 2775 2784 2828 2463 
L 2278 2388 
Q 2241 2644 2061 2787 
Q 1881 2931 1553 2931 
Q 1166 2931 1000 2803 
Q 834 2675 834 2503 
Q 834 2394 903 2306 
Q 972 2216 1119 2156 
Q 1203 2125 1616 2013 
Q 2213 1853 2448 1751 
Q 2684 1650 2818 1456 
Q 2953 1263 2953 975 
Q 2953 694 2789 445 
Q 2625 197 2315 61 
Q 2006 -75 1616 -75 
Q 969 -75 630 194 
Q 291 463 197 991 
z
" transform="scale(0.015625)"/>
     </defs>
     <use xlink:href="#ArialMT-53"/>
     <use xlink:href="#ArialMT-6c" x="66.699219"/>
     <use xlink:href="#ArialMT-65" x="88.916016"/>
     <use xlink:href="#ArialMT-77" x="144.53125"/>
     <use xlink:href="#ArialMT-20" x="216.748047"/>
     <use xlink:href="#ArialMT-52" x="244.53125"/>
     <use xlink:href="#ArialMT-61" x="316.748047"/>
     <use xlink:href="#ArialMT-74" x="372.363281"/>
     <use xlink:href="#ArialMT-65" x="400.146484"/>
     <use xlink:href="#ArialMT-20" x="455.761719"/>
     <use xlink:href="#ArialMT-28" x="483.544922"/>
     <use xlink:href="#ArialMT-54" x="516.845703"/>
     <use xlink:href="#ArialMT-2f" x="577.929688"/>
     <use xlink:href="#ArialMT-6d" x="605.712891"/>
     <use xlink:href="#ArialMT-2f" x="689.013672"/>
     <use xlink:href="#ArialMT-73" x="716.796875"/>
     <use xlink:href="#ArialMT-29" x="766.796875"/>
    </g>
   </g>
  </g>
  <g id="axes_3">
   <g id="patch_18">
    <path d="M 1354.870588 352.938462 
L 1814.4 352.938462 
L 1814.4 86.4 
L 1354.870588 86.4 
z
" style="fill: #eaeaf2"/>
   </g>
   <g id="matplotlib.axis_5">
    <g id="xtick_9">
     <g id="line2d_21">
      <path d="M 1354.870588 352.938462 
L 1354.870588 86.4 
" clip-path="url(#pc2b1e02710)" style="fill: none; stroke: #ffffff; stroke-linecap: round"/>
     </g>
    </g>
    <g id="xtick_10">
     <g id="line2d_22">
      <path d="M 1498.473529 352.938462 
L 1498.473529 86.4 
" clip-path="url(#pc2b1e02710)" style="fill: none; stroke: #ffffff; stroke-linecap: round"/>
     </g>
    </g>
    <g id="xtick_11">
     <g id="line2d_23">
      <path d="M 1642.076471 352.938462 
L 1642.076471 86.4 
" clip-path="url(#pc2b1e02710)" style="fill: none; stroke: #ffffff; stroke-linecap: round"/>
     </g>
    </g>
    <g id="xtick_12">
     <g id="line2d_24">
      <path d="M 1785.679412 352.938462 
L 1785.679412 86.4 
" clip-path="url(#pc2b1e02710)" style="fill: none; stroke: #ffffff; stroke-linecap: round"/>
     </g>
    </g>
   </g>
   <g id="matplotlib.axis_6">
    <g id="ytick_5">
     <g id="line2d_25">
      <path d="M 1354.870588 352.938462 
L 1814.4 352.938462 
" clip-path="url(#pc2b1e02710)" style="fill: none; stroke: #ffffff; stroke-linecap: round"/>
     </g>
     <g id="text_8">
      <!-- 0 -->
      <g style="fill: #262626" transform="translate(1323.960979 366.717251) scale(0.385 -0.385)">
       <use xlink:href="#ArialMT-30"/>
      </g>
     </g>
    </g>
    <g id="ytick_6">
     <g id="line2d_26">
      <path d="M 1354.870588 220.988728 
L 1814.4 220.988728 
" clip-path="url(#pc2b1e02710)" style="fill: none; stroke: #ffffff; stroke-linecap: round"/>
     </g>
     <g id="text_9">
      <!-- 50 -->
      <g style="fill: #262626" transform="translate(1302.551369 234.767517) scale(0.385 -0.385)">
       <defs>
        <path id="ArialMT-35" d="M 266 1200 
L 856 1250 
Q 922 819 1161 601 
Q 1400 384 1738 384 
Q 2144 384 2425 690 
Q 2706 997 2706 1503 
Q 2706 1984 2436 2262 
Q 2166 2541 1728 2541 
Q 1456 2541 1237 2417 
Q 1019 2294 894 2097 
L 366 2166 
L 809 4519 
L 3088 4519 
L 3088 3981 
L 1259 3981 
L 1013 2750 
Q 1425 3038 1878 3038 
Q 2478 3038 2890 2622 
Q 3303 2206 3303 1553 
Q 3303 931 2941 478 
Q 2500 -78 1738 -78 
Q 1113 -78 717 272 
Q 322 622 266 1200 
z
" transform="scale(0.015625)"/>
       </defs>
       <use xlink:href="#ArialMT-35"/>
       <use xlink:href="#ArialMT-30" x="55.615234"/>
      </g>
     </g>
    </g>
    <g id="ytick_7">
     <g id="line2d_27">
      <path d="M 1354.870588 89.038995 
L 1814.4 89.038995 
" clip-path="url(#pc2b1e02710)" style="fill: none; stroke: #ffffff; stroke-linecap: round"/>
     </g>
     <g id="text_10">
      <!-- 100 -->
      <g style="fill: #262626" transform="translate(1281.14176 102.817784) scale(0.385 -0.385)">
       <defs>
        <path id="ArialMT-31" d="M 2384 0 
L 1822 0 
L 1822 3584 
Q 1619 3391 1289 3197 
Q 959 3003 697 2906 
L 697 3450 
Q 1169 3672 1522 3987 
Q 1875 4303 2022 4600 
L 2384 4600 
L 2384 0 
z
" transform="scale(0.015625)"/>
       </defs>
       <use xlink:href="#ArialMT-31"/>
       <use xlink:href="#ArialMT-30" x="55.615234"/>
       <use xlink:href="#ArialMT-30" x="111.230469"/>
      </g>
     </g>
    </g>
   </g>
   <g id="patch_19">
    <path d="M 1354.870588 352.938462 
L 1368.656471 352.938462 
L 1368.656471 86.4 
L 1354.870588 86.4 
z
" clip-path="url(#pc2b1e02710)" style="fill: #ff0000; opacity: 0.1; stroke: #ffffff; stroke-linejoin: miter"/>
   </g>
   <g id="patch_20">
    <path d="M 1368.656471 352.938462 
L 1710.086824 352.938462 
L 1710.086824 86.4 
L 1368.656471 86.4 
z
" clip-path="url(#pc2b1e02710)" style="fill: #0000ff; opacity: 0.1; stroke: #ffffff; stroke-linejoin: miter"/>
   </g>
   <g id="patch_21">
    <path d="M 1710.086824 352.938462 
L 1813.480941 352.938462 
L 1813.480941 86.4 
L 1710.086824 86.4 
z
" clip-path="url(#pc2b1e02710)" style="fill: #008000; opacity: 0.1; stroke: #ffffff; stroke-linejoin: miter"/>
   </g>
   <g id="line2d_28">
    <path d="M 1354.870588 352.938462 
L 1814.4 352.938462 
" clip-path="url(#pc2b1e02710)" style="fill: none; stroke: #000000; stroke-linecap: round"/>
   </g>
   <g id="line2d_29">
    <path d="M 1354.870588 115.428941 
L 1814.4 115.428941 
" clip-path="url(#pc2b1e02710)" style="fill: none; stroke-dasharray: 3.7,1.6; stroke-dashoffset: 0; stroke: #000000"/>
   </g>
   <g id="line2d_30">
    <path d="M 1354.870588 352.938462 
L 1368.541588 352.938462 
L 1369.058559 298.863569 
L 1369.632971 260.773541 
L 1370.264824 232.861965 
L 1370.954118 211.762625 
L 1371.700853 195.405786 
L 1372.505029 182.457982 
L 1373.366647 172.026723 
L 1374.285706 163.495392 
L 1375.262206 156.426356 
L 1376.296147 150.501754 
L 1377.387529 145.486031 
L 1378.536353 141.201525 
L 1379.800059 137.353327 
L 1381.121206 134.048906 
L 1382.499794 131.188201 
L 1383.820941 128.877774 
L 1384.337912 182.142547 
L 1384.912324 219.38624 
L 1385.544176 246.42629 
L 1386.233471 266.639019 
L 1386.980206 282.103214 
L 1387.784382 294.160259 
L 1388.646 303.709417 
L 1389.565059 311.372961 
L 1390.484118 317.269996 
L 1391.460618 322.185044 
L 1392.494559 326.305125 
L 1393.585941 329.777249 
L 1394.734765 332.717879 
L 1395.941029 335.219954 
L 1397.262176 337.445665 
L 1398.640765 339.336446 
L 1400.134235 341.009352 
L 1401.742588 342.480162 
L 1403.523265 343.806064 
L 1405.476265 344.984853 
L 1406.854853 345.682433 
L 1406.912294 352.741554 
L 1407.429265 301.248236 
L 1408.003676 264.500111 
L 1408.635529 237.285985 
L 1409.324824 216.525152 
L 1410.071559 200.296198 
L 1410.875735 187.347922 
L 1411.737353 176.836045 
L 1412.656412 168.173557 
L 1413.632912 160.941753 
L 1414.666853 154.835274 
L 1415.815676 149.381142 
L 1417.021941 144.742705 
L 1418.285647 140.758418 
L 1419.606794 137.306068 
L 1421.042824 134.176839 
L 1422.134206 132.137316 
L 1422.191647 139.462808 
L 1422.249088 138.937556 
L 1422.766059 135.465077 
L 1423.340471 133.060754 
L 1424.087206 130.928904 
L 1425.006265 129.018554 
L 1426.155088 127.171719 
L 1427.533676 125.38428 
L 1429.199471 123.599974 
L 1431.095029 121.901567 
L 1433.220353 120.296127 
L 1435.632882 118.757315 
L 1437.471 117.742269 
L 1437.987971 171.552359 
L 1438.562382 209.357825 
L 1439.194235 236.967511 
L 1439.883529 257.750059 
L 1440.630265 273.777592 
L 1441.434441 286.385889 
L 1442.296059 296.469649 
L 1443.215118 304.647578 
L 1444.191618 311.35926 
L 1445.225559 316.924357 
L 1446.316941 321.58007 
L 1447.465765 325.505549 
L 1448.672029 328.838234 
L 1449.935735 331.685037 
L 1451.256882 334.130162 
L 1452.692912 336.320452 
L 1454.186382 338.203273 
L 1455.794735 339.884979 
L 1457.575412 341.424892 
L 1459.528412 342.815401 
L 1460.504912 343.416835 
L 1460.562353 350.876435 
L 1460.619794 347.966533 
L 1461.136765 299.018369 
L 1461.711176 263.701987 
L 1462.343029 237.330851 
L 1463.032324 217.080697 
L 1463.779059 201.16474 
L 1464.583235 188.406729 
L 1465.444853 178.006217 
L 1466.363912 169.40294 
L 1467.397853 161.819491 
L 1468.489235 155.486183 
L 1469.638059 150.129413 
L 1470.844324 145.548789 
L 1472.108029 141.594442 
L 1473.486618 138.015813 
L 1474.922647 134.904192 
L 1475.784265 133.275946 
L 1476.301235 186.446525 
L 1476.875647 223.589016 
L 1477.5075 250.521755 
L 1478.196794 270.621971 
L 1478.943529 285.969353 
L 1479.747706 297.906167 
L 1480.609324 307.332526 
L 1481.470941 314.458734 
L 1482.39 320.3295 
L 1483.3665 325.194401 
L 1484.400441 329.247364 
L 1485.491824 332.640395 
L 1486.640647 335.493631 
L 1487.846912 337.902765 
L 1489.110618 339.944569 
L 1490.489206 341.748909 
L 1491.982676 343.328189 
L 1493.591029 344.700275 
L 1495.371706 345.920914 
L 1497.324706 346.990077 
L 1499.564912 347.9595 
L 1502.149765 348.829287 
L 1505.194147 349.609918 
L 1508.812941 350.299637 
L 1513.235912 350.906832 
L 1518.750265 351.430319 
L 1525.930412 351.876372 
L 1535.637971 352.241914 
L 1549.596176 352.52763 
L 1571.653588 352.734695 
L 1602.786706 352.847415 
L 1603.303676 298.773609 
L 1603.878088 260.684771 
L 1604.509941 232.774479 
L 1605.199235 211.676515 
L 1605.945971 195.321135 
L 1606.750147 182.374867 
L 1607.611765 171.945215 
L 1608.530824 163.415555 
L 1609.507324 156.348248 
L 1610.541265 150.425425 
L 1611.632647 145.411525 
L 1612.781471 141.128879 
L 1613.987735 137.441371 
L 1615.308882 134.111222 
L 1616.687471 131.230678 
L 1618.066059 128.812964 
L 1618.583029 182.078445 
L 1619.157441 219.322914 
L 1619.789294 246.363803 
L 1620.478588 266.577432 
L 1621.225324 282.042583 
L 1622.0295 294.100637 
L 1622.891118 303.650852 
L 1623.810176 311.315499 
L 1624.729235 317.213609 
L 1625.705735 322.129773 
L 1626.739676 326.251005 
L 1627.831059 329.724311 
L 1628.979882 332.66615 
L 1630.186147 335.169458 
L 1631.507294 337.396478 
L 1632.885882 339.288577 
L 1634.379353 340.962863 
L 1635.987706 342.435103 
L 1637.768382 343.762525 
L 1639.721382 344.942907 
L 1641.099971 345.641567 
L 1641.157412 352.782376 
L 1641.674382 301.288662 
L 1642.248794 264.540103 
L 1642.880647 237.325507 
L 1643.569941 216.564169 
L 1644.316676 200.334677 
L 1645.120853 187.385831 
L 1645.982471 176.873356 
L 1646.901529 168.210243 
L 1647.878029 160.977789 
L 1648.911971 154.870638 
L 1650.060794 149.415778 
L 1651.267059 144.776596 
L 1652.530765 140.791551 
L 1653.851912 137.33843 
L 1655.287941 134.208389 
L 1656.379324 132.168266 
L 1656.436765 139.493726 
L 1656.494206 138.968444 
L 1657.011176 135.495686 
L 1657.585588 133.091057 
L 1658.332324 130.958816 
L 1659.251382 129.047993 
L 1660.400206 127.200579 
L 1661.778794 125.412464 
L 1663.444588 123.627368 
L 1665.340147 121.928095 
L 1667.465471 120.321725 
L 1669.878 118.781907 
L 1671.716118 117.766128 
L 1672.233088 171.576017 
L 1672.8075 209.381261 
L 1673.439353 236.990707 
L 1674.128647 257.772997 
L 1674.875382 273.800254 
L 1675.679559 286.408257 
L 1676.541176 296.491709 
L 1677.460235 304.669316 
L 1678.436735 311.38066 
L 1679.470676 316.945408 
L 1680.562059 321.60076 
L 1681.710882 325.525867 
L 1682.917147 328.858171 
L 1684.180853 331.704585 
L 1685.502 334.149312 
L 1686.938029 336.339182 
L 1688.4315 338.221577 
L 1690.039853 339.902839 
L 1691.820529 341.442276 
L 1693.773529 342.83228 
L 1694.750029 343.43347 
L 1694.807471 350.893055 
L 1694.864912 347.949927 
L 1695.381882 299.001891 
L 1695.956294 263.685649 
L 1696.588147 237.314666 
L 1697.277441 217.064676 
L 1698.024176 201.148895 
L 1698.828353 188.391072 
L 1699.689971 177.990757 
L 1700.609029 169.387686 
L 1701.642971 161.804466 
L 1702.734353 155.471395 
L 1703.883176 150.114868 
L 1705.089441 145.534495 
L 1706.353147 141.580406 
L 1707.731735 138.00205 
L 1709.167765 134.890707 
L 1710.029382 133.262624 
L 1710.029382 133.262624 
" clip-path="url(#pc2b1e02710)" style="fill: none; stroke: #000000; stroke-width: 7; stroke-linecap: round"/>
   </g>
   <g id="patch_22">
    <path d="M 1354.870588 352.938462 
L 1354.870588 86.4 
" style="fill: none; stroke: #ffffff; stroke-width: 1.25; stroke-linejoin: miter; stroke-linecap: square"/>
   </g>
   <g id="patch_23">
    <path d="M 1814.4 352.938462 
L 1814.4 86.4 
" style="fill: none; stroke: #ffffff; stroke-width: 1.25; stroke-linejoin: miter; stroke-linecap: square"/>
   </g>
   <g id="patch_24">
    <path d="M 1354.870588 352.938462 
L 1814.4 352.938462 
" style="fill: none; stroke: #ffffff; stroke-width: 1.25; stroke-linejoin: miter; stroke-linecap: square"/>
   </g>
   <g id="patch_25">
    <path d="M 1354.870588 86.4 
L 1814.4 86.4 
" style="fill: none; stroke: #ffffff; stroke-width: 1.25; stroke-linejoin: miter; stroke-linecap: square"/>
   </g>
   <g id="text_11">
    <!-- PNS (% Threshold) -->
    <g style="fill: #262626" transform="translate(1404.120607 77.560313) scale(0.42 -0.42)">
     <defs>
      <path id="ArialMT-4e" d="M 488 0 
L 488 4581 
L 1109 4581 
L 3516 984 
L 3516 4581 
L 4097 4581 
L 4097 0 
L 3475 0 
L 1069 3600 
L 1069 0 
L 488 0 
z
" transform="scale(0.015625)"/>
      <path id="ArialMT-25" d="M 372 3481 
Q 372 3972 619 4315 
Q 866 4659 1334 4659 
Q 1766 4659 2048 4351 
Q 2331 4044 2331 3447 
Q 2331 2866 2045 2552 
Q 1759 2238 1341 2238 
Q 925 2238 648 2547 
Q 372 2856 372 3481 
z
M 1350 4272 
Q 1141 4272 1002 4090 
Q 863 3909 863 3425 
Q 863 2984 1003 2804 
Q 1144 2625 1350 2625 
Q 1563 2625 1702 2806 
Q 1841 2988 1841 3469 
Q 1841 3913 1700 4092 
Q 1559 4272 1350 4272 
z
M 1353 -169 
L 3859 4659 
L 4316 4659 
L 1819 -169 
L 1353 -169 
z
M 3334 1075 
Q 3334 1569 3581 1911 
Q 3828 2253 4300 2253 
Q 4731 2253 5014 1945 
Q 5297 1638 5297 1041 
Q 5297 459 5011 145 
Q 4725 -169 4303 -169 
Q 3888 -169 3611 142 
Q 3334 453 3334 1075 
z
M 4316 1866 
Q 4103 1866 3964 1684 
Q 3825 1503 3825 1019 
Q 3825 581 3965 400 
Q 4106 219 4313 219 
Q 4528 219 4667 400 
Q 4806 581 4806 1063 
Q 4806 1506 4665 1686 
Q 4525 1866 4316 1866 
z
" transform="scale(0.015625)"/>
      <path id="ArialMT-68" d="M 422 0 
L 422 4581 
L 984 4581 
L 984 2938 
Q 1378 3394 1978 3394 
Q 2347 3394 2619 3248 
Q 2891 3103 3008 2847 
Q 3125 2591 3125 2103 
L 3125 0 
L 2563 0 
L 2563 2103 
Q 2563 2525 2380 2717 
Q 2197 2909 1863 2909 
Q 1613 2909 1392 2779 
Q 1172 2650 1078 2428 
Q 984 2206 984 1816 
L 984 0 
L 422 0 
z
" transform="scale(0.015625)"/>
      <path id="ArialMT-6f" d="M 213 1659 
Q 213 2581 725 3025 
Q 1153 3394 1769 3394 
Q 2453 3394 2887 2945 
Q 3322 2497 3322 1706 
Q 3322 1066 3130 698 
Q 2938 331 2570 128 
Q 2203 -75 1769 -75 
Q 1072 -75 642 372 
Q 213 819 213 1659 
z
M 791 1659 
Q 791 1022 1069 705 
Q 1347 388 1769 388 
Q 2188 388 2466 706 
Q 2744 1025 2744 1678 
Q 2744 2294 2464 2611 
Q 2184 2928 1769 2928 
Q 1347 2928 1069 2612 
Q 791 2297 791 1659 
z
" transform="scale(0.015625)"/>
     </defs>
     <use xlink:href="#ArialMT-50"/>
     <use xlink:href="#ArialMT-4e" x="66.699219"/>
     <use xlink:href="#ArialMT-53" x="138.916016"/>
     <use xlink:href="#ArialMT-20" x="205.615234"/>
     <use xlink:href="#ArialMT-28" x="233.398438"/>
     <use xlink:href="#ArialMT-25" x="266.699219"/>
     <use xlink:href="#ArialMT-20" x="355.615234"/>
     <use xlink:href="#ArialMT-54" x="381.648438"/>
     <use xlink:href="#ArialMT-68" x="442.732422"/>
     <use xlink:href="#ArialMT-72" x="498.347656"/>
     <use xlink:href="#ArialMT-65" x="531.648438"/>
     <use xlink:href="#ArialMT-73" x="587.263672"/>
     <use xlink:href="#ArialMT-68" x="637.263672"/>
     <use xlink:href="#ArialMT-6f" x="692.878906"/>
     <use xlink:href="#ArialMT-6c" x="748.494141"/>
     <use xlink:href="#ArialMT-64" x="770.710938"/>
     <use xlink:href="#ArialMT-29" x="826.326172"/>
    </g>
   </g>
  </g>
  <g id="axes_4">
   <g id="patch_26">
    <path d="M 252 640.8 
L 711.529412 640.8 
L 711.529412 374.261538 
L 252 374.261538 
z
" style="fill: #eaeaf2"/>
   </g>
   <g id="matplotlib.axis_7">
    <g id="xtick_13">
     <g id="line2d_31">
      <path d="M 252 640.8 
L 252 374.261538 
" clip-path="url(#p81689e56ca)" style="fill: none; stroke: #ffffff; stroke-linecap: round"/>
     </g>
     <g id="text_12">
      <!-- 0 -->
      <g style="fill: #262626" transform="translate(241.295195 677.857578) scale(0.385 -0.385)">
       <use xlink:href="#ArialMT-30"/>
      </g>
     </g>
    </g>
    <g id="xtick_14">
     <g id="line2d_32">
      <path d="M 395.602941 640.8 
L 395.602941 374.261538 
" clip-path="url(#p81689e56ca)" style="fill: none; stroke: #ffffff; stroke-linecap: round"/>
     </g>
     <g id="text_13">
      <!-- 25 -->
      <g style="fill: #262626" transform="translate(374.193332 677.857578) scale(0.385 -0.385)">
       <use xlink:href="#ArialMT-32"/>
       <use xlink:href="#ArialMT-35" x="55.615234"/>
      </g>
     </g>
    </g>
    <g id="xtick_15">
     <g id="line2d_33">
      <path d="M 539.205882 640.8 
L 539.205882 374.261538 
" clip-path="url(#p81689e56ca)" style="fill: none; stroke: #ffffff; stroke-linecap: round"/>
     </g>
     <g id="text_14">
      <!-- 50 -->
      <g style="fill: #262626" transform="translate(517.796273 677.857578) scale(0.385 -0.385)">
       <use xlink:href="#ArialMT-35"/>
       <use xlink:href="#ArialMT-30" x="55.615234"/>
      </g>
     </g>
    </g>
    <g id="xtick_16">
     <g id="line2d_34">
      <path d="M 682.808824 640.8 
L 682.808824 374.261538 
" clip-path="url(#p81689e56ca)" style="fill: none; stroke: #ffffff; stroke-linecap: round"/>
     </g>
     <g id="text_15">
      <!-- 75 -->
      <g style="fill: #262626" transform="translate(661.399214 677.857578) scale(0.385 -0.385)">
       <defs>
        <path id="ArialMT-37" d="M 303 3981 
L 303 4522 
L 3269 4522 
L 3269 4084 
Q 2831 3619 2401 2847 
Q 1972 2075 1738 1259 
Q 1569 684 1522 0 
L 944 0 
Q 953 541 1156 1306 
Q 1359 2072 1739 2783 
Q 2119 3494 2547 3981 
L 303 3981 
z
" transform="scale(0.015625)"/>
       </defs>
       <use xlink:href="#ArialMT-37"/>
       <use xlink:href="#ArialMT-35" x="55.615234"/>
      </g>
     </g>
    </g>
    <g id="text_16">
     <!-- Time [ms] -->
     <g style="fill: #262626" transform="translate(390.395018 719.572266) scale(0.42 -0.42)">
      <defs>
       <path id="ArialMT-5b" d="M 434 -1272 
L 434 4581 
L 1675 4581 
L 1675 4116 
L 997 4116 
L 997 -806 
L 1675 -806 
L 1675 -1272 
L 434 -1272 
z
" transform="scale(0.015625)"/>
       <path id="ArialMT-5d" d="M 1363 -1272 
L 122 -1272 
L 122 -806 
L 800 -806 
L 800 4116 
L 122 4116 
L 122 4581 
L 1363 4581 
L 1363 -1272 
z
" transform="scale(0.015625)"/>
      </defs>
      <use xlink:href="#ArialMT-54"/>
      <use xlink:href="#ArialMT-69" x="57.333984"/>
      <use xlink:href="#ArialMT-6d" x="79.550781"/>
      <use xlink:href="#ArialMT-65" x="162.851562"/>
      <use xlink:href="#ArialMT-20" x="218.466797"/>
      <use xlink:href="#ArialMT-5b" x="246.25"/>
      <use xlink:href="#ArialMT-6d" x="274.033203"/>
      <use xlink:href="#ArialMT-73" x="357.333984"/>
      <use xlink:href="#ArialMT-5d" x="407.333984"/>
     </g>
    </g>
   </g>
   <g id="matplotlib.axis_8">
    <g id="ytick_8">
     <g id="line2d_35">
      <path d="M 252 507.530769 
L 711.529412 507.530769 
" clip-path="url(#p81689e56ca)" style="fill: none; stroke: #ffffff; stroke-linecap: round"/>
     </g>
     <g id="text_17">
      <!-- 0 -->
      <g style="fill: #262626" transform="translate(221.090391 521.309558) scale(0.385 -0.385)">
       <use xlink:href="#ArialMT-30"/>
      </g>
     </g>
    </g>
    <g id="ytick_9">
     <g id="line2d_36">
      <path d="M 252 386.376923 
L 711.529412 386.376923 
" clip-path="url(#p81689e56ca)" style="fill: none; stroke: #ffffff; stroke-linecap: round"/>
     </g>
     <g id="text_18">
      <!-- 200 -->
      <g style="fill: #262626" transform="translate(178.271172 400.155712) scale(0.385 -0.385)">
       <use xlink:href="#ArialMT-32"/>
       <use xlink:href="#ArialMT-30" x="55.615234"/>
       <use xlink:href="#ArialMT-30" x="111.230469"/>
      </g>
     </g>
    </g>
    <g id="text_19">
     <!-- GrOpt -->
     <g style="fill: #262626" transform="translate(165.923672 564.703269) rotate(-90) scale(0.42 -0.42)">
      <defs>
       <path id="ArialMT-4f" d="M 309 2231 
Q 309 3372 921 4017 
Q 1534 4663 2503 4663 
Q 3138 4663 3647 4359 
Q 4156 4056 4423 3514 
Q 4691 2972 4691 2284 
Q 4691 1588 4409 1038 
Q 4128 488 3612 205 
Q 3097 -78 2500 -78 
Q 1853 -78 1343 234 
Q 834 547 571 1087 
Q 309 1628 309 2231 
z
M 934 2222 
Q 934 1394 1379 917 
Q 1825 441 2497 441 
Q 3181 441 3623 922 
Q 4066 1403 4066 2288 
Q 4066 2847 3877 3264 
Q 3688 3681 3323 3911 
Q 2959 4141 2506 4141 
Q 1863 4141 1398 3698 
Q 934 3256 934 2222 
z
" transform="scale(0.015625)"/>
       <path id="ArialMT-70" d="M 422 -1272 
L 422 3319 
L 934 3319 
L 934 2888 
Q 1116 3141 1344 3267 
Q 1572 3394 1897 3394 
Q 2322 3394 2647 3175 
Q 2972 2956 3137 2557 
Q 3303 2159 3303 1684 
Q 3303 1175 3120 767 
Q 2938 359 2589 142 
Q 2241 -75 1856 -75 
Q 1575 -75 1351 44 
Q 1128 163 984 344 
L 984 -1272 
L 422 -1272 
z
M 931 1641 
Q 931 1000 1190 694 
Q 1450 388 1819 388 
Q 2194 388 2461 705 
Q 2728 1022 2728 1688 
Q 2728 2322 2467 2637 
Q 2206 2953 1844 2953 
Q 1484 2953 1207 2617 
Q 931 2281 931 1641 
z
" transform="scale(0.015625)"/>
      </defs>
      <use xlink:href="#ArialMT-47"/>
      <use xlink:href="#ArialMT-72" x="77.783203"/>
      <use xlink:href="#ArialMT-4f" x="111.083984"/>
      <use xlink:href="#ArialMT-70" x="188.867188"/>
      <use xlink:href="#ArialMT-74" x="244.482422"/>
     </g>
    </g>
   </g>
   <g id="patch_27">
    <path d="M 252 640.8 
L 265.785882 640.8 
L 265.785882 374.261538 
L 252 374.261538 
z
" clip-path="url(#p81689e56ca)" style="fill: #ff0000; opacity: 0.1; stroke: #ffffff; stroke-linejoin: miter"/>
   </g>
   <g id="patch_28">
    <path d="M 265.785882 640.8 
L 465.681176 640.8 
L 465.681176 374.261538 
L 265.785882 374.261538 
z
" clip-path="url(#p81689e56ca)" style="fill: #0000ff; opacity: 0.1; stroke: #ffffff; stroke-linejoin: miter"/>
   </g>
   <g id="patch_29">
    <path d="M 465.681176 640.8 
L 569.075294 640.8 
L 569.075294 374.261538 
L 465.681176 374.261538 
z
" clip-path="url(#p81689e56ca)" style="fill: #008000; opacity: 0.1; stroke: #ffffff; stroke-linejoin: miter"/>
   </g>
   <g id="line2d_37">
    <path d="M 252 507.530769 
L 711.529412 507.530769 
" clip-path="url(#p81689e56ca)" style="fill: none; stroke: #000000; stroke-linecap: round"/>
   </g>
   <g id="line2d_38">
    <path d="M 252 386.376923 
L 711.529412 386.376923 
" clip-path="url(#p81689e56ca)" style="fill: none; stroke-dasharray: 3.7,1.6; stroke-dashoffset: 0; stroke: #000000"/>
   </g>
   <g id="line2d_39">
    <path d="M 252 628.684615 
L 711.529412 628.684615 
" clip-path="url(#p81689e56ca)" style="fill: none; stroke-dasharray: 3.7,1.6; stroke-dashoffset: 0; stroke: #000000"/>
   </g>
   <g id="line2d_40">
    <path d="M 252 507.530769 
L 265.785882 507.530769 
L 266.245412 498.881613 
L 266.704941 493.6917 
L 268.083529 483.85823 
L 270.381176 469.523892 
L 274.057412 448.290956 
L 279.571765 417.923103 
L 285.086118 388.362271 
L 285.545647 387.588462 
L 297.033882 387.600222 
L 297.952941 401.548987 
L 299.331529 412.18945 
L 301.169647 424.44448 
L 304.386353 444.088387 
L 308.981647 470.489047 
L 315.415059 505.965725 
L 324.146118 552.762165 
L 333.796235 603.320229 
L 338.391529 627.10914 
L 338.851059 627.473077 
L 370.558588 627.396766 
L 371.018118 622.660381 
L 371.477647 614.787272 
L 372.856235 604.454033 
L 375.153882 589.771506 
L 378.370588 570.838902 
L 383.425412 542.595153 
L 390.318353 505.438285 
L 393.994588 485.984227 
L 394.454118 490.276631 
L 395.373176 507.530769 
L 426.161647 507.530769 
L 426.621176 516.182938 
L 427.080706 521.550155 
L 428.459294 531.543244 
L 430.756941 546.067818 
L 434.433176 567.489818 
L 439.488 595.507324 
L 445.461882 627.473077 
L 448.219059 627.473077 
L 449.138118 610.704382 
L 450.057176 602.566324 
L 451.895294 588.984835 
L 454.192941 573.922792 
L 457.409647 554.404616 
L 462.004941 527.996311 
L 465.681176 507.530769 
L 465.681176 507.530769 
" clip-path="url(#p81689e56ca)" style="fill: none; stroke: #000000; stroke-width: 7; stroke-linecap: round"/>
   </g>
   <g id="patch_30">
    <path d="M 252 640.8 
L 252 374.261538 
" style="fill: none; stroke: #ffffff; stroke-width: 1.25; stroke-linejoin: miter; stroke-linecap: square"/>
   </g>
   <g id="patch_31">
    <path d="M 711.529412 640.8 
L 711.529412 374.261538 
" style="fill: none; stroke: #ffffff; stroke-width: 1.25; stroke-linejoin: miter; stroke-linecap: square"/>
   </g>
   <g id="patch_32">
    <path d="M 252 640.8 
L 711.529412 640.8 
" style="fill: none; stroke: #ffffff; stroke-width: 1.25; stroke-linejoin: miter; stroke-linecap: square"/>
   </g>
   <g id="patch_33">
    <path d="M 252 374.261538 
L 711.529412 374.261538 
" style="fill: none; stroke: #ffffff; stroke-width: 1.25; stroke-linejoin: miter; stroke-linecap: square"/>
   </g>
  </g>
  <g id="axes_5">
   <g id="patch_34">
    <path d="M 803.435294 640.8 
L 1262.964706 640.8 
L 1262.964706 374.261538 
L 803.435294 374.261538 
z
" style="fill: #eaeaf2"/>
   </g>
   <g id="matplotlib.axis_9">
    <g id="xtick_17">
     <g id="line2d_41">
      <path d="M 803.435294 640.8 
L 803.435294 374.261538 
" clip-path="url(#pa059e85f4c)" style="fill: none; stroke: #ffffff; stroke-linecap: round"/>
     </g>
     <g id="text_20">
      <!-- 0 -->
      <g style="fill: #262626" transform="translate(792.730489 677.857578) scale(0.385 -0.385)">
       <use xlink:href="#ArialMT-30"/>
      </g>
     </g>
    </g>
    <g id="xtick_18">
     <g id="line2d_42">
      <path d="M 947.038235 640.8 
L 947.038235 374.261538 
" clip-path="url(#pa059e85f4c)" style="fill: none; stroke: #ffffff; stroke-linecap: round"/>
     </g>
     <g id="text_21">
      <!-- 25 -->
      <g style="fill: #262626" transform="translate(925.628626 677.857578) scale(0.385 -0.385)">
       <use xlink:href="#ArialMT-32"/>
       <use xlink:href="#ArialMT-35" x="55.615234"/>
      </g>
     </g>
    </g>
    <g id="xtick_19">
     <g id="line2d_43">
      <path d="M 1090.641176 640.8 
L 1090.641176 374.261538 
" clip-path="url(#pa059e85f4c)" style="fill: none; stroke: #ffffff; stroke-linecap: round"/>
     </g>
     <g id="text_22">
      <!-- 50 -->
      <g style="fill: #262626" transform="translate(1069.231567 677.857578) scale(0.385 -0.385)">
       <use xlink:href="#ArialMT-35"/>
       <use xlink:href="#ArialMT-30" x="55.615234"/>
      </g>
     </g>
    </g>
    <g id="xtick_20">
     <g id="line2d_44">
      <path d="M 1234.244118 640.8 
L 1234.244118 374.261538 
" clip-path="url(#pa059e85f4c)" style="fill: none; stroke: #ffffff; stroke-linecap: round"/>
     </g>
     <g id="text_23">
      <!-- 75 -->
      <g style="fill: #262626" transform="translate(1212.834508 677.857578) scale(0.385 -0.385)">
       <use xlink:href="#ArialMT-37"/>
       <use xlink:href="#ArialMT-35" x="55.615234"/>
      </g>
     </g>
    </g>
    <g id="text_24">
     <!-- Time [ms] -->
     <g style="fill: #262626" transform="translate(941.830312 719.572266) scale(0.42 -0.42)">
      <use xlink:href="#ArialMT-54"/>
      <use xlink:href="#ArialMT-69" x="57.333984"/>
      <use xlink:href="#ArialMT-6d" x="79.550781"/>
      <use xlink:href="#ArialMT-65" x="162.851562"/>
      <use xlink:href="#ArialMT-20" x="218.466797"/>
      <use xlink:href="#ArialMT-5b" x="246.25"/>
      <use xlink:href="#ArialMT-6d" x="274.033203"/>
      <use xlink:href="#ArialMT-73" x="357.333984"/>
      <use xlink:href="#ArialMT-5d" x="407.333984"/>
     </g>
    </g>
   </g>
   <g id="matplotlib.axis_10">
    <g id="ytick_10">
     <g id="line2d_45">
      <path d="M 803.435294 507.530769 
L 1262.964706 507.530769 
" clip-path="url(#pa059e85f4c)" style="fill: none; stroke: #ffffff; stroke-linecap: round"/>
     </g>
     <g id="text_25">
      <!-- 0 -->
      <g style="fill: #262626" transform="translate(772.525685 521.309558) scale(0.385 -0.385)">
       <use xlink:href="#ArialMT-30"/>
      </g>
     </g>
    </g>
    <g id="ytick_11">
     <g id="line2d_46">
      <path d="M 803.435294 386.376923 
L 1262.964706 386.376923 
" clip-path="url(#pa059e85f4c)" style="fill: none; stroke: #ffffff; stroke-linecap: round"/>
     </g>
     <g id="text_26">
      <!-- 200 -->
      <g style="fill: #262626" transform="translate(729.706466 400.155712) scale(0.385 -0.385)">
       <use xlink:href="#ArialMT-32"/>
       <use xlink:href="#ArialMT-30" x="55.615234"/>
       <use xlink:href="#ArialMT-30" x="111.230469"/>
      </g>
     </g>
    </g>
   </g>
   <g id="patch_35">
    <path d="M 803.435294 640.8 
L 817.221176 640.8 
L 817.221176 374.261538 
L 803.435294 374.261538 
z
" clip-path="url(#pa059e85f4c)" style="fill: #ff0000; opacity: 0.1; stroke: #ffffff; stroke-linejoin: miter"/>
   </g>
   <g id="patch_36">
    <path d="M 817.221176 640.8 
L 1017.116471 640.8 
L 1017.116471 374.261538 
L 817.221176 374.261538 
z
" clip-path="url(#pa059e85f4c)" style="fill: #0000ff; opacity: 0.1; stroke: #ffffff; stroke-linejoin: miter"/>
   </g>
   <g id="patch_37">
    <path d="M 1017.116471 640.8 
L 1120.510588 640.8 
L 1120.510588 374.261538 
L 1017.116471 374.261538 
z
" clip-path="url(#pa059e85f4c)" style="fill: #008000; opacity: 0.1; stroke: #ffffff; stroke-linejoin: miter"/>
   </g>
   <g id="line2d_47">
    <path d="M 803.435294 507.530769 
L 1262.964706 507.530769 
" clip-path="url(#pa059e85f4c)" style="fill: none; stroke: #000000; stroke-linecap: round"/>
   </g>
   <g id="line2d_48">
    <path d="M 803.435294 386.376923 
L 1262.964706 386.376923 
" clip-path="url(#pa059e85f4c)" style="fill: none; stroke-dasharray: 3.7,1.6; stroke-dashoffset: 0; stroke: #000000"/>
   </g>
   <g id="line2d_49">
    <path d="M 803.435294 628.684615 
L 1262.964706 628.684615 
" clip-path="url(#pa059e85f4c)" style="fill: none; stroke-dasharray: 3.7,1.6; stroke-dashoffset: 0; stroke: #000000"/>
   </g>
   <g id="line2d_50">
    <path d="M 803.435294 507.530769 
L 816.761647 507.530769 
L 817.221176 399.416311 
L 817.680706 442.656866 
L 818.140235 463.936107 
L 818.599765 466.926519 
L 819.059294 468.811298 
L 819.518824 470.122086 
L 820.437882 471.849345 
L 821.356941 472.953542 
L 822.276 473.729397 
L 823.654588 474.548161 
L 825.492706 475.280981 
L 827.790353 475.890619 
L 830.547529 476.382305 
L 834.683294 476.865535 
L 836.061882 476.985388 
L 836.521412 497.858148 
L 836.980941 507.530769 
L 847.550118 507.530769 
L 848.009647 507.677777 
L 848.469176 589.620868 
L 848.928706 599.800234 
L 849.388235 555.211972 
L 849.847765 551.374068 
L 850.307294 549.012052 
L 850.766824 547.38617 
L 851.685882 545.248895 
L 852.604941 543.873974 
L 853.524 542.90128 
L 854.902588 541.86466 
L 856.281176 541.120884 
L 858.119294 540.402391 
L 860.416941 539.761375 
L 863.633647 539.137351 
L 867.769412 538.599297 
L 873.283765 538.12472 
L 887.529176 537.256171 
L 889.367294 537.186171 
L 889.826824 512.079985 
L 890.286353 507.530769 
L 920.155765 507.530769 
L 921.074824 507.204256 
L 921.534353 507.095272 
L 921.993882 448.325962 
L 922.453412 409.116897 
L 922.912941 460.806169 
L 923.372471 465.160029 
L 923.832 467.460629 
L 924.291529 469.011575 
L 925.210588 471.009773 
L 926.129647 472.263223 
L 927.048706 473.14032 
L 928.427294 474.065756 
L 929.805882 474.720589 
L 931.644 475.35326 
L 934.401176 476.008383 
L 937.617882 476.532007 
L 942.213176 477.037021 
L 944.970353 477.262477 
L 945.429882 561.18581 
L 945.889412 615.383715 
L 946.348941 615.354554 
L 946.808471 507.530769 
L 977.137412 507.530769 
L 977.596941 615.682876 
L 978.056471 574.620984 
L 978.516 551.866752 
L 978.975529 548.788997 
L 979.435059 546.850166 
L 979.894588 545.500649 
L 980.813647 543.718272 
L 981.732706 542.460089 
L 983.111294 541.342841 
L 984.489882 540.569582 
L 986.328 539.846653 
L 988.625647 539.221821 
L 991.842353 538.626804 
L 995.978118 538.113406 
L 996.437647 536.448421 
L 996.897176 507.530769 
L 999.194824 507.530769 
L 999.654353 400.56086 
L 1000.113882 404.891991 
L 1000.573412 454.108505 
L 1001.032941 459.227314 
L 1001.492471 462.350432 
L 1001.952 464.505999 
L 1002.871059 467.378155 
L 1003.790118 469.226598 
L 1005.168706 471.216094 
L 1006.087765 472.046437 
L 1007.466353 473.022631 
L 1009.304471 473.961613 
L 1011.142588 474.64087 
L 1013.899765 475.367636 
L 1016.197412 475.788171 
L 1016.656941 475.627326 
L 1016.656941 475.627326 
" clip-path="url(#pa059e85f4c)" style="fill: none; stroke: #000000; stroke-width: 7; stroke-linecap: round"/>
   </g>
   <g id="patch_38">
    <path d="M 803.435294 640.8 
L 803.435294 374.261538 
" style="fill: none; stroke: #ffffff; stroke-width: 1.25; stroke-linejoin: miter; stroke-linecap: square"/>
   </g>
   <g id="patch_39">
    <path d="M 1262.964706 640.8 
L 1262.964706 374.261538 
" style="fill: none; stroke: #ffffff; stroke-width: 1.25; stroke-linejoin: miter; stroke-linecap: square"/>
   </g>
   <g id="patch_40">
    <path d="M 803.435294 640.8 
L 1262.964706 640.8 
" style="fill: none; stroke: #ffffff; stroke-width: 1.25; stroke-linejoin: miter; stroke-linecap: square"/>
   </g>
   <g id="patch_41">
    <path d="M 803.435294 374.261538 
L 1262.964706 374.261538 
" style="fill: none; stroke: #ffffff; stroke-width: 1.25; stroke-linejoin: miter; stroke-linecap: square"/>
   </g>
  </g>
  <g id="axes_6">
   <g id="patch_42">
    <path d="M 1354.870588 640.8 
L 1814.4 640.8 
L 1814.4 374.261538 
L 1354.870588 374.261538 
z
" style="fill: #eaeaf2"/>
   </g>
   <g id="matplotlib.axis_11">
    <g id="xtick_21">
     <g id="line2d_51">
      <path d="M 1354.870588 640.8 
L 1354.870588 374.261538 
" clip-path="url(#p2869f7bfcc)" style="fill: none; stroke: #ffffff; stroke-linecap: round"/>
     </g>
     <g id="text_27">
      <!-- 0 -->
      <g style="fill: #262626" transform="translate(1344.165784 677.857578) scale(0.385 -0.385)">
       <use xlink:href="#ArialMT-30"/>
      </g>
     </g>
    </g>
    <g id="xtick_22">
     <g id="line2d_52">
      <path d="M 1498.473529 640.8 
L 1498.473529 374.261538 
" clip-path="url(#p2869f7bfcc)" style="fill: none; stroke: #ffffff; stroke-linecap: round"/>
     </g>
     <g id="text_28">
      <!-- 25 -->
      <g style="fill: #262626" transform="translate(1477.06392 677.857578) scale(0.385 -0.385)">
       <use xlink:href="#ArialMT-32"/>
       <use xlink:href="#ArialMT-35" x="55.615234"/>
      </g>
     </g>
    </g>
    <g id="xtick_23">
     <g id="line2d_53">
      <path d="M 1642.076471 640.8 
L 1642.076471 374.261538 
" clip-path="url(#p2869f7bfcc)" style="fill: none; stroke: #ffffff; stroke-linecap: round"/>
     </g>
     <g id="text_29">
      <!-- 50 -->
      <g style="fill: #262626" transform="translate(1620.666861 677.857578) scale(0.385 -0.385)">
       <use xlink:href="#ArialMT-35"/>
       <use xlink:href="#ArialMT-30" x="55.615234"/>
      </g>
     </g>
    </g>
    <g id="xtick_24">
     <g id="line2d_54">
      <path d="M 1785.679412 640.8 
L 1785.679412 374.261538 
" clip-path="url(#p2869f7bfcc)" style="fill: none; stroke: #ffffff; stroke-linecap: round"/>
     </g>
     <g id="text_30">
      <!-- 75 -->
      <g style="fill: #262626" transform="translate(1764.269802 677.857578) scale(0.385 -0.385)">
       <use xlink:href="#ArialMT-37"/>
       <use xlink:href="#ArialMT-35" x="55.615234"/>
      </g>
     </g>
    </g>
    <g id="text_31">
     <!-- Time [ms] -->
     <g style="fill: #262626" transform="translate(1493.265607 719.572266) scale(0.42 -0.42)">
      <use xlink:href="#ArialMT-54"/>
      <use xlink:href="#ArialMT-69" x="57.333984"/>
      <use xlink:href="#ArialMT-6d" x="79.550781"/>
      <use xlink:href="#ArialMT-65" x="162.851562"/>
      <use xlink:href="#ArialMT-20" x="218.466797"/>
      <use xlink:href="#ArialMT-5b" x="246.25"/>
      <use xlink:href="#ArialMT-6d" x="274.033203"/>
      <use xlink:href="#ArialMT-73" x="357.333984"/>
      <use xlink:href="#ArialMT-5d" x="407.333984"/>
     </g>
    </g>
   </g>
   <g id="matplotlib.axis_12">
    <g id="ytick_12">
     <g id="line2d_55">
      <path d="M 1354.870588 640.8 
L 1814.4 640.8 
" clip-path="url(#p2869f7bfcc)" style="fill: none; stroke: #ffffff; stroke-linecap: round"/>
     </g>
     <g id="text_32">
      <!-- 0 -->
      <g style="fill: #262626" transform="translate(1323.960979 654.578789) scale(0.385 -0.385)">
       <use xlink:href="#ArialMT-30"/>
      </g>
     </g>
    </g>
    <g id="ytick_13">
     <g id="line2d_56">
      <path d="M 1354.870588 508.850267 
L 1814.4 508.850267 
" clip-path="url(#p2869f7bfcc)" style="fill: none; stroke: #ffffff; stroke-linecap: round"/>
     </g>
     <g id="text_33">
      <!-- 50 -->
      <g style="fill: #262626" transform="translate(1302.551369 522.629056) scale(0.385 -0.385)">
       <use xlink:href="#ArialMT-35"/>
       <use xlink:href="#ArialMT-30" x="55.615234"/>
      </g>
     </g>
    </g>
    <g id="ytick_14">
     <g id="line2d_57">
      <path d="M 1354.870588 376.900533 
L 1814.4 376.900533 
" clip-path="url(#p2869f7bfcc)" style="fill: none; stroke: #ffffff; stroke-linecap: round"/>
     </g>
     <g id="text_34">
      <!-- 100 -->
      <g style="fill: #262626" transform="translate(1281.14176 390.679322) scale(0.385 -0.385)">
       <use xlink:href="#ArialMT-31"/>
       <use xlink:href="#ArialMT-30" x="55.615234"/>
       <use xlink:href="#ArialMT-30" x="111.230469"/>
      </g>
     </g>
    </g>
   </g>
   <g id="patch_43">
    <path d="M 1354.870588 640.8 
L 1368.656471 640.8 
L 1368.656471 374.261538 
L 1354.870588 374.261538 
z
" clip-path="url(#p2869f7bfcc)" style="fill: #ff0000; opacity: 0.1; stroke: #ffffff; stroke-linejoin: miter"/>
   </g>
   <g id="patch_44">
    <path d="M 1368.656471 640.8 
L 1568.551765 640.8 
L 1568.551765 374.261538 
L 1368.656471 374.261538 
z
" clip-path="url(#p2869f7bfcc)" style="fill: #0000ff; opacity: 0.1; stroke: #ffffff; stroke-linejoin: miter"/>
   </g>
   <g id="patch_45">
    <path d="M 1568.551765 640.8 
L 1671.945882 640.8 
L 1671.945882 374.261538 
L 1568.551765 374.261538 
z
" clip-path="url(#p2869f7bfcc)" style="fill: #008000; opacity: 0.1; stroke: #ffffff; stroke-linejoin: miter"/>
   </g>
   <g id="line2d_58">
    <path d="M 1354.870588 640.8 
L 1814.4 640.8 
" clip-path="url(#p2869f7bfcc)" style="fill: none; stroke: #000000; stroke-linecap: round"/>
   </g>
   <g id="line2d_59">
    <path d="M 1354.870588 403.29048 
L 1814.4 403.29048 
" clip-path="url(#p2869f7bfcc)" style="fill: none; stroke-dasharray: 3.7,1.6; stroke-dashoffset: 0; stroke: #000000"/>
   </g>
   <g id="line2d_60">
    <path d="M 1354.870588 640.8 
L 1368.196941 640.8 
L 1368.656471 452.778571 
L 1369.116 405.601107 
L 1387.497176 405.659241 
L 1388.875765 509.659806 
L 1389.335294 529.497184 
L 1390.254353 556.248828 
L 1391.173412 573.407633 
L 1392.092471 585.307093 
L 1393.011529 594.013865 
L 1393.930588 600.639154 
L 1394.849647 605.833702 
L 1395.768706 610.00384 
L 1396.687765 613.416297 
L 1398.066353 617.497811 
L 1399.444941 620.936304 
L 1400.364 405.664457 
L 1412.771294 405.646482 
L 1427.476235 405.65263 
L 1428.395294 405.946252 
L 1432.071529 406.406398 
L 1438.964471 407.028923 
L 1440.802588 407.166528 
L 1441.721647 487.148522 
L 1442.181176 512.229948 
L 1443.100235 544.61722 
L 1444.019294 564.610769 
L 1444.938353 578.16376 
L 1445.857412 587.941826 
L 1446.776471 595.318015 
L 1447.695529 601.071794 
L 1448.614588 605.678601 
L 1449.533647 609.444922 
L 1450.912235 613.95243 
L 1452.290824 617.475943 
L 1453.669412 620.298355 
L 1455.048 622.604126 
L 1456.426588 624.518636 
L 1458.264706 626.611388 
L 1460.102824 628.307774 
L 1461.940941 629.705908 
L 1464.238588 631.136751 
L 1466.536235 632.300919 
L 1469.293412 633.434973 
L 1471.591059 634.212733 
L 1472.510118 635.274302 
L 1472.969647 635.900489 
L 1473.429176 543.023061 
L 1473.888706 407.935958 
L 1474.348235 406.411715 
L 1493.188941 407.676582 
L 1496.405647 407.842362 
L 1496.865176 553.757491 
L 1497.324706 538.66423 
L 1497.784235 410.744243 
L 1498.243765 505.900994 
L 1498.703294 558.114898 
L 1499.162824 589.177577 
L 1499.622353 608.728199 
L 1500.081882 621.545792 
L 1500.541412 630.205864 
L 1501.000941 636.187868 
L 1501.460471 640.385638 
L 1502.379529 636.117593 
L 1502.839059 634.607079 
L 1503.298588 633.538453 
L 1503.758118 632.793881 
L 1504.217647 632.289365 
L 1505.136706 631.773466 
L 1506.055765 631.671919 
L 1506.974824 631.806409 
L 1508.353412 632.236946 
L 1512.948706 634.112129 
L 1516.165412 635.264698 
L 1519.382118 636.199633 
L 1523.058353 637.040802 
L 1527.194118 637.764787 
L 1528.572706 637.965095 
L 1529.032235 455.485113 
L 1529.491765 404.415069 
L 1532.708471 404.601567 
L 1533.627529 404.868338 
L 1537.303765 405.391877 
L 1544.196706 406.158212 
L 1547.413412 406.463607 
L 1547.872941 409.320871 
L 1548.332471 461.408295 
L 1548.792 495.344409 
L 1549.251529 519.172423 
L 1550.170588 550.348598 
L 1550.630118 561.076115 
L 1551.089647 525.799347 
L 1551.549176 405.070367 
L 1552.008706 404.501762 
L 1554.765882 404.283665 
L 1555.684941 404.219346 
L 1556.604 404.531022 
L 1557.063529 404.726326 
L 1567.632706 404.826405 
L 1568.092235 404.403136 
L 1568.092235 404.403136 
" clip-path="url(#p2869f7bfcc)" style="fill: none; stroke: #000000; stroke-width: 7; stroke-linecap: round"/>
   </g>
   <g id="patch_46">
    <path d="M 1354.870588 640.8 
L 1354.870588 374.261538 
" style="fill: none; stroke: #ffffff; stroke-width: 1.25; stroke-linejoin: miter; stroke-linecap: square"/>
   </g>
   <g id="patch_47">
    <path d="M 1814.4 640.8 
L 1814.4 374.261538 
" style="fill: none; stroke: #ffffff; stroke-width: 1.25; stroke-linejoin: miter; stroke-linecap: square"/>
   </g>
   <g id="patch_48">
    <path d="M 1354.870588 640.8 
L 1814.4 640.8 
" style="fill: none; stroke: #ffffff; stroke-width: 1.25; stroke-linejoin: miter; stroke-linecap: square"/>
   </g>
   <g id="patch_49">
    <path d="M 1354.870588 374.261538 
L 1814.4 374.261538 
" style="fill: none; stroke: #ffffff; stroke-width: 1.25; stroke-linejoin: miter; stroke-linecap: square"/>
   </g>
  </g>
 </g>
 <defs>
  <clipPath id="p10dbcd5c3b">
   <rect x="252" y="86.4" width="459.529412" height="266.538462"/>
  </clipPath>
  <clipPath id="p26cbb0e88d">
   <rect x="803.435294" y="86.4" width="459.529412" height="266.538462"/>
  </clipPath>
  <clipPath id="pc2b1e02710">
   <rect x="1354.870588" y="86.4" width="459.529412" height="266.538462"/>
  </clipPath>
  <clipPath id="p81689e56ca">
   <rect x="252" y="374.261538" width="459.529412" height="266.538462"/>
  </clipPath>
  <clipPath id="pa059e85f4c">
   <rect x="803.435294" y="374.261538" width="459.529412" height="266.538462"/>
  </clipPath>
  <clipPath id="p2869f7bfcc">
   <rect x="1354.870588" y="374.261538" width="459.529412" height="266.538462"/>
  </clipPath>
 </defs>
</svg>
