<?xml version="1.0" encoding="utf-8" standalone="no"?>
<!DOCTYPE svg PUBLIC "-//W3C//DTD SVG 1.1//EN"
  "http://www.w3.org/Graphics/SVG/1.1/DTD/svg11.dtd">
<svg xmlns:xlink="http://www.w3.org/1999/xlink" width="2016pt" height="936pt" viewBox="0 0 2016 936" xmlns="http://www.w3.org/2000/svg" version="1.1">
 <metadata>
  <rdf:RDF xmlns:dc="http://purl.org/dc/elements/1.1/" xmlns:cc="http://creativecommons.org/ns#" xmlns:rdf="http://www.w3.org/1999/02/22-rdf-syntax-ns#">
   <cc:Work>
    <dc:type rdf:resource="http://purl.org/dc/dcmitype/StillImage"/>
    <dc:date>2024-09-04T00:21:33.182049</dc:date>
    <dc:format>image/svg+xml</dc:format>
    <dc:creator>
     <cc:Agent>
      <dc:title>Matplotlib v3.9.0, https://matplotlib.org/</dc:title>
     </cc:Agent>
    </dc:creator>
   </cc:Work>
  </rdf:RDF>
 </metadata>
 <defs>
  <style type="text/css">*{stroke-linejoin: round; stroke-linecap: butt}</style>
 </defs>
 <g id="figure_1">
  <g id="patch_1">
   <path d="M 0 936 
L 2016 936 
L 2016 0 
L 0 0 
z
" style="fill: #ffffff"/>
  </g>
  <g id="axes_1">
   <g id="patch_2">
    <path d="M 252 458.82 
L 711.529412 458.82 
L 711.529412 112.32 
L 252 112.32 
z
" style="fill: #eaeaf2"/>
   </g>
   <g id="matplotlib.axis_1">
    <g id="xtick_1">
     <g id="line2d_1">
      <path d="M 252 458.82 
L 252 112.32 
" clip-path="url(#p779d7b4473)" style="fill: none; stroke: #ffffff; stroke-linecap: round"/>
     </g>
    </g>
    <g id="xtick_2">
     <g id="line2d_2">
      <path d="M 343.905882 458.82 
L 343.905882 112.32 
" clip-path="url(#p779d7b4473)" style="fill: none; stroke: #ffffff; stroke-linecap: round"/>
     </g>
    </g>
    <g id="xtick_3">
     <g id="line2d_3">
      <path d="M 435.811765 458.82 
L 435.811765 112.32 
" clip-path="url(#p779d7b4473)" style="fill: none; stroke: #ffffff; stroke-linecap: round"/>
     </g>
    </g>
    <g id="xtick_4">
     <g id="line2d_4">
      <path d="M 527.717647 458.82 
L 527.717647 112.32 
" clip-path="url(#p779d7b4473)" style="fill: none; stroke: #ffffff; stroke-linecap: round"/>
     </g>
    </g>
    <g id="xtick_5">
     <g id="line2d_5">
      <path d="M 619.623529 458.82 
L 619.623529 112.32 
" clip-path="url(#p779d7b4473)" style="fill: none; stroke: #ffffff; stroke-linecap: round"/>
     </g>
    </g>
    <g id="xtick_6">
     <g id="line2d_6">
      <path d="M 711.529412 458.82 
L 711.529412 112.32 
" clip-path="url(#p779d7b4473)" style="fill: none; stroke: #ffffff; stroke-linecap: round"/>
     </g>
    </g>
   </g>
   <g id="matplotlib.axis_2">
    <g id="ytick_1">
     <g id="line2d_7">
      <path d="M 252 425.57 
L 711.529412 425.57 
" clip-path="url(#p779d7b4473)" style="fill: none; stroke: #ffffff; stroke-linecap: round"/>
     </g>
     <g id="text_1">
      <!-- −40 -->
      <g style="fill: #262626" transform="translate(195.853125 435.411992) scale(0.275 -0.275)">
       <defs>
        <path id="ArialMT-2212" d="M 3381 1997 
L 356 1997 
L 356 2522 
L 3381 2522 
L 3381 1997 
z
" transform="scale(0.015625)"/>
        <path id="ArialMT-34" d="M 2069 0 
L 2069 1097 
L 81 1097 
L 81 1613 
L 2172 4581 
L 2631 4581 
L 2631 1613 
L 3250 1613 
L 3250 1097 
L 2631 1097 
L 2631 0 
L 2069 0 
z
M 2069 1613 
L 2069 3678 
L 634 1613 
L 2069 1613 
z
" transform="scale(0.015625)"/>
        <path id="ArialMT-30" d="M 266 2259 
Q 266 3072 433 3567 
Q 600 4063 929 4331 
Q 1259 4600 1759 4600 
Q 2128 4600 2406 4451 
Q 2684 4303 2865 4023 
Q 3047 3744 3150 3342 
Q 3253 2941 3253 2259 
Q 3253 1453 3087 958 
Q 2922 463 2592 192 
Q 2263 -78 1759 -78 
Q 1097 -78 719 397 
Q 266 969 266 2259 
z
M 844 2259 
Q 844 1131 1108 757 
Q 1372 384 1759 384 
Q 2147 384 2411 759 
Q 2675 1134 2675 2259 
Q 2675 3391 2411 3762 
Q 2147 4134 1753 4134 
Q 1366 4134 1134 3806 
Q 844 3388 844 2259 
z
" transform="scale(0.015625)"/>
       </defs>
       <use xlink:href="#ArialMT-2212"/>
       <use xlink:href="#ArialMT-34" x="58.398438"/>
       <use xlink:href="#ArialMT-30" x="114.013672"/>
      </g>
     </g>
    </g>
    <g id="ytick_2">
     <g id="line2d_8">
      <path d="M 252 355.57 
L 711.529412 355.57 
" clip-path="url(#p779d7b4473)" style="fill: none; stroke: #ffffff; stroke-linecap: round"/>
     </g>
     <g id="text_2">
      <!-- −20 -->
      <g style="fill: #262626" transform="translate(195.853125 365.411992) scale(0.275 -0.275)">
       <defs>
        <path id="ArialMT-32" d="M 3222 541 
L 3222 0 
L 194 0 
Q 188 203 259 391 
Q 375 700 629 1000 
Q 884 1300 1366 1694 
Q 2113 2306 2375 2664 
Q 2638 3022 2638 3341 
Q 2638 3675 2398 3904 
Q 2159 4134 1775 4134 
Q 1369 4134 1125 3890 
Q 881 3647 878 3216 
L 300 3275 
Q 359 3922 746 4261 
Q 1134 4600 1788 4600 
Q 2447 4600 2831 4234 
Q 3216 3869 3216 3328 
Q 3216 3053 3103 2787 
Q 2991 2522 2730 2228 
Q 2469 1934 1863 1422 
Q 1356 997 1212 845 
Q 1069 694 975 541 
L 3222 541 
z
" transform="scale(0.015625)"/>
       </defs>
       <use xlink:href="#ArialMT-2212"/>
       <use xlink:href="#ArialMT-32" x="58.398438"/>
       <use xlink:href="#ArialMT-30" x="114.013672"/>
      </g>
     </g>
    </g>
    <g id="ytick_3">
     <g id="line2d_9">
      <path d="M 252 285.57 
L 711.529412 285.57 
" clip-path="url(#p779d7b4473)" style="fill: none; stroke: #ffffff; stroke-linecap: round"/>
     </g>
     <g id="text_3">
      <!-- 0 -->
      <g style="fill: #262626" transform="translate(227.207422 295.411992) scale(0.275 -0.275)">
       <use xlink:href="#ArialMT-30"/>
      </g>
     </g>
    </g>
    <g id="ytick_4">
     <g id="line2d_10">
      <path d="M 252 215.57 
L 711.529412 215.57 
" clip-path="url(#p779d7b4473)" style="fill: none; stroke: #ffffff; stroke-linecap: round"/>
     </g>
     <g id="text_4">
      <!-- 20 -->
      <g style="fill: #262626" transform="translate(211.914844 225.411992) scale(0.275 -0.275)">
       <use xlink:href="#ArialMT-32"/>
       <use xlink:href="#ArialMT-30" x="55.615234"/>
      </g>
     </g>
    </g>
    <g id="ytick_5">
     <g id="line2d_11">
      <path d="M 252 145.57 
L 711.529412 145.57 
" clip-path="url(#p779d7b4473)" style="fill: none; stroke: #ffffff; stroke-linecap: round"/>
     </g>
     <g id="text_5">
      <!-- 40 -->
      <g style="fill: #262626" transform="translate(211.914844 155.411992) scale(0.275 -0.275)">
       <use xlink:href="#ArialMT-34"/>
       <use xlink:href="#ArialMT-30" x="55.615234"/>
      </g>
     </g>
    </g>
   </g>
   <g id="patch_3">
    <path d="M 252 458.82 
L 261.282494 458.82 
L 261.282494 112.32 
L 252 112.32 
z
" clip-path="url(#p779d7b4473)" style="fill: #ff0000; opacity: 0.1; stroke: #ffffff; stroke-linejoin: miter"/>
   </g>
   <g id="patch_4">
    <path d="M 261.282494 458.82 
L 613.833459 458.82 
L 613.833459 112.32 
L 261.282494 112.32 
z
" clip-path="url(#p779d7b4473)" style="fill: #0000ff; opacity: 0.1; stroke: #ffffff; stroke-linejoin: miter"/>
   </g>
   <g id="patch_5">
    <path d="M 613.833459 458.82 
L 664.4736 458.82 
L 664.4736 112.32 
L 613.833459 112.32 
z
" clip-path="url(#p779d7b4473)" style="fill: #008000; opacity: 0.1; stroke: #ffffff; stroke-linejoin: miter"/>
   </g>
   <g id="PolyCollection_1">
    <defs>
     <path id="m968a29e666" d="M 613.833459 -615.43 
L 613.833459 -685.43 
L 664.4736 -685.43 
L 664.4736 -615.43 
L 664.4736 -615.43 
L 613.833459 -615.43 
z
" style="stroke: #808080"/>
    </defs>
    <g clip-path="url(#p779d7b4473)">
     <use xlink:href="#m968a29e666" x="0" y="936" style="fill: #808080; stroke: #808080"/>
    </g>
   </g>
   <g id="line2d_12">
    <path d="M 252 285.57 
L 711.529412 285.57 
" clip-path="url(#p779d7b4473)" style="fill: none; stroke: #000000; stroke-linecap: round"/>
   </g>
   <g id="line2d_13">
    <path d="M 252 128.07 
L 711.529412 128.07 
" clip-path="url(#p779d7b4473)" style="fill: none; stroke-dasharray: 3.7,1.6; stroke-dashoffset: 0; stroke: #000000"/>
   </g>
   <g id="line2d_14">
    <path d="M 252 443.07 
L 711.529412 443.07 
" clip-path="url(#p779d7b4473)" style="fill: none; stroke-dasharray: 3.7,1.6; stroke-dashoffset: 0; stroke: #000000"/>
   </g>
   <g id="line2d_15">
    <path d="M 252 285.57 
L 307.235435 285.57 
L 311.003576 128.07 
L 348.363318 128.07 
L 355.807694 443.07 
L 434.387224 443.07 
L 438.155365 285.57 
L 483.005435 285.57 
L 486.773576 443.07 
L 565.307153 443.07 
L 572.751529 128.07 
L 610.157224 128.07 
L 613.833459 285.57 
L 613.833459 285.57 
" clip-path="url(#p779d7b4473)" style="fill: none; stroke: #e41a1c; stroke-width: 7; stroke-linecap: round"/>
   </g>
   <g id="patch_6">
    <path d="M 252 458.82 
L 252 112.32 
" style="fill: none; stroke: #ffffff; stroke-width: 1.25; stroke-linejoin: miter; stroke-linecap: square"/>
   </g>
   <g id="patch_7">
    <path d="M 711.529412 458.82 
L 711.529412 112.32 
" style="fill: none; stroke: #ffffff; stroke-width: 1.25; stroke-linejoin: miter; stroke-linecap: square"/>
   </g>
   <g id="patch_8">
    <path d="M 252 458.82 
L 711.529412 458.82 
" style="fill: none; stroke: #ffffff; stroke-width: 1.25; stroke-linejoin: miter; stroke-linecap: square"/>
   </g>
   <g id="patch_9">
    <path d="M 252 112.32 
L 711.529412 112.32 
" style="fill: none; stroke: #ffffff; stroke-width: 1.25; stroke-linejoin: miter; stroke-linecap: square"/>
   </g>
   <g id="legend_1">
    <g id="patch_10">
     <path d="M 439.971209 445.07 
L 692.279412 445.07 
Q 697.779412 445.07 697.779412 439.57 
L 697.779412 403.420391 
Q 697.779412 397.920391 692.279412 397.920391 
L 439.971209 397.920391 
Q 434.471209 397.920391 434.471209 403.420391 
L 434.471209 439.57 
Q 434.471209 445.07 439.971209 445.07 
z
" style="fill: #eaeaf2; opacity: 0.8; stroke: #cccccc; stroke-linejoin: miter"/>
    </g>
    <g id="line2d_16">
     <path d="M 445.471209 418.979375 
L 472.971209 418.979375 
L 500.471209 418.979375 
" style="fill: none; stroke: #e41a1c; stroke-width: 7; stroke-linecap: round"/>
    </g>
    <g id="text_6">
     <!-- TE= 89.87ms -->
     <g style="fill: #262626" transform="translate(522.471209 428.604375) scale(0.275 -0.275)">
      <defs>
       <path id="ArialMT-54" d="M 1659 0 
L 1659 4041 
L 150 4041 
L 150 4581 
L 3781 4581 
L 3781 4041 
L 2266 4041 
L 2266 0 
L 1659 0 
z
" transform="scale(0.015625)"/>
       <path id="ArialMT-45" d="M 506 0 
L 506 4581 
L 3819 4581 
L 3819 4041 
L 1113 4041 
L 1113 2638 
L 3647 2638 
L 3647 2100 
L 1113 2100 
L 1113 541 
L 3925 541 
L 3925 0 
L 506 0 
z
" transform="scale(0.015625)"/>
       <path id="ArialMT-3d" d="M 3381 2694 
L 356 2694 
L 356 3219 
L 3381 3219 
L 3381 2694 
z
M 3381 1303 
L 356 1303 
L 356 1828 
L 3381 1828 
L 3381 1303 
z
" transform="scale(0.015625)"/>
       <path id="ArialMT-20" transform="scale(0.015625)"/>
       <path id="ArialMT-38" d="M 1131 2484 
Q 781 2613 612 2850 
Q 444 3088 444 3419 
Q 444 3919 803 4259 
Q 1163 4600 1759 4600 
Q 2359 4600 2725 4251 
Q 3091 3903 3091 3403 
Q 3091 3084 2923 2848 
Q 2756 2613 2416 2484 
Q 2838 2347 3058 2040 
Q 3278 1734 3278 1309 
Q 3278 722 2862 322 
Q 2447 -78 1769 -78 
Q 1091 -78 675 323 
Q 259 725 259 1325 
Q 259 1772 486 2073 
Q 713 2375 1131 2484 
z
M 1019 3438 
Q 1019 3113 1228 2906 
Q 1438 2700 1772 2700 
Q 2097 2700 2305 2904 
Q 2513 3109 2513 3406 
Q 2513 3716 2298 3927 
Q 2084 4138 1766 4138 
Q 1444 4138 1231 3931 
Q 1019 3725 1019 3438 
z
M 838 1322 
Q 838 1081 952 856 
Q 1066 631 1291 507 
Q 1516 384 1775 384 
Q 2178 384 2440 643 
Q 2703 903 2703 1303 
Q 2703 1709 2433 1975 
Q 2163 2241 1756 2241 
Q 1359 2241 1098 1978 
Q 838 1716 838 1322 
z
" transform="scale(0.015625)"/>
       <path id="ArialMT-39" d="M 350 1059 
L 891 1109 
Q 959 728 1153 556 
Q 1347 384 1650 384 
Q 1909 384 2104 503 
Q 2300 622 2425 820 
Q 2550 1019 2634 1356 
Q 2719 1694 2719 2044 
Q 2719 2081 2716 2156 
Q 2547 1888 2255 1720 
Q 1963 1553 1622 1553 
Q 1053 1553 659 1965 
Q 266 2378 266 3053 
Q 266 3750 677 4175 
Q 1088 4600 1706 4600 
Q 2153 4600 2523 4359 
Q 2894 4119 3086 3673 
Q 3278 3228 3278 2384 
Q 3278 1506 3087 986 
Q 2897 466 2520 194 
Q 2144 -78 1638 -78 
Q 1100 -78 759 220 
Q 419 519 350 1059 
z
M 2653 3081 
Q 2653 3566 2395 3850 
Q 2138 4134 1775 4134 
Q 1400 4134 1122 3828 
Q 844 3522 844 3034 
Q 844 2597 1108 2323 
Q 1372 2050 1759 2050 
Q 2150 2050 2401 2323 
Q 2653 2597 2653 3081 
z
" transform="scale(0.015625)"/>
       <path id="ArialMT-2e" d="M 581 0 
L 581 641 
L 1222 641 
L 1222 0 
L 581 0 
z
" transform="scale(0.015625)"/>
       <path id="ArialMT-37" d="M 303 3981 
L 303 4522 
L 3269 4522 
L 3269 4084 
Q 2831 3619 2401 2847 
Q 1972 2075 1738 1259 
Q 1569 684 1522 0 
L 944 0 
Q 953 541 1156 1306 
Q 1359 2072 1739 2783 
Q 2119 3494 2547 3981 
L 303 3981 
z
" transform="scale(0.015625)"/>
       <path id="ArialMT-6d" d="M 422 0 
L 422 3319 
L 925 3319 
L 925 2853 
Q 1081 3097 1340 3245 
Q 1600 3394 1931 3394 
Q 2300 3394 2536 3241 
Q 2772 3088 2869 2813 
Q 3263 3394 3894 3394 
Q 4388 3394 4653 3120 
Q 4919 2847 4919 2278 
L 4919 0 
L 4359 0 
L 4359 2091 
Q 4359 2428 4304 2576 
Q 4250 2725 4106 2815 
Q 3963 2906 3769 2906 
Q 3419 2906 3187 2673 
Q 2956 2441 2956 1928 
L 2956 0 
L 2394 0 
L 2394 2156 
Q 2394 2531 2256 2718 
Q 2119 2906 1806 2906 
Q 1569 2906 1367 2781 
Q 1166 2656 1075 2415 
Q 984 2175 984 1722 
L 984 0 
L 422 0 
z
" transform="scale(0.015625)"/>
       <path id="ArialMT-73" d="M 197 991 
L 753 1078 
Q 800 744 1014 566 
Q 1228 388 1613 388 
Q 2000 388 2187 545 
Q 2375 703 2375 916 
Q 2375 1106 2209 1216 
Q 2094 1291 1634 1406 
Q 1016 1563 777 1677 
Q 538 1791 414 1992 
Q 291 2194 291 2438 
Q 291 2659 392 2848 
Q 494 3038 669 3163 
Q 800 3259 1026 3326 
Q 1253 3394 1513 3394 
Q 1903 3394 2198 3281 
Q 2494 3169 2634 2976 
Q 2775 2784 2828 2463 
L 2278 2388 
Q 2241 2644 2061 2787 
Q 1881 2931 1553 2931 
Q 1166 2931 1000 2803 
Q 834 2675 834 2503 
Q 834 2394 903 2306 
Q 972 2216 1119 2156 
Q 1203 2125 1616 2013 
Q 2213 1853 2448 1751 
Q 2684 1650 2818 1456 
Q 2953 1263 2953 975 
Q 2953 694 2789 445 
Q 2625 197 2315 61 
Q 2006 -75 1616 -75 
Q 969 -75 630 194 
Q 291 463 197 991 
z
" transform="scale(0.015625)"/>
      </defs>
      <use xlink:href="#ArialMT-54"/>
      <use xlink:href="#ArialMT-45" x="61.083984"/>
      <use xlink:href="#ArialMT-3d" x="127.783203"/>
      <use xlink:href="#ArialMT-20" x="186.181641"/>
      <use xlink:href="#ArialMT-38" x="213.964844"/>
      <use xlink:href="#ArialMT-39" x="269.580078"/>
      <use xlink:href="#ArialMT-2e" x="325.195312"/>
      <use xlink:href="#ArialMT-38" x="352.978516"/>
      <use xlink:href="#ArialMT-37" x="408.59375"/>
      <use xlink:href="#ArialMT-6d" x="464.208984"/>
      <use xlink:href="#ArialMT-73" x="547.509766"/>
     </g>
    </g>
   </g>
  </g>
  <g id="axes_2">
   <g id="patch_11">
    <path d="M 803.435294 458.82 
L 1262.964706 458.82 
L 1262.964706 112.32 
L 803.435294 112.32 
z
" style="fill: #eaeaf2"/>
   </g>
   <g id="matplotlib.axis_3">
    <g id="xtick_7">
     <g id="line2d_17">
      <path d="M 803.435294 458.82 
L 803.435294 112.32 
" clip-path="url(#p0e8b23c160)" style="fill: none; stroke: #ffffff; stroke-linecap: round"/>
     </g>
    </g>
    <g id="xtick_8">
     <g id="line2d_18">
      <path d="M 895.341176 458.82 
L 895.341176 112.32 
" clip-path="url(#p0e8b23c160)" style="fill: none; stroke: #ffffff; stroke-linecap: round"/>
     </g>
    </g>
    <g id="xtick_9">
     <g id="line2d_19">
      <path d="M 987.247059 458.82 
L 987.247059 112.32 
" clip-path="url(#p0e8b23c160)" style="fill: none; stroke: #ffffff; stroke-linecap: round"/>
     </g>
    </g>
    <g id="xtick_10">
     <g id="line2d_20">
      <path d="M 1079.152941 458.82 
L 1079.152941 112.32 
" clip-path="url(#p0e8b23c160)" style="fill: none; stroke: #ffffff; stroke-linecap: round"/>
     </g>
    </g>
    <g id="xtick_11">
     <g id="line2d_21">
      <path d="M 1171.058824 458.82 
L 1171.058824 112.32 
" clip-path="url(#p0e8b23c160)" style="fill: none; stroke: #ffffff; stroke-linecap: round"/>
     </g>
    </g>
    <g id="xtick_12">
     <g id="line2d_22">
      <path d="M 1262.964706 458.82 
L 1262.964706 112.32 
" clip-path="url(#p0e8b23c160)" style="fill: none; stroke: #ffffff; stroke-linecap: round"/>
     </g>
    </g>
   </g>
   <g id="matplotlib.axis_4">
    <g id="ytick_6">
     <g id="line2d_23">
      <path d="M 803.435294 443.07 
L 1262.964706 443.07 
" clip-path="url(#p0e8b23c160)" style="fill: none; stroke: #ffffff; stroke-linecap: round"/>
     </g>
     <g id="text_7">
      <!-- −200 -->
      <g style="fill: #262626" transform="translate(731.995841 452.911992) scale(0.275 -0.275)">
       <use xlink:href="#ArialMT-2212"/>
       <use xlink:href="#ArialMT-32" x="58.398438"/>
       <use xlink:href="#ArialMT-30" x="114.013672"/>
       <use xlink:href="#ArialMT-30" x="169.628906"/>
      </g>
     </g>
    </g>
    <g id="ytick_7">
     <g id="line2d_24">
      <path d="M 803.435294 364.32 
L 1262.964706 364.32 
" clip-path="url(#p0e8b23c160)" style="fill: none; stroke: #ffffff; stroke-linecap: round"/>
     </g>
     <g id="text_8">
      <!-- −100 -->
      <g style="fill: #262626" transform="translate(731.995841 374.161992) scale(0.275 -0.275)">
       <defs>
        <path id="ArialMT-31" d="M 2384 0 
L 1822 0 
L 1822 3584 
Q 1619 3391 1289 3197 
Q 959 3003 697 2906 
L 697 3450 
Q 1169 3672 1522 3987 
Q 1875 4303 2022 4600 
L 2384 4600 
L 2384 0 
z
" transform="scale(0.015625)"/>
       </defs>
       <use xlink:href="#ArialMT-2212"/>
       <use xlink:href="#ArialMT-31" x="58.398438"/>
       <use xlink:href="#ArialMT-30" x="114.013672"/>
       <use xlink:href="#ArialMT-30" x="169.628906"/>
      </g>
     </g>
    </g>
    <g id="ytick_8">
     <g id="line2d_25">
      <path d="M 803.435294 285.57 
L 1262.964706 285.57 
" clip-path="url(#p0e8b23c160)" style="fill: none; stroke: #ffffff; stroke-linecap: round"/>
     </g>
     <g id="text_9">
      <!-- 0 -->
      <g style="fill: #262626" transform="translate(778.642716 295.411992) scale(0.275 -0.275)">
       <use xlink:href="#ArialMT-30"/>
      </g>
     </g>
    </g>
    <g id="ytick_9">
     <g id="line2d_26">
      <path d="M 803.435294 206.82 
L 1262.964706 206.82 
" clip-path="url(#p0e8b23c160)" style="fill: none; stroke: #ffffff; stroke-linecap: round"/>
     </g>
     <g id="text_10">
      <!-- 100 -->
      <g style="fill: #262626" transform="translate(748.05756 216.661992) scale(0.275 -0.275)">
       <use xlink:href="#ArialMT-31"/>
       <use xlink:href="#ArialMT-30" x="55.615234"/>
       <use xlink:href="#ArialMT-30" x="111.230469"/>
      </g>
     </g>
    </g>
    <g id="ytick_10">
     <g id="line2d_27">
      <path d="M 803.435294 128.07 
L 1262.964706 128.07 
" clip-path="url(#p0e8b23c160)" style="fill: none; stroke: #ffffff; stroke-linecap: round"/>
     </g>
     <g id="text_11">
      <!-- 200 -->
      <g style="fill: #262626" transform="translate(748.05756 137.911992) scale(0.275 -0.275)">
       <use xlink:href="#ArialMT-32"/>
       <use xlink:href="#ArialMT-30" x="55.615234"/>
       <use xlink:href="#ArialMT-30" x="111.230469"/>
      </g>
     </g>
    </g>
   </g>
   <g id="patch_12">
    <path d="M 803.435294 458.82 
L 812.717788 458.82 
L 812.717788 112.32 
L 803.435294 112.32 
z
" clip-path="url(#p0e8b23c160)" style="fill: #ff0000; opacity: 0.1; stroke: #ffffff; stroke-linejoin: miter"/>
   </g>
   <g id="patch_13">
    <path d="M 812.717788 458.82 
L 1165.268753 458.82 
L 1165.268753 112.32 
L 812.717788 112.32 
z
" clip-path="url(#p0e8b23c160)" style="fill: #0000ff; opacity: 0.1; stroke: #ffffff; stroke-linejoin: miter"/>
   </g>
   <g id="patch_14">
    <path d="M 1165.268753 458.82 
L 1215.908894 458.82 
L 1215.908894 112.32 
L 1165.268753 112.32 
z
" clip-path="url(#p0e8b23c160)" style="fill: #008000; opacity: 0.1; stroke: #ffffff; stroke-linejoin: miter"/>
   </g>
   <g id="line2d_28">
    <path d="M 803.435294 285.57 
L 1262.964706 285.57 
" clip-path="url(#p0e8b23c160)" style="fill: none; stroke: #000000; stroke-linecap: round"/>
   </g>
   <g id="line2d_29">
    <path d="M 803.435294 128.07 
L 1262.964706 128.07 
" clip-path="url(#p0e8b23c160)" style="fill: none; stroke-dasharray: 3.7,1.6; stroke-dashoffset: 0; stroke: #000000"/>
   </g>
   <g id="line2d_30">
    <path d="M 803.435294 443.07 
L 1262.964706 443.07 
" clip-path="url(#p0e8b23c160)" style="fill: none; stroke-dasharray: 3.7,1.6; stroke-dashoffset: 0; stroke: #000000"/>
   </g>
   <g id="line2d_31">
    <path d="M 803.435294 285.57 
L 858.624776 285.57 
L 858.762635 241.273125 
L 862.301012 241.273125 
L 862.438871 285.57 
L 899.752659 285.57 
L 899.890518 329.866875 
L 903.428894 329.866875 
L 903.474847 285.57 
L 903.5208 329.866875 
L 907.151082 329.866875 
L 907.288941 285.57 
L 985.776565 285.57 
L 985.914424 241.273125 
L 989.4528 241.273125 
L 989.590659 285.57 
L 1034.394776 285.57 
L 1034.532635 329.866875 
L 1038.071012 329.866875 
L 1038.208871 285.57 
L 1116.696494 285.57 
L 1116.834353 241.273125 
L 1120.372729 241.273125 
L 1120.418682 285.57 
L 1120.464635 241.273125 
L 1124.094918 241.273125 
L 1124.232776 285.57 
L 1161.546565 285.57 
L 1161.684424 329.866875 
L 1165.2228 329.866875 
L 1165.2228 329.866875 
" clip-path="url(#p0e8b23c160)" style="fill: none; stroke: #e41a1c; stroke-width: 7; stroke-linecap: round"/>
   </g>
   <g id="patch_15">
    <path d="M 803.435294 458.82 
L 803.435294 112.32 
" style="fill: none; stroke: #ffffff; stroke-width: 1.25; stroke-linejoin: miter; stroke-linecap: square"/>
   </g>
   <g id="patch_16">
    <path d="M 1262.964706 458.82 
L 1262.964706 112.32 
" style="fill: none; stroke: #ffffff; stroke-width: 1.25; stroke-linejoin: miter; stroke-linecap: square"/>
   </g>
   <g id="patch_17">
    <path d="M 803.435294 458.82 
L 1262.964706 458.82 
" style="fill: none; stroke: #ffffff; stroke-width: 1.25; stroke-linejoin: miter; stroke-linecap: square"/>
   </g>
   <g id="patch_18">
    <path d="M 803.435294 112.32 
L 1262.964706 112.32 
" style="fill: none; stroke: #ffffff; stroke-width: 1.25; stroke-linejoin: miter; stroke-linecap: square"/>
   </g>
   <g id="legend_2">
    <g id="patch_19">
     <path d="M 1232.714706 445.07 
L 1243.714706 445.07 
Q 1249.214706 445.07 1249.214706 439.57 
L 1249.214706 428.57 
Q 1249.214706 423.07 1243.714706 423.07 
L 1232.714706 423.07 
Q 1227.214706 423.07 1227.214706 428.57 
L 1227.214706 439.57 
Q 1227.214706 445.07 1232.714706 445.07 
z
" style="fill: #eaeaf2; opacity: 0.8; stroke: #cccccc; stroke-linejoin: miter"/>
    </g>
   </g>
  </g>
  <g id="axes_3">
   <g id="patch_20">
    <path d="M 1354.870588 458.82 
L 1814.4 458.82 
L 1814.4 112.32 
L 1354.870588 112.32 
z
" style="fill: #eaeaf2"/>
   </g>
   <g id="matplotlib.axis_5">
    <g id="xtick_13">
     <g id="line2d_32">
      <path d="M 1354.870588 458.82 
L 1354.870588 112.32 
" clip-path="url(#p397b61648d)" style="fill: none; stroke: #ffffff; stroke-linecap: round"/>
     </g>
    </g>
    <g id="xtick_14">
     <g id="line2d_33">
      <path d="M 1446.776471 458.82 
L 1446.776471 112.32 
" clip-path="url(#p397b61648d)" style="fill: none; stroke: #ffffff; stroke-linecap: round"/>
     </g>
    </g>
    <g id="xtick_15">
     <g id="line2d_34">
      <path d="M 1538.682353 458.82 
L 1538.682353 112.32 
" clip-path="url(#p397b61648d)" style="fill: none; stroke: #ffffff; stroke-linecap: round"/>
     </g>
    </g>
    <g id="xtick_16">
     <g id="line2d_35">
      <path d="M 1630.588235 458.82 
L 1630.588235 112.32 
" clip-path="url(#p397b61648d)" style="fill: none; stroke: #ffffff; stroke-linecap: round"/>
     </g>
    </g>
    <g id="xtick_17">
     <g id="line2d_36">
      <path d="M 1722.494118 458.82 
L 1722.494118 112.32 
" clip-path="url(#p397b61648d)" style="fill: none; stroke: #ffffff; stroke-linecap: round"/>
     </g>
    </g>
    <g id="xtick_18">
     <g id="line2d_37">
      <path d="M 1814.4 458.82 
L 1814.4 112.32 
" clip-path="url(#p397b61648d)" style="fill: none; stroke: #ffffff; stroke-linecap: round"/>
     </g>
    </g>
   </g>
   <g id="matplotlib.axis_6">
    <g id="ytick_11">
     <g id="line2d_38">
      <path d="M 1354.870588 458.82 
L 1814.4 458.82 
" clip-path="url(#p397b61648d)" style="fill: none; stroke: #ffffff; stroke-linecap: round"/>
     </g>
     <g id="text_12">
      <!-- 0.0 -->
      <g style="fill: #262626" transform="translate(1307.145588 468.661992) scale(0.275 -0.275)">
       <use xlink:href="#ArialMT-30"/>
       <use xlink:href="#ArialMT-2e" x="55.615234"/>
       <use xlink:href="#ArialMT-30" x="83.398438"/>
      </g>
     </g>
    </g>
    <g id="ytick_12">
     <g id="line2d_39">
      <path d="M 1354.870588 395.82 
L 1814.4 395.82 
" clip-path="url(#p397b61648d)" style="fill: none; stroke: #ffffff; stroke-linecap: round"/>
     </g>
     <g id="text_13">
      <!-- 0.2 -->
      <g style="fill: #262626" transform="translate(1307.145588 405.661992) scale(0.275 -0.275)">
       <use xlink:href="#ArialMT-30"/>
       <use xlink:href="#ArialMT-2e" x="55.615234"/>
       <use xlink:href="#ArialMT-32" x="83.398438"/>
      </g>
     </g>
    </g>
    <g id="ytick_13">
     <g id="line2d_40">
      <path d="M 1354.870588 332.82 
L 1814.4 332.82 
" clip-path="url(#p397b61648d)" style="fill: none; stroke: #ffffff; stroke-linecap: round"/>
     </g>
     <g id="text_14">
      <!-- 0.4 -->
      <g style="fill: #262626" transform="translate(1307.145588 342.661992) scale(0.275 -0.275)">
       <use xlink:href="#ArialMT-30"/>
       <use xlink:href="#ArialMT-2e" x="55.615234"/>
       <use xlink:href="#ArialMT-34" x="83.398438"/>
      </g>
     </g>
    </g>
    <g id="ytick_14">
     <g id="line2d_41">
      <path d="M 1354.870588 269.82 
L 1814.4 269.82 
" clip-path="url(#p397b61648d)" style="fill: none; stroke: #ffffff; stroke-linecap: round"/>
     </g>
     <g id="text_15">
      <!-- 0.6 -->
      <g style="fill: #262626" transform="translate(1307.145588 279.661992) scale(0.275 -0.275)">
       <defs>
        <path id="ArialMT-36" d="M 3184 3459 
L 2625 3416 
Q 2550 3747 2413 3897 
Q 2184 4138 1850 4138 
Q 1581 4138 1378 3988 
Q 1113 3794 959 3422 
Q 806 3050 800 2363 
Q 1003 2672 1297 2822 
Q 1591 2972 1913 2972 
Q 2475 2972 2870 2558 
Q 3266 2144 3266 1488 
Q 3266 1056 3080 686 
Q 2894 316 2569 119 
Q 2244 -78 1831 -78 
Q 1128 -78 684 439 
Q 241 956 241 2144 
Q 241 3472 731 4075 
Q 1159 4600 1884 4600 
Q 2425 4600 2770 4297 
Q 3116 3994 3184 3459 
z
M 888 1484 
Q 888 1194 1011 928 
Q 1134 663 1356 523 
Q 1578 384 1822 384 
Q 2178 384 2434 671 
Q 2691 959 2691 1453 
Q 2691 1928 2437 2201 
Q 2184 2475 1800 2475 
Q 1419 2475 1153 2201 
Q 888 1928 888 1484 
z
" transform="scale(0.015625)"/>
       </defs>
       <use xlink:href="#ArialMT-30"/>
       <use xlink:href="#ArialMT-2e" x="55.615234"/>
       <use xlink:href="#ArialMT-36" x="83.398438"/>
      </g>
     </g>
    </g>
    <g id="ytick_15">
     <g id="line2d_42">
      <path d="M 1354.870588 206.82 
L 1814.4 206.82 
" clip-path="url(#p397b61648d)" style="fill: none; stroke: #ffffff; stroke-linecap: round"/>
     </g>
     <g id="text_16">
      <!-- 0.8 -->
      <g style="fill: #262626" transform="translate(1307.145588 216.661992) scale(0.275 -0.275)">
       <use xlink:href="#ArialMT-30"/>
       <use xlink:href="#ArialMT-2e" x="55.615234"/>
       <use xlink:href="#ArialMT-38" x="83.398438"/>
      </g>
     </g>
    </g>
    <g id="ytick_16">
     <g id="line2d_43">
      <path d="M 1354.870588 143.82 
L 1814.4 143.82 
" clip-path="url(#p397b61648d)" style="fill: none; stroke: #ffffff; stroke-linecap: round"/>
     </g>
     <g id="text_17">
      <!-- 1.0 -->
      <g style="fill: #262626" transform="translate(1307.145588 153.661992) scale(0.275 -0.275)">
       <use xlink:href="#ArialMT-31"/>
       <use xlink:href="#ArialMT-2e" x="55.615234"/>
       <use xlink:href="#ArialMT-30" x="83.398438"/>
      </g>
     </g>
    </g>
   </g>
   <g id="patch_21">
    <path d="M 1354.870588 458.82 
L 1364.153082 458.82 
L 1364.153082 112.32 
L 1354.870588 112.32 
z
" clip-path="url(#p397b61648d)" style="fill: #ff0000; opacity: 0.1; stroke: #ffffff; stroke-linejoin: miter"/>
   </g>
   <g id="patch_22">
    <path d="M 1364.153082 458.82 
L 1716.704047 458.82 
L 1716.704047 112.32 
L 1364.153082 112.32 
z
" clip-path="url(#p397b61648d)" style="fill: #0000ff; opacity: 0.1; stroke: #ffffff; stroke-linejoin: miter"/>
   </g>
   <g id="patch_23">
    <path d="M 1716.704047 458.82 
L 1767.344188 458.82 
L 1767.344188 112.32 
L 1716.704047 112.32 
z
" clip-path="url(#p397b61648d)" style="fill: #008000; opacity: 0.1; stroke: #ffffff; stroke-linejoin: miter"/>
   </g>
   <g id="line2d_44">
    <path d="M 1354.870588 458.82 
L 1814.4 458.82 
" clip-path="url(#p397b61648d)" style="fill: none; stroke: #000000; stroke-linecap: round"/>
   </g>
   <g id="line2d_45">
    <path d="M 1354.870588 143.82 
L 1814.4 143.82 
" clip-path="url(#p397b61648d)" style="fill: none; stroke-dasharray: 3.7,1.6; stroke-dashoffset: 0; stroke: #000000"/>
   </g>
   <g id="line2d_46">
    <path d="M 1354.870588 458.82 
L 1410.060071 458.82 
L 1410.5196 388.949091 
L 1411.071035 338.69946 
L 1411.668424 304.304092 
L 1412.311765 279.473738 
L 1413.001059 260.831499 
L 1413.736306 246.406342 
L 1414.195835 309.168805 
L 1414.701318 349.492491 
L 1415.252753 376.753903 
L 1415.850141 395.882824 
L 1416.493482 409.695299 
L 1417.182776 419.900779 
L 1417.918024 427.586181 
L 1418.699224 433.468256 
L 1419.526376 438.033795 
L 1420.399482 441.621581 
L 1421.318541 444.472313 
L 1422.283553 446.760067 
L 1423.294518 448.612713 
L 1424.397388 450.183418 
L 1425.592165 451.506644 
L 1426.9248 452.651895 
L 1428.441247 453.654905 
L 1430.187459 454.533298 
L 1432.209388 455.296247 
L 1434.644894 455.972163 
L 1437.677788 456.572675 
L 1441.491882 457.091823 
L 1446.500753 457.539115 
L 1451.187953 457.817066 
L 1451.969153 357.665537 
L 1452.520588 319.324162 
L 1453.163929 289.905977 
L 1453.853224 268.433608 
L 1454.588471 252.164059 
L 1454.864188 247.250064 
L 1454.910141 255.323 
L 1455.002047 252.854372 
L 1455.599435 240.589229 
L 1456.288729 230.831903 
L 1457.115882 222.218224 
L 1458.034941 214.961213 
L 1458.586376 211.396384 
L 1459.045906 278.639725 
L 1459.551388 322.964186 
L 1460.102824 353.755671 
L 1460.700212 375.971813 
L 1461.389506 393.440003 
L 1462.124753 406.376593 
L 1462.905953 416.188381 
L 1463.733106 423.773923 
L 1464.606212 429.731515 
L 1465.525271 434.47305 
L 1466.490282 438.289946 
L 1467.501247 441.393128 
L 1468.558165 443.938223 
L 1469.661035 446.041959 
L 1470.855812 447.855596 
L 1472.142494 449.41057 
L 1473.567035 450.778261 
L 1475.129435 451.96492 
L 1476.875647 453.008632 
L 1478.851624 453.929911 
L 1481.149271 454.754325 
L 1483.906447 455.499761 
L 1487.215059 456.156852 
L 1491.350824 456.741217 
L 1496.589459 457.246553 
L 1503.528353 457.679958 
L 1513.086565 458.039728 
L 1527.102212 458.327702 
L 1537.211859 458.448543 
L 1537.763294 379.075283 
L 1538.314729 332.745917 
L 1538.912118 300.503415 
L 1539.555459 276.952629 
L 1540.290706 258.118016 
L 1540.888094 246.74441 
L 1541.347624 309.503009 
L 1541.853106 349.822517 
L 1542.404541 377.079457 
L 1543.001929 396.203633 
L 1543.645271 410.011108 
L 1544.334565 420.211356 
L 1545.069812 427.891315 
L 1545.851012 433.767756 
L 1546.678165 438.327494 
L 1547.551271 441.909332 
L 1548.470329 444.753989 
L 1549.435341 447.035563 
L 1550.446306 448.881943 
L 1551.549176 450.446046 
L 1552.743953 451.762383 
L 1554.076588 452.900254 
L 1555.593035 453.895237 
L 1557.339247 454.764845 
L 1559.361176 455.518194 
L 1561.796682 456.183296 
L 1564.829576 456.771382 
L 1568.689624 457.281311 
L 1573.744447 457.713406 
L 1580.729294 458.073381 
L 1585.830071 458.240434 
L 1586.427459 374.487249 
L 1586.978894 329.940497 
L 1587.576282 298.692118 
L 1588.219624 275.737154 
L 1588.954871 257.298245 
L 1589.506306 246.89607 
L 1589.965835 309.648682 
L 1590.471318 349.961844 
L 1591.022753 377.212134 
L 1591.620141 396.329411 
L 1592.263482 410.129796 
L 1592.952776 420.322814 
L 1593.688024 427.995458 
L 1594.469224 433.86455 
L 1595.296376 438.416949 
L 1596.169482 441.991504 
L 1597.088541 444.828973 
L 1598.053553 447.103491 
L 1599.064518 448.942979 
L 1600.167388 450.500102 
L 1601.362165 451.809459 
L 1602.6948 452.940197 
L 1604.211247 453.927821 
L 1605.957459 454.789845 
L 1607.979388 455.535462 
L 1610.414894 456.192541 
L 1613.447788 456.772297 
L 1617.307835 457.273784 
L 1622.408612 457.70068 
L 1629.485365 458.055248 
L 1639.916682 458.337645 
L 1656.827365 458.550171 
L 1668.131788 458.622443 
L 1668.637271 383.907534 
L 1669.188706 335.678075 
L 1669.786094 302.385353 
L 1670.429435 278.207522 
L 1671.118729 259.97513 
L 1671.808024 246.586617 
L 1671.853976 254.661095 
L 1671.945882 252.195537 
L 1672.543271 239.949864 
L 1673.232565 230.214009 
L 1674.059718 221.624775 
L 1674.978776 214.393352 
L 1675.530212 210.843136 
L 1675.989741 278.098251 
L 1676.495224 322.435259 
L 1677.046659 353.23997 
L 1677.644047 375.469919 
L 1678.333341 392.953402 
L 1679.068588 405.90559 
L 1679.849788 415.73319 
L 1680.676941 423.334671 
L 1681.550047 429.308248 
L 1682.469106 434.065739 
L 1683.434118 437.898492 
L 1684.445082 441.01737 
L 1685.502 443.577944 
L 1686.650824 445.775297 
L 1687.8456 447.588508 
L 1689.132282 449.146463 
L 1690.556824 450.519969 
L 1692.119224 451.714728 
L 1693.865435 452.768554 
L 1695.887365 453.720833 
L 1698.230965 454.569103 
L 1700.988141 455.322982 
L 1704.342706 455.999586 
L 1708.478471 456.596357 
L 1712.981859 457.055822 
L 1713.349482 401.923394 
L 1713.854965 350.775118 
L 1714.452353 312.66281 
L 1715.095694 285.648306 
L 1715.784988 265.629167 
L 1716.520235 250.286104 
L 1716.658094 247.892085 
L 1716.658094 247.892085 
" clip-path="url(#p397b61648d)" style="fill: none; stroke: #e41a1c; stroke-width: 7; stroke-linecap: round"/>
   </g>
   <g id="patch_24">
    <path d="M 1354.870588 458.82 
L 1354.870588 112.32 
" style="fill: none; stroke: #ffffff; stroke-width: 1.25; stroke-linejoin: miter; stroke-linecap: square"/>
   </g>
   <g id="patch_25">
    <path d="M 1814.4 458.82 
L 1814.4 112.32 
" style="fill: none; stroke: #ffffff; stroke-width: 1.25; stroke-linejoin: miter; stroke-linecap: square"/>
   </g>
   <g id="patch_26">
    <path d="M 1354.870588 458.82 
L 1814.4 458.82 
" style="fill: none; stroke: #ffffff; stroke-width: 1.25; stroke-linejoin: miter; stroke-linecap: square"/>
   </g>
   <g id="patch_27">
    <path d="M 1354.870588 112.32 
L 1814.4 112.32 
" style="fill: none; stroke: #ffffff; stroke-width: 1.25; stroke-linejoin: miter; stroke-linecap: square"/>
   </g>
   <g id="legend_3">
    <g id="patch_28">
     <path d="M 1633.806641 445.07 
L 1795.15 445.07 
Q 1800.65 445.07 1800.65 439.57 
L 1800.65 403.420391 
Q 1800.65 397.920391 1795.15 397.920391 
L 1633.806641 397.920391 
Q 1628.306641 397.920391 1628.306641 403.420391 
L 1628.306641 439.57 
Q 1628.306641 445.07 1633.806641 445.07 
z
" style="fill: #eaeaf2; opacity: 0.8; stroke: #cccccc; stroke-linejoin: miter"/>
    </g>
    <g id="line2d_47">
     <path d="M 1639.306641 418.979375 
L 1666.806641 418.979375 
L 1694.306641 418.979375 
" style="fill: none; stroke: #e41a1c; stroke-width: 7; stroke-linecap: round"/>
    </g>
    <g id="text_18">
     <!-- TRAP -->
     <g style="fill: #262626" transform="translate(1716.306641 428.604375) scale(0.275 -0.275)">
      <defs>
       <path id="ArialMT-52" d="M 503 0 
L 503 4581 
L 2534 4581 
Q 3147 4581 3465 4457 
Q 3784 4334 3975 4021 
Q 4166 3709 4166 3331 
Q 4166 2844 3850 2509 
Q 3534 2175 2875 2084 
Q 3116 1969 3241 1856 
Q 3506 1613 3744 1247 
L 4541 0 
L 3778 0 
L 3172 953 
Q 2906 1366 2734 1584 
Q 2563 1803 2427 1890 
Q 2291 1978 2150 2013 
Q 2047 2034 1813 2034 
L 1109 2034 
L 1109 0 
L 503 0 
z
M 1109 2559 
L 2413 2559 
Q 2828 2559 3062 2645 
Q 3297 2731 3419 2920 
Q 3541 3109 3541 3331 
Q 3541 3656 3305 3865 
Q 3069 4075 2559 4075 
L 1109 4075 
L 1109 2559 
z
" transform="scale(0.015625)"/>
       <path id="ArialMT-41" d="M -9 0 
L 1750 4581 
L 2403 4581 
L 4278 0 
L 3588 0 
L 3053 1388 
L 1138 1388 
L 634 0 
L -9 0 
z
M 1313 1881 
L 2866 1881 
L 2388 3150 
Q 2169 3728 2063 4100 
Q 1975 3659 1816 3225 
L 1313 1881 
z
" transform="scale(0.015625)"/>
       <path id="ArialMT-50" d="M 494 0 
L 494 4581 
L 2222 4581 
Q 2678 4581 2919 4538 
Q 3256 4481 3484 4323 
Q 3713 4166 3852 3881 
Q 3991 3597 3991 3256 
Q 3991 2672 3619 2267 
Q 3247 1863 2275 1863 
L 1100 1863 
L 1100 0 
L 494 0 
z
M 1100 2403 
L 2284 2403 
Q 2872 2403 3119 2622 
Q 3366 2841 3366 3238 
Q 3366 3525 3220 3729 
Q 3075 3934 2838 4000 
Q 2684 4041 2272 4041 
L 1100 4041 
L 1100 2403 
z
" transform="scale(0.015625)"/>
      </defs>
      <use xlink:href="#ArialMT-54"/>
      <use xlink:href="#ArialMT-52" x="61.083984"/>
      <use xlink:href="#ArialMT-41" x="133.300781"/>
      <use xlink:href="#ArialMT-50" x="200"/>
     </g>
    </g>
   </g>
  </g>
  <g id="axes_4">
   <g id="patch_29">
    <path d="M 252 833.04 
L 711.529412 833.04 
L 711.529412 486.54 
L 252 486.54 
z
" style="fill: #eaeaf2"/>
   </g>
   <g id="matplotlib.axis_7">
    <g id="xtick_19">
     <g id="line2d_48">
      <path d="M 252 833.04 
L 252 486.54 
" clip-path="url(#p5b80fb580c)" style="fill: none; stroke: #ffffff; stroke-linecap: round"/>
     </g>
     <g id="text_19">
      <!-- 0 -->
      <g style="fill: #262626" transform="translate(244.353711 862.223984) scale(0.275 -0.275)">
       <use xlink:href="#ArialMT-30"/>
      </g>
     </g>
    </g>
    <g id="xtick_20">
     <g id="line2d_49">
      <path d="M 343.905882 833.04 
L 343.905882 486.54 
" clip-path="url(#p5b80fb580c)" style="fill: none; stroke: #ffffff; stroke-linecap: round"/>
     </g>
     <g id="text_20">
      <!-- 20 -->
      <g style="fill: #262626" transform="translate(328.613304 862.223984) scale(0.275 -0.275)">
       <use xlink:href="#ArialMT-32"/>
       <use xlink:href="#ArialMT-30" x="55.615234"/>
      </g>
     </g>
    </g>
    <g id="xtick_21">
     <g id="line2d_50">
      <path d="M 435.811765 833.04 
L 435.811765 486.54 
" clip-path="url(#p5b80fb580c)" style="fill: none; stroke: #ffffff; stroke-linecap: round"/>
     </g>
     <g id="text_21">
      <!-- 40 -->
      <g style="fill: #262626" transform="translate(420.519187 862.223984) scale(0.275 -0.275)">
       <use xlink:href="#ArialMT-34"/>
       <use xlink:href="#ArialMT-30" x="55.615234"/>
      </g>
     </g>
    </g>
    <g id="xtick_22">
     <g id="line2d_51">
      <path d="M 527.717647 833.04 
L 527.717647 486.54 
" clip-path="url(#p5b80fb580c)" style="fill: none; stroke: #ffffff; stroke-linecap: round"/>
     </g>
     <g id="text_22">
      <!-- 60 -->
      <g style="fill: #262626" transform="translate(512.425069 862.223984) scale(0.275 -0.275)">
       <use xlink:href="#ArialMT-36"/>
       <use xlink:href="#ArialMT-30" x="55.615234"/>
      </g>
     </g>
    </g>
    <g id="xtick_23">
     <g id="line2d_52">
      <path d="M 619.623529 833.04 
L 619.623529 486.54 
" clip-path="url(#p5b80fb580c)" style="fill: none; stroke: #ffffff; stroke-linecap: round"/>
     </g>
     <g id="text_23">
      <!-- 80 -->
      <g style="fill: #262626" transform="translate(604.330951 862.223984) scale(0.275 -0.275)">
       <use xlink:href="#ArialMT-38"/>
       <use xlink:href="#ArialMT-30" x="55.615234"/>
      </g>
     </g>
    </g>
    <g id="xtick_24">
     <g id="line2d_53">
      <path d="M 711.529412 833.04 
L 711.529412 486.54 
" clip-path="url(#p5b80fb580c)" style="fill: none; stroke: #ffffff; stroke-linecap: round"/>
     </g>
     <g id="text_24">
      <!-- 100 -->
      <g style="fill: #262626" transform="translate(688.590545 862.223984) scale(0.275 -0.275)">
       <use xlink:href="#ArialMT-31"/>
       <use xlink:href="#ArialMT-30" x="55.615234"/>
       <use xlink:href="#ArialMT-30" x="111.230469"/>
      </g>
     </g>
    </g>
    <g id="text_25">
     <!-- Time [ms] -->
     <g style="fill: #262626" transform="translate(416.500643 893.163047) scale(0.3 -0.3)">
      <defs>
       <path id="ArialMT-69" d="M 425 3934 
L 425 4581 
L 988 4581 
L 988 3934 
L 425 3934 
z
M 425 0 
L 425 3319 
L 988 3319 
L 988 0 
L 425 0 
z
" transform="scale(0.015625)"/>
       <path id="ArialMT-65" d="M 2694 1069 
L 3275 997 
Q 3138 488 2766 206 
Q 2394 -75 1816 -75 
Q 1088 -75 661 373 
Q 234 822 234 1631 
Q 234 2469 665 2931 
Q 1097 3394 1784 3394 
Q 2450 3394 2872 2941 
Q 3294 2488 3294 1666 
Q 3294 1616 3291 1516 
L 816 1516 
Q 847 969 1125 678 
Q 1403 388 1819 388 
Q 2128 388 2347 550 
Q 2566 713 2694 1069 
z
M 847 1978 
L 2700 1978 
Q 2663 2397 2488 2606 
Q 2219 2931 1791 2931 
Q 1403 2931 1139 2672 
Q 875 2413 847 1978 
z
" transform="scale(0.015625)"/>
       <path id="ArialMT-5b" d="M 434 -1272 
L 434 4581 
L 1675 4581 
L 1675 4116 
L 997 4116 
L 997 -806 
L 1675 -806 
L 1675 -1272 
L 434 -1272 
z
" transform="scale(0.015625)"/>
       <path id="ArialMT-5d" d="M 1363 -1272 
L 122 -1272 
L 122 -806 
L 800 -806 
L 800 4116 
L 122 4116 
L 122 4581 
L 1363 4581 
L 1363 -1272 
z
" transform="scale(0.015625)"/>
      </defs>
      <use xlink:href="#ArialMT-54"/>
      <use xlink:href="#ArialMT-69" x="57.333984"/>
      <use xlink:href="#ArialMT-6d" x="79.550781"/>
      <use xlink:href="#ArialMT-65" x="162.851562"/>
      <use xlink:href="#ArialMT-20" x="218.466797"/>
      <use xlink:href="#ArialMT-5b" x="246.25"/>
      <use xlink:href="#ArialMT-6d" x="274.033203"/>
      <use xlink:href="#ArialMT-73" x="357.333984"/>
      <use xlink:href="#ArialMT-5d" x="407.333984"/>
     </g>
    </g>
   </g>
   <g id="matplotlib.axis_8">
    <g id="ytick_17">
     <g id="line2d_54">
      <path d="M 252 799.79 
L 711.529412 799.79 
" clip-path="url(#p5b80fb580c)" style="fill: none; stroke: #ffffff; stroke-linecap: round"/>
     </g>
     <g id="text_26">
      <!-- −40 -->
      <g style="fill: #262626" transform="translate(195.853125 809.631992) scale(0.275 -0.275)">
       <use xlink:href="#ArialMT-2212"/>
       <use xlink:href="#ArialMT-34" x="58.398438"/>
       <use xlink:href="#ArialMT-30" x="114.013672"/>
      </g>
     </g>
    </g>
    <g id="ytick_18">
     <g id="line2d_55">
      <path d="M 252 729.79 
L 711.529412 729.79 
" clip-path="url(#p5b80fb580c)" style="fill: none; stroke: #ffffff; stroke-linecap: round"/>
     </g>
     <g id="text_27">
      <!-- −20 -->
      <g style="fill: #262626" transform="translate(195.853125 739.631992) scale(0.275 -0.275)">
       <use xlink:href="#ArialMT-2212"/>
       <use xlink:href="#ArialMT-32" x="58.398438"/>
       <use xlink:href="#ArialMT-30" x="114.013672"/>
      </g>
     </g>
    </g>
    <g id="ytick_19">
     <g id="line2d_56">
      <path d="M 252 659.79 
L 711.529412 659.79 
" clip-path="url(#p5b80fb580c)" style="fill: none; stroke: #ffffff; stroke-linecap: round"/>
     </g>
     <g id="text_28">
      <!-- 0 -->
      <g style="fill: #262626" transform="translate(227.207422 669.631992) scale(0.275 -0.275)">
       <use xlink:href="#ArialMT-30"/>
      </g>
     </g>
    </g>
    <g id="ytick_20">
     <g id="line2d_57">
      <path d="M 252 589.79 
L 711.529412 589.79 
" clip-path="url(#p5b80fb580c)" style="fill: none; stroke: #ffffff; stroke-linecap: round"/>
     </g>
     <g id="text_29">
      <!-- 20 -->
      <g style="fill: #262626" transform="translate(211.914844 599.631992) scale(0.275 -0.275)">
       <use xlink:href="#ArialMT-32"/>
       <use xlink:href="#ArialMT-30" x="55.615234"/>
      </g>
     </g>
    </g>
    <g id="ytick_21">
     <g id="line2d_58">
      <path d="M 252 519.79 
L 711.529412 519.79 
" clip-path="url(#p5b80fb580c)" style="fill: none; stroke: #ffffff; stroke-linecap: round"/>
     </g>
     <g id="text_30">
      <!-- 40 -->
      <g style="fill: #262626" transform="translate(211.914844 529.631992) scale(0.275 -0.275)">
       <use xlink:href="#ArialMT-34"/>
       <use xlink:href="#ArialMT-30" x="55.615234"/>
      </g>
     </g>
    </g>
   </g>
   <g id="patch_30">
    <path d="M 252 833.04 
L 261.282494 833.04 
L 261.282494 486.54 
L 252 486.54 
z
" clip-path="url(#p5b80fb580c)" style="fill: #ff0000; opacity: 0.1; stroke: #ffffff; stroke-linejoin: miter"/>
   </g>
   <g id="patch_31">
    <path d="M 261.282494 833.04 
L 564.112376 833.04 
L 564.112376 486.54 
L 261.282494 486.54 
z
" clip-path="url(#p5b80fb580c)" style="fill: #0000ff; opacity: 0.1; stroke: #ffffff; stroke-linejoin: miter"/>
   </g>
   <g id="patch_32">
    <path d="M 564.112376 833.04 
L 614.752518 833.04 
L 614.752518 486.54 
L 564.112376 486.54 
z
" clip-path="url(#p5b80fb580c)" style="fill: #008000; opacity: 0.1; stroke: #ffffff; stroke-linejoin: miter"/>
   </g>
   <g id="PolyCollection_2">
    <defs>
     <path id="m535f868f8f" d="M 564.112376 -241.21 
L 564.112376 -311.21 
L 614.752518 -311.21 
L 614.752518 -241.21 
L 614.752518 -241.21 
L 564.112376 -241.21 
z
" style="stroke: #808080"/>
    </defs>
    <g clip-path="url(#p5b80fb580c)">
     <use xlink:href="#m535f868f8f" x="0" y="936" style="fill: #808080; stroke: #808080"/>
    </g>
   </g>
   <g id="line2d_59">
    <path d="M 252 659.79 
L 711.529412 659.79 
" clip-path="url(#p5b80fb580c)" style="fill: none; stroke: #000000; stroke-linecap: round"/>
   </g>
   <g id="line2d_60">
    <path d="M 252 502.29 
L 711.529412 502.29 
" clip-path="url(#p5b80fb580c)" style="fill: none; stroke-dasharray: 3.7,1.6; stroke-dashoffset: 0; stroke: #000000"/>
   </g>
   <g id="line2d_61">
    <path d="M 252 817.29 
L 711.529412 817.29 
" clip-path="url(#p5b80fb580c)" style="fill: none; stroke-dasharray: 3.7,1.6; stroke-dashoffset: 0; stroke: #000000"/>
   </g>
   <g id="line2d_62">
    <path d="M 252 659.79 
L 261.558212 659.79 
L 261.925835 715.354339 
L 263.028706 768.804173 
L 264.131576 814.723321 
L 264.4992 815.715 
L 302.732047 815.661745 
L 303.467294 746.2546 
L 304.570165 695.155175 
L 306.408282 621.185112 
L 309.349271 511.830574 
L 309.716894 503.86563 
L 395.7408 503.865 
L 401.255153 503.865 
L 401.9904 567.575702 
L 402.725647 605.774582 
L 404.563765 681.626651 
L 407.504753 791.781037 
L 408.24 815.715 
L 423.680188 815.710382 
L 424.047812 770.203471 
L 424.415435 742.643893 
L 425.518306 690.860209 
L 426.253553 659.79 
L 440.958494 659.79 
L 441.326118 604.834825 
L 442.428988 551.891021 
L 443.531859 506.288934 
L 443.899482 503.865 
L 516.688941 503.883544 
L 517.056565 522.508645 
L 517.424188 565.777211 
L 518.527059 618.047859 
L 520.365176 692.405698 
L 523.306165 801.848726 
L 523.673788 815.126848 
L 524.041412 815.715 
L 561.539012 815.715 
L 561.906635 761.02228 
L 562.641882 722.961269 
L 564.112376 659.79 
L 564.112376 659.79 
" clip-path="url(#p5b80fb580c)" style="fill: none; stroke: #377eb8; stroke-width: 7; stroke-linecap: round"/>
   </g>
   <g id="patch_33">
    <path d="M 252 833.04 
L 252 486.54 
" style="fill: none; stroke: #ffffff; stroke-width: 1.25; stroke-linejoin: miter; stroke-linecap: square"/>
   </g>
   <g id="patch_34">
    <path d="M 711.529412 833.04 
L 711.529412 486.54 
" style="fill: none; stroke: #ffffff; stroke-width: 1.25; stroke-linejoin: miter; stroke-linecap: square"/>
   </g>
   <g id="patch_35">
    <path d="M 252 833.04 
L 711.529412 833.04 
" style="fill: none; stroke: #ffffff; stroke-width: 1.25; stroke-linejoin: miter; stroke-linecap: square"/>
   </g>
   <g id="patch_36">
    <path d="M 252 486.54 
L 711.529412 486.54 
" style="fill: none; stroke: #ffffff; stroke-width: 1.25; stroke-linejoin: miter; stroke-linecap: square"/>
   </g>
   <g id="legend_4">
    <g id="patch_37">
     <path d="M 439.971209 819.29 
L 692.279412 819.29 
Q 697.779412 819.29 697.779412 813.79 
L 697.779412 777.640391 
Q 697.779412 772.140391 692.279412 772.140391 
L 439.971209 772.140391 
Q 434.471209 772.140391 434.471209 777.640391 
L 434.471209 813.79 
Q 434.471209 819.29 439.971209 819.29 
z
" style="fill: #eaeaf2; opacity: 0.8; stroke: #cccccc; stroke-linejoin: miter"/>
    </g>
    <g id="line2d_63">
     <path d="M 445.471209 793.199375 
L 472.971209 793.199375 
L 500.471209 793.199375 
" style="fill: none; stroke: #377eb8; stroke-width: 7; stroke-linecap: round"/>
    </g>
    <g id="text_31">
     <!-- TE= 78.99ms -->
     <g style="fill: #262626" transform="translate(522.471209 802.824375) scale(0.275 -0.275)">
      <use xlink:href="#ArialMT-54"/>
      <use xlink:href="#ArialMT-45" x="61.083984"/>
      <use xlink:href="#ArialMT-3d" x="127.783203"/>
      <use xlink:href="#ArialMT-20" x="186.181641"/>
      <use xlink:href="#ArialMT-37" x="213.964844"/>
      <use xlink:href="#ArialMT-38" x="269.580078"/>
      <use xlink:href="#ArialMT-2e" x="325.195312"/>
      <use xlink:href="#ArialMT-39" x="352.978516"/>
      <use xlink:href="#ArialMT-39" x="408.59375"/>
      <use xlink:href="#ArialMT-6d" x="464.208984"/>
      <use xlink:href="#ArialMT-73" x="547.509766"/>
     </g>
    </g>
   </g>
  </g>
  <g id="axes_5">
   <g id="patch_38">
    <path d="M 803.435294 833.04 
L 1262.964706 833.04 
L 1262.964706 486.54 
L 803.435294 486.54 
z
" style="fill: #eaeaf2"/>
   </g>
   <g id="matplotlib.axis_9">
    <g id="xtick_25">
     <g id="line2d_64">
      <path d="M 803.435294 833.04 
L 803.435294 486.54 
" clip-path="url(#p3f8e6db43a)" style="fill: none; stroke: #ffffff; stroke-linecap: round"/>
     </g>
     <g id="text_32">
      <!-- 0 -->
      <g style="fill: #262626" transform="translate(795.789005 862.223984) scale(0.275 -0.275)">
       <use xlink:href="#ArialMT-30"/>
      </g>
     </g>
    </g>
    <g id="xtick_26">
     <g id="line2d_65">
      <path d="M 895.341176 833.04 
L 895.341176 486.54 
" clip-path="url(#p3f8e6db43a)" style="fill: none; stroke: #ffffff; stroke-linecap: round"/>
     </g>
     <g id="text_33">
      <!-- 20 -->
      <g style="fill: #262626" transform="translate(880.048598 862.223984) scale(0.275 -0.275)">
       <use xlink:href="#ArialMT-32"/>
       <use xlink:href="#ArialMT-30" x="55.615234"/>
      </g>
     </g>
    </g>
    <g id="xtick_27">
     <g id="line2d_66">
      <path d="M 987.247059 833.04 
L 987.247059 486.54 
" clip-path="url(#p3f8e6db43a)" style="fill: none; stroke: #ffffff; stroke-linecap: round"/>
     </g>
     <g id="text_34">
      <!-- 40 -->
      <g style="fill: #262626" transform="translate(971.954481 862.223984) scale(0.275 -0.275)">
       <use xlink:href="#ArialMT-34"/>
       <use xlink:href="#ArialMT-30" x="55.615234"/>
      </g>
     </g>
    </g>
    <g id="xtick_28">
     <g id="line2d_67">
      <path d="M 1079.152941 833.04 
L 1079.152941 486.54 
" clip-path="url(#p3f8e6db43a)" style="fill: none; stroke: #ffffff; stroke-linecap: round"/>
     </g>
     <g id="text_35">
      <!-- 60 -->
      <g style="fill: #262626" transform="translate(1063.860363 862.223984) scale(0.275 -0.275)">
       <use xlink:href="#ArialMT-36"/>
       <use xlink:href="#ArialMT-30" x="55.615234"/>
      </g>
     </g>
    </g>
    <g id="xtick_29">
     <g id="line2d_68">
      <path d="M 1171.058824 833.04 
L 1171.058824 486.54 
" clip-path="url(#p3f8e6db43a)" style="fill: none; stroke: #ffffff; stroke-linecap: round"/>
     </g>
     <g id="text_36">
      <!-- 80 -->
      <g style="fill: #262626" transform="translate(1155.766245 862.223984) scale(0.275 -0.275)">
       <use xlink:href="#ArialMT-38"/>
       <use xlink:href="#ArialMT-30" x="55.615234"/>
      </g>
     </g>
    </g>
    <g id="xtick_30">
     <g id="line2d_69">
      <path d="M 1262.964706 833.04 
L 1262.964706 486.54 
" clip-path="url(#p3f8e6db43a)" style="fill: none; stroke: #ffffff; stroke-linecap: round"/>
     </g>
     <g id="text_37">
      <!-- 100 -->
      <g style="fill: #262626" transform="translate(1240.025839 862.223984) scale(0.275 -0.275)">
       <use xlink:href="#ArialMT-31"/>
       <use xlink:href="#ArialMT-30" x="55.615234"/>
       <use xlink:href="#ArialMT-30" x="111.230469"/>
      </g>
     </g>
    </g>
    <g id="text_38">
     <!-- Time [ms] -->
     <g style="fill: #262626" transform="translate(967.935938 893.163047) scale(0.3 -0.3)">
      <use xlink:href="#ArialMT-54"/>
      <use xlink:href="#ArialMT-69" x="57.333984"/>
      <use xlink:href="#ArialMT-6d" x="79.550781"/>
      <use xlink:href="#ArialMT-65" x="162.851562"/>
      <use xlink:href="#ArialMT-20" x="218.466797"/>
      <use xlink:href="#ArialMT-5b" x="246.25"/>
      <use xlink:href="#ArialMT-6d" x="274.033203"/>
      <use xlink:href="#ArialMT-73" x="357.333984"/>
      <use xlink:href="#ArialMT-5d" x="407.333984"/>
     </g>
    </g>
   </g>
   <g id="matplotlib.axis_10">
    <g id="ytick_22">
     <g id="line2d_70">
      <path d="M 803.435294 817.29 
L 1262.964706 817.29 
" clip-path="url(#p3f8e6db43a)" style="fill: none; stroke: #ffffff; stroke-linecap: round"/>
     </g>
     <g id="text_39">
      <!-- −200 -->
      <g style="fill: #262626" transform="translate(731.995841 827.131992) scale(0.275 -0.275)">
       <use xlink:href="#ArialMT-2212"/>
       <use xlink:href="#ArialMT-32" x="58.398438"/>
       <use xlink:href="#ArialMT-30" x="114.013672"/>
       <use xlink:href="#ArialMT-30" x="169.628906"/>
      </g>
     </g>
    </g>
    <g id="ytick_23">
     <g id="line2d_71">
      <path d="M 803.435294 738.54 
L 1262.964706 738.54 
" clip-path="url(#p3f8e6db43a)" style="fill: none; stroke: #ffffff; stroke-linecap: round"/>
     </g>
     <g id="text_40">
      <!-- −100 -->
      <g style="fill: #262626" transform="translate(731.995841 748.381992) scale(0.275 -0.275)">
       <use xlink:href="#ArialMT-2212"/>
       <use xlink:href="#ArialMT-31" x="58.398438"/>
       <use xlink:href="#ArialMT-30" x="114.013672"/>
       <use xlink:href="#ArialMT-30" x="169.628906"/>
      </g>
     </g>
    </g>
    <g id="ytick_24">
     <g id="line2d_72">
      <path d="M 803.435294 659.79 
L 1262.964706 659.79 
" clip-path="url(#p3f8e6db43a)" style="fill: none; stroke: #ffffff; stroke-linecap: round"/>
     </g>
     <g id="text_41">
      <!-- 0 -->
      <g style="fill: #262626" transform="translate(778.642716 669.631992) scale(0.275 -0.275)">
       <use xlink:href="#ArialMT-30"/>
      </g>
     </g>
    </g>
    <g id="ytick_25">
     <g id="line2d_73">
      <path d="M 803.435294 581.04 
L 1262.964706 581.04 
" clip-path="url(#p3f8e6db43a)" style="fill: none; stroke: #ffffff; stroke-linecap: round"/>
     </g>
     <g id="text_42">
      <!-- 100 -->
      <g style="fill: #262626" transform="translate(748.05756 590.881992) scale(0.275 -0.275)">
       <use xlink:href="#ArialMT-31"/>
       <use xlink:href="#ArialMT-30" x="55.615234"/>
       <use xlink:href="#ArialMT-30" x="111.230469"/>
      </g>
     </g>
    </g>
    <g id="ytick_26">
     <g id="line2d_74">
      <path d="M 803.435294 502.29 
L 1262.964706 502.29 
" clip-path="url(#p3f8e6db43a)" style="fill: none; stroke: #ffffff; stroke-linecap: round"/>
     </g>
     <g id="text_43">
      <!-- 200 -->
      <g style="fill: #262626" transform="translate(748.05756 512.131992) scale(0.275 -0.275)">
       <use xlink:href="#ArialMT-32"/>
       <use xlink:href="#ArialMT-30" x="55.615234"/>
       <use xlink:href="#ArialMT-30" x="111.230469"/>
      </g>
     </g>
    </g>
   </g>
   <g id="patch_39">
    <path d="M 803.435294 833.04 
L 812.717788 833.04 
L 812.717788 486.54 
L 803.435294 486.54 
z
" clip-path="url(#p3f8e6db43a)" style="fill: #ff0000; opacity: 0.1; stroke: #ffffff; stroke-linejoin: miter"/>
   </g>
   <g id="patch_40">
    <path d="M 812.717788 833.04 
L 1115.547671 833.04 
L 1115.547671 486.54 
L 812.717788 486.54 
z
" clip-path="url(#p3f8e6db43a)" style="fill: #0000ff; opacity: 0.1; stroke: #ffffff; stroke-linejoin: miter"/>
   </g>
   <g id="patch_41">
    <path d="M 1115.547671 833.04 
L 1166.187812 833.04 
L 1166.187812 486.54 
L 1115.547671 486.54 
z
" clip-path="url(#p3f8e6db43a)" style="fill: #008000; opacity: 0.1; stroke: #ffffff; stroke-linejoin: miter"/>
   </g>
   <g id="line2d_75">
    <path d="M 803.435294 659.79 
L 1262.964706 659.79 
" clip-path="url(#p3f8e6db43a)" style="fill: none; stroke: #000000; stroke-linecap: round"/>
   </g>
   <g id="line2d_76">
    <path d="M 803.435294 502.29 
L 1262.964706 502.29 
" clip-path="url(#p3f8e6db43a)" style="fill: none; stroke-dasharray: 3.7,1.6; stroke-dashoffset: 0; stroke: #000000"/>
   </g>
   <g id="line2d_77">
    <path d="M 803.435294 817.29 
L 1262.964706 817.29 
" clip-path="url(#p3f8e6db43a)" style="fill: none; stroke-dasharray: 3.7,1.6; stroke-dashoffset: 0; stroke: #000000"/>
   </g>
   <g id="line2d_78">
    <path d="M 803.435294 659.79 
L 812.625882 659.79 
L 812.993506 816.064704 
L 813.361129 714.437836 
L 813.728753 709.146516 
L 814.096376 706.113307 
L 814.831624 702.73202 
L 815.199247 701.659305 
L 815.566871 662.579098 
L 815.934494 659.79 
L 853.799718 659.745491 
L 854.167341 548.235522 
L 854.902588 608.468421 
L 855.270212 612.443982 
L 855.637835 614.740464 
L 856.373082 617.47356 
L 857.108329 619.091515 
L 857.843576 620.165253 
L 858.578824 620.952323 
L 859.681694 621.802821 
L 860.049318 622.023243 
L 860.416941 622.382373 
L 860.784565 637.388597 
L 861.152188 659.788659 
L 906.369882 659.79 
L 952.322824 659.79 
L 952.690447 764.90321 
L 953.058071 733.863141 
L 953.793318 708.076662 
L 954.160941 705.064533 
L 954.896188 702.157914 
L 955.631435 700.476211 
L 956.366682 699.368846 
L 957.469553 698.245693 
L 958.572424 697.481363 
L 958.940047 697.278519 
L 959.307671 689.615752 
L 959.675294 659.79 
L 974.747859 659.777011 
L 975.115482 531.801814 
L 975.483106 582.278687 
L 975.850729 608.081474 
L 976.218353 611.663134 
L 976.585976 613.983779 
L 977.321224 616.649532 
L 977.688847 659.79 
L 992.026165 659.79 
L 992.393788 505.228569 
L 992.761412 605.729827 
L 993.129035 610.898502 
L 993.496659 613.837224 
L 994.231906 617.155507 
L 994.599529 618.177222 
L 994.967153 652.972686 
L 995.334776 659.79 
L 1067.756612 659.809961 
L 1068.124235 712.173097 
L 1068.491859 781.482842 
L 1068.859482 712.764614 
L 1069.227106 708.163175 
L 1069.594729 705.453409 
L 1070.329976 702.375607 
L 1071.065224 700.6303 
L 1071.800471 699.478549 
L 1072.535718 698.651841 
L 1073.638588 697.765453 
L 1074.741459 697.134716 
L 1075.109082 661.444179 
L 1075.476706 659.79 
L 1112.606682 659.79 
L 1112.974306 505.966725 
L 1113.341929 602.551197 
L 1113.709553 609.982211 
L 1114.077176 613.066888 
L 1114.812424 616.44952 
L 1115.180047 616.918181 
L 1115.180047 616.918181 
" clip-path="url(#p3f8e6db43a)" style="fill: none; stroke: #377eb8; stroke-width: 7; stroke-linecap: round"/>
   </g>
   <g id="patch_42">
    <path d="M 803.435294 833.04 
L 803.435294 486.54 
" style="fill: none; stroke: #ffffff; stroke-width: 1.25; stroke-linejoin: miter; stroke-linecap: square"/>
   </g>
   <g id="patch_43">
    <path d="M 1262.964706 833.04 
L 1262.964706 486.54 
" style="fill: none; stroke: #ffffff; stroke-width: 1.25; stroke-linejoin: miter; stroke-linecap: square"/>
   </g>
   <g id="patch_44">
    <path d="M 803.435294 833.04 
L 1262.964706 833.04 
" style="fill: none; stroke: #ffffff; stroke-width: 1.25; stroke-linejoin: miter; stroke-linecap: square"/>
   </g>
   <g id="patch_45">
    <path d="M 803.435294 486.54 
L 1262.964706 486.54 
" style="fill: none; stroke: #ffffff; stroke-width: 1.25; stroke-linejoin: miter; stroke-linecap: square"/>
   </g>
   <g id="legend_5">
    <g id="patch_46">
     <path d="M 1232.714706 819.29 
L 1243.714706 819.29 
Q 1249.214706 819.29 1249.214706 813.79 
L 1249.214706 802.79 
Q 1249.214706 797.29 1243.714706 797.29 
L 1232.714706 797.29 
Q 1227.214706 797.29 1227.214706 802.79 
L 1227.214706 813.79 
Q 1227.214706 819.29 1232.714706 819.29 
z
" style="fill: #eaeaf2; opacity: 0.8; stroke: #cccccc; stroke-linejoin: miter"/>
    </g>
   </g>
  </g>
  <g id="axes_6">
   <g id="patch_47">
    <path d="M 1354.870588 833.04 
L 1814.4 833.04 
L 1814.4 486.54 
L 1354.870588 486.54 
z
" style="fill: #eaeaf2"/>
   </g>
   <g id="matplotlib.axis_11">
    <g id="xtick_31">
     <g id="line2d_79">
      <path d="M 1354.870588 833.04 
L 1354.870588 486.54 
" clip-path="url(#pb2e91d5adf)" style="fill: none; stroke: #ffffff; stroke-linecap: round"/>
     </g>
     <g id="text_44">
      <!-- 0 -->
      <g style="fill: #262626" transform="translate(1347.224299 862.223984) scale(0.275 -0.275)">
       <use xlink:href="#ArialMT-30"/>
      </g>
     </g>
    </g>
    <g id="xtick_32">
     <g id="line2d_80">
      <path d="M 1446.776471 833.04 
L 1446.776471 486.54 
" clip-path="url(#pb2e91d5adf)" style="fill: none; stroke: #ffffff; stroke-linecap: round"/>
     </g>
     <g id="text_45">
      <!-- 20 -->
      <g style="fill: #262626" transform="translate(1431.483892 862.223984) scale(0.275 -0.275)">
       <use xlink:href="#ArialMT-32"/>
       <use xlink:href="#ArialMT-30" x="55.615234"/>
      </g>
     </g>
    </g>
    <g id="xtick_33">
     <g id="line2d_81">
      <path d="M 1538.682353 833.04 
L 1538.682353 486.54 
" clip-path="url(#pb2e91d5adf)" style="fill: none; stroke: #ffffff; stroke-linecap: round"/>
     </g>
     <g id="text_46">
      <!-- 40 -->
      <g style="fill: #262626" transform="translate(1523.389775 862.223984) scale(0.275 -0.275)">
       <use xlink:href="#ArialMT-34"/>
       <use xlink:href="#ArialMT-30" x="55.615234"/>
      </g>
     </g>
    </g>
    <g id="xtick_34">
     <g id="line2d_82">
      <path d="M 1630.588235 833.04 
L 1630.588235 486.54 
" clip-path="url(#pb2e91d5adf)" style="fill: none; stroke: #ffffff; stroke-linecap: round"/>
     </g>
     <g id="text_47">
      <!-- 60 -->
      <g style="fill: #262626" transform="translate(1615.295657 862.223984) scale(0.275 -0.275)">
       <use xlink:href="#ArialMT-36"/>
       <use xlink:href="#ArialMT-30" x="55.615234"/>
      </g>
     </g>
    </g>
    <g id="xtick_35">
     <g id="line2d_83">
      <path d="M 1722.494118 833.04 
L 1722.494118 486.54 
" clip-path="url(#pb2e91d5adf)" style="fill: none; stroke: #ffffff; stroke-linecap: round"/>
     </g>
     <g id="text_48">
      <!-- 80 -->
      <g style="fill: #262626" transform="translate(1707.20154 862.223984) scale(0.275 -0.275)">
       <use xlink:href="#ArialMT-38"/>
       <use xlink:href="#ArialMT-30" x="55.615234"/>
      </g>
     </g>
    </g>
    <g id="xtick_36">
     <g id="line2d_84">
      <path d="M 1814.4 833.04 
L 1814.4 486.54 
" clip-path="url(#pb2e91d5adf)" style="fill: none; stroke: #ffffff; stroke-linecap: round"/>
     </g>
     <g id="text_49">
      <!-- 100 -->
      <g style="fill: #262626" transform="translate(1791.461133 862.223984) scale(0.275 -0.275)">
       <use xlink:href="#ArialMT-31"/>
       <use xlink:href="#ArialMT-30" x="55.615234"/>
       <use xlink:href="#ArialMT-30" x="111.230469"/>
      </g>
     </g>
    </g>
    <g id="text_50">
     <!-- Time [ms] -->
     <g style="fill: #262626" transform="translate(1519.371232 893.163047) scale(0.3 -0.3)">
      <use xlink:href="#ArialMT-54"/>
      <use xlink:href="#ArialMT-69" x="57.333984"/>
      <use xlink:href="#ArialMT-6d" x="79.550781"/>
      <use xlink:href="#ArialMT-65" x="162.851562"/>
      <use xlink:href="#ArialMT-20" x="218.466797"/>
      <use xlink:href="#ArialMT-5b" x="246.25"/>
      <use xlink:href="#ArialMT-6d" x="274.033203"/>
      <use xlink:href="#ArialMT-73" x="357.333984"/>
      <use xlink:href="#ArialMT-5d" x="407.333984"/>
     </g>
    </g>
   </g>
   <g id="matplotlib.axis_12">
    <g id="ytick_27">
     <g id="line2d_85">
      <path d="M 1354.870588 833.04 
L 1814.4 833.04 
" clip-path="url(#pb2e91d5adf)" style="fill: none; stroke: #ffffff; stroke-linecap: round"/>
     </g>
     <g id="text_51">
      <!-- 0.0 -->
      <g style="fill: #262626" transform="translate(1307.145588 842.881992) scale(0.275 -0.275)">
       <use xlink:href="#ArialMT-30"/>
       <use xlink:href="#ArialMT-2e" x="55.615234"/>
       <use xlink:href="#ArialMT-30" x="83.398438"/>
      </g>
     </g>
    </g>
    <g id="ytick_28">
     <g id="line2d_86">
      <path d="M 1354.870588 770.04 
L 1814.4 770.04 
" clip-path="url(#pb2e91d5adf)" style="fill: none; stroke: #ffffff; stroke-linecap: round"/>
     </g>
     <g id="text_52">
      <!-- 0.2 -->
      <g style="fill: #262626" transform="translate(1307.145588 779.881992) scale(0.275 -0.275)">
       <use xlink:href="#ArialMT-30"/>
       <use xlink:href="#ArialMT-2e" x="55.615234"/>
       <use xlink:href="#ArialMT-32" x="83.398438"/>
      </g>
     </g>
    </g>
    <g id="ytick_29">
     <g id="line2d_87">
      <path d="M 1354.870588 707.04 
L 1814.4 707.04 
" clip-path="url(#pb2e91d5adf)" style="fill: none; stroke: #ffffff; stroke-linecap: round"/>
     </g>
     <g id="text_53">
      <!-- 0.4 -->
      <g style="fill: #262626" transform="translate(1307.145588 716.881992) scale(0.275 -0.275)">
       <use xlink:href="#ArialMT-30"/>
       <use xlink:href="#ArialMT-2e" x="55.615234"/>
       <use xlink:href="#ArialMT-34" x="83.398438"/>
      </g>
     </g>
    </g>
    <g id="ytick_30">
     <g id="line2d_88">
      <path d="M 1354.870588 644.04 
L 1814.4 644.04 
" clip-path="url(#pb2e91d5adf)" style="fill: none; stroke: #ffffff; stroke-linecap: round"/>
     </g>
     <g id="text_54">
      <!-- 0.6 -->
      <g style="fill: #262626" transform="translate(1307.145588 653.881992) scale(0.275 -0.275)">
       <use xlink:href="#ArialMT-30"/>
       <use xlink:href="#ArialMT-2e" x="55.615234"/>
       <use xlink:href="#ArialMT-36" x="83.398438"/>
      </g>
     </g>
    </g>
    <g id="ytick_31">
     <g id="line2d_89">
      <path d="M 1354.870588 581.04 
L 1814.4 581.04 
" clip-path="url(#pb2e91d5adf)" style="fill: none; stroke: #ffffff; stroke-linecap: round"/>
     </g>
     <g id="text_55">
      <!-- 0.8 -->
      <g style="fill: #262626" transform="translate(1307.145588 590.881992) scale(0.275 -0.275)">
       <use xlink:href="#ArialMT-30"/>
       <use xlink:href="#ArialMT-2e" x="55.615234"/>
       <use xlink:href="#ArialMT-38" x="83.398438"/>
      </g>
     </g>
    </g>
    <g id="ytick_32">
     <g id="line2d_90">
      <path d="M 1354.870588 518.04 
L 1814.4 518.04 
" clip-path="url(#pb2e91d5adf)" style="fill: none; stroke: #ffffff; stroke-linecap: round"/>
     </g>
     <g id="text_56">
      <!-- 1.0 -->
      <g style="fill: #262626" transform="translate(1307.145588 527.881992) scale(0.275 -0.275)">
       <use xlink:href="#ArialMT-31"/>
       <use xlink:href="#ArialMT-2e" x="55.615234"/>
       <use xlink:href="#ArialMT-30" x="83.398438"/>
      </g>
     </g>
    </g>
   </g>
   <g id="patch_48">
    <path d="M 1354.870588 833.04 
L 1364.153082 833.04 
L 1364.153082 486.54 
L 1354.870588 486.54 
z
" clip-path="url(#pb2e91d5adf)" style="fill: #ff0000; opacity: 0.1; stroke: #ffffff; stroke-linejoin: miter"/>
   </g>
   <g id="patch_49">
    <path d="M 1364.153082 833.04 
L 1666.982965 833.04 
L 1666.982965 486.54 
L 1364.153082 486.54 
z
" clip-path="url(#pb2e91d5adf)" style="fill: #0000ff; opacity: 0.1; stroke: #ffffff; stroke-linejoin: miter"/>
   </g>
   <g id="patch_50">
    <path d="M 1666.982965 833.04 
L 1717.623106 833.04 
L 1717.623106 486.54 
L 1666.982965 486.54 
z
" clip-path="url(#pb2e91d5adf)" style="fill: #008000; opacity: 0.1; stroke: #ffffff; stroke-linejoin: miter"/>
   </g>
   <g id="line2d_91">
    <path d="M 1354.870588 833.04 
L 1814.4 833.04 
" clip-path="url(#pb2e91d5adf)" style="fill: none; stroke: #000000; stroke-linecap: round"/>
   </g>
   <g id="line2d_92">
    <path d="M 1354.870588 518.04 
L 1814.4 518.04 
" clip-path="url(#pb2e91d5adf)" style="fill: none; stroke-dasharray: 3.7,1.6; stroke-dashoffset: 0; stroke: #000000"/>
   </g>
   <g id="line2d_93">
    <path d="M 1354.870588 833.04 
L 1364.061176 833.04 
L 1364.4288 583.499555 
L 1364.796424 583.360346 
L 1366.266918 583.46247 
L 1366.634541 583.507102 
L 1367.369788 687.788035 
L 1368.105035 737.974407 
L 1368.840282 765.470582 
L 1369.575529 782.355682 
L 1370.310776 793.533251 
L 1371.046024 801.341478 
L 1371.781271 807.022667 
L 1372.516518 811.290799 
L 1373.251765 814.581602 
L 1374.354635 818.26876 
L 1375.457506 820.947481 
L 1376.560376 822.955911 
L 1377.663247 824.501053 
L 1378.766118 825.715544 
L 1380.236612 826.96885 
L 1381.707106 827.925409 
L 1383.545224 828.833231 
L 1385.750965 829.635748 
L 1388.324329 830.312103 
L 1391.632941 830.921451 
L 1395.6768 831.424266 
L 1401.191153 831.865149 
L 1404.867388 832.178355 
L 1405.235012 832.231581 
L 1405.602635 655.746304 
L 1405.970259 584.370632 
L 1406.337882 583.568745 
L 1411.484612 583.563721 
L 1411.852235 583.804352 
L 1412.219859 607.627935 
L 1412.587482 658.64144 
L 1413.322729 716.320042 
L 1414.057976 747.775664 
L 1414.793224 767.352968 
L 1415.528471 780.57271 
L 1416.263718 790.011152 
L 1416.998965 797.029937 
L 1417.734212 802.414668 
L 1418.469459 806.649173 
L 1419.572329 811.500847 
L 1420.6752 815.113715 
L 1421.778071 817.882529 
L 1422.880941 820.0544 
L 1423.983812 821.791137 
L 1425.454306 823.61488 
L 1426.9248 825.031388 
L 1428.395294 826.153937 
L 1430.233412 827.257525 
L 1432.439153 828.2687 
L 1435.012518 829.150733 
L 1437.953506 829.894117 
L 1441.629741 830.563035 
L 1446.041224 831.122999 
L 1451.9232 831.621544 
L 1459.643294 832.032456 
L 1470.672 832.373039 
L 1487.215059 832.636998 
L 1503.758118 832.772715 
L 1504.125741 665.459627 
L 1504.493365 605.77736 
L 1504.860988 585.141404 
L 1505.228612 583.821841 
L 1510.375341 583.789412 
L 1510.742965 595.726217 
L 1511.110588 650.851599 
L 1511.845835 712.1853 
L 1512.581082 745.167071 
L 1513.316329 765.521493 
L 1514.051576 779.189613 
L 1514.786824 788.91032 
L 1515.522071 796.118737 
L 1516.257318 801.637516 
L 1516.992565 805.970765 
L 1518.095435 810.928931 
L 1519.198306 814.617154 
L 1520.301176 817.442052 
L 1521.404047 819.65741 
L 1522.506918 821.429014 
L 1523.977412 823.290004 
L 1525.447906 824.73642 
L 1526.183153 825.362668 
L 1526.550776 636.073937 
L 1526.9184 583.397011 
L 1528.388894 583.324306 
L 1528.756518 583.165069 
L 1529.124141 650.468171 
L 1529.491765 693.075796 
L 1530.227012 742.838371 
L 1530.962259 770.104579 
L 1531.697506 786.786177 
L 1532.432753 797.764727 
L 1533.168 805.378103 
L 1533.903247 810.870857 
L 1534.638494 814.958672 
L 1535.373741 818.078176 
L 1536.108988 820.508556 
L 1537.211859 823.25119 
L 1538.314729 825.249103 
L 1539.4176 826.743187 
L 1540.520471 827.884932 
L 1541.990965 829.025544 
L 1543.461459 829.863802 
L 1543.829082 583.233319 
L 1546.034824 583.351187 
L 1546.770071 682.83018 
L 1547.505318 734.820225 
L 1548.240565 763.106408 
L 1548.975812 780.433944 
L 1549.711059 791.901481 
L 1550.446306 799.920402 
L 1551.181553 805.765477 
L 1551.9168 810.167011 
L 1552.652047 813.569803 
L 1553.754918 817.396206 
L 1554.857788 820.189026 
L 1555.960659 822.292913 
L 1557.063529 823.919052 
L 1558.1664 825.202976 
L 1559.636894 826.534446 
L 1561.107388 827.555985 
L 1562.945506 828.530491 
L 1565.151247 829.396569 
L 1567.724612 830.130105 
L 1570.6656 830.731491 
L 1574.341835 831.258391 
L 1579.120941 831.716785 
L 1585.738165 832.113312 
L 1595.296376 832.438233 
L 1610.001318 832.687181 
L 1619.191906 832.832465 
L 1619.559529 749.618097 
L 1619.927153 584.510055 
L 1620.294776 583.973086 
L 1620.6624 583.828617 
L 1623.971012 583.773467 
L 1626.176753 583.769044 
L 1626.544376 640.484302 
L 1626.912 679.787796 
L 1627.647247 726.968611 
L 1628.382494 754.005847 
L 1629.117741 771.32855 
L 1629.852988 783.25297 
L 1630.588235 791.885056 
L 1631.323482 798.372041 
L 1632.058729 803.390501 
L 1633.1616 809.049931 
L 1634.264471 813.200705 
L 1635.367341 816.34439 
L 1636.470212 818.787269 
L 1637.573082 820.725965 
L 1638.675953 822.291881 
L 1640.146447 823.952803 
L 1641.616941 825.255913 
L 1643.087435 826.297744 
L 1644.925553 827.330916 
L 1647.131294 828.286528 
L 1649.704659 829.128336 
L 1652.645647 829.844995 
L 1656.321882 830.49678 
L 1660.733365 831.048772 
L 1664.041976 831.354334 
L 1664.4096 589.070053 
L 1664.777224 583.39804 
L 1666.247718 583.127517 
L 1666.615341 582.093637 
L 1666.615341 582.093637 
" clip-path="url(#pb2e91d5adf)" style="fill: none; stroke: #377eb8; stroke-width: 7; stroke-linecap: round"/>
   </g>
   <g id="patch_51">
    <path d="M 1354.870588 833.04 
L 1354.870588 486.54 
" style="fill: none; stroke: #ffffff; stroke-width: 1.25; stroke-linejoin: miter; stroke-linecap: square"/>
   </g>
   <g id="patch_52">
    <path d="M 1814.4 833.04 
L 1814.4 486.54 
" style="fill: none; stroke: #ffffff; stroke-width: 1.25; stroke-linejoin: miter; stroke-linecap: square"/>
   </g>
   <g id="patch_53">
    <path d="M 1354.870588 833.04 
L 1814.4 833.04 
" style="fill: none; stroke: #ffffff; stroke-width: 1.25; stroke-linejoin: miter; stroke-linecap: square"/>
   </g>
   <g id="patch_54">
    <path d="M 1354.870588 486.54 
L 1814.4 486.54 
" style="fill: none; stroke: #ffffff; stroke-width: 1.25; stroke-linejoin: miter; stroke-linecap: square"/>
   </g>
   <g id="legend_6">
    <g id="patch_55">
     <path d="M 1632.28125 819.29 
L 1795.15 819.29 
Q 1800.65 819.29 1800.65 813.79 
L 1800.65 777.288047 
Q 1800.65 771.788047 1795.15 771.788047 
L 1632.28125 771.788047 
Q 1626.78125 771.788047 1626.78125 777.288047 
L 1626.78125 813.79 
Q 1626.78125 819.29 1632.28125 819.29 
z
" style="fill: #eaeaf2; opacity: 0.8; stroke: #cccccc; stroke-linejoin: miter"/>
    </g>
    <g id="line2d_94">
     <path d="M 1637.78125 793.199375 
L 1665.28125 793.199375 
L 1692.78125 793.199375 
" style="fill: none; stroke: #377eb8; stroke-width: 7; stroke-linecap: round"/>
    </g>
    <g id="text_57">
     <!-- GrOpt -->
     <g style="fill: #262626" transform="translate(1714.78125 802.824375) scale(0.275 -0.275)">
      <defs>
       <path id="ArialMT-47" d="M 2638 1797 
L 2638 2334 
L 4578 2338 
L 4578 638 
Q 4131 281 3656 101 
Q 3181 -78 2681 -78 
Q 2006 -78 1454 211 
Q 903 500 622 1047 
Q 341 1594 341 2269 
Q 341 2938 620 3517 
Q 900 4097 1425 4378 
Q 1950 4659 2634 4659 
Q 3131 4659 3532 4498 
Q 3934 4338 4162 4050 
Q 4391 3763 4509 3300 
L 3963 3150 
Q 3859 3500 3706 3700 
Q 3553 3900 3268 4020 
Q 2984 4141 2638 4141 
Q 2222 4141 1919 4014 
Q 1616 3888 1430 3681 
Q 1244 3475 1141 3228 
Q 966 2803 966 2306 
Q 966 1694 1177 1281 
Q 1388 869 1791 669 
Q 2194 469 2647 469 
Q 3041 469 3416 620 
Q 3791 772 3984 944 
L 3984 1797 
L 2638 1797 
z
" transform="scale(0.015625)"/>
       <path id="ArialMT-72" d="M 416 0 
L 416 3319 
L 922 3319 
L 922 2816 
Q 1116 3169 1280 3281 
Q 1444 3394 1641 3394 
Q 1925 3394 2219 3213 
L 2025 2691 
Q 1819 2813 1613 2813 
Q 1428 2813 1281 2702 
Q 1134 2591 1072 2394 
Q 978 2094 978 1738 
L 978 0 
L 416 0 
z
" transform="scale(0.015625)"/>
       <path id="ArialMT-4f" d="M 309 2231 
Q 309 3372 921 4017 
Q 1534 4663 2503 4663 
Q 3138 4663 3647 4359 
Q 4156 4056 4423 3514 
Q 4691 2972 4691 2284 
Q 4691 1588 4409 1038 
Q 4128 488 3612 205 
Q 3097 -78 2500 -78 
Q 1853 -78 1343 234 
Q 834 547 571 1087 
Q 309 1628 309 2231 
z
M 934 2222 
Q 934 1394 1379 917 
Q 1825 441 2497 441 
Q 3181 441 3623 922 
Q 4066 1403 4066 2288 
Q 4066 2847 3877 3264 
Q 3688 3681 3323 3911 
Q 2959 4141 2506 4141 
Q 1863 4141 1398 3698 
Q 934 3256 934 2222 
z
" transform="scale(0.015625)"/>
       <path id="ArialMT-70" d="M 422 -1272 
L 422 3319 
L 934 3319 
L 934 2888 
Q 1116 3141 1344 3267 
Q 1572 3394 1897 3394 
Q 2322 3394 2647 3175 
Q 2972 2956 3137 2557 
Q 3303 2159 3303 1684 
Q 3303 1175 3120 767 
Q 2938 359 2589 142 
Q 2241 -75 1856 -75 
Q 1575 -75 1351 44 
Q 1128 163 984 344 
L 984 -1272 
L 422 -1272 
z
M 931 1641 
Q 931 1000 1190 694 
Q 1450 388 1819 388 
Q 2194 388 2461 705 
Q 2728 1022 2728 1688 
Q 2728 2322 2467 2637 
Q 2206 2953 1844 2953 
Q 1484 2953 1207 2617 
Q 931 2281 931 1641 
z
" transform="scale(0.015625)"/>
       <path id="ArialMT-74" d="M 1650 503 
L 1731 6 
Q 1494 -44 1306 -44 
Q 1000 -44 831 53 
Q 663 150 594 308 
Q 525 466 525 972 
L 525 2881 
L 113 2881 
L 113 3319 
L 525 3319 
L 525 4141 
L 1084 4478 
L 1084 3319 
L 1650 3319 
L 1650 2881 
L 1084 2881 
L 1084 941 
Q 1084 700 1114 631 
Q 1144 563 1211 522 
Q 1278 481 1403 481 
Q 1497 481 1650 503 
z
" transform="scale(0.015625)"/>
      </defs>
      <use xlink:href="#ArialMT-47"/>
      <use xlink:href="#ArialMT-72" x="77.783203"/>
      <use xlink:href="#ArialMT-4f" x="111.083984"/>
      <use xlink:href="#ArialMT-70" x="188.867188"/>
      <use xlink:href="#ArialMT-74" x="244.482422"/>
     </g>
    </g>
   </g>
  </g>
 </g>
 <defs>
  <clipPath id="p779d7b4473">
   <rect x="252" y="112.32" width="459.529412" height="346.5"/>
  </clipPath>
  <clipPath id="p0e8b23c160">
   <rect x="803.435294" y="112.32" width="459.529412" height="346.5"/>
  </clipPath>
  <clipPath id="p397b61648d">
   <rect x="1354.870588" y="112.32" width="459.529412" height="346.5"/>
  </clipPath>
  <clipPath id="p5b80fb580c">
   <rect x="252" y="486.54" width="459.529412" height="346.5"/>
  </clipPath>
  <clipPath id="p3f8e6db43a">
   <rect x="803.435294" y="486.54" width="459.529412" height="346.5"/>
  </clipPath>
  <clipPath id="pb2e91d5adf">
   <rect x="1354.870588" y="486.54" width="459.529412" height="346.5"/>
  </clipPath>
 </defs>
</svg>
