<?xml version="1.0" encoding="utf-8" standalone="no"?>
<!DOCTYPE svg PUBLIC "-//W3C//DTD SVG 1.1//EN"
  "http://www.w3.org/Graphics/SVG/1.1/DTD/svg11.dtd">
<svg xmlns:xlink="http://www.w3.org/1999/xlink" width="2016pt" height="936pt" viewBox="0 0 2016 936" xmlns="http://www.w3.org/2000/svg" version="1.1">
 <metadata>
  <rdf:RDF xmlns:dc="http://purl.org/dc/elements/1.1/" xmlns:cc="http://creativecommons.org/ns#" xmlns:rdf="http://www.w3.org/1999/02/22-rdf-syntax-ns#">
   <cc:Work>
    <dc:type rdf:resource="http://purl.org/dc/dcmitype/StillImage"/>
    <dc:date>2024-09-11T20:24:20.440021</dc:date>
    <dc:format>image/svg+xml</dc:format>
    <dc:creator>
     <cc:Agent>
      <dc:title>Matplotlib v3.9.0, https://matplotlib.org/</dc:title>
     </cc:Agent>
    </dc:creator>
   </cc:Work>
  </rdf:RDF>
 </metadata>
 <defs>
  <style type="text/css">*{stroke-linejoin: round; stroke-linecap: butt}</style>
 </defs>
 <g id="figure_1">
  <g id="patch_1">
   <path d="M 0 936 
L 2016 936 
L 2016 0 
L 0 0 
z
" style="fill: #ffffff"/>
  </g>
  <g id="axes_1">
   <g id="patch_2">
    <path d="M 252 458.82 
L 711.529412 458.82 
L 711.529412 112.32 
L 252 112.32 
z
" style="fill: #eaeaf2"/>
   </g>
   <g id="matplotlib.axis_1">
    <g id="xtick_1">
     <g id="line2d_1">
      <path d="M 252 458.82 
L 252 112.32 
" clip-path="url(#pae5e2751f8)" style="fill: none; stroke: #ffffff; stroke-linecap: round"/>
     </g>
    </g>
    <g id="xtick_2">
     <g id="line2d_2">
      <path d="M 343.905882 458.82 
L 343.905882 112.32 
" clip-path="url(#pae5e2751f8)" style="fill: none; stroke: #ffffff; stroke-linecap: round"/>
     </g>
    </g>
    <g id="xtick_3">
     <g id="line2d_3">
      <path d="M 435.811765 458.82 
L 435.811765 112.32 
" clip-path="url(#pae5e2751f8)" style="fill: none; stroke: #ffffff; stroke-linecap: round"/>
     </g>
    </g>
    <g id="xtick_4">
     <g id="line2d_4">
      <path d="M 527.717647 458.82 
L 527.717647 112.32 
" clip-path="url(#pae5e2751f8)" style="fill: none; stroke: #ffffff; stroke-linecap: round"/>
     </g>
    </g>
    <g id="xtick_5">
     <g id="line2d_5">
      <path d="M 619.623529 458.82 
L 619.623529 112.32 
" clip-path="url(#pae5e2751f8)" style="fill: none; stroke: #ffffff; stroke-linecap: round"/>
     </g>
    </g>
    <g id="xtick_6">
     <g id="line2d_6">
      <path d="M 711.529412 458.82 
L 711.529412 112.32 
" clip-path="url(#pae5e2751f8)" style="fill: none; stroke: #ffffff; stroke-linecap: round"/>
     </g>
    </g>
   </g>
   <g id="matplotlib.axis_2">
    <g id="ytick_1">
     <g id="line2d_7">
      <path d="M 252 443.07 
L 711.529412 443.07 
" clip-path="url(#pae5e2751f8)" style="fill: none; stroke: #ffffff; stroke-linecap: round"/>
     </g>
     <g id="text_1">
      <!-- −200 -->
      <g style="fill: #262626" transform="translate(180.560547 452.911992) scale(0.275 -0.275)">
       <defs>
        <path id="ArialMT-2212" d="M 3381 1997 
L 356 1997 
L 356 2522 
L 3381 2522 
L 3381 1997 
z
" transform="scale(0.015625)"/>
        <path id="ArialMT-32" d="M 3222 541 
L 3222 0 
L 194 0 
Q 188 203 259 391 
Q 375 700 629 1000 
Q 884 1300 1366 1694 
Q 2113 2306 2375 2664 
Q 2638 3022 2638 3341 
Q 2638 3675 2398 3904 
Q 2159 4134 1775 4134 
Q 1369 4134 1125 3890 
Q 881 3647 878 3216 
L 300 3275 
Q 359 3922 746 4261 
Q 1134 4600 1788 4600 
Q 2447 4600 2831 4234 
Q 3216 3869 3216 3328 
Q 3216 3053 3103 2787 
Q 2991 2522 2730 2228 
Q 2469 1934 1863 1422 
Q 1356 997 1212 845 
Q 1069 694 975 541 
L 3222 541 
z
" transform="scale(0.015625)"/>
        <path id="ArialMT-30" d="M 266 2259 
Q 266 3072 433 3567 
Q 600 4063 929 4331 
Q 1259 4600 1759 4600 
Q 2128 4600 2406 4451 
Q 2684 4303 2865 4023 
Q 3047 3744 3150 3342 
Q 3253 2941 3253 2259 
Q 3253 1453 3087 958 
Q 2922 463 2592 192 
Q 2263 -78 1759 -78 
Q 1097 -78 719 397 
Q 266 969 266 2259 
z
M 844 2259 
Q 844 1131 1108 757 
Q 1372 384 1759 384 
Q 2147 384 2411 759 
Q 2675 1134 2675 2259 
Q 2675 3391 2411 3762 
Q 2147 4134 1753 4134 
Q 1366 4134 1134 3806 
Q 844 3388 844 2259 
z
" transform="scale(0.015625)"/>
       </defs>
       <use xlink:href="#ArialMT-2212"/>
       <use xlink:href="#ArialMT-32" x="58.398438"/>
       <use xlink:href="#ArialMT-30" x="114.013672"/>
       <use xlink:href="#ArialMT-30" x="169.628906"/>
      </g>
     </g>
    </g>
    <g id="ytick_2">
     <g id="line2d_8">
      <path d="M 252 364.32 
L 711.529412 364.32 
" clip-path="url(#pae5e2751f8)" style="fill: none; stroke: #ffffff; stroke-linecap: round"/>
     </g>
     <g id="text_2">
      <!-- −100 -->
      <g style="fill: #262626" transform="translate(180.560547 374.161992) scale(0.275 -0.275)">
       <defs>
        <path id="ArialMT-31" d="M 2384 0 
L 1822 0 
L 1822 3584 
Q 1619 3391 1289 3197 
Q 959 3003 697 2906 
L 697 3450 
Q 1169 3672 1522 3987 
Q 1875 4303 2022 4600 
L 2384 4600 
L 2384 0 
z
" transform="scale(0.015625)"/>
       </defs>
       <use xlink:href="#ArialMT-2212"/>
       <use xlink:href="#ArialMT-31" x="58.398438"/>
       <use xlink:href="#ArialMT-30" x="114.013672"/>
       <use xlink:href="#ArialMT-30" x="169.628906"/>
      </g>
     </g>
    </g>
    <g id="ytick_3">
     <g id="line2d_9">
      <path d="M 252 285.57 
L 711.529412 285.57 
" clip-path="url(#pae5e2751f8)" style="fill: none; stroke: #ffffff; stroke-linecap: round"/>
     </g>
     <g id="text_3">
      <!-- 0 -->
      <g style="fill: #262626" transform="translate(227.207422 295.411992) scale(0.275 -0.275)">
       <use xlink:href="#ArialMT-30"/>
      </g>
     </g>
    </g>
    <g id="ytick_4">
     <g id="line2d_10">
      <path d="M 252 206.82 
L 711.529412 206.82 
" clip-path="url(#pae5e2751f8)" style="fill: none; stroke: #ffffff; stroke-linecap: round"/>
     </g>
     <g id="text_4">
      <!-- 100 -->
      <g style="fill: #262626" transform="translate(196.622266 216.661992) scale(0.275 -0.275)">
       <use xlink:href="#ArialMT-31"/>
       <use xlink:href="#ArialMT-30" x="55.615234"/>
       <use xlink:href="#ArialMT-30" x="111.230469"/>
      </g>
     </g>
    </g>
    <g id="ytick_5">
     <g id="line2d_11">
      <path d="M 252 128.07 
L 711.529412 128.07 
" clip-path="url(#pae5e2751f8)" style="fill: none; stroke: #ffffff; stroke-linecap: round"/>
     </g>
     <g id="text_5">
      <!-- 200 -->
      <g style="fill: #262626" transform="translate(196.622266 137.911992) scale(0.275 -0.275)">
       <use xlink:href="#ArialMT-32"/>
       <use xlink:href="#ArialMT-30" x="55.615234"/>
       <use xlink:href="#ArialMT-30" x="111.230469"/>
      </g>
     </g>
    </g>
   </g>
   <g id="patch_3">
    <path d="M 252 458.82 
L 261.282494 458.82 
L 261.282494 112.32 
L 252 112.32 
z
" clip-path="url(#pae5e2751f8)" style="fill: #ff0000; opacity: 0.1; stroke: #ffffff; stroke-linejoin: miter"/>
   </g>
   <g id="patch_4">
    <path d="M 261.282494 458.82 
L 428.597153 458.82 
L 428.597153 112.32 
L 261.282494 112.32 
z
" clip-path="url(#pae5e2751f8)" style="fill: #0000ff; opacity: 0.1; stroke: #ffffff; stroke-linejoin: miter"/>
   </g>
   <g id="patch_5">
    <path d="M 428.597153 458.82 
L 479.237294 458.82 
L 479.237294 112.32 
L 428.597153 112.32 
z
" clip-path="url(#pae5e2751f8)" style="fill: #008000; opacity: 0.1; stroke: #ffffff; stroke-linejoin: miter"/>
   </g>
   <g id="PolyCollection_1">
    <defs>
     <path id="mea55e9af23" d="M 428.597153 -642.555 
L 428.597153 -658.305 
L 479.237294 -658.305 
L 479.237294 -642.555 
L 479.237294 -642.555 
L 428.597153 -642.555 
z
" style="stroke: #808080"/>
    </defs>
    <g clip-path="url(#pae5e2751f8)">
     <use xlink:href="#mea55e9af23" x="0" y="936" style="fill: #808080; stroke: #808080"/>
    </g>
   </g>
   <g id="line2d_12">
    <path d="M 252 285.57 
L 711.529412 285.57 
" clip-path="url(#pae5e2751f8)" style="fill: none; stroke: #000000; stroke-linecap: round"/>
   </g>
   <g id="line2d_13">
    <path d="M 252 128.07 
L 711.529412 128.07 
" clip-path="url(#pae5e2751f8)" style="fill: none; stroke-dasharray: 3.7,1.6; stroke-dashoffset: 0; stroke: #000000"/>
   </g>
   <g id="line2d_14">
    <path d="M 252 443.07 
L 711.529412 443.07 
" clip-path="url(#pae5e2751f8)" style="fill: none; stroke-dasharray: 3.7,1.6; stroke-dashoffset: 0; stroke: #000000"/>
   </g>
   <g id="line2d_15">
    <path d="M 252 285.57 
L 307.235435 285.57 
L 311.876682 128.07 
L 321.297035 128.07 
L 330.487624 443.07 
L 354.015529 443.07 
L 358.656776 285.57 
L 377.267718 285.57 
L 381.908965 443.07 
L 405.390918 443.07 
L 414.581506 128.07 
L 424.047812 128.07 
L 428.597153 285.57 
L 428.597153 285.57 
" clip-path="url(#pae5e2751f8)" style="fill: none; stroke: #e41a1c; stroke-width: 7; stroke-linecap: round"/>
   </g>
   <g id="patch_6">
    <path d="M 252 458.82 
L 252 112.32 
" style="fill: none; stroke: #ffffff; stroke-width: 1.25; stroke-linejoin: miter; stroke-linecap: square"/>
   </g>
   <g id="patch_7">
    <path d="M 711.529412 458.82 
L 711.529412 112.32 
" style="fill: none; stroke: #ffffff; stroke-width: 1.25; stroke-linejoin: miter; stroke-linecap: square"/>
   </g>
   <g id="patch_8">
    <path d="M 252 458.82 
L 711.529412 458.82 
" style="fill: none; stroke: #ffffff; stroke-width: 1.25; stroke-linejoin: miter; stroke-linecap: square"/>
   </g>
   <g id="patch_9">
    <path d="M 252 112.32 
L 711.529412 112.32 
" style="fill: none; stroke: #ffffff; stroke-width: 1.25; stroke-linejoin: miter; stroke-linecap: square"/>
   </g>
   <g id="legend_1">
    <g id="patch_10">
     <path d="M 439.971209 445.07 
L 692.279412 445.07 
Q 697.779412 445.07 697.779412 439.57 
L 697.779412 403.420391 
Q 697.779412 397.920391 692.279412 397.920391 
L 439.971209 397.920391 
Q 434.471209 397.920391 434.471209 403.420391 
L 434.471209 439.57 
Q 434.471209 445.07 439.971209 445.07 
z
" style="fill: #eaeaf2; opacity: 0.8; stroke: #cccccc; stroke-linejoin: miter"/>
    </g>
    <g id="line2d_16">
     <path d="M 445.471209 418.979375 
L 472.971209 418.979375 
L 500.471209 418.979375 
" style="fill: none; stroke: #e41a1c; stroke-width: 7; stroke-linecap: round"/>
    </g>
    <g id="text_6">
     <!-- TE= 49.47ms -->
     <g style="fill: #262626" transform="translate(522.471209 428.604375) scale(0.275 -0.275)">
      <defs>
       <path id="ArialMT-54" d="M 1659 0 
L 1659 4041 
L 150 4041 
L 150 4581 
L 3781 4581 
L 3781 4041 
L 2266 4041 
L 2266 0 
L 1659 0 
z
" transform="scale(0.015625)"/>
       <path id="ArialMT-45" d="M 506 0 
L 506 4581 
L 3819 4581 
L 3819 4041 
L 1113 4041 
L 1113 2638 
L 3647 2638 
L 3647 2100 
L 1113 2100 
L 1113 541 
L 3925 541 
L 3925 0 
L 506 0 
z
" transform="scale(0.015625)"/>
       <path id="ArialMT-3d" d="M 3381 2694 
L 356 2694 
L 356 3219 
L 3381 3219 
L 3381 2694 
z
M 3381 1303 
L 356 1303 
L 356 1828 
L 3381 1828 
L 3381 1303 
z
" transform="scale(0.015625)"/>
       <path id="ArialMT-20" transform="scale(0.015625)"/>
       <path id="ArialMT-34" d="M 2069 0 
L 2069 1097 
L 81 1097 
L 81 1613 
L 2172 4581 
L 2631 4581 
L 2631 1613 
L 3250 1613 
L 3250 1097 
L 2631 1097 
L 2631 0 
L 2069 0 
z
M 2069 1613 
L 2069 3678 
L 634 1613 
L 2069 1613 
z
" transform="scale(0.015625)"/>
       <path id="ArialMT-39" d="M 350 1059 
L 891 1109 
Q 959 728 1153 556 
Q 1347 384 1650 384 
Q 1909 384 2104 503 
Q 2300 622 2425 820 
Q 2550 1019 2634 1356 
Q 2719 1694 2719 2044 
Q 2719 2081 2716 2156 
Q 2547 1888 2255 1720 
Q 1963 1553 1622 1553 
Q 1053 1553 659 1965 
Q 266 2378 266 3053 
Q 266 3750 677 4175 
Q 1088 4600 1706 4600 
Q 2153 4600 2523 4359 
Q 2894 4119 3086 3673 
Q 3278 3228 3278 2384 
Q 3278 1506 3087 986 
Q 2897 466 2520 194 
Q 2144 -78 1638 -78 
Q 1100 -78 759 220 
Q 419 519 350 1059 
z
M 2653 3081 
Q 2653 3566 2395 3850 
Q 2138 4134 1775 4134 
Q 1400 4134 1122 3828 
Q 844 3522 844 3034 
Q 844 2597 1108 2323 
Q 1372 2050 1759 2050 
Q 2150 2050 2401 2323 
Q 2653 2597 2653 3081 
z
" transform="scale(0.015625)"/>
       <path id="ArialMT-2e" d="M 581 0 
L 581 641 
L 1222 641 
L 1222 0 
L 581 0 
z
" transform="scale(0.015625)"/>
       <path id="ArialMT-37" d="M 303 3981 
L 303 4522 
L 3269 4522 
L 3269 4084 
Q 2831 3619 2401 2847 
Q 1972 2075 1738 1259 
Q 1569 684 1522 0 
L 944 0 
Q 953 541 1156 1306 
Q 1359 2072 1739 2783 
Q 2119 3494 2547 3981 
L 303 3981 
z
" transform="scale(0.015625)"/>
       <path id="ArialMT-6d" d="M 422 0 
L 422 3319 
L 925 3319 
L 925 2853 
Q 1081 3097 1340 3245 
Q 1600 3394 1931 3394 
Q 2300 3394 2536 3241 
Q 2772 3088 2869 2813 
Q 3263 3394 3894 3394 
Q 4388 3394 4653 3120 
Q 4919 2847 4919 2278 
L 4919 0 
L 4359 0 
L 4359 2091 
Q 4359 2428 4304 2576 
Q 4250 2725 4106 2815 
Q 3963 2906 3769 2906 
Q 3419 2906 3187 2673 
Q 2956 2441 2956 1928 
L 2956 0 
L 2394 0 
L 2394 2156 
Q 2394 2531 2256 2718 
Q 2119 2906 1806 2906 
Q 1569 2906 1367 2781 
Q 1166 2656 1075 2415 
Q 984 2175 984 1722 
L 984 0 
L 422 0 
z
" transform="scale(0.015625)"/>
       <path id="ArialMT-73" d="M 197 991 
L 753 1078 
Q 800 744 1014 566 
Q 1228 388 1613 388 
Q 2000 388 2187 545 
Q 2375 703 2375 916 
Q 2375 1106 2209 1216 
Q 2094 1291 1634 1406 
Q 1016 1563 777 1677 
Q 538 1791 414 1992 
Q 291 2194 291 2438 
Q 291 2659 392 2848 
Q 494 3038 669 3163 
Q 800 3259 1026 3326 
Q 1253 3394 1513 3394 
Q 1903 3394 2198 3281 
Q 2494 3169 2634 2976 
Q 2775 2784 2828 2463 
L 2278 2388 
Q 2241 2644 2061 2787 
Q 1881 2931 1553 2931 
Q 1166 2931 1000 2803 
Q 834 2675 834 2503 
Q 834 2394 903 2306 
Q 972 2216 1119 2156 
Q 1203 2125 1616 2013 
Q 2213 1853 2448 1751 
Q 2684 1650 2818 1456 
Q 2953 1263 2953 975 
Q 2953 694 2789 445 
Q 2625 197 2315 61 
Q 2006 -75 1616 -75 
Q 969 -75 630 194 
Q 291 463 197 991 
z
" transform="scale(0.015625)"/>
      </defs>
      <use xlink:href="#ArialMT-54"/>
      <use xlink:href="#ArialMT-45" x="61.083984"/>
      <use xlink:href="#ArialMT-3d" x="127.783203"/>
      <use xlink:href="#ArialMT-20" x="186.181641"/>
      <use xlink:href="#ArialMT-34" x="213.964844"/>
      <use xlink:href="#ArialMT-39" x="269.580078"/>
      <use xlink:href="#ArialMT-2e" x="325.195312"/>
      <use xlink:href="#ArialMT-34" x="352.978516"/>
      <use xlink:href="#ArialMT-37" x="408.59375"/>
      <use xlink:href="#ArialMT-6d" x="464.208984"/>
      <use xlink:href="#ArialMT-73" x="547.509766"/>
     </g>
    </g>
   </g>
  </g>
  <g id="axes_2">
   <g id="patch_11">
    <path d="M 803.435294 458.82 
L 1262.964706 458.82 
L 1262.964706 112.32 
L 803.435294 112.32 
z
" style="fill: #eaeaf2"/>
   </g>
   <g id="matplotlib.axis_3">
    <g id="xtick_7">
     <g id="line2d_17">
      <path d="M 803.435294 458.82 
L 803.435294 112.32 
" clip-path="url(#p6e09b2273a)" style="fill: none; stroke: #ffffff; stroke-linecap: round"/>
     </g>
    </g>
    <g id="xtick_8">
     <g id="line2d_18">
      <path d="M 895.341176 458.82 
L 895.341176 112.32 
" clip-path="url(#p6e09b2273a)" style="fill: none; stroke: #ffffff; stroke-linecap: round"/>
     </g>
    </g>
    <g id="xtick_9">
     <g id="line2d_19">
      <path d="M 987.247059 458.82 
L 987.247059 112.32 
" clip-path="url(#p6e09b2273a)" style="fill: none; stroke: #ffffff; stroke-linecap: round"/>
     </g>
    </g>
    <g id="xtick_10">
     <g id="line2d_20">
      <path d="M 1079.152941 458.82 
L 1079.152941 112.32 
" clip-path="url(#p6e09b2273a)" style="fill: none; stroke: #ffffff; stroke-linecap: round"/>
     </g>
    </g>
    <g id="xtick_11">
     <g id="line2d_21">
      <path d="M 1171.058824 458.82 
L 1171.058824 112.32 
" clip-path="url(#p6e09b2273a)" style="fill: none; stroke: #ffffff; stroke-linecap: round"/>
     </g>
    </g>
    <g id="xtick_12">
     <g id="line2d_22">
      <path d="M 1262.964706 458.82 
L 1262.964706 112.32 
" clip-path="url(#p6e09b2273a)" style="fill: none; stroke: #ffffff; stroke-linecap: round"/>
     </g>
    </g>
   </g>
   <g id="matplotlib.axis_4">
    <g id="ytick_6">
     <g id="line2d_23">
      <path d="M 803.435294 441.495 
L 1262.964706 441.495 
" clip-path="url(#p6e09b2273a)" style="fill: none; stroke: #ffffff; stroke-linecap: round"/>
     </g>
     <g id="text_7">
      <!-- −200 -->
      <g style="fill: #262626" transform="translate(731.995841 451.336992) scale(0.275 -0.275)">
       <use xlink:href="#ArialMT-2212"/>
       <use xlink:href="#ArialMT-32" x="58.398438"/>
       <use xlink:href="#ArialMT-30" x="114.013672"/>
       <use xlink:href="#ArialMT-30" x="169.628906"/>
      </g>
     </g>
    </g>
    <g id="ytick_7">
     <g id="line2d_24">
      <path d="M 803.435294 363.5325 
L 1262.964706 363.5325 
" clip-path="url(#p6e09b2273a)" style="fill: none; stroke: #ffffff; stroke-linecap: round"/>
     </g>
     <g id="text_8">
      <!-- −100 -->
      <g style="fill: #262626" transform="translate(731.995841 373.374492) scale(0.275 -0.275)">
       <use xlink:href="#ArialMT-2212"/>
       <use xlink:href="#ArialMT-31" x="58.398438"/>
       <use xlink:href="#ArialMT-30" x="114.013672"/>
       <use xlink:href="#ArialMT-30" x="169.628906"/>
      </g>
     </g>
    </g>
    <g id="ytick_8">
     <g id="line2d_25">
      <path d="M 803.435294 285.57 
L 1262.964706 285.57 
" clip-path="url(#p6e09b2273a)" style="fill: none; stroke: #ffffff; stroke-linecap: round"/>
     </g>
     <g id="text_9">
      <!-- 0 -->
      <g style="fill: #262626" transform="translate(778.642716 295.411992) scale(0.275 -0.275)">
       <use xlink:href="#ArialMT-30"/>
      </g>
     </g>
    </g>
    <g id="ytick_9">
     <g id="line2d_26">
      <path d="M 803.435294 207.6075 
L 1262.964706 207.6075 
" clip-path="url(#p6e09b2273a)" style="fill: none; stroke: #ffffff; stroke-linecap: round"/>
     </g>
     <g id="text_10">
      <!-- 100 -->
      <g style="fill: #262626" transform="translate(748.05756 217.449492) scale(0.275 -0.275)">
       <use xlink:href="#ArialMT-31"/>
       <use xlink:href="#ArialMT-30" x="55.615234"/>
       <use xlink:href="#ArialMT-30" x="111.230469"/>
      </g>
     </g>
    </g>
    <g id="ytick_10">
     <g id="line2d_27">
      <path d="M 803.435294 129.645 
L 1262.964706 129.645 
" clip-path="url(#p6e09b2273a)" style="fill: none; stroke: #ffffff; stroke-linecap: round"/>
     </g>
     <g id="text_11">
      <!-- 200 -->
      <g style="fill: #262626" transform="translate(748.05756 139.486992) scale(0.275 -0.275)">
       <use xlink:href="#ArialMT-32"/>
       <use xlink:href="#ArialMT-30" x="55.615234"/>
       <use xlink:href="#ArialMT-30" x="111.230469"/>
      </g>
     </g>
    </g>
   </g>
   <g id="patch_12">
    <path d="M 803.435294 458.82 
L 812.717788 458.82 
L 812.717788 112.32 
L 803.435294 112.32 
z
" clip-path="url(#p6e09b2273a)" style="fill: #ff0000; opacity: 0.1; stroke: #ffffff; stroke-linejoin: miter"/>
   </g>
   <g id="patch_13">
    <path d="M 812.717788 458.82 
L 980.032447 458.82 
L 980.032447 112.32 
L 812.717788 112.32 
z
" clip-path="url(#p6e09b2273a)" style="fill: #0000ff; opacity: 0.1; stroke: #ffffff; stroke-linejoin: miter"/>
   </g>
   <g id="patch_14">
    <path d="M 980.032447 458.82 
L 1030.672588 458.82 
L 1030.672588 112.32 
L 980.032447 112.32 
z
" clip-path="url(#p6e09b2273a)" style="fill: #008000; opacity: 0.1; stroke: #ffffff; stroke-linejoin: miter"/>
   </g>
   <g id="line2d_28">
    <path d="M 803.435294 285.57 
L 1262.964706 285.57 
" clip-path="url(#p6e09b2273a)" style="fill: none; stroke: #000000; stroke-linecap: round"/>
   </g>
   <g id="line2d_29">
    <path d="M 803.435294 129.645 
L 1262.964706 129.645 
" clip-path="url(#p6e09b2273a)" style="fill: none; stroke-dasharray: 3.7,1.6; stroke-dashoffset: 0; stroke: #000000"/>
   </g>
   <g id="line2d_30">
    <path d="M 803.435294 441.495 
L 1262.964706 441.495 
" clip-path="url(#p6e09b2273a)" style="fill: none; stroke-dasharray: 3.7,1.6; stroke-dashoffset: 0; stroke: #000000"/>
   </g>
   <g id="line2d_31">
    <path d="M 803.435294 285.57 
L 858.624776 285.57 
L 858.762635 128.07 
L 863.174118 128.07 
L 863.311976 285.57 
L 872.686376 285.57 
L 872.824235 443.07 
L 877.235718 443.07 
L 877.281671 285.57 
L 877.327624 443.07 
L 881.831012 443.07 
L 881.968871 285.57 
L 905.404871 285.57 
L 905.542729 128.07 
L 909.954212 128.07 
L 910.092071 285.57 
L 928.657059 285.57 
L 928.794918 443.07 
L 933.2064 443.07 
L 933.344259 285.57 
L 956.780259 285.57 
L 956.918118 128.07 
L 961.3296 128.07 
L 961.375553 285.57 
L 961.421506 128.07 
L 965.924894 128.07 
L 966.062753 285.57 
L 975.437153 285.57 
L 975.575012 443.07 
L 979.986494 443.07 
L 979.986494 443.07 
" clip-path="url(#p6e09b2273a)" style="fill: none; stroke: #e41a1c; stroke-width: 7; stroke-linecap: round"/>
   </g>
   <g id="patch_15">
    <path d="M 803.435294 458.82 
L 803.435294 112.32 
" style="fill: none; stroke: #ffffff; stroke-width: 1.25; stroke-linejoin: miter; stroke-linecap: square"/>
   </g>
   <g id="patch_16">
    <path d="M 1262.964706 458.82 
L 1262.964706 112.32 
" style="fill: none; stroke: #ffffff; stroke-width: 1.25; stroke-linejoin: miter; stroke-linecap: square"/>
   </g>
   <g id="patch_17">
    <path d="M 803.435294 458.82 
L 1262.964706 458.82 
" style="fill: none; stroke: #ffffff; stroke-width: 1.25; stroke-linejoin: miter; stroke-linecap: square"/>
   </g>
   <g id="patch_18">
    <path d="M 803.435294 112.32 
L 1262.964706 112.32 
" style="fill: none; stroke: #ffffff; stroke-width: 1.25; stroke-linejoin: miter; stroke-linecap: square"/>
   </g>
   <g id="legend_2">
    <g id="patch_19">
     <path d="M 1232.714706 445.07 
L 1243.714706 445.07 
Q 1249.214706 445.07 1249.214706 439.57 
L 1249.214706 428.57 
Q 1249.214706 423.07 1243.714706 423.07 
L 1232.714706 423.07 
Q 1227.214706 423.07 1227.214706 428.57 
L 1227.214706 439.57 
Q 1227.214706 445.07 1232.714706 445.07 
z
" style="fill: #eaeaf2; opacity: 0.8; stroke: #cccccc; stroke-linejoin: miter"/>
    </g>
   </g>
  </g>
  <g id="axes_3">
   <g id="patch_20">
    <path d="M 1354.870588 458.82 
L 1814.4 458.82 
L 1814.4 112.32 
L 1354.870588 112.32 
z
" style="fill: #eaeaf2"/>
   </g>
   <g id="matplotlib.axis_5">
    <g id="xtick_13">
     <g id="line2d_32">
      <path d="M 1354.870588 458.82 
L 1354.870588 112.32 
" clip-path="url(#pbd2d5a27f3)" style="fill: none; stroke: #ffffff; stroke-linecap: round"/>
     </g>
    </g>
    <g id="xtick_14">
     <g id="line2d_33">
      <path d="M 1446.776471 458.82 
L 1446.776471 112.32 
" clip-path="url(#pbd2d5a27f3)" style="fill: none; stroke: #ffffff; stroke-linecap: round"/>
     </g>
    </g>
    <g id="xtick_15">
     <g id="line2d_34">
      <path d="M 1538.682353 458.82 
L 1538.682353 112.32 
" clip-path="url(#pbd2d5a27f3)" style="fill: none; stroke: #ffffff; stroke-linecap: round"/>
     </g>
    </g>
    <g id="xtick_16">
     <g id="line2d_35">
      <path d="M 1630.588235 458.82 
L 1630.588235 112.32 
" clip-path="url(#pbd2d5a27f3)" style="fill: none; stroke: #ffffff; stroke-linecap: round"/>
     </g>
    </g>
    <g id="xtick_17">
     <g id="line2d_36">
      <path d="M 1722.494118 458.82 
L 1722.494118 112.32 
" clip-path="url(#pbd2d5a27f3)" style="fill: none; stroke: #ffffff; stroke-linecap: round"/>
     </g>
    </g>
    <g id="xtick_18">
     <g id="line2d_37">
      <path d="M 1814.4 458.82 
L 1814.4 112.32 
" clip-path="url(#pbd2d5a27f3)" style="fill: none; stroke: #ffffff; stroke-linecap: round"/>
     </g>
    </g>
   </g>
   <g id="matplotlib.axis_6">
    <g id="ytick_11">
     <g id="line2d_38">
      <path d="M 1354.870588 458.82 
L 1814.4 458.82 
" clip-path="url(#pbd2d5a27f3)" style="fill: none; stroke: #ffffff; stroke-linecap: round"/>
     </g>
     <g id="text_12">
      <!-- 0.0 -->
      <g style="fill: #262626" transform="translate(1307.145588 468.661992) scale(0.275 -0.275)">
       <use xlink:href="#ArialMT-30"/>
       <use xlink:href="#ArialMT-2e" x="55.615234"/>
       <use xlink:href="#ArialMT-30" x="83.398438"/>
      </g>
     </g>
    </g>
    <g id="ytick_12">
     <g id="line2d_39">
      <path d="M 1354.870588 395.82 
L 1814.4 395.82 
" clip-path="url(#pbd2d5a27f3)" style="fill: none; stroke: #ffffff; stroke-linecap: round"/>
     </g>
     <g id="text_13">
      <!-- 0.2 -->
      <g style="fill: #262626" transform="translate(1307.145588 405.661992) scale(0.275 -0.275)">
       <use xlink:href="#ArialMT-30"/>
       <use xlink:href="#ArialMT-2e" x="55.615234"/>
       <use xlink:href="#ArialMT-32" x="83.398438"/>
      </g>
     </g>
    </g>
    <g id="ytick_13">
     <g id="line2d_40">
      <path d="M 1354.870588 332.82 
L 1814.4 332.82 
" clip-path="url(#pbd2d5a27f3)" style="fill: none; stroke: #ffffff; stroke-linecap: round"/>
     </g>
     <g id="text_14">
      <!-- 0.4 -->
      <g style="fill: #262626" transform="translate(1307.145588 342.661992) scale(0.275 -0.275)">
       <use xlink:href="#ArialMT-30"/>
       <use xlink:href="#ArialMT-2e" x="55.615234"/>
       <use xlink:href="#ArialMT-34" x="83.398438"/>
      </g>
     </g>
    </g>
    <g id="ytick_14">
     <g id="line2d_41">
      <path d="M 1354.870588 269.82 
L 1814.4 269.82 
" clip-path="url(#pbd2d5a27f3)" style="fill: none; stroke: #ffffff; stroke-linecap: round"/>
     </g>
     <g id="text_15">
      <!-- 0.6 -->
      <g style="fill: #262626" transform="translate(1307.145588 279.661992) scale(0.275 -0.275)">
       <defs>
        <path id="ArialMT-36" d="M 3184 3459 
L 2625 3416 
Q 2550 3747 2413 3897 
Q 2184 4138 1850 4138 
Q 1581 4138 1378 3988 
Q 1113 3794 959 3422 
Q 806 3050 800 2363 
Q 1003 2672 1297 2822 
Q 1591 2972 1913 2972 
Q 2475 2972 2870 2558 
Q 3266 2144 3266 1488 
Q 3266 1056 3080 686 
Q 2894 316 2569 119 
Q 2244 -78 1831 -78 
Q 1128 -78 684 439 
Q 241 956 241 2144 
Q 241 3472 731 4075 
Q 1159 4600 1884 4600 
Q 2425 4600 2770 4297 
Q 3116 3994 3184 3459 
z
M 888 1484 
Q 888 1194 1011 928 
Q 1134 663 1356 523 
Q 1578 384 1822 384 
Q 2178 384 2434 671 
Q 2691 959 2691 1453 
Q 2691 1928 2437 2201 
Q 2184 2475 1800 2475 
Q 1419 2475 1153 2201 
Q 888 1928 888 1484 
z
" transform="scale(0.015625)"/>
       </defs>
       <use xlink:href="#ArialMT-30"/>
       <use xlink:href="#ArialMT-2e" x="55.615234"/>
       <use xlink:href="#ArialMT-36" x="83.398438"/>
      </g>
     </g>
    </g>
    <g id="ytick_15">
     <g id="line2d_42">
      <path d="M 1354.870588 206.82 
L 1814.4 206.82 
" clip-path="url(#pbd2d5a27f3)" style="fill: none; stroke: #ffffff; stroke-linecap: round"/>
     </g>
     <g id="text_16">
      <!-- 0.8 -->
      <g style="fill: #262626" transform="translate(1307.145588 216.661992) scale(0.275 -0.275)">
       <defs>
        <path id="ArialMT-38" d="M 1131 2484 
Q 781 2613 612 2850 
Q 444 3088 444 3419 
Q 444 3919 803 4259 
Q 1163 4600 1759 4600 
Q 2359 4600 2725 4251 
Q 3091 3903 3091 3403 
Q 3091 3084 2923 2848 
Q 2756 2613 2416 2484 
Q 2838 2347 3058 2040 
Q 3278 1734 3278 1309 
Q 3278 722 2862 322 
Q 2447 -78 1769 -78 
Q 1091 -78 675 323 
Q 259 725 259 1325 
Q 259 1772 486 2073 
Q 713 2375 1131 2484 
z
M 1019 3438 
Q 1019 3113 1228 2906 
Q 1438 2700 1772 2700 
Q 2097 2700 2305 2904 
Q 2513 3109 2513 3406 
Q 2513 3716 2298 3927 
Q 2084 4138 1766 4138 
Q 1444 4138 1231 3931 
Q 1019 3725 1019 3438 
z
M 838 1322 
Q 838 1081 952 856 
Q 1066 631 1291 507 
Q 1516 384 1775 384 
Q 2178 384 2440 643 
Q 2703 903 2703 1303 
Q 2703 1709 2433 1975 
Q 2163 2241 1756 2241 
Q 1359 2241 1098 1978 
Q 838 1716 838 1322 
z
" transform="scale(0.015625)"/>
       </defs>
       <use xlink:href="#ArialMT-30"/>
       <use xlink:href="#ArialMT-2e" x="55.615234"/>
       <use xlink:href="#ArialMT-38" x="83.398438"/>
      </g>
     </g>
    </g>
    <g id="ytick_16">
     <g id="line2d_43">
      <path d="M 1354.870588 143.82 
L 1814.4 143.82 
" clip-path="url(#pbd2d5a27f3)" style="fill: none; stroke: #ffffff; stroke-linecap: round"/>
     </g>
     <g id="text_17">
      <!-- 1.0 -->
      <g style="fill: #262626" transform="translate(1307.145588 153.661992) scale(0.275 -0.275)">
       <use xlink:href="#ArialMT-31"/>
       <use xlink:href="#ArialMT-2e" x="55.615234"/>
       <use xlink:href="#ArialMT-30" x="83.398438"/>
      </g>
     </g>
    </g>
   </g>
   <g id="patch_21">
    <path d="M 1354.870588 458.82 
L 1364.153082 458.82 
L 1364.153082 112.32 
L 1354.870588 112.32 
z
" clip-path="url(#pbd2d5a27f3)" style="fill: #ff0000; opacity: 0.1; stroke: #ffffff; stroke-linejoin: miter"/>
   </g>
   <g id="patch_22">
    <path d="M 1364.153082 458.82 
L 1531.467741 458.82 
L 1531.467741 112.32 
L 1364.153082 112.32 
z
" clip-path="url(#pbd2d5a27f3)" style="fill: #0000ff; opacity: 0.1; stroke: #ffffff; stroke-linejoin: miter"/>
   </g>
   <g id="patch_23">
    <path d="M 1531.467741 458.82 
L 1582.107882 458.82 
L 1582.107882 112.32 
L 1531.467741 112.32 
z
" clip-path="url(#pbd2d5a27f3)" style="fill: #008000; opacity: 0.1; stroke: #ffffff; stroke-linejoin: miter"/>
   </g>
   <g id="line2d_44">
    <path d="M 1354.870588 458.82 
L 1814.4 458.82 
" clip-path="url(#pbd2d5a27f3)" style="fill: none; stroke: #000000; stroke-linecap: round"/>
   </g>
   <g id="line2d_45">
    <path d="M 1354.870588 143.82 
L 1814.4 143.82 
" clip-path="url(#pbd2d5a27f3)" style="fill: none; stroke-dasharray: 3.7,1.6; stroke-dashoffset: 0; stroke: #000000"/>
   </g>
   <g id="line2d_46">
    <path d="M 1354.870588 458.82 
L 1410.060071 458.82 
L 1410.5196 207.88071 
L 1411.071035 27.410654 
L 1411.187441 -1 
M 1415.43581 -1 
L 1415.942047 106.713051 
L 1416.539435 189.577298 
L 1417.182776 248.87794 
L 1417.872071 292.466393 
L 1418.607318 325.20163 
L 1419.388518 350.227289 
L 1420.215671 369.650022 
L 1421.088776 384.922422 
L 1422.007835 397.070057 
L 1422.926894 406.421637 
L 1423.891906 414.106889 
L 1424.121671 415.684726 
L 1424.167624 447.744835 
L 1424.213576 439.657687 
L 1424.719059 193.324008 
L 1425.270494 30.361288 
L 1425.41085 -1 
M 1434.411647 -1 
L 1434.966565 97.834173 
L 1435.609906 175.03236 
L 1436.2992 231.955436 
L 1437.034447 275.000247 
L 1437.815647 308.204824 
L 1438.6428 334.235432 
L 1439.515906 354.917048 
L 1440.434965 371.535956 
L 1441.399976 385.021007 
L 1442.410941 396.056708 
L 1443.467859 405.156268 
L 1444.570729 412.710197 
L 1445.6736 418.792248 
L 1446.822424 423.949022 
L 1448.0172 428.338747 
L 1449.257929 432.089656 
L 1450.544612 435.306246 
L 1451.9232 438.160888 
L 1453.347741 440.608428 
L 1454.864188 442.775039 
L 1456.472541 444.685226 
L 1456.840165 445.075073 
L 1456.886118 440.762629 
L 1457.345647 202.307635 
L 1457.897082 28.576246 
L 1458.022492 -1 
M 1462.180618 -1 
L 1462.722141 115.882893 
L 1463.319529 198.412212 
L 1463.962871 257.371738 
L 1464.652165 300.615606 
L 1465.387412 333.005299 
L 1466.168612 357.686738 
L 1466.995765 376.768615 
L 1467.822918 391.021654 
L 1468.696024 402.483276 
L 1469.615082 411.764171 
L 1470.580094 419.327196 
L 1471.591059 425.526594 
L 1472.647976 430.635916 
L 1473.750847 434.868145 
L 1474.899671 438.39037 
L 1476.094447 441.334608 
L 1477.335176 443.805852 
L 1478.621859 445.888119 
L 1480.000447 447.703738 
L 1480.092353 447.812067 
L 1480.184259 408.031063 
L 1480.689741 164.255385 
L 1481.241176 3.748176 
L 1481.262092 -1 
M 1485.443703 -1 
L 1485.974329 112.974109 
L 1486.571718 195.524215 
L 1487.215059 254.509856 
L 1487.904353 297.785243 
L 1488.6396 330.211814 
L 1489.4208 354.935328 
L 1490.247953 374.06422 
L 1491.121059 389.052536 
L 1491.994165 400.407311 
L 1492.913224 409.626102 
L 1493.878235 417.159861 
L 1494.8892 423.354374 
L 1495.946118 428.477072 
L 1497.048988 432.736422 
L 1498.197812 436.29613 
L 1499.392588 439.285632 
L 1500.633318 441.807924 
L 1501.965953 444.014287 
L 1503.344541 445.877692 
L 1504.860988 447.551206 
L 1506.469341 448.996715 
L 1508.215553 450.273535 
L 1508.353412 377.318488 
L 1508.858894 145.601925 
L 1509.376812 -1 
M 1518.547733 -1 
L 1519.1064 95.905145 
L 1519.749741 171.497463 
L 1520.439035 227.586657 
L 1521.174282 270.241413 
L 1521.955482 303.320609 
L 1522.782635 329.386888 
L 1523.655741 350.202508 
L 1524.5748 367.014428 
L 1525.539812 380.72617 
L 1526.550776 392.005631 
L 1526.872447 395.080686 
L 1526.964353 457.610016 
L 1527.010306 431.348621 
L 1527.515788 195.660967 
L 1528.067224 37.598497 
L 1528.246436 -1 
L 1528.246436 -1 
" clip-path="url(#pbd2d5a27f3)" style="fill: none; stroke: #e41a1c; stroke-width: 7; stroke-linecap: round"/>
   </g>
   <g id="patch_24">
    <path d="M 1354.870588 458.82 
L 1354.870588 112.32 
" style="fill: none; stroke: #ffffff; stroke-width: 1.25; stroke-linejoin: miter; stroke-linecap: square"/>
   </g>
   <g id="patch_25">
    <path d="M 1814.4 458.82 
L 1814.4 112.32 
" style="fill: none; stroke: #ffffff; stroke-width: 1.25; stroke-linejoin: miter; stroke-linecap: square"/>
   </g>
   <g id="patch_26">
    <path d="M 1354.870588 458.82 
L 1814.4 458.82 
" style="fill: none; stroke: #ffffff; stroke-width: 1.25; stroke-linejoin: miter; stroke-linecap: square"/>
   </g>
   <g id="patch_27">
    <path d="M 1354.870588 112.32 
L 1814.4 112.32 
" style="fill: none; stroke: #ffffff; stroke-width: 1.25; stroke-linejoin: miter; stroke-linecap: square"/>
   </g>
   <g id="legend_3">
    <g id="patch_28">
     <path d="M 1633.806641 445.07 
L 1795.15 445.07 
Q 1800.65 445.07 1800.65 439.57 
L 1800.65 403.420391 
Q 1800.65 397.920391 1795.15 397.920391 
L 1633.806641 397.920391 
Q 1628.306641 397.920391 1628.306641 403.420391 
L 1628.306641 439.57 
Q 1628.306641 445.07 1633.806641 445.07 
z
" style="fill: #eaeaf2; opacity: 0.8; stroke: #cccccc; stroke-linejoin: miter"/>
    </g>
    <g id="line2d_47">
     <path d="M 1639.306641 418.979375 
L 1666.806641 418.979375 
L 1694.306641 418.979375 
" style="fill: none; stroke: #e41a1c; stroke-width: 7; stroke-linecap: round"/>
    </g>
    <g id="text_18">
     <!-- TRAP -->
     <g style="fill: #262626" transform="translate(1716.306641 428.604375) scale(0.275 -0.275)">
      <defs>
       <path id="ArialMT-52" d="M 503 0 
L 503 4581 
L 2534 4581 
Q 3147 4581 3465 4457 
Q 3784 4334 3975 4021 
Q 4166 3709 4166 3331 
Q 4166 2844 3850 2509 
Q 3534 2175 2875 2084 
Q 3116 1969 3241 1856 
Q 3506 1613 3744 1247 
L 4541 0 
L 3778 0 
L 3172 953 
Q 2906 1366 2734 1584 
Q 2563 1803 2427 1890 
Q 2291 1978 2150 2013 
Q 2047 2034 1813 2034 
L 1109 2034 
L 1109 0 
L 503 0 
z
M 1109 2559 
L 2413 2559 
Q 2828 2559 3062 2645 
Q 3297 2731 3419 2920 
Q 3541 3109 3541 3331 
Q 3541 3656 3305 3865 
Q 3069 4075 2559 4075 
L 1109 4075 
L 1109 2559 
z
" transform="scale(0.015625)"/>
       <path id="ArialMT-41" d="M -9 0 
L 1750 4581 
L 2403 4581 
L 4278 0 
L 3588 0 
L 3053 1388 
L 1138 1388 
L 634 0 
L -9 0 
z
M 1313 1881 
L 2866 1881 
L 2388 3150 
Q 2169 3728 2063 4100 
Q 1975 3659 1816 3225 
L 1313 1881 
z
" transform="scale(0.015625)"/>
       <path id="ArialMT-50" d="M 494 0 
L 494 4581 
L 2222 4581 
Q 2678 4581 2919 4538 
Q 3256 4481 3484 4323 
Q 3713 4166 3852 3881 
Q 3991 3597 3991 3256 
Q 3991 2672 3619 2267 
Q 3247 1863 2275 1863 
L 1100 1863 
L 1100 0 
L 494 0 
z
M 1100 2403 
L 2284 2403 
Q 2872 2403 3119 2622 
Q 3366 2841 3366 3238 
Q 3366 3525 3220 3729 
Q 3075 3934 2838 4000 
Q 2684 4041 2272 4041 
L 1100 4041 
L 1100 2403 
z
" transform="scale(0.015625)"/>
      </defs>
      <use xlink:href="#ArialMT-54"/>
      <use xlink:href="#ArialMT-52" x="61.083984"/>
      <use xlink:href="#ArialMT-41" x="133.300781"/>
      <use xlink:href="#ArialMT-50" x="200"/>
     </g>
    </g>
   </g>
  </g>
  <g id="axes_4">
   <g id="patch_29">
    <path d="M 252 833.04 
L 711.529412 833.04 
L 711.529412 486.54 
L 252 486.54 
z
" style="fill: #eaeaf2"/>
   </g>
   <g id="matplotlib.axis_7">
    <g id="xtick_19">
     <g id="line2d_48">
      <path d="M 252 833.04 
L 252 486.54 
" clip-path="url(#pc68146c2e9)" style="fill: none; stroke: #ffffff; stroke-linecap: round"/>
     </g>
     <g id="text_19">
      <!-- 0 -->
      <g style="fill: #262626" transform="translate(244.353711 862.223984) scale(0.275 -0.275)">
       <use xlink:href="#ArialMT-30"/>
      </g>
     </g>
    </g>
    <g id="xtick_20">
     <g id="line2d_49">
      <path d="M 343.905882 833.04 
L 343.905882 486.54 
" clip-path="url(#pc68146c2e9)" style="fill: none; stroke: #ffffff; stroke-linecap: round"/>
     </g>
     <g id="text_20">
      <!-- 20 -->
      <g style="fill: #262626" transform="translate(328.613304 862.223984) scale(0.275 -0.275)">
       <use xlink:href="#ArialMT-32"/>
       <use xlink:href="#ArialMT-30" x="55.615234"/>
      </g>
     </g>
    </g>
    <g id="xtick_21">
     <g id="line2d_50">
      <path d="M 435.811765 833.04 
L 435.811765 486.54 
" clip-path="url(#pc68146c2e9)" style="fill: none; stroke: #ffffff; stroke-linecap: round"/>
     </g>
     <g id="text_21">
      <!-- 40 -->
      <g style="fill: #262626" transform="translate(420.519187 862.223984) scale(0.275 -0.275)">
       <use xlink:href="#ArialMT-34"/>
       <use xlink:href="#ArialMT-30" x="55.615234"/>
      </g>
     </g>
    </g>
    <g id="xtick_22">
     <g id="line2d_51">
      <path d="M 527.717647 833.04 
L 527.717647 486.54 
" clip-path="url(#pc68146c2e9)" style="fill: none; stroke: #ffffff; stroke-linecap: round"/>
     </g>
     <g id="text_22">
      <!-- 60 -->
      <g style="fill: #262626" transform="translate(512.425069 862.223984) scale(0.275 -0.275)">
       <use xlink:href="#ArialMT-36"/>
       <use xlink:href="#ArialMT-30" x="55.615234"/>
      </g>
     </g>
    </g>
    <g id="xtick_23">
     <g id="line2d_52">
      <path d="M 619.623529 833.04 
L 619.623529 486.54 
" clip-path="url(#pc68146c2e9)" style="fill: none; stroke: #ffffff; stroke-linecap: round"/>
     </g>
     <g id="text_23">
      <!-- 80 -->
      <g style="fill: #262626" transform="translate(604.330951 862.223984) scale(0.275 -0.275)">
       <use xlink:href="#ArialMT-38"/>
       <use xlink:href="#ArialMT-30" x="55.615234"/>
      </g>
     </g>
    </g>
    <g id="xtick_24">
     <g id="line2d_53">
      <path d="M 711.529412 833.04 
L 711.529412 486.54 
" clip-path="url(#pc68146c2e9)" style="fill: none; stroke: #ffffff; stroke-linecap: round"/>
     </g>
     <g id="text_24">
      <!-- 100 -->
      <g style="fill: #262626" transform="translate(688.590545 862.223984) scale(0.275 -0.275)">
       <use xlink:href="#ArialMT-31"/>
       <use xlink:href="#ArialMT-30" x="55.615234"/>
       <use xlink:href="#ArialMT-30" x="111.230469"/>
      </g>
     </g>
    </g>
    <g id="text_25">
     <!-- Time [ms] -->
     <g style="fill: #262626" transform="translate(416.500643 893.163047) scale(0.3 -0.3)">
      <defs>
       <path id="ArialMT-69" d="M 425 3934 
L 425 4581 
L 988 4581 
L 988 3934 
L 425 3934 
z
M 425 0 
L 425 3319 
L 988 3319 
L 988 0 
L 425 0 
z
" transform="scale(0.015625)"/>
       <path id="ArialMT-65" d="M 2694 1069 
L 3275 997 
Q 3138 488 2766 206 
Q 2394 -75 1816 -75 
Q 1088 -75 661 373 
Q 234 822 234 1631 
Q 234 2469 665 2931 
Q 1097 3394 1784 3394 
Q 2450 3394 2872 2941 
Q 3294 2488 3294 1666 
Q 3294 1616 3291 1516 
L 816 1516 
Q 847 969 1125 678 
Q 1403 388 1819 388 
Q 2128 388 2347 550 
Q 2566 713 2694 1069 
z
M 847 1978 
L 2700 1978 
Q 2663 2397 2488 2606 
Q 2219 2931 1791 2931 
Q 1403 2931 1139 2672 
Q 875 2413 847 1978 
z
" transform="scale(0.015625)"/>
       <path id="ArialMT-5b" d="M 434 -1272 
L 434 4581 
L 1675 4581 
L 1675 4116 
L 997 4116 
L 997 -806 
L 1675 -806 
L 1675 -1272 
L 434 -1272 
z
" transform="scale(0.015625)"/>
       <path id="ArialMT-5d" d="M 1363 -1272 
L 122 -1272 
L 122 -806 
L 800 -806 
L 800 4116 
L 122 4116 
L 122 4581 
L 1363 4581 
L 1363 -1272 
z
" transform="scale(0.015625)"/>
      </defs>
      <use xlink:href="#ArialMT-54"/>
      <use xlink:href="#ArialMT-69" x="57.333984"/>
      <use xlink:href="#ArialMT-6d" x="79.550781"/>
      <use xlink:href="#ArialMT-65" x="162.851562"/>
      <use xlink:href="#ArialMT-20" x="218.466797"/>
      <use xlink:href="#ArialMT-5b" x="246.25"/>
      <use xlink:href="#ArialMT-6d" x="274.033203"/>
      <use xlink:href="#ArialMT-73" x="357.333984"/>
      <use xlink:href="#ArialMT-5d" x="407.333984"/>
     </g>
    </g>
   </g>
   <g id="matplotlib.axis_8">
    <g id="ytick_17">
     <g id="line2d_54">
      <path d="M 252 817.29 
L 711.529412 817.29 
" clip-path="url(#pc68146c2e9)" style="fill: none; stroke: #ffffff; stroke-linecap: round"/>
     </g>
     <g id="text_26">
      <!-- −200 -->
      <g style="fill: #262626" transform="translate(180.560547 827.131992) scale(0.275 -0.275)">
       <use xlink:href="#ArialMT-2212"/>
       <use xlink:href="#ArialMT-32" x="58.398438"/>
       <use xlink:href="#ArialMT-30" x="114.013672"/>
       <use xlink:href="#ArialMT-30" x="169.628906"/>
      </g>
     </g>
    </g>
    <g id="ytick_18">
     <g id="line2d_55">
      <path d="M 252 738.54 
L 711.529412 738.54 
" clip-path="url(#pc68146c2e9)" style="fill: none; stroke: #ffffff; stroke-linecap: round"/>
     </g>
     <g id="text_27">
      <!-- −100 -->
      <g style="fill: #262626" transform="translate(180.560547 748.381992) scale(0.275 -0.275)">
       <use xlink:href="#ArialMT-2212"/>
       <use xlink:href="#ArialMT-31" x="58.398438"/>
       <use xlink:href="#ArialMT-30" x="114.013672"/>
       <use xlink:href="#ArialMT-30" x="169.628906"/>
      </g>
     </g>
    </g>
    <g id="ytick_19">
     <g id="line2d_56">
      <path d="M 252 659.79 
L 711.529412 659.79 
" clip-path="url(#pc68146c2e9)" style="fill: none; stroke: #ffffff; stroke-linecap: round"/>
     </g>
     <g id="text_28">
      <!-- 0 -->
      <g style="fill: #262626" transform="translate(227.207422 669.631992) scale(0.275 -0.275)">
       <use xlink:href="#ArialMT-30"/>
      </g>
     </g>
    </g>
    <g id="ytick_20">
     <g id="line2d_57">
      <path d="M 252 581.04 
L 711.529412 581.04 
" clip-path="url(#pc68146c2e9)" style="fill: none; stroke: #ffffff; stroke-linecap: round"/>
     </g>
     <g id="text_29">
      <!-- 100 -->
      <g style="fill: #262626" transform="translate(196.622266 590.881992) scale(0.275 -0.275)">
       <use xlink:href="#ArialMT-31"/>
       <use xlink:href="#ArialMT-30" x="55.615234"/>
       <use xlink:href="#ArialMT-30" x="111.230469"/>
      </g>
     </g>
    </g>
    <g id="ytick_21">
     <g id="line2d_58">
      <path d="M 252 502.29 
L 711.529412 502.29 
" clip-path="url(#pc68146c2e9)" style="fill: none; stroke: #ffffff; stroke-linecap: round"/>
     </g>
     <g id="text_30">
      <!-- 200 -->
      <g style="fill: #262626" transform="translate(196.622266 512.131992) scale(0.275 -0.275)">
       <use xlink:href="#ArialMT-32"/>
       <use xlink:href="#ArialMT-30" x="55.615234"/>
       <use xlink:href="#ArialMT-30" x="111.230469"/>
      </g>
     </g>
    </g>
   </g>
   <g id="patch_30">
    <path d="M 252 833.04 
L 261.282494 833.04 
L 261.282494 486.54 
L 252 486.54 
z
" clip-path="url(#pc68146c2e9)" style="fill: #ff0000; opacity: 0.1; stroke: #ffffff; stroke-linejoin: miter"/>
   </g>
   <g id="patch_31">
    <path d="M 261.282494 833.04 
L 394.270306 833.04 
L 394.270306 486.54 
L 261.282494 486.54 
z
" clip-path="url(#pc68146c2e9)" style="fill: #0000ff; opacity: 0.1; stroke: #ffffff; stroke-linejoin: miter"/>
   </g>
   <g id="patch_32">
    <path d="M 394.270306 833.04 
L 444.910447 833.04 
L 444.910447 486.54 
L 394.270306 486.54 
z
" clip-path="url(#pc68146c2e9)" style="fill: #008000; opacity: 0.1; stroke: #ffffff; stroke-linejoin: miter"/>
   </g>
   <g id="PolyCollection_2">
    <defs>
     <path id="m3355aaffb6" d="M 394.270306 -268.335 
L 394.270306 -284.085 
L 444.910447 -284.085 
L 444.910447 -268.335 
L 444.910447 -268.335 
L 394.270306 -268.335 
z
" style="stroke: #808080"/>
    </defs>
    <g clip-path="url(#pc68146c2e9)">
     <use xlink:href="#m3355aaffb6" x="0" y="936" style="fill: #808080; stroke: #808080"/>
    </g>
   </g>
   <g id="line2d_59">
    <path d="M 252 659.79 
L 711.529412 659.79 
" clip-path="url(#pc68146c2e9)" style="fill: none; stroke: #000000; stroke-linecap: round"/>
   </g>
   <g id="line2d_60">
    <path d="M 252 502.29 
L 711.529412 502.29 
" clip-path="url(#pc68146c2e9)" style="fill: none; stroke-dasharray: 3.7,1.6; stroke-dashoffset: 0; stroke: #000000"/>
   </g>
   <g id="line2d_61">
    <path d="M 252 817.29 
L 711.529412 817.29 
" clip-path="url(#pc68146c2e9)" style="fill: none; stroke-dasharray: 3.7,1.6; stroke-dashoffset: 0; stroke: #000000"/>
   </g>
   <g id="line2d_62">
    <path d="M 252 659.79 
L 261.558212 659.79 
L 265.969694 809.503446 
L 266.337318 815.715 
L 276.263153 815.715 
L 276.630776 811.808811 
L 285.453741 512.42791 
L 285.821365 503.865 
L 315.231247 503.865 
L 315.598871 506.095375 
L 324.789459 815.715 
L 336.553412 815.715 
L 336.921035 809.501087 
L 341.332518 659.79 
L 356.037459 659.79 
L 360.448941 510.073978 
L 360.816565 503.865 
L 371.845271 503.865 
L 372.212894 511.429716 
L 381.035859 810.829163 
L 381.403482 815.715 
L 389.4912 815.715 
L 389.858824 809.494569 
L 394.270306 659.79 
L 394.270306 659.79 
" clip-path="url(#pc68146c2e9)" style="fill: none; stroke: #377eb8; stroke-width: 7; stroke-linecap: round"/>
   </g>
   <g id="patch_33">
    <path d="M 252 833.04 
L 252 486.54 
" style="fill: none; stroke: #ffffff; stroke-width: 1.25; stroke-linejoin: miter; stroke-linecap: square"/>
   </g>
   <g id="patch_34">
    <path d="M 711.529412 833.04 
L 711.529412 486.54 
" style="fill: none; stroke: #ffffff; stroke-width: 1.25; stroke-linejoin: miter; stroke-linecap: square"/>
   </g>
   <g id="patch_35">
    <path d="M 252 833.04 
L 711.529412 833.04 
" style="fill: none; stroke: #ffffff; stroke-width: 1.25; stroke-linejoin: miter; stroke-linecap: square"/>
   </g>
   <g id="patch_36">
    <path d="M 252 486.54 
L 711.529412 486.54 
" style="fill: none; stroke: #ffffff; stroke-width: 1.25; stroke-linejoin: miter; stroke-linecap: square"/>
   </g>
   <g id="legend_4">
    <g id="patch_37">
     <path d="M 439.971209 819.29 
L 692.279412 819.29 
Q 697.779412 819.29 697.779412 813.79 
L 697.779412 777.640391 
Q 697.779412 772.140391 692.279412 772.140391 
L 439.971209 772.140391 
Q 434.471209 772.140391 434.471209 777.640391 
L 434.471209 813.79 
Q 434.471209 819.29 439.971209 819.29 
z
" style="fill: #eaeaf2; opacity: 0.8; stroke: #cccccc; stroke-linejoin: miter"/>
    </g>
    <g id="line2d_63">
     <path d="M 445.471209 793.199375 
L 472.971209 793.199375 
L 500.471209 793.199375 
" style="fill: none; stroke: #377eb8; stroke-width: 7; stroke-linecap: round"/>
    </g>
    <g id="text_31">
     <!-- TE= 42.02ms -->
     <g style="fill: #262626" transform="translate(522.471209 802.824375) scale(0.275 -0.275)">
      <use xlink:href="#ArialMT-54"/>
      <use xlink:href="#ArialMT-45" x="61.083984"/>
      <use xlink:href="#ArialMT-3d" x="127.783203"/>
      <use xlink:href="#ArialMT-20" x="186.181641"/>
      <use xlink:href="#ArialMT-34" x="213.964844"/>
      <use xlink:href="#ArialMT-32" x="269.580078"/>
      <use xlink:href="#ArialMT-2e" x="325.195312"/>
      <use xlink:href="#ArialMT-30" x="352.978516"/>
      <use xlink:href="#ArialMT-32" x="408.59375"/>
      <use xlink:href="#ArialMT-6d" x="464.208984"/>
      <use xlink:href="#ArialMT-73" x="547.509766"/>
     </g>
    </g>
   </g>
  </g>
  <g id="axes_5">
   <g id="patch_38">
    <path d="M 803.435294 833.04 
L 1262.964706 833.04 
L 1262.964706 486.54 
L 803.435294 486.54 
z
" style="fill: #eaeaf2"/>
   </g>
   <g id="matplotlib.axis_9">
    <g id="xtick_25">
     <g id="line2d_64">
      <path d="M 803.435294 833.04 
L 803.435294 486.54 
" clip-path="url(#pd47b7ff0f5)" style="fill: none; stroke: #ffffff; stroke-linecap: round"/>
     </g>
     <g id="text_32">
      <!-- 0 -->
      <g style="fill: #262626" transform="translate(795.789005 862.223984) scale(0.275 -0.275)">
       <use xlink:href="#ArialMT-30"/>
      </g>
     </g>
    </g>
    <g id="xtick_26">
     <g id="line2d_65">
      <path d="M 895.341176 833.04 
L 895.341176 486.54 
" clip-path="url(#pd47b7ff0f5)" style="fill: none; stroke: #ffffff; stroke-linecap: round"/>
     </g>
     <g id="text_33">
      <!-- 20 -->
      <g style="fill: #262626" transform="translate(880.048598 862.223984) scale(0.275 -0.275)">
       <use xlink:href="#ArialMT-32"/>
       <use xlink:href="#ArialMT-30" x="55.615234"/>
      </g>
     </g>
    </g>
    <g id="xtick_27">
     <g id="line2d_66">
      <path d="M 987.247059 833.04 
L 987.247059 486.54 
" clip-path="url(#pd47b7ff0f5)" style="fill: none; stroke: #ffffff; stroke-linecap: round"/>
     </g>
     <g id="text_34">
      <!-- 40 -->
      <g style="fill: #262626" transform="translate(971.954481 862.223984) scale(0.275 -0.275)">
       <use xlink:href="#ArialMT-34"/>
       <use xlink:href="#ArialMT-30" x="55.615234"/>
      </g>
     </g>
    </g>
    <g id="xtick_28">
     <g id="line2d_67">
      <path d="M 1079.152941 833.04 
L 1079.152941 486.54 
" clip-path="url(#pd47b7ff0f5)" style="fill: none; stroke: #ffffff; stroke-linecap: round"/>
     </g>
     <g id="text_35">
      <!-- 60 -->
      <g style="fill: #262626" transform="translate(1063.860363 862.223984) scale(0.275 -0.275)">
       <use xlink:href="#ArialMT-36"/>
       <use xlink:href="#ArialMT-30" x="55.615234"/>
      </g>
     </g>
    </g>
    <g id="xtick_29">
     <g id="line2d_68">
      <path d="M 1171.058824 833.04 
L 1171.058824 486.54 
" clip-path="url(#pd47b7ff0f5)" style="fill: none; stroke: #ffffff; stroke-linecap: round"/>
     </g>
     <g id="text_36">
      <!-- 80 -->
      <g style="fill: #262626" transform="translate(1155.766245 862.223984) scale(0.275 -0.275)">
       <use xlink:href="#ArialMT-38"/>
       <use xlink:href="#ArialMT-30" x="55.615234"/>
      </g>
     </g>
    </g>
    <g id="xtick_30">
     <g id="line2d_69">
      <path d="M 1262.964706 833.04 
L 1262.964706 486.54 
" clip-path="url(#pd47b7ff0f5)" style="fill: none; stroke: #ffffff; stroke-linecap: round"/>
     </g>
     <g id="text_37">
      <!-- 100 -->
      <g style="fill: #262626" transform="translate(1240.025839 862.223984) scale(0.275 -0.275)">
       <use xlink:href="#ArialMT-31"/>
       <use xlink:href="#ArialMT-30" x="55.615234"/>
       <use xlink:href="#ArialMT-30" x="111.230469"/>
      </g>
     </g>
    </g>
    <g id="text_38">
     <!-- Time [ms] -->
     <g style="fill: #262626" transform="translate(967.935938 893.163047) scale(0.3 -0.3)">
      <use xlink:href="#ArialMT-54"/>
      <use xlink:href="#ArialMT-69" x="57.333984"/>
      <use xlink:href="#ArialMT-6d" x="79.550781"/>
      <use xlink:href="#ArialMT-65" x="162.851562"/>
      <use xlink:href="#ArialMT-20" x="218.466797"/>
      <use xlink:href="#ArialMT-5b" x="246.25"/>
      <use xlink:href="#ArialMT-6d" x="274.033203"/>
      <use xlink:href="#ArialMT-73" x="357.333984"/>
      <use xlink:href="#ArialMT-5d" x="407.333984"/>
     </g>
    </g>
   </g>
   <g id="matplotlib.axis_10">
    <g id="ytick_22">
     <g id="line2d_70">
      <path d="M 803.435294 815.715 
L 1262.964706 815.715 
" clip-path="url(#pd47b7ff0f5)" style="fill: none; stroke: #ffffff; stroke-linecap: round"/>
     </g>
     <g id="text_39">
      <!-- −200 -->
      <g style="fill: #262626" transform="translate(731.995841 825.556992) scale(0.275 -0.275)">
       <use xlink:href="#ArialMT-2212"/>
       <use xlink:href="#ArialMT-32" x="58.398438"/>
       <use xlink:href="#ArialMT-30" x="114.013672"/>
       <use xlink:href="#ArialMT-30" x="169.628906"/>
      </g>
     </g>
    </g>
    <g id="ytick_23">
     <g id="line2d_71">
      <path d="M 803.435294 737.7525 
L 1262.964706 737.7525 
" clip-path="url(#pd47b7ff0f5)" style="fill: none; stroke: #ffffff; stroke-linecap: round"/>
     </g>
     <g id="text_40">
      <!-- −100 -->
      <g style="fill: #262626" transform="translate(731.995841 747.594492) scale(0.275 -0.275)">
       <use xlink:href="#ArialMT-2212"/>
       <use xlink:href="#ArialMT-31" x="58.398438"/>
       <use xlink:href="#ArialMT-30" x="114.013672"/>
       <use xlink:href="#ArialMT-30" x="169.628906"/>
      </g>
     </g>
    </g>
    <g id="ytick_24">
     <g id="line2d_72">
      <path d="M 803.435294 659.79 
L 1262.964706 659.79 
" clip-path="url(#pd47b7ff0f5)" style="fill: none; stroke: #ffffff; stroke-linecap: round"/>
     </g>
     <g id="text_41">
      <!-- 0 -->
      <g style="fill: #262626" transform="translate(778.642716 669.631992) scale(0.275 -0.275)">
       <use xlink:href="#ArialMT-30"/>
      </g>
     </g>
    </g>
    <g id="ytick_25">
     <g id="line2d_73">
      <path d="M 803.435294 581.8275 
L 1262.964706 581.8275 
" clip-path="url(#pd47b7ff0f5)" style="fill: none; stroke: #ffffff; stroke-linecap: round"/>
     </g>
     <g id="text_42">
      <!-- 100 -->
      <g style="fill: #262626" transform="translate(748.05756 591.669492) scale(0.275 -0.275)">
       <use xlink:href="#ArialMT-31"/>
       <use xlink:href="#ArialMT-30" x="55.615234"/>
       <use xlink:href="#ArialMT-30" x="111.230469"/>
      </g>
     </g>
    </g>
    <g id="ytick_26">
     <g id="line2d_74">
      <path d="M 803.435294 503.865 
L 1262.964706 503.865 
" clip-path="url(#pd47b7ff0f5)" style="fill: none; stroke: #ffffff; stroke-linecap: round"/>
     </g>
     <g id="text_43">
      <!-- 200 -->
      <g style="fill: #262626" transform="translate(748.05756 513.706992) scale(0.275 -0.275)">
       <use xlink:href="#ArialMT-32"/>
       <use xlink:href="#ArialMT-30" x="55.615234"/>
       <use xlink:href="#ArialMT-30" x="111.230469"/>
      </g>
     </g>
    </g>
   </g>
   <g id="patch_39">
    <path d="M 803.435294 833.04 
L 812.717788 833.04 
L 812.717788 486.54 
L 803.435294 486.54 
z
" clip-path="url(#pd47b7ff0f5)" style="fill: #ff0000; opacity: 0.1; stroke: #ffffff; stroke-linejoin: miter"/>
   </g>
   <g id="patch_40">
    <path d="M 812.717788 833.04 
L 945.7056 833.04 
L 945.7056 486.54 
L 812.717788 486.54 
z
" clip-path="url(#pd47b7ff0f5)" style="fill: #0000ff; opacity: 0.1; stroke: #ffffff; stroke-linejoin: miter"/>
   </g>
   <g id="patch_41">
    <path d="M 945.7056 833.04 
L 996.345741 833.04 
L 996.345741 486.54 
L 945.7056 486.54 
z
" clip-path="url(#pd47b7ff0f5)" style="fill: #008000; opacity: 0.1; stroke: #ffffff; stroke-linejoin: miter"/>
   </g>
   <g id="line2d_75">
    <path d="M 803.435294 659.79 
L 1262.964706 659.79 
" clip-path="url(#pd47b7ff0f5)" style="fill: none; stroke: #000000; stroke-linecap: round"/>
   </g>
   <g id="line2d_76">
    <path d="M 803.435294 503.865 
L 1262.964706 503.865 
" clip-path="url(#pd47b7ff0f5)" style="fill: none; stroke-dasharray: 3.7,1.6; stroke-dashoffset: 0; stroke: #000000"/>
   </g>
   <g id="line2d_77">
    <path d="M 803.435294 815.715 
L 1262.964706 815.715 
" clip-path="url(#pd47b7ff0f5)" style="fill: none; stroke-dasharray: 3.7,1.6; stroke-dashoffset: 0; stroke: #000000"/>
   </g>
   <g id="line2d_78">
    <path d="M 803.435294 659.79 
L 812.625882 659.79 
L 812.993506 814.185843 
L 815.934494 814.170217 
L 817.037365 814.169885 
L 817.772612 659.79 
L 827.330824 659.79 
L 827.698447 611.450911 
L 828.066071 505.424786 
L 836.521412 505.425887 
L 836.889035 553.823992 
L 837.256659 659.79 
L 866.298918 659.79 
L 866.666541 687.390891 
L 867.034165 814.156497 
L 875.489506 814.157341 
L 875.857129 786.448088 
L 876.224753 659.79 
L 887.621082 659.79 
L 888.356329 505.419785 
L 892.400188 505.379101 
L 892.767812 659.79 
L 907.105129 659.79 
L 907.472753 505.366828 
L 911.516612 505.420661 
L 912.251859 659.79 
L 922.912941 659.79 
L 923.280565 753.403357 
L 923.648188 814.157738 
L 932.103529 814.158676 
L 932.471153 720.252228 
L 932.838776 659.79 
L 940.558871 659.79 
L 941.294118 505.413671 
L 945.337976 505.377702 
L 945.337976 505.377702 
" clip-path="url(#pd47b7ff0f5)" style="fill: none; stroke: #377eb8; stroke-width: 7; stroke-linecap: round"/>
   </g>
   <g id="patch_42">
    <path d="M 803.435294 833.04 
L 803.435294 486.54 
" style="fill: none; stroke: #ffffff; stroke-width: 1.25; stroke-linejoin: miter; stroke-linecap: square"/>
   </g>
   <g id="patch_43">
    <path d="M 1262.964706 833.04 
L 1262.964706 486.54 
" style="fill: none; stroke: #ffffff; stroke-width: 1.25; stroke-linejoin: miter; stroke-linecap: square"/>
   </g>
   <g id="patch_44">
    <path d="M 803.435294 833.04 
L 1262.964706 833.04 
" style="fill: none; stroke: #ffffff; stroke-width: 1.25; stroke-linejoin: miter; stroke-linecap: square"/>
   </g>
   <g id="patch_45">
    <path d="M 803.435294 486.54 
L 1262.964706 486.54 
" style="fill: none; stroke: #ffffff; stroke-width: 1.25; stroke-linejoin: miter; stroke-linecap: square"/>
   </g>
   <g id="legend_5">
    <g id="patch_46">
     <path d="M 1232.714706 819.29 
L 1243.714706 819.29 
Q 1249.214706 819.29 1249.214706 813.79 
L 1249.214706 802.79 
Q 1249.214706 797.29 1243.714706 797.29 
L 1232.714706 797.29 
Q 1227.214706 797.29 1227.214706 802.79 
L 1227.214706 813.79 
Q 1227.214706 819.29 1232.714706 819.29 
z
" style="fill: #eaeaf2; opacity: 0.8; stroke: #cccccc; stroke-linejoin: miter"/>
    </g>
   </g>
  </g>
  <g id="axes_6">
   <g id="patch_47">
    <path d="M 1354.870588 833.04 
L 1814.4 833.04 
L 1814.4 486.54 
L 1354.870588 486.54 
z
" style="fill: #eaeaf2"/>
   </g>
   <g id="matplotlib.axis_11">
    <g id="xtick_31">
     <g id="line2d_79">
      <path d="M 1354.870588 833.04 
L 1354.870588 486.54 
" clip-path="url(#p8e0e64f3fc)" style="fill: none; stroke: #ffffff; stroke-linecap: round"/>
     </g>
     <g id="text_44">
      <!-- 0 -->
      <g style="fill: #262626" transform="translate(1347.224299 862.223984) scale(0.275 -0.275)">
       <use xlink:href="#ArialMT-30"/>
      </g>
     </g>
    </g>
    <g id="xtick_32">
     <g id="line2d_80">
      <path d="M 1446.776471 833.04 
L 1446.776471 486.54 
" clip-path="url(#p8e0e64f3fc)" style="fill: none; stroke: #ffffff; stroke-linecap: round"/>
     </g>
     <g id="text_45">
      <!-- 20 -->
      <g style="fill: #262626" transform="translate(1431.483892 862.223984) scale(0.275 -0.275)">
       <use xlink:href="#ArialMT-32"/>
       <use xlink:href="#ArialMT-30" x="55.615234"/>
      </g>
     </g>
    </g>
    <g id="xtick_33">
     <g id="line2d_81">
      <path d="M 1538.682353 833.04 
L 1538.682353 486.54 
" clip-path="url(#p8e0e64f3fc)" style="fill: none; stroke: #ffffff; stroke-linecap: round"/>
     </g>
     <g id="text_46">
      <!-- 40 -->
      <g style="fill: #262626" transform="translate(1523.389775 862.223984) scale(0.275 -0.275)">
       <use xlink:href="#ArialMT-34"/>
       <use xlink:href="#ArialMT-30" x="55.615234"/>
      </g>
     </g>
    </g>
    <g id="xtick_34">
     <g id="line2d_82">
      <path d="M 1630.588235 833.04 
L 1630.588235 486.54 
" clip-path="url(#p8e0e64f3fc)" style="fill: none; stroke: #ffffff; stroke-linecap: round"/>
     </g>
     <g id="text_47">
      <!-- 60 -->
      <g style="fill: #262626" transform="translate(1615.295657 862.223984) scale(0.275 -0.275)">
       <use xlink:href="#ArialMT-36"/>
       <use xlink:href="#ArialMT-30" x="55.615234"/>
      </g>
     </g>
    </g>
    <g id="xtick_35">
     <g id="line2d_83">
      <path d="M 1722.494118 833.04 
L 1722.494118 486.54 
" clip-path="url(#p8e0e64f3fc)" style="fill: none; stroke: #ffffff; stroke-linecap: round"/>
     </g>
     <g id="text_48">
      <!-- 80 -->
      <g style="fill: #262626" transform="translate(1707.20154 862.223984) scale(0.275 -0.275)">
       <use xlink:href="#ArialMT-38"/>
       <use xlink:href="#ArialMT-30" x="55.615234"/>
      </g>
     </g>
    </g>
    <g id="xtick_36">
     <g id="line2d_84">
      <path d="M 1814.4 833.04 
L 1814.4 486.54 
" clip-path="url(#p8e0e64f3fc)" style="fill: none; stroke: #ffffff; stroke-linecap: round"/>
     </g>
     <g id="text_49">
      <!-- 100 -->
      <g style="fill: #262626" transform="translate(1791.461133 862.223984) scale(0.275 -0.275)">
       <use xlink:href="#ArialMT-31"/>
       <use xlink:href="#ArialMT-30" x="55.615234"/>
       <use xlink:href="#ArialMT-30" x="111.230469"/>
      </g>
     </g>
    </g>
    <g id="text_50">
     <!-- Time [ms] -->
     <g style="fill: #262626" transform="translate(1519.371232 893.163047) scale(0.3 -0.3)">
      <use xlink:href="#ArialMT-54"/>
      <use xlink:href="#ArialMT-69" x="57.333984"/>
      <use xlink:href="#ArialMT-6d" x="79.550781"/>
      <use xlink:href="#ArialMT-65" x="162.851562"/>
      <use xlink:href="#ArialMT-20" x="218.466797"/>
      <use xlink:href="#ArialMT-5b" x="246.25"/>
      <use xlink:href="#ArialMT-6d" x="274.033203"/>
      <use xlink:href="#ArialMT-73" x="357.333984"/>
      <use xlink:href="#ArialMT-5d" x="407.333984"/>
     </g>
    </g>
   </g>
   <g id="matplotlib.axis_12">
    <g id="ytick_27">
     <g id="line2d_85">
      <path d="M 1354.870588 833.04 
L 1814.4 833.04 
" clip-path="url(#p8e0e64f3fc)" style="fill: none; stroke: #ffffff; stroke-linecap: round"/>
     </g>
     <g id="text_51">
      <!-- 0.0 -->
      <g style="fill: #262626" transform="translate(1307.145588 842.881992) scale(0.275 -0.275)">
       <use xlink:href="#ArialMT-30"/>
       <use xlink:href="#ArialMT-2e" x="55.615234"/>
       <use xlink:href="#ArialMT-30" x="83.398438"/>
      </g>
     </g>
    </g>
    <g id="ytick_28">
     <g id="line2d_86">
      <path d="M 1354.870588 770.04 
L 1814.4 770.04 
" clip-path="url(#p8e0e64f3fc)" style="fill: none; stroke: #ffffff; stroke-linecap: round"/>
     </g>
     <g id="text_52">
      <!-- 0.2 -->
      <g style="fill: #262626" transform="translate(1307.145588 779.881992) scale(0.275 -0.275)">
       <use xlink:href="#ArialMT-30"/>
       <use xlink:href="#ArialMT-2e" x="55.615234"/>
       <use xlink:href="#ArialMT-32" x="83.398438"/>
      </g>
     </g>
    </g>
    <g id="ytick_29">
     <g id="line2d_87">
      <path d="M 1354.870588 707.04 
L 1814.4 707.04 
" clip-path="url(#p8e0e64f3fc)" style="fill: none; stroke: #ffffff; stroke-linecap: round"/>
     </g>
     <g id="text_53">
      <!-- 0.4 -->
      <g style="fill: #262626" transform="translate(1307.145588 716.881992) scale(0.275 -0.275)">
       <use xlink:href="#ArialMT-30"/>
       <use xlink:href="#ArialMT-2e" x="55.615234"/>
       <use xlink:href="#ArialMT-34" x="83.398438"/>
      </g>
     </g>
    </g>
    <g id="ytick_30">
     <g id="line2d_88">
      <path d="M 1354.870588 644.04 
L 1814.4 644.04 
" clip-path="url(#p8e0e64f3fc)" style="fill: none; stroke: #ffffff; stroke-linecap: round"/>
     </g>
     <g id="text_54">
      <!-- 0.6 -->
      <g style="fill: #262626" transform="translate(1307.145588 653.881992) scale(0.275 -0.275)">
       <use xlink:href="#ArialMT-30"/>
       <use xlink:href="#ArialMT-2e" x="55.615234"/>
       <use xlink:href="#ArialMT-36" x="83.398438"/>
      </g>
     </g>
    </g>
    <g id="ytick_31">
     <g id="line2d_89">
      <path d="M 1354.870588 581.04 
L 1814.4 581.04 
" clip-path="url(#p8e0e64f3fc)" style="fill: none; stroke: #ffffff; stroke-linecap: round"/>
     </g>
     <g id="text_55">
      <!-- 0.8 -->
      <g style="fill: #262626" transform="translate(1307.145588 590.881992) scale(0.275 -0.275)">
       <use xlink:href="#ArialMT-30"/>
       <use xlink:href="#ArialMT-2e" x="55.615234"/>
       <use xlink:href="#ArialMT-38" x="83.398438"/>
      </g>
     </g>
    </g>
    <g id="ytick_32">
     <g id="line2d_90">
      <path d="M 1354.870588 518.04 
L 1814.4 518.04 
" clip-path="url(#p8e0e64f3fc)" style="fill: none; stroke: #ffffff; stroke-linecap: round"/>
     </g>
     <g id="text_56">
      <!-- 1.0 -->
      <g style="fill: #262626" transform="translate(1307.145588 527.881992) scale(0.275 -0.275)">
       <use xlink:href="#ArialMT-31"/>
       <use xlink:href="#ArialMT-2e" x="55.615234"/>
       <use xlink:href="#ArialMT-30" x="83.398438"/>
      </g>
     </g>
    </g>
   </g>
   <g id="patch_48">
    <path d="M 1354.870588 833.04 
L 1364.153082 833.04 
L 1364.153082 486.54 
L 1354.870588 486.54 
z
" clip-path="url(#p8e0e64f3fc)" style="fill: #ff0000; opacity: 0.1; stroke: #ffffff; stroke-linejoin: miter"/>
   </g>
   <g id="patch_49">
    <path d="M 1364.153082 833.04 
L 1497.140894 833.04 
L 1497.140894 486.54 
L 1364.153082 486.54 
z
" clip-path="url(#p8e0e64f3fc)" style="fill: #0000ff; opacity: 0.1; stroke: #ffffff; stroke-linejoin: miter"/>
   </g>
   <g id="patch_50">
    <path d="M 1497.140894 833.04 
L 1547.781035 833.04 
L 1547.781035 486.54 
L 1497.140894 486.54 
z
" clip-path="url(#p8e0e64f3fc)" style="fill: #008000; opacity: 0.1; stroke: #ffffff; stroke-linejoin: miter"/>
   </g>
   <g id="line2d_91">
    <path d="M 1354.870588 833.04 
L 1814.4 833.04 
" clip-path="url(#p8e0e64f3fc)" style="fill: none; stroke: #000000; stroke-linecap: round"/>
   </g>
   <g id="line2d_92">
    <path d="M 1354.870588 518.04 
L 1814.4 518.04 
" clip-path="url(#p8e0e64f3fc)" style="fill: none; stroke-dasharray: 3.7,1.6; stroke-dashoffset: 0; stroke: #000000"/>
   </g>
   <g id="line2d_93">
    <path d="M 1354.870588 833.04 
L 1364.061176 833.04 
L 1364.4288 584.009426 
L 1365.164047 308.04555 
L 1365.899294 158.780749 
L 1366.634541 65.32649 
L 1367.403729 -1 
M 1368.686629 -1 
L 1368.840282 44.322055 
L 1369.207906 234.966593 
L 1369.943153 446.881558 
L 1370.6784 559.352429 
L 1371.413647 627.492222 
L 1372.148894 672.3596 
L 1372.884141 703.662943 
L 1373.619388 726.458947 
L 1374.354635 743.6195 
L 1375.089882 756.885065 
L 1375.825129 767.365306 
L 1376.928 779.409704 
L 1378.030871 788.392257 
L 1378.766118 793.17201 
L 1379.133741 792.83552 
L 1379.501365 569.134566 
L 1380.236612 314.147844 
L 1380.971859 172.184122 
L 1381.707106 81.388213 
L 1382.442353 18.155006 
L 1382.724501 -1 
M 1388.491497 -1 
L 1388.691953 116.947445 
L 1389.4272 358.598765 
L 1390.162447 488.865408 
L 1390.897694 569.313483 
L 1391.632941 623.33138 
L 1392.368188 661.730876 
L 1393.103435 690.185333 
L 1393.838682 711.949587 
L 1394.573929 729.019192 
L 1395.6768 748.518671 
L 1396.779671 762.990397 
L 1397.882541 774.045746 
L 1398.985412 782.690702 
L 1400.088282 789.582545 
L 1401.191153 795.166869 
L 1402.294024 799.755148 
L 1403.396894 803.570799 
L 1404.867388 807.733423 
L 1406.337882 811.088596 
L 1407.808376 813.831324 
L 1409.278871 816.101094 
L 1410.749365 817.999863 
L 1412.587482 819.965468 
L 1414.4256 821.577989 
L 1416.263718 822.916342 
L 1417.734212 823.829214 
L 1418.101835 797.522879 
L 1418.469459 563.879925 
L 1419.204706 301.521181 
L 1419.939953 157.770214 
L 1420.6752 66.956822 
L 1421.490464 -1 
M 1427.516744 -1 
L 1427.660047 87.972564 
L 1428.395294 340.576816 
L 1429.130541 475.715256 
L 1429.865788 558.854806 
L 1430.601035 614.580378 
L 1431.336282 654.171201 
L 1432.071529 683.514789 
L 1432.806776 705.976021 
L 1433.542024 723.612179 
L 1434.644894 743.794332 
L 1435.747765 758.810198 
L 1436.850635 770.312806 
L 1437.953506 779.333531 
L 1439.056376 786.546221 
L 1439.424 753.417631 
L 1439.791624 545.781425 
L 1440.526871 305.09594 
L 1441.262118 169.008878 
L 1441.997365 81.097869 
L 1442.732612 19.431007 
L 1443.039724 -1 
M 1443.905241 -1 
L 1444.203106 187.31942 
L 1444.570729 334.566879 
L 1445.305976 507.32404 
L 1446.041224 602.879002 
L 1446.776471 661.961192 
L 1447.511718 701.250564 
L 1448.246965 728.762405 
L 1448.982212 748.787664 
L 1449.717459 763.810654 
L 1450.452706 775.358077 
L 1451.187953 784.413335 
L 1452.290824 794.705065 
L 1453.393694 802.260207 
L 1454.496565 807.948503 
L 1455.599435 812.321718 
L 1456.702306 815.743589 
L 1457.805176 818.461666 
L 1458.540424 819.970419 
L 1458.908047 571.57437 
L 1459.643294 296.849243 
L 1460.378541 148.661868 
L 1461.113788 56.149757 
L 1461.772452 -1 
M 1463.189558 -1 
L 1463.319529 37.465612 
L 1463.687153 228.390275 
L 1464.4224 440.840453 
L 1465.157647 553.80004 
L 1465.892894 622.382094 
L 1466.628141 667.6492 
L 1467.363388 699.314138 
L 1468.098635 722.437752 
L 1468.833882 739.895651 
L 1469.569129 753.431592 
L 1470.672 768.709177 
L 1471.774871 779.910034 
L 1472.877741 788.383933 
L 1473.980612 794.959892 
L 1474.348235 796.828221 
L 1474.715859 716.52657 
L 1475.083482 518.647346 
L 1475.818729 287.01389 
L 1476.553976 155.085269 
L 1477.289224 69.563212 
L 1478.185906 -1 
M 1483.957945 -1 
L 1484.274071 163.08746 
L 1485.009318 382.047103 
L 1485.744565 502.847618 
L 1486.479812 578.498336 
L 1487.215059 629.772866 
L 1487.950306 666.468492 
L 1488.685553 693.798964 
L 1489.4208 714.786794 
L 1490.156047 731.300107 
L 1491.258918 750.223229 
L 1491.994165 760.041815 
L 1492.361788 777.609921 
L 1492.729412 568.053507 
L 1493.464659 324.080711 
L 1494.199906 185.295526 
L 1494.935153 95.169256 
L 1495.6704 31.62532 
L 1496.160717 -1 
L 1496.160717 -1 
" clip-path="url(#p8e0e64f3fc)" style="fill: none; stroke: #377eb8; stroke-width: 7; stroke-linecap: round"/>
   </g>
   <g id="patch_51">
    <path d="M 1354.870588 833.04 
L 1354.870588 486.54 
" style="fill: none; stroke: #ffffff; stroke-width: 1.25; stroke-linejoin: miter; stroke-linecap: square"/>
   </g>
   <g id="patch_52">
    <path d="M 1814.4 833.04 
L 1814.4 486.54 
" style="fill: none; stroke: #ffffff; stroke-width: 1.25; stroke-linejoin: miter; stroke-linecap: square"/>
   </g>
   <g id="patch_53">
    <path d="M 1354.870588 833.04 
L 1814.4 833.04 
" style="fill: none; stroke: #ffffff; stroke-width: 1.25; stroke-linejoin: miter; stroke-linecap: square"/>
   </g>
   <g id="patch_54">
    <path d="M 1354.870588 486.54 
L 1814.4 486.54 
" style="fill: none; stroke: #ffffff; stroke-width: 1.25; stroke-linejoin: miter; stroke-linecap: square"/>
   </g>
   <g id="legend_6">
    <g id="patch_55">
     <path d="M 1632.28125 819.29 
L 1795.15 819.29 
Q 1800.65 819.29 1800.65 813.79 
L 1800.65 777.288047 
Q 1800.65 771.788047 1795.15 771.788047 
L 1632.28125 771.788047 
Q 1626.78125 771.788047 1626.78125 777.288047 
L 1626.78125 813.79 
Q 1626.78125 819.29 1632.28125 819.29 
z
" style="fill: #eaeaf2; opacity: 0.8; stroke: #cccccc; stroke-linejoin: miter"/>
    </g>
    <g id="line2d_94">
     <path d="M 1637.78125 793.199375 
L 1665.28125 793.199375 
L 1692.78125 793.199375 
" style="fill: none; stroke: #377eb8; stroke-width: 7; stroke-linecap: round"/>
    </g>
    <g id="text_57">
     <!-- GrOpt -->
     <g style="fill: #262626" transform="translate(1714.78125 802.824375) scale(0.275 -0.275)">
      <defs>
       <path id="ArialMT-47" d="M 2638 1797 
L 2638 2334 
L 4578 2338 
L 4578 638 
Q 4131 281 3656 101 
Q 3181 -78 2681 -78 
Q 2006 -78 1454 211 
Q 903 500 622 1047 
Q 341 1594 341 2269 
Q 341 2938 620 3517 
Q 900 4097 1425 4378 
Q 1950 4659 2634 4659 
Q 3131 4659 3532 4498 
Q 3934 4338 4162 4050 
Q 4391 3763 4509 3300 
L 3963 3150 
Q 3859 3500 3706 3700 
Q 3553 3900 3268 4020 
Q 2984 4141 2638 4141 
Q 2222 4141 1919 4014 
Q 1616 3888 1430 3681 
Q 1244 3475 1141 3228 
Q 966 2803 966 2306 
Q 966 1694 1177 1281 
Q 1388 869 1791 669 
Q 2194 469 2647 469 
Q 3041 469 3416 620 
Q 3791 772 3984 944 
L 3984 1797 
L 2638 1797 
z
" transform="scale(0.015625)"/>
       <path id="ArialMT-72" d="M 416 0 
L 416 3319 
L 922 3319 
L 922 2816 
Q 1116 3169 1280 3281 
Q 1444 3394 1641 3394 
Q 1925 3394 2219 3213 
L 2025 2691 
Q 1819 2813 1613 2813 
Q 1428 2813 1281 2702 
Q 1134 2591 1072 2394 
Q 978 2094 978 1738 
L 978 0 
L 416 0 
z
" transform="scale(0.015625)"/>
       <path id="ArialMT-4f" d="M 309 2231 
Q 309 3372 921 4017 
Q 1534 4663 2503 4663 
Q 3138 4663 3647 4359 
Q 4156 4056 4423 3514 
Q 4691 2972 4691 2284 
Q 4691 1588 4409 1038 
Q 4128 488 3612 205 
Q 3097 -78 2500 -78 
Q 1853 -78 1343 234 
Q 834 547 571 1087 
Q 309 1628 309 2231 
z
M 934 2222 
Q 934 1394 1379 917 
Q 1825 441 2497 441 
Q 3181 441 3623 922 
Q 4066 1403 4066 2288 
Q 4066 2847 3877 3264 
Q 3688 3681 3323 3911 
Q 2959 4141 2506 4141 
Q 1863 4141 1398 3698 
Q 934 3256 934 2222 
z
" transform="scale(0.015625)"/>
       <path id="ArialMT-70" d="M 422 -1272 
L 422 3319 
L 934 3319 
L 934 2888 
Q 1116 3141 1344 3267 
Q 1572 3394 1897 3394 
Q 2322 3394 2647 3175 
Q 2972 2956 3137 2557 
Q 3303 2159 3303 1684 
Q 3303 1175 3120 767 
Q 2938 359 2589 142 
Q 2241 -75 1856 -75 
Q 1575 -75 1351 44 
Q 1128 163 984 344 
L 984 -1272 
L 422 -1272 
z
M 931 1641 
Q 931 1000 1190 694 
Q 1450 388 1819 388 
Q 2194 388 2461 705 
Q 2728 1022 2728 1688 
Q 2728 2322 2467 2637 
Q 2206 2953 1844 2953 
Q 1484 2953 1207 2617 
Q 931 2281 931 1641 
z
" transform="scale(0.015625)"/>
       <path id="ArialMT-74" d="M 1650 503 
L 1731 6 
Q 1494 -44 1306 -44 
Q 1000 -44 831 53 
Q 663 150 594 308 
Q 525 466 525 972 
L 525 2881 
L 113 2881 
L 113 3319 
L 525 3319 
L 525 4141 
L 1084 4478 
L 1084 3319 
L 1650 3319 
L 1650 2881 
L 1084 2881 
L 1084 941 
Q 1084 700 1114 631 
Q 1144 563 1211 522 
Q 1278 481 1403 481 
Q 1497 481 1650 503 
z
" transform="scale(0.015625)"/>
      </defs>
      <use xlink:href="#ArialMT-47"/>
      <use xlink:href="#ArialMT-72" x="77.783203"/>
      <use xlink:href="#ArialMT-4f" x="111.083984"/>
      <use xlink:href="#ArialMT-70" x="188.867188"/>
      <use xlink:href="#ArialMT-74" x="244.482422"/>
     </g>
    </g>
   </g>
  </g>
 </g>
 <defs>
  <clipPath id="pae5e2751f8">
   <rect x="252" y="112.32" width="459.529412" height="346.5"/>
  </clipPath>
  <clipPath id="p6e09b2273a">
   <rect x="803.435294" y="112.32" width="459.529412" height="346.5"/>
  </clipPath>
  <clipPath id="pbd2d5a27f3">
   <rect x="1354.870588" y="112.32" width="459.529412" height="346.5"/>
  </clipPath>
  <clipPath id="pc68146c2e9">
   <rect x="252" y="486.54" width="459.529412" height="346.5"/>
  </clipPath>
  <clipPath id="pd47b7ff0f5">
   <rect x="803.435294" y="486.54" width="459.529412" height="346.5"/>
  </clipPath>
  <clipPath id="p8e0e64f3fc">
   <rect x="1354.870588" y="486.54" width="459.529412" height="346.5"/>
  </clipPath>
 </defs>
</svg>
