<?xml version="1.0" encoding="utf-8" standalone="no"?>
<!DOCTYPE svg PUBLIC "-//W3C//DTD SVG 1.1//EN"
  "http://www.w3.org/Graphics/SVG/1.1/DTD/svg11.dtd">
<svg xmlns:xlink="http://www.w3.org/1999/xlink" width="864pt" height="360pt" viewBox="0 0 864 360" xmlns="http://www.w3.org/2000/svg" version="1.1">
 <metadata>
  <rdf:RDF xmlns:dc="http://purl.org/dc/elements/1.1/" xmlns:cc="http://creativecommons.org/ns#" xmlns:rdf="http://www.w3.org/1999/02/22-rdf-syntax-ns#">
   <cc:Work>
    <dc:type rdf:resource="http://purl.org/dc/dcmitype/StillImage"/>
    <dc:date>2024-09-27T18:11:46.958746</dc:date>
    <dc:format>image/svg+xml</dc:format>
    <dc:creator>
     <cc:Agent>
      <dc:title>Matplotlib v3.9.0, https://matplotlib.org/</dc:title>
     </cc:Agent>
    </dc:creator>
   </cc:Work>
  </rdf:RDF>
 </metadata>
 <defs>
  <style type="text/css">*{stroke-linejoin: round; stroke-linecap: butt}</style>
 </defs>
 <g id="figure_1">
  <g id="patch_1">
   <path d="M 0 360 
L 864 360 
L 864 0 
L 0 0 
z
" style="fill: #ffffff"/>
  </g>
  <g id="axes_1">
   <g id="patch_2">
    <path d="M 71.658 299.124 
L 311.217786 299.124 
L 311.217786 40.0416 
L 71.658 40.0416 
z
" style="fill: #eaeaf2"/>
   </g>
   <g id="matplotlib.axis_1">
    <g id="xtick_1">
     <g id="line2d_1">
      <path d="M 82.547081 299.124 
L 82.547081 40.0416 
" clip-path="url(#p59d0fa2310)" style="fill: none; stroke: #ffffff; stroke-linecap: round"/>
     </g>
     <g id="text_1">
      <!-- 500 -->
      <g style="fill: #262626" transform="translate(72.537394 317.213375) scale(0.12 -0.12)">
       <defs>
        <path id="ArialMT-35" d="M 266 1200 
L 856 1250 
Q 922 819 1161 601 
Q 1400 384 1738 384 
Q 2144 384 2425 690 
Q 2706 997 2706 1503 
Q 2706 1984 2436 2262 
Q 2166 2541 1728 2541 
Q 1456 2541 1237 2417 
Q 1019 2294 894 2097 
L 366 2166 
L 809 4519 
L 3088 4519 
L 3088 3981 
L 1259 3981 
L 1013 2750 
Q 1425 3038 1878 3038 
Q 2478 3038 2890 2622 
Q 3303 2206 3303 1553 
Q 3303 931 2941 478 
Q 2500 -78 1738 -78 
Q 1113 -78 717 272 
Q 322 622 266 1200 
z
" transform="scale(0.015625)"/>
        <path id="ArialMT-30" d="M 266 2259 
Q 266 3072 433 3567 
Q 600 4063 929 4331 
Q 1259 4600 1759 4600 
Q 2128 4600 2406 4451 
Q 2684 4303 2865 4023 
Q 3047 3744 3150 3342 
Q 3253 2941 3253 2259 
Q 3253 1453 3087 958 
Q 2922 463 2592 192 
Q 2263 -78 1759 -78 
Q 1097 -78 719 397 
Q 266 969 266 2259 
z
M 844 2259 
Q 844 1131 1108 757 
Q 1372 384 1759 384 
Q 2147 384 2411 759 
Q 2675 1134 2675 2259 
Q 2675 3391 2411 3762 
Q 2147 4134 1753 4134 
Q 1366 4134 1134 3806 
Q 844 3388 844 2259 
z
" transform="scale(0.015625)"/>
       </defs>
       <use xlink:href="#ArialMT-35"/>
       <use xlink:href="#ArialMT-30" x="55.615234"/>
       <use xlink:href="#ArialMT-30" x="111.230469"/>
      </g>
     </g>
    </g>
    <g id="xtick_2">
     <g id="line2d_2">
      <path d="M 118.844018 299.124 
L 118.844018 40.0416 
" clip-path="url(#p59d0fa2310)" style="fill: none; stroke: #ffffff; stroke-linecap: round"/>
     </g>
     <g id="text_2">
      <!-- 750 -->
      <g style="fill: #262626" transform="translate(108.834331 317.213375) scale(0.12 -0.12)">
       <defs>
        <path id="ArialMT-37" d="M 303 3981 
L 303 4522 
L 3269 4522 
L 3269 4084 
Q 2831 3619 2401 2847 
Q 1972 2075 1738 1259 
Q 1569 684 1522 0 
L 944 0 
Q 953 541 1156 1306 
Q 1359 2072 1739 2783 
Q 2119 3494 2547 3981 
L 303 3981 
z
" transform="scale(0.015625)"/>
       </defs>
       <use xlink:href="#ArialMT-37"/>
       <use xlink:href="#ArialMT-35" x="55.615234"/>
       <use xlink:href="#ArialMT-30" x="111.230469"/>
      </g>
     </g>
    </g>
    <g id="xtick_3">
     <g id="line2d_3">
      <path d="M 155.140956 299.124 
L 155.140956 40.0416 
" clip-path="url(#p59d0fa2310)" style="fill: none; stroke: #ffffff; stroke-linecap: round"/>
     </g>
     <g id="text_3">
      <!-- 1000 -->
      <g style="fill: #262626" transform="translate(141.794706 317.213375) scale(0.12 -0.12)">
       <defs>
        <path id="ArialMT-31" d="M 2384 0 
L 1822 0 
L 1822 3584 
Q 1619 3391 1289 3197 
Q 959 3003 697 2906 
L 697 3450 
Q 1169 3672 1522 3987 
Q 1875 4303 2022 4600 
L 2384 4600 
L 2384 0 
z
" transform="scale(0.015625)"/>
       </defs>
       <use xlink:href="#ArialMT-31"/>
       <use xlink:href="#ArialMT-30" x="55.615234"/>
       <use xlink:href="#ArialMT-30" x="111.230469"/>
       <use xlink:href="#ArialMT-30" x="166.845703"/>
      </g>
     </g>
    </g>
    <g id="xtick_4">
     <g id="line2d_4">
      <path d="M 191.437893 299.124 
L 191.437893 40.0416 
" clip-path="url(#p59d0fa2310)" style="fill: none; stroke: #ffffff; stroke-linecap: round"/>
     </g>
     <g id="text_4">
      <!-- 1250 -->
      <g style="fill: #262626" transform="translate(178.091643 317.213375) scale(0.12 -0.12)">
       <defs>
        <path id="ArialMT-32" d="M 3222 541 
L 3222 0 
L 194 0 
Q 188 203 259 391 
Q 375 700 629 1000 
Q 884 1300 1366 1694 
Q 2113 2306 2375 2664 
Q 2638 3022 2638 3341 
Q 2638 3675 2398 3904 
Q 2159 4134 1775 4134 
Q 1369 4134 1125 3890 
Q 881 3647 878 3216 
L 300 3275 
Q 359 3922 746 4261 
Q 1134 4600 1788 4600 
Q 2447 4600 2831 4234 
Q 3216 3869 3216 3328 
Q 3216 3053 3103 2787 
Q 2991 2522 2730 2228 
Q 2469 1934 1863 1422 
Q 1356 997 1212 845 
Q 1069 694 975 541 
L 3222 541 
z
" transform="scale(0.015625)"/>
       </defs>
       <use xlink:href="#ArialMT-31"/>
       <use xlink:href="#ArialMT-32" x="55.615234"/>
       <use xlink:href="#ArialMT-35" x="111.230469"/>
       <use xlink:href="#ArialMT-30" x="166.845703"/>
      </g>
     </g>
    </g>
    <g id="xtick_5">
     <g id="line2d_5">
      <path d="M 227.73483 299.124 
L 227.73483 40.0416 
" clip-path="url(#p59d0fa2310)" style="fill: none; stroke: #ffffff; stroke-linecap: round"/>
     </g>
     <g id="text_5">
      <!-- 1500 -->
      <g style="fill: #262626" transform="translate(214.38858 317.213375) scale(0.12 -0.12)">
       <use xlink:href="#ArialMT-31"/>
       <use xlink:href="#ArialMT-35" x="55.615234"/>
       <use xlink:href="#ArialMT-30" x="111.230469"/>
       <use xlink:href="#ArialMT-30" x="166.845703"/>
      </g>
     </g>
    </g>
    <g id="xtick_6">
     <g id="line2d_6">
      <path d="M 264.031768 299.124 
L 264.031768 40.0416 
" clip-path="url(#p59d0fa2310)" style="fill: none; stroke: #ffffff; stroke-linecap: round"/>
     </g>
     <g id="text_6">
      <!-- 1750 -->
      <g style="fill: #262626" transform="translate(250.685518 317.213375) scale(0.12 -0.12)">
       <use xlink:href="#ArialMT-31"/>
       <use xlink:href="#ArialMT-37" x="55.615234"/>
       <use xlink:href="#ArialMT-35" x="111.230469"/>
       <use xlink:href="#ArialMT-30" x="166.845703"/>
      </g>
     </g>
    </g>
    <g id="xtick_7">
     <g id="line2d_7">
      <path d="M 300.328705 299.124 
L 300.328705 40.0416 
" clip-path="url(#p59d0fa2310)" style="fill: none; stroke: #ffffff; stroke-linecap: round"/>
     </g>
     <g id="text_7">
      <!-- 2000 -->
      <g style="fill: #262626" transform="translate(286.982455 317.213375) scale(0.12 -0.12)">
       <use xlink:href="#ArialMT-32"/>
       <use xlink:href="#ArialMT-30" x="55.615234"/>
       <use xlink:href="#ArialMT-30" x="111.230469"/>
       <use xlink:href="#ArialMT-30" x="166.845703"/>
      </g>
     </g>
    </g>
    <g id="text_8">
     <!-- b-value [s/mm$^2$] -->
     <g style="fill: #262626" transform="translate(138.637893 337.248375) scale(0.15 -0.15)">
      <defs>
       <path id="ArialMT-62" d="M 941 0 
L 419 0 
L 419 4581 
L 981 4581 
L 981 2947 
Q 1338 3394 1891 3394 
Q 2197 3394 2470 3270 
Q 2744 3147 2920 2923 
Q 3097 2700 3197 2384 
Q 3297 2069 3297 1709 
Q 3297 856 2875 390 
Q 2453 -75 1863 -75 
Q 1275 -75 941 416 
L 941 0 
z
M 934 1684 
Q 934 1088 1097 822 
Q 1363 388 1816 388 
Q 2184 388 2453 708 
Q 2722 1028 2722 1663 
Q 2722 2313 2464 2622 
Q 2206 2931 1841 2931 
Q 1472 2931 1203 2611 
Q 934 2291 934 1684 
z
" transform="scale(0.015625)"/>
       <path id="ArialMT-2d" d="M 203 1375 
L 203 1941 
L 1931 1941 
L 1931 1375 
L 203 1375 
z
" transform="scale(0.015625)"/>
       <path id="ArialMT-76" d="M 1344 0 
L 81 3319 
L 675 3319 
L 1388 1331 
Q 1503 1009 1600 663 
Q 1675 925 1809 1294 
L 2547 3319 
L 3125 3319 
L 1869 0 
L 1344 0 
z
" transform="scale(0.015625)"/>
       <path id="ArialMT-61" d="M 2588 409 
Q 2275 144 1986 34 
Q 1697 -75 1366 -75 
Q 819 -75 525 192 
Q 231 459 231 875 
Q 231 1119 342 1320 
Q 453 1522 633 1644 
Q 813 1766 1038 1828 
Q 1203 1872 1538 1913 
Q 2219 1994 2541 2106 
Q 2544 2222 2544 2253 
Q 2544 2597 2384 2738 
Q 2169 2928 1744 2928 
Q 1347 2928 1158 2789 
Q 969 2650 878 2297 
L 328 2372 
Q 403 2725 575 2942 
Q 747 3159 1072 3276 
Q 1397 3394 1825 3394 
Q 2250 3394 2515 3294 
Q 2781 3194 2906 3042 
Q 3031 2891 3081 2659 
Q 3109 2516 3109 2141 
L 3109 1391 
Q 3109 606 3145 398 
Q 3181 191 3288 0 
L 2700 0 
Q 2613 175 2588 409 
z
M 2541 1666 
Q 2234 1541 1622 1453 
Q 1275 1403 1131 1340 
Q 988 1278 909 1158 
Q 831 1038 831 891 
Q 831 666 1001 516 
Q 1172 366 1500 366 
Q 1825 366 2078 508 
Q 2331 650 2450 897 
Q 2541 1088 2541 1459 
L 2541 1666 
z
" transform="scale(0.015625)"/>
       <path id="ArialMT-6c" d="M 409 0 
L 409 4581 
L 972 4581 
L 972 0 
L 409 0 
z
" transform="scale(0.015625)"/>
       <path id="ArialMT-75" d="M 2597 0 
L 2597 488 
Q 2209 -75 1544 -75 
Q 1250 -75 995 37 
Q 741 150 617 320 
Q 494 491 444 738 
Q 409 903 409 1263 
L 409 3319 
L 972 3319 
L 972 1478 
Q 972 1038 1006 884 
Q 1059 663 1231 536 
Q 1403 409 1656 409 
Q 1909 409 2131 539 
Q 2353 669 2445 892 
Q 2538 1116 2538 1541 
L 2538 3319 
L 3100 3319 
L 3100 0 
L 2597 0 
z
" transform="scale(0.015625)"/>
       <path id="ArialMT-65" d="M 2694 1069 
L 3275 997 
Q 3138 488 2766 206 
Q 2394 -75 1816 -75 
Q 1088 -75 661 373 
Q 234 822 234 1631 
Q 234 2469 665 2931 
Q 1097 3394 1784 3394 
Q 2450 3394 2872 2941 
Q 3294 2488 3294 1666 
Q 3294 1616 3291 1516 
L 816 1516 
Q 847 969 1125 678 
Q 1403 388 1819 388 
Q 2128 388 2347 550 
Q 2566 713 2694 1069 
z
M 847 1978 
L 2700 1978 
Q 2663 2397 2488 2606 
Q 2219 2931 1791 2931 
Q 1403 2931 1139 2672 
Q 875 2413 847 1978 
z
" transform="scale(0.015625)"/>
       <path id="ArialMT-20" transform="scale(0.015625)"/>
       <path id="ArialMT-5b" d="M 434 -1272 
L 434 4581 
L 1675 4581 
L 1675 4116 
L 997 4116 
L 997 -806 
L 1675 -806 
L 1675 -1272 
L 434 -1272 
z
" transform="scale(0.015625)"/>
       <path id="ArialMT-73" d="M 197 991 
L 753 1078 
Q 800 744 1014 566 
Q 1228 388 1613 388 
Q 2000 388 2187 545 
Q 2375 703 2375 916 
Q 2375 1106 2209 1216 
Q 2094 1291 1634 1406 
Q 1016 1563 777 1677 
Q 538 1791 414 1992 
Q 291 2194 291 2438 
Q 291 2659 392 2848 
Q 494 3038 669 3163 
Q 800 3259 1026 3326 
Q 1253 3394 1513 3394 
Q 1903 3394 2198 3281 
Q 2494 3169 2634 2976 
Q 2775 2784 2828 2463 
L 2278 2388 
Q 2241 2644 2061 2787 
Q 1881 2931 1553 2931 
Q 1166 2931 1000 2803 
Q 834 2675 834 2503 
Q 834 2394 903 2306 
Q 972 2216 1119 2156 
Q 1203 2125 1616 2013 
Q 2213 1853 2448 1751 
Q 2684 1650 2818 1456 
Q 2953 1263 2953 975 
Q 2953 694 2789 445 
Q 2625 197 2315 61 
Q 2006 -75 1616 -75 
Q 969 -75 630 194 
Q 291 463 197 991 
z
" transform="scale(0.015625)"/>
       <path id="ArialMT-2f" d="M 0 -78 
L 1328 4659 
L 1778 4659 
L 453 -78 
L 0 -78 
z
" transform="scale(0.015625)"/>
       <path id="ArialMT-6d" d="M 422 0 
L 422 3319 
L 925 3319 
L 925 2853 
Q 1081 3097 1340 3245 
Q 1600 3394 1931 3394 
Q 2300 3394 2536 3241 
Q 2772 3088 2869 2813 
Q 3263 3394 3894 3394 
Q 4388 3394 4653 3120 
Q 4919 2847 4919 2278 
L 4919 0 
L 4359 0 
L 4359 2091 
Q 4359 2428 4304 2576 
Q 4250 2725 4106 2815 
Q 3963 2906 3769 2906 
Q 3419 2906 3187 2673 
Q 2956 2441 2956 1928 
L 2956 0 
L 2394 0 
L 2394 2156 
Q 2394 2531 2256 2718 
Q 2119 2906 1806 2906 
Q 1569 2906 1367 2781 
Q 1166 2656 1075 2415 
Q 984 2175 984 1722 
L 984 0 
L 422 0 
z
" transform="scale(0.015625)"/>
       <path id="DejaVuSans-32" d="M 1228 531 
L 3431 531 
L 3431 0 
L 469 0 
L 469 531 
Q 828 903 1448 1529 
Q 2069 2156 2228 2338 
Q 2531 2678 2651 2914 
Q 2772 3150 2772 3378 
Q 2772 3750 2511 3984 
Q 2250 4219 1831 4219 
Q 1534 4219 1204 4116 
Q 875 4013 500 3803 
L 500 4441 
Q 881 4594 1212 4672 
Q 1544 4750 1819 4750 
Q 2544 4750 2975 4387 
Q 3406 4025 3406 3419 
Q 3406 3131 3298 2873 
Q 3191 2616 2906 2266 
Q 2828 2175 2409 1742 
Q 1991 1309 1228 531 
z
" transform="scale(0.015625)"/>
       <path id="ArialMT-5d" d="M 1363 -1272 
L 122 -1272 
L 122 -806 
L 800 -806 
L 800 4116 
L 122 4116 
L 122 4581 
L 1363 4581 
L 1363 -1272 
z
" transform="scale(0.015625)"/>
      </defs>
      <use xlink:href="#ArialMT-62" transform="translate(0 0.765625)"/>
      <use xlink:href="#ArialMT-2d" transform="translate(55.615234 0.765625)"/>
      <use xlink:href="#ArialMT-76" transform="translate(88.916016 0.765625)"/>
      <use xlink:href="#ArialMT-61" transform="translate(138.916016 0.765625)"/>
      <use xlink:href="#ArialMT-6c" transform="translate(194.53125 0.765625)"/>
      <use xlink:href="#ArialMT-75" transform="translate(216.748047 0.765625)"/>
      <use xlink:href="#ArialMT-65" transform="translate(272.363281 0.765625)"/>
      <use xlink:href="#ArialMT-20" transform="translate(327.978516 0.765625)"/>
      <use xlink:href="#ArialMT-5b" transform="translate(355.761719 0.765625)"/>
      <use xlink:href="#ArialMT-73" transform="translate(383.544922 0.765625)"/>
      <use xlink:href="#ArialMT-2f" transform="translate(433.544922 0.765625)"/>
      <use xlink:href="#ArialMT-6d" transform="translate(461.328125 0.765625)"/>
      <use xlink:href="#ArialMT-6d" transform="translate(544.628906 0.765625)"/>
      <use xlink:href="#DejaVuSans-32" transform="translate(628.886719 39.046875) scale(0.7)"/>
      <use xlink:href="#ArialMT-5d" transform="translate(676.157227 0.765625)"/>
     </g>
    </g>
   </g>
   <g id="matplotlib.axis_2">
    <g id="ytick_1">
     <g id="line2d_8">
      <path d="M 71.658 299.124 
L 311.217786 299.124 
" clip-path="url(#p59d0fa2310)" style="fill: none; stroke: #ffffff; stroke-linecap: round"/>
     </g>
     <g id="text_9">
      <!-- 50 -->
      <g style="fill: #262626" transform="translate(45.475188 304.492359) scale(0.15 -0.15)">
       <use xlink:href="#ArialMT-35"/>
       <use xlink:href="#ArialMT-30" x="55.615234"/>
      </g>
     </g>
    </g>
    <g id="ytick_2">
     <g id="line2d_9">
      <path d="M 71.658 273.21576 
L 311.217786 273.21576 
" clip-path="url(#p59d0fa2310)" style="fill: none; stroke: #ffffff; stroke-linecap: round"/>
     </g>
     <g id="text_10">
      <!-- 60 -->
      <g style="fill: #262626" transform="translate(45.475188 278.584119) scale(0.15 -0.15)">
       <defs>
        <path id="ArialMT-36" d="M 3184 3459 
L 2625 3416 
Q 2550 3747 2413 3897 
Q 2184 4138 1850 4138 
Q 1581 4138 1378 3988 
Q 1113 3794 959 3422 
Q 806 3050 800 2363 
Q 1003 2672 1297 2822 
Q 1591 2972 1913 2972 
Q 2475 2972 2870 2558 
Q 3266 2144 3266 1488 
Q 3266 1056 3080 686 
Q 2894 316 2569 119 
Q 2244 -78 1831 -78 
Q 1128 -78 684 439 
Q 241 956 241 2144 
Q 241 3472 731 4075 
Q 1159 4600 1884 4600 
Q 2425 4600 2770 4297 
Q 3116 3994 3184 3459 
z
M 888 1484 
Q 888 1194 1011 928 
Q 1134 663 1356 523 
Q 1578 384 1822 384 
Q 2178 384 2434 671 
Q 2691 959 2691 1453 
Q 2691 1928 2437 2201 
Q 2184 2475 1800 2475 
Q 1419 2475 1153 2201 
Q 888 1928 888 1484 
z
" transform="scale(0.015625)"/>
       </defs>
       <use xlink:href="#ArialMT-36"/>
       <use xlink:href="#ArialMT-30" x="55.615234"/>
      </g>
     </g>
    </g>
    <g id="ytick_3">
     <g id="line2d_10">
      <path d="M 71.658 247.30752 
L 311.217786 247.30752 
" clip-path="url(#p59d0fa2310)" style="fill: none; stroke: #ffffff; stroke-linecap: round"/>
     </g>
     <g id="text_11">
      <!-- 70 -->
      <g style="fill: #262626" transform="translate(45.475188 252.675879) scale(0.15 -0.15)">
       <use xlink:href="#ArialMT-37"/>
       <use xlink:href="#ArialMT-30" x="55.615234"/>
      </g>
     </g>
    </g>
    <g id="ytick_4">
     <g id="line2d_11">
      <path d="M 71.658 221.39928 
L 311.217786 221.39928 
" clip-path="url(#p59d0fa2310)" style="fill: none; stroke: #ffffff; stroke-linecap: round"/>
     </g>
     <g id="text_12">
      <!-- 80 -->
      <g style="fill: #262626" transform="translate(45.475188 226.767639) scale(0.15 -0.15)">
       <defs>
        <path id="ArialMT-38" d="M 1131 2484 
Q 781 2613 612 2850 
Q 444 3088 444 3419 
Q 444 3919 803 4259 
Q 1163 4600 1759 4600 
Q 2359 4600 2725 4251 
Q 3091 3903 3091 3403 
Q 3091 3084 2923 2848 
Q 2756 2613 2416 2484 
Q 2838 2347 3058 2040 
Q 3278 1734 3278 1309 
Q 3278 722 2862 322 
Q 2447 -78 1769 -78 
Q 1091 -78 675 323 
Q 259 725 259 1325 
Q 259 1772 486 2073 
Q 713 2375 1131 2484 
z
M 1019 3438 
Q 1019 3113 1228 2906 
Q 1438 2700 1772 2700 
Q 2097 2700 2305 2904 
Q 2513 3109 2513 3406 
Q 2513 3716 2298 3927 
Q 2084 4138 1766 4138 
Q 1444 4138 1231 3931 
Q 1019 3725 1019 3438 
z
M 838 1322 
Q 838 1081 952 856 
Q 1066 631 1291 507 
Q 1516 384 1775 384 
Q 2178 384 2440 643 
Q 2703 903 2703 1303 
Q 2703 1709 2433 1975 
Q 2163 2241 1756 2241 
Q 1359 2241 1098 1978 
Q 838 1716 838 1322 
z
" transform="scale(0.015625)"/>
       </defs>
       <use xlink:href="#ArialMT-38"/>
       <use xlink:href="#ArialMT-30" x="55.615234"/>
      </g>
     </g>
    </g>
    <g id="ytick_5">
     <g id="line2d_12">
      <path d="M 71.658 195.49104 
L 311.217786 195.49104 
" clip-path="url(#p59d0fa2310)" style="fill: none; stroke: #ffffff; stroke-linecap: round"/>
     </g>
     <g id="text_13">
      <!-- 90 -->
      <g style="fill: #262626" transform="translate(45.475188 200.859399) scale(0.15 -0.15)">
       <defs>
        <path id="ArialMT-39" d="M 350 1059 
L 891 1109 
Q 959 728 1153 556 
Q 1347 384 1650 384 
Q 1909 384 2104 503 
Q 2300 622 2425 820 
Q 2550 1019 2634 1356 
Q 2719 1694 2719 2044 
Q 2719 2081 2716 2156 
Q 2547 1888 2255 1720 
Q 1963 1553 1622 1553 
Q 1053 1553 659 1965 
Q 266 2378 266 3053 
Q 266 3750 677 4175 
Q 1088 4600 1706 4600 
Q 2153 4600 2523 4359 
Q 2894 4119 3086 3673 
Q 3278 3228 3278 2384 
Q 3278 1506 3087 986 
Q 2897 466 2520 194 
Q 2144 -78 1638 -78 
Q 1100 -78 759 220 
Q 419 519 350 1059 
z
M 2653 3081 
Q 2653 3566 2395 3850 
Q 2138 4134 1775 4134 
Q 1400 4134 1122 3828 
Q 844 3522 844 3034 
Q 844 2597 1108 2323 
Q 1372 2050 1759 2050 
Q 2150 2050 2401 2323 
Q 2653 2597 2653 3081 
z
" transform="scale(0.015625)"/>
       </defs>
       <use xlink:href="#ArialMT-39"/>
       <use xlink:href="#ArialMT-30" x="55.615234"/>
      </g>
     </g>
    </g>
    <g id="ytick_6">
     <g id="line2d_13">
      <path d="M 71.658 169.5828 
L 311.217786 169.5828 
" clip-path="url(#p59d0fa2310)" style="fill: none; stroke: #ffffff; stroke-linecap: round"/>
     </g>
     <g id="text_14">
      <!-- 100 -->
      <g style="fill: #262626" transform="translate(37.133781 174.951159) scale(0.15 -0.15)">
       <use xlink:href="#ArialMT-31"/>
       <use xlink:href="#ArialMT-30" x="55.615234"/>
       <use xlink:href="#ArialMT-30" x="111.230469"/>
      </g>
     </g>
    </g>
    <g id="ytick_7">
     <g id="line2d_14">
      <path d="M 71.658 143.67456 
L 311.217786 143.67456 
" clip-path="url(#p59d0fa2310)" style="fill: none; stroke: #ffffff; stroke-linecap: round"/>
     </g>
     <g id="text_15">
      <!-- 110 -->
      <g style="fill: #262626" transform="translate(38.240031 149.042919) scale(0.15 -0.15)">
       <use xlink:href="#ArialMT-31"/>
       <use xlink:href="#ArialMT-31" x="48.240234"/>
       <use xlink:href="#ArialMT-30" x="103.855469"/>
      </g>
     </g>
    </g>
    <g id="ytick_8">
     <g id="line2d_15">
      <path d="M 71.658 117.76632 
L 311.217786 117.76632 
" clip-path="url(#p59d0fa2310)" style="fill: none; stroke: #ffffff; stroke-linecap: round"/>
     </g>
     <g id="text_16">
      <!-- 120 -->
      <g style="fill: #262626" transform="translate(37.133781 123.134679) scale(0.15 -0.15)">
       <use xlink:href="#ArialMT-31"/>
       <use xlink:href="#ArialMT-32" x="55.615234"/>
       <use xlink:href="#ArialMT-30" x="111.230469"/>
      </g>
     </g>
    </g>
    <g id="ytick_9">
     <g id="line2d_16">
      <path d="M 71.658 91.85808 
L 311.217786 91.85808 
" clip-path="url(#p59d0fa2310)" style="fill: none; stroke: #ffffff; stroke-linecap: round"/>
     </g>
     <g id="text_17">
      <!-- 130 -->
      <g style="fill: #262626" transform="translate(37.133781 97.226439) scale(0.15 -0.15)">
       <defs>
        <path id="ArialMT-33" d="M 269 1209 
L 831 1284 
Q 928 806 1161 595 
Q 1394 384 1728 384 
Q 2125 384 2398 659 
Q 2672 934 2672 1341 
Q 2672 1728 2419 1979 
Q 2166 2231 1775 2231 
Q 1616 2231 1378 2169 
L 1441 2663 
Q 1497 2656 1531 2656 
Q 1891 2656 2178 2843 
Q 2466 3031 2466 3422 
Q 2466 3731 2256 3934 
Q 2047 4138 1716 4138 
Q 1388 4138 1169 3931 
Q 950 3725 888 3313 
L 325 3413 
Q 428 3978 793 4289 
Q 1159 4600 1703 4600 
Q 2078 4600 2393 4439 
Q 2709 4278 2876 4000 
Q 3044 3722 3044 3409 
Q 3044 3113 2884 2869 
Q 2725 2625 2413 2481 
Q 2819 2388 3044 2092 
Q 3269 1797 3269 1353 
Q 3269 753 2831 336 
Q 2394 -81 1725 -81 
Q 1122 -81 723 278 
Q 325 638 269 1209 
z
" transform="scale(0.015625)"/>
       </defs>
       <use xlink:href="#ArialMT-31"/>
       <use xlink:href="#ArialMT-33" x="55.615234"/>
       <use xlink:href="#ArialMT-30" x="111.230469"/>
      </g>
     </g>
    </g>
    <g id="ytick_10">
     <g id="line2d_17">
      <path d="M 71.658 65.94984 
L 311.217786 65.94984 
" clip-path="url(#p59d0fa2310)" style="fill: none; stroke: #ffffff; stroke-linecap: round"/>
     </g>
     <g id="text_18">
      <!-- 140 -->
      <g style="fill: #262626" transform="translate(37.133781 71.318199) scale(0.15 -0.15)">
       <defs>
        <path id="ArialMT-34" d="M 2069 0 
L 2069 1097 
L 81 1097 
L 81 1613 
L 2172 4581 
L 2631 4581 
L 2631 1613 
L 3250 1613 
L 3250 1097 
L 2631 1097 
L 2631 0 
L 2069 0 
z
M 2069 1613 
L 2069 3678 
L 634 1613 
L 2069 1613 
z
" transform="scale(0.015625)"/>
       </defs>
       <use xlink:href="#ArialMT-31"/>
       <use xlink:href="#ArialMT-34" x="55.615234"/>
       <use xlink:href="#ArialMT-30" x="111.230469"/>
      </g>
     </g>
    </g>
    <g id="ytick_11">
     <g id="line2d_18">
      <path d="M 71.658 40.0416 
L 311.217786 40.0416 
" clip-path="url(#p59d0fa2310)" style="fill: none; stroke: #ffffff; stroke-linecap: round"/>
     </g>
     <g id="text_19">
      <!-- 150 -->
      <g style="fill: #262626" transform="translate(37.133781 45.409959) scale(0.15 -0.15)">
       <use xlink:href="#ArialMT-31"/>
       <use xlink:href="#ArialMT-35" x="55.615234"/>
       <use xlink:href="#ArialMT-30" x="111.230469"/>
      </g>
     </g>
    </g>
    <g id="text_20">
     <!-- TE [ms] -->
     <g style="fill: #262626" transform="translate(30.152531 195.414441) rotate(-90) scale(0.15 -0.15)">
      <defs>
       <path id="ArialMT-54" d="M 1659 0 
L 1659 4041 
L 150 4041 
L 150 4581 
L 3781 4581 
L 3781 4041 
L 2266 4041 
L 2266 0 
L 1659 0 
z
" transform="scale(0.015625)"/>
       <path id="ArialMT-45" d="M 506 0 
L 506 4581 
L 3819 4581 
L 3819 4041 
L 1113 4041 
L 1113 2638 
L 3647 2638 
L 3647 2100 
L 1113 2100 
L 1113 541 
L 3925 541 
L 3925 0 
L 506 0 
z
" transform="scale(0.015625)"/>
      </defs>
      <use xlink:href="#ArialMT-54"/>
      <use xlink:href="#ArialMT-45" x="61.083984"/>
      <use xlink:href="#ArialMT-20" x="127.783203"/>
      <use xlink:href="#ArialMT-5b" x="155.566406"/>
      <use xlink:href="#ArialMT-6d" x="183.349609"/>
      <use xlink:href="#ArialMT-73" x="266.650391"/>
      <use xlink:href="#ArialMT-5d" x="316.650391"/>
     </g>
    </g>
   </g>
   <g id="line2d_19">
    <path d="M 82.547081 251.178952 
L 118.844018 239.572061 
L 155.140956 229.623296 
L 191.437893 221.33266 
L 227.73483 213.871086 
L 264.031768 207.238577 
L 300.328705 201.020599 
" clip-path="url(#p59d0fa2310)" style="fill: none; stroke: #e41a1c; stroke-width: 1.5; stroke-linecap: round"/>
    <defs>
     <path id="m43457a95d0" d="M 0 3 
C 0.795609 3 1.55874 2.683901 2.12132 2.12132 
C 2.683901 1.55874 3 0.795609 3 0 
C 3 -0.795609 2.683901 -1.55874 2.12132 -2.12132 
C 1.55874 -2.683901 0.795609 -3 0 -3 
C -0.795609 -3 -1.55874 -2.683901 -2.12132 -2.12132 
C -2.683901 -1.55874 -3 -0.795609 -3 0 
C -3 0.795609 -2.683901 1.55874 -2.12132 2.12132 
C -1.55874 2.683901 -0.795609 3 0 3 
z
" style="stroke: #e41a1c"/>
    </defs>
    <g clip-path="url(#p59d0fa2310)">
     <use xlink:href="#m43457a95d0" x="82.547081" y="251.178952" style="fill: #e41a1c; stroke: #e41a1c"/>
     <use xlink:href="#m43457a95d0" x="118.844018" y="239.572061" style="fill: #e41a1c; stroke: #e41a1c"/>
     <use xlink:href="#m43457a95d0" x="155.140956" y="229.623296" style="fill: #e41a1c; stroke: #e41a1c"/>
     <use xlink:href="#m43457a95d0" x="191.437893" y="221.33266" style="fill: #e41a1c; stroke: #e41a1c"/>
     <use xlink:href="#m43457a95d0" x="227.73483" y="213.871086" style="fill: #e41a1c; stroke: #e41a1c"/>
     <use xlink:href="#m43457a95d0" x="264.031768" y="207.238577" style="fill: #e41a1c; stroke: #e41a1c"/>
     <use xlink:href="#m43457a95d0" x="300.328705" y="201.020599" style="fill: #e41a1c; stroke: #e41a1c"/>
    </g>
   </g>
   <g id="line2d_20">
    <path d="M 82.547081 158.291517 
L 118.844018 135.906798 
L 155.140956 118.496461 
L 191.437893 103.573315 
L 227.73483 90.308296 
L 264.031768 78.701404 
L 300.328705 67.923576 
" clip-path="url(#p59d0fa2310)" style="fill: none; stroke: #377eb8; stroke-width: 1.5; stroke-linecap: round"/>
    <defs>
     <path id="m262c1a7efc" d="M -3 3 
L 3 3 
L 3 -3 
L -3 -3 
z
" style="stroke: #377eb8; stroke-linejoin: miter"/>
    </defs>
    <g clip-path="url(#p59d0fa2310)">
     <use xlink:href="#m262c1a7efc" x="82.547081" y="158.291517" style="fill: #377eb8; stroke: #377eb8; stroke-linejoin: miter"/>
     <use xlink:href="#m262c1a7efc" x="118.844018" y="135.906798" style="fill: #377eb8; stroke: #377eb8; stroke-linejoin: miter"/>
     <use xlink:href="#m262c1a7efc" x="155.140956" y="118.496461" style="fill: #377eb8; stroke: #377eb8; stroke-linejoin: miter"/>
     <use xlink:href="#m262c1a7efc" x="191.437893" y="103.573315" style="fill: #377eb8; stroke: #377eb8; stroke-linejoin: miter"/>
     <use xlink:href="#m262c1a7efc" x="227.73483" y="90.308296" style="fill: #377eb8; stroke: #377eb8; stroke-linejoin: miter"/>
     <use xlink:href="#m262c1a7efc" x="264.031768" y="78.701404" style="fill: #377eb8; stroke: #377eb8; stroke-linejoin: miter"/>
     <use xlink:href="#m262c1a7efc" x="300.328705" y="67.923576" style="fill: #377eb8; stroke: #377eb8; stroke-linejoin: miter"/>
    </g>
   </g>
   <g id="line2d_21">
    <path d="M 82.547081 204.494723 
L 118.844018 181.451507 
L 155.140956 163.254067 
L 191.437893 147.891924 
L 227.73483 134.643362 
L 264.031768 122.632022 
L 300.328705 111.857899 
" clip-path="url(#p59d0fa2310)" style="fill: none; stroke: #4daf4a; stroke-width: 1.5; stroke-linecap: round"/>
    <defs>
     <path id="mfde9bb2529" d="M 0 -3 
L -3 3 
L 3 3 
z
" style="stroke: #4daf4a; stroke-linejoin: miter"/>
    </defs>
    <g clip-path="url(#p59d0fa2310)">
     <use xlink:href="#mfde9bb2529" x="82.547081" y="204.494723" style="fill: #4daf4a; stroke: #4daf4a; stroke-linejoin: miter"/>
     <use xlink:href="#mfde9bb2529" x="118.844018" y="181.451507" style="fill: #4daf4a; stroke: #4daf4a; stroke-linejoin: miter"/>
     <use xlink:href="#mfde9bb2529" x="155.140956" y="163.254067" style="fill: #4daf4a; stroke: #4daf4a; stroke-linejoin: miter"/>
     <use xlink:href="#mfde9bb2529" x="191.437893" y="147.891924" style="fill: #4daf4a; stroke: #4daf4a; stroke-linejoin: miter"/>
     <use xlink:href="#mfde9bb2529" x="227.73483" y="134.643362" style="fill: #4daf4a; stroke: #4daf4a; stroke-linejoin: miter"/>
     <use xlink:href="#mfde9bb2529" x="264.031768" y="122.632022" style="fill: #4daf4a; stroke: #4daf4a; stroke-linejoin: miter"/>
     <use xlink:href="#mfde9bb2529" x="300.328705" y="111.857899" style="fill: #4daf4a; stroke: #4daf4a; stroke-linejoin: miter"/>
    </g>
   </g>
   <g id="patch_3">
    <path d="M 71.658 299.124 
L 71.658 40.0416 
" style="fill: none; stroke: #ffffff; stroke-width: 1.25; stroke-linejoin: miter; stroke-linecap: square"/>
   </g>
   <g id="patch_4">
    <path d="M 311.217786 299.124 
L 311.217786 40.0416 
" style="fill: none; stroke: #ffffff; stroke-width: 1.25; stroke-linejoin: miter; stroke-linecap: square"/>
   </g>
   <g id="patch_5">
    <path d="M 71.658 299.124 
L 311.217786 299.124 
" style="fill: none; stroke: #ffffff; stroke-width: 1.25; stroke-linejoin: miter; stroke-linecap: square"/>
   </g>
   <g id="patch_6">
    <path d="M 71.658 40.0416 
L 311.217786 40.0416 
" style="fill: none; stroke: #ffffff; stroke-width: 1.25; stroke-linejoin: miter; stroke-linecap: square"/>
   </g>
   <g id="text_21">
    <!-- G$_{max}$ = 40 mT/m -->
    <g style="fill: #262626" transform="translate(117.137893 34.0416) scale(0.2 -0.2)">
     <defs>
      <path id="ArialMT-47" d="M 2638 1797 
L 2638 2334 
L 4578 2338 
L 4578 638 
Q 4131 281 3656 101 
Q 3181 -78 2681 -78 
Q 2006 -78 1454 211 
Q 903 500 622 1047 
Q 341 1594 341 2269 
Q 341 2938 620 3517 
Q 900 4097 1425 4378 
Q 1950 4659 2634 4659 
Q 3131 4659 3532 4498 
Q 3934 4338 4162 4050 
Q 4391 3763 4509 3300 
L 3963 3150 
Q 3859 3500 3706 3700 
Q 3553 3900 3268 4020 
Q 2984 4141 2638 4141 
Q 2222 4141 1919 4014 
Q 1616 3888 1430 3681 
Q 1244 3475 1141 3228 
Q 966 2803 966 2306 
Q 966 1694 1177 1281 
Q 1388 869 1791 669 
Q 2194 469 2647 469 
Q 3041 469 3416 620 
Q 3791 772 3984 944 
L 3984 1797 
L 2638 1797 
z
" transform="scale(0.015625)"/>
      <path id="DejaVuSans-Oblique-6d" d="M 5747 2113 
L 5338 0 
L 4763 0 
L 5166 2094 
Q 5191 2228 5203 2325 
Q 5216 2422 5216 2491 
Q 5216 2772 5059 2928 
Q 4903 3084 4622 3084 
Q 4203 3084 3875 2770 
Q 3547 2456 3450 1953 
L 3066 0 
L 2491 0 
L 2900 2094 
Q 2925 2209 2937 2307 
Q 2950 2406 2950 2484 
Q 2950 2769 2794 2926 
Q 2638 3084 2363 3084 
Q 1938 3084 1609 2770 
Q 1281 2456 1184 1953 
L 800 0 
L 225 0 
L 909 3500 
L 1484 3500 
L 1375 2956 
Q 1609 3263 1923 3423 
Q 2238 3584 2597 3584 
Q 2978 3584 3223 3384 
Q 3469 3184 3519 2828 
Q 3781 3197 4126 3390 
Q 4472 3584 4856 3584 
Q 5306 3584 5551 3325 
Q 5797 3066 5797 2591 
Q 5797 2488 5784 2364 
Q 5772 2241 5747 2113 
z
" transform="scale(0.015625)"/>
      <path id="DejaVuSans-Oblique-61" d="M 3438 1997 
L 3047 0 
L 2472 0 
L 2578 531 
Q 2325 219 2001 64 
Q 1678 -91 1281 -91 
Q 834 -91 548 182 
Q 263 456 263 884 
Q 263 1497 752 1853 
Q 1241 2209 2100 2209 
L 2900 2209 
L 2931 2363 
Q 2938 2388 2941 2417 
Q 2944 2447 2944 2509 
Q 2944 2788 2717 2942 
Q 2491 3097 2081 3097 
Q 1800 3097 1504 3025 
Q 1209 2953 897 2809 
L 997 3341 
Q 1322 3463 1633 3523 
Q 1944 3584 2234 3584 
Q 2853 3584 3176 3315 
Q 3500 3047 3500 2534 
Q 3500 2431 3484 2292 
Q 3469 2153 3438 1997 
z
M 2816 1759 
L 2241 1759 
Q 1534 1759 1195 1570 
Q 856 1381 856 984 
Q 856 709 1029 553 
Q 1203 397 1509 397 
Q 1978 397 2328 733 
Q 2678 1069 2791 1631 
L 2816 1759 
z
" transform="scale(0.015625)"/>
      <path id="DejaVuSans-Oblique-78" d="M 3841 3500 
L 2234 1784 
L 3219 0 
L 2559 0 
L 1819 1388 
L 531 0 
L -166 0 
L 1556 1844 
L 641 3500 
L 1300 3500 
L 1972 2234 
L 3144 3500 
L 3841 3500 
z
" transform="scale(0.015625)"/>
      <path id="ArialMT-3d" d="M 3381 2694 
L 356 2694 
L 356 3219 
L 3381 3219 
L 3381 2694 
z
M 3381 1303 
L 356 1303 
L 356 1828 
L 3381 1828 
L 3381 1303 
z
" transform="scale(0.015625)"/>
     </defs>
     <use xlink:href="#ArialMT-47" transform="translate(0 0.203125)"/>
     <use xlink:href="#DejaVuSans-Oblique-6d" transform="translate(78.740234 -16.203125) scale(0.7)"/>
     <use xlink:href="#DejaVuSans-Oblique-61" transform="translate(146.928711 -16.203125) scale(0.7)"/>
     <use xlink:href="#DejaVuSans-Oblique-78" transform="translate(189.824219 -16.203125) scale(0.7)"/>
     <use xlink:href="#ArialMT-20" transform="translate(233.984375 0.203125)"/>
     <use xlink:href="#ArialMT-3d" transform="translate(261.767578 0.203125)"/>
     <use xlink:href="#ArialMT-20" transform="translate(320.166016 0.203125)"/>
     <use xlink:href="#ArialMT-34" transform="translate(347.949219 0.203125)"/>
     <use xlink:href="#ArialMT-30" transform="translate(403.564453 0.203125)"/>
     <use xlink:href="#ArialMT-20" transform="translate(459.179688 0.203125)"/>
     <use xlink:href="#ArialMT-6d" transform="translate(486.962891 0.203125)"/>
     <use xlink:href="#ArialMT-54" transform="translate(570.263672 0.203125)"/>
     <use xlink:href="#ArialMT-2f" transform="translate(631.347656 0.203125)"/>
     <use xlink:href="#ArialMT-6d" transform="translate(659.130859 0.203125)"/>
    </g>
   </g>
   <g id="legend_1">
    <g id="patch_7">
     <path d="M 79.358 95.521131 
L 187.292063 95.521131 
Q 189.492063 95.521131 189.492063 93.321131 
L 189.492063 47.7416 
Q 189.492063 45.5416 187.292063 45.5416 
L 79.358 45.5416 
Q 77.158 45.5416 77.158 47.7416 
L 77.158 93.321131 
Q 77.158 95.521131 79.358 95.521131 
z
" style="fill: #eaeaf2; opacity: 0.8; stroke: #cccccc; stroke-linejoin: miter"/>
    </g>
    <g id="line2d_22">
     <path d="M 81.558 53.965194 
L 92.558 53.965194 
L 103.558 53.965194 
" style="fill: none; stroke: #e41a1c; stroke-width: 1.5; stroke-linecap: round"/>
     <g>
      <use xlink:href="#m43457a95d0" x="92.558" y="53.965194" style="fill: #e41a1c; stroke: #e41a1c"/>
     </g>
    </g>
    <g id="text_22">
     <!-- M0 -->
     <g style="fill: #262626" transform="translate(112.358 57.815194) scale(0.11 -0.11)">
      <defs>
       <path id="ArialMT-4d" d="M 475 0 
L 475 4581 
L 1388 4581 
L 2472 1338 
Q 2622 884 2691 659 
Q 2769 909 2934 1394 
L 4031 4581 
L 4847 4581 
L 4847 0 
L 4263 0 
L 4263 3834 
L 2931 0 
L 2384 0 
L 1059 3900 
L 1059 0 
L 475 0 
z
" transform="scale(0.015625)"/>
      </defs>
      <use xlink:href="#ArialMT-4d"/>
      <use xlink:href="#ArialMT-30" x="83.300781"/>
     </g>
    </g>
    <g id="line2d_23">
     <path d="M 81.558 69.525038 
L 92.558 69.525038 
L 103.558 69.525038 
" style="fill: none; stroke: #377eb8; stroke-width: 1.5; stroke-linecap: round"/>
     <g>
      <use xlink:href="#m262c1a7efc" x="92.558" y="69.525038" style="fill: #377eb8; stroke: #377eb8; stroke-linejoin: miter"/>
     </g>
    </g>
    <g id="text_23">
     <!-- M1 -->
     <g style="fill: #262626" transform="translate(112.358 73.375038) scale(0.11 -0.11)">
      <use xlink:href="#ArialMT-4d"/>
      <use xlink:href="#ArialMT-31" x="83.300781"/>
     </g>
    </g>
    <g id="line2d_24">
     <path d="M 81.558 85.084881 
L 92.558 85.084881 
L 103.558 85.084881 
" style="fill: none; stroke: #4daf4a; stroke-width: 1.5; stroke-linecap: round"/>
     <g>
      <use xlink:href="#mfde9bb2529" x="92.558" y="85.084881" style="fill: #4daf4a; stroke: #4daf4a; stroke-linejoin: miter"/>
     </g>
    </g>
    <g id="text_24">
     <!-- M1 with CODE -->
     <g style="fill: #262626" transform="translate(112.358 88.934881) scale(0.11 -0.11)">
      <defs>
       <path id="ArialMT-77" d="M 1034 0 
L 19 3319 
L 600 3319 
L 1128 1403 
L 1325 691 
Q 1338 744 1497 1375 
L 2025 3319 
L 2603 3319 
L 3100 1394 
L 3266 759 
L 3456 1400 
L 4025 3319 
L 4572 3319 
L 3534 0 
L 2950 0 
L 2422 1988 
L 2294 2553 
L 1622 0 
L 1034 0 
z
" transform="scale(0.015625)"/>
       <path id="ArialMT-69" d="M 425 3934 
L 425 4581 
L 988 4581 
L 988 3934 
L 425 3934 
z
M 425 0 
L 425 3319 
L 988 3319 
L 988 0 
L 425 0 
z
" transform="scale(0.015625)"/>
       <path id="ArialMT-74" d="M 1650 503 
L 1731 6 
Q 1494 -44 1306 -44 
Q 1000 -44 831 53 
Q 663 150 594 308 
Q 525 466 525 972 
L 525 2881 
L 113 2881 
L 113 3319 
L 525 3319 
L 525 4141 
L 1084 4478 
L 1084 3319 
L 1650 3319 
L 1650 2881 
L 1084 2881 
L 1084 941 
Q 1084 700 1114 631 
Q 1144 563 1211 522 
Q 1278 481 1403 481 
Q 1497 481 1650 503 
z
" transform="scale(0.015625)"/>
       <path id="ArialMT-68" d="M 422 0 
L 422 4581 
L 984 4581 
L 984 2938 
Q 1378 3394 1978 3394 
Q 2347 3394 2619 3248 
Q 2891 3103 3008 2847 
Q 3125 2591 3125 2103 
L 3125 0 
L 2563 0 
L 2563 2103 
Q 2563 2525 2380 2717 
Q 2197 2909 1863 2909 
Q 1613 2909 1392 2779 
Q 1172 2650 1078 2428 
Q 984 2206 984 1816 
L 984 0 
L 422 0 
z
" transform="scale(0.015625)"/>
       <path id="ArialMT-43" d="M 3763 1606 
L 4369 1453 
Q 4178 706 3683 314 
Q 3188 -78 2472 -78 
Q 1731 -78 1267 223 
Q 803 525 561 1097 
Q 319 1669 319 2325 
Q 319 3041 592 3573 
Q 866 4106 1370 4382 
Q 1875 4659 2481 4659 
Q 3169 4659 3637 4309 
Q 4106 3959 4291 3325 
L 3694 3184 
Q 3534 3684 3231 3912 
Q 2928 4141 2469 4141 
Q 1941 4141 1586 3887 
Q 1231 3634 1087 3207 
Q 944 2781 944 2328 
Q 944 1744 1114 1308 
Q 1284 872 1643 656 
Q 2003 441 2422 441 
Q 2931 441 3284 734 
Q 3638 1028 3763 1606 
z
" transform="scale(0.015625)"/>
       <path id="ArialMT-4f" d="M 309 2231 
Q 309 3372 921 4017 
Q 1534 4663 2503 4663 
Q 3138 4663 3647 4359 
Q 4156 4056 4423 3514 
Q 4691 2972 4691 2284 
Q 4691 1588 4409 1038 
Q 4128 488 3612 205 
Q 3097 -78 2500 -78 
Q 1853 -78 1343 234 
Q 834 547 571 1087 
Q 309 1628 309 2231 
z
M 934 2222 
Q 934 1394 1379 917 
Q 1825 441 2497 441 
Q 3181 441 3623 922 
Q 4066 1403 4066 2288 
Q 4066 2847 3877 3264 
Q 3688 3681 3323 3911 
Q 2959 4141 2506 4141 
Q 1863 4141 1398 3698 
Q 934 3256 934 2222 
z
" transform="scale(0.015625)"/>
       <path id="ArialMT-44" d="M 494 0 
L 494 4581 
L 2072 4581 
Q 2606 4581 2888 4516 
Q 3281 4425 3559 4188 
Q 3922 3881 4101 3404 
Q 4281 2928 4281 2316 
Q 4281 1794 4159 1391 
Q 4038 988 3847 723 
Q 3656 459 3429 307 
Q 3203 156 2883 78 
Q 2563 0 2147 0 
L 494 0 
z
M 1100 541 
L 2078 541 
Q 2531 541 2789 625 
Q 3047 709 3200 863 
Q 3416 1078 3536 1442 
Q 3656 1806 3656 2325 
Q 3656 3044 3420 3430 
Q 3184 3816 2847 3947 
Q 2603 4041 2063 4041 
L 1100 4041 
L 1100 541 
z
" transform="scale(0.015625)"/>
      </defs>
      <use xlink:href="#ArialMT-4d"/>
      <use xlink:href="#ArialMT-31" x="83.300781"/>
      <use xlink:href="#ArialMT-20" x="138.916016"/>
      <use xlink:href="#ArialMT-77" x="166.699219"/>
      <use xlink:href="#ArialMT-69" x="238.916016"/>
      <use xlink:href="#ArialMT-74" x="261.132812"/>
      <use xlink:href="#ArialMT-68" x="288.916016"/>
      <use xlink:href="#ArialMT-20" x="344.53125"/>
      <use xlink:href="#ArialMT-43" x="372.314453"/>
      <use xlink:href="#ArialMT-4f" x="444.53125"/>
      <use xlink:href="#ArialMT-44" x="522.314453"/>
      <use xlink:href="#ArialMT-45" x="594.53125"/>
     </g>
    </g>
   </g>
  </g>
  <g id="axes_2">
   <g id="patch_8">
    <path d="M 336.127043 299.124 
L 575.686829 299.124 
L 575.686829 40.0416 
L 336.127043 40.0416 
z
" style="fill: #eaeaf2"/>
   </g>
   <g id="matplotlib.axis_3">
    <g id="xtick_8">
     <g id="line2d_25">
      <path d="M 347.016124 299.124 
L 347.016124 40.0416 
" clip-path="url(#pd709d8128b)" style="fill: none; stroke: #ffffff; stroke-linecap: round"/>
     </g>
     <g id="text_25">
      <!-- 500 -->
      <g style="fill: #262626" transform="translate(337.006436 317.213375) scale(0.12 -0.12)">
       <use xlink:href="#ArialMT-35"/>
       <use xlink:href="#ArialMT-30" x="55.615234"/>
       <use xlink:href="#ArialMT-30" x="111.230469"/>
      </g>
     </g>
    </g>
    <g id="xtick_9">
     <g id="line2d_26">
      <path d="M 383.313061 299.124 
L 383.313061 40.0416 
" clip-path="url(#pd709d8128b)" style="fill: none; stroke: #ffffff; stroke-linecap: round"/>
     </g>
     <g id="text_26">
      <!-- 750 -->
      <g style="fill: #262626" transform="translate(373.303374 317.213375) scale(0.12 -0.12)">
       <use xlink:href="#ArialMT-37"/>
       <use xlink:href="#ArialMT-35" x="55.615234"/>
       <use xlink:href="#ArialMT-30" x="111.230469"/>
      </g>
     </g>
    </g>
    <g id="xtick_10">
     <g id="line2d_27">
      <path d="M 419.609999 299.124 
L 419.609999 40.0416 
" clip-path="url(#pd709d8128b)" style="fill: none; stroke: #ffffff; stroke-linecap: round"/>
     </g>
     <g id="text_27">
      <!-- 1000 -->
      <g style="fill: #262626" transform="translate(406.263749 317.213375) scale(0.12 -0.12)">
       <use xlink:href="#ArialMT-31"/>
       <use xlink:href="#ArialMT-30" x="55.615234"/>
       <use xlink:href="#ArialMT-30" x="111.230469"/>
       <use xlink:href="#ArialMT-30" x="166.845703"/>
      </g>
     </g>
    </g>
    <g id="xtick_11">
     <g id="line2d_28">
      <path d="M 455.906936 299.124 
L 455.906936 40.0416 
" clip-path="url(#pd709d8128b)" style="fill: none; stroke: #ffffff; stroke-linecap: round"/>
     </g>
     <g id="text_28">
      <!-- 1250 -->
      <g style="fill: #262626" transform="translate(442.560686 317.213375) scale(0.12 -0.12)">
       <use xlink:href="#ArialMT-31"/>
       <use xlink:href="#ArialMT-32" x="55.615234"/>
       <use xlink:href="#ArialMT-35" x="111.230469"/>
       <use xlink:href="#ArialMT-30" x="166.845703"/>
      </g>
     </g>
    </g>
    <g id="xtick_12">
     <g id="line2d_29">
      <path d="M 492.203873 299.124 
L 492.203873 40.0416 
" clip-path="url(#pd709d8128b)" style="fill: none; stroke: #ffffff; stroke-linecap: round"/>
     </g>
     <g id="text_29">
      <!-- 1500 -->
      <g style="fill: #262626" transform="translate(478.857623 317.213375) scale(0.12 -0.12)">
       <use xlink:href="#ArialMT-31"/>
       <use xlink:href="#ArialMT-35" x="55.615234"/>
       <use xlink:href="#ArialMT-30" x="111.230469"/>
       <use xlink:href="#ArialMT-30" x="166.845703"/>
      </g>
     </g>
    </g>
    <g id="xtick_13">
     <g id="line2d_30">
      <path d="M 528.50081 299.124 
L 528.50081 40.0416 
" clip-path="url(#pd709d8128b)" style="fill: none; stroke: #ffffff; stroke-linecap: round"/>
     </g>
     <g id="text_30">
      <!-- 1750 -->
      <g style="fill: #262626" transform="translate(515.15456 317.213375) scale(0.12 -0.12)">
       <use xlink:href="#ArialMT-31"/>
       <use xlink:href="#ArialMT-37" x="55.615234"/>
       <use xlink:href="#ArialMT-35" x="111.230469"/>
       <use xlink:href="#ArialMT-30" x="166.845703"/>
      </g>
     </g>
    </g>
    <g id="xtick_14">
     <g id="line2d_31">
      <path d="M 564.797748 299.124 
L 564.797748 40.0416 
" clip-path="url(#pd709d8128b)" style="fill: none; stroke: #ffffff; stroke-linecap: round"/>
     </g>
     <g id="text_31">
      <!-- 2000 -->
      <g style="fill: #262626" transform="translate(551.451498 317.213375) scale(0.12 -0.12)">
       <use xlink:href="#ArialMT-32"/>
       <use xlink:href="#ArialMT-30" x="55.615234"/>
       <use xlink:href="#ArialMT-30" x="111.230469"/>
       <use xlink:href="#ArialMT-30" x="166.845703"/>
      </g>
     </g>
    </g>
    <g id="text_32">
     <!-- b-value [s/mm$^2$] -->
     <g style="fill: #262626" transform="translate(403.106936 337.248375) scale(0.15 -0.15)">
      <use xlink:href="#ArialMT-62" transform="translate(0 0.765625)"/>
      <use xlink:href="#ArialMT-2d" transform="translate(55.615234 0.765625)"/>
      <use xlink:href="#ArialMT-76" transform="translate(88.916016 0.765625)"/>
      <use xlink:href="#ArialMT-61" transform="translate(138.916016 0.765625)"/>
      <use xlink:href="#ArialMT-6c" transform="translate(194.53125 0.765625)"/>
      <use xlink:href="#ArialMT-75" transform="translate(216.748047 0.765625)"/>
      <use xlink:href="#ArialMT-65" transform="translate(272.363281 0.765625)"/>
      <use xlink:href="#ArialMT-20" transform="translate(327.978516 0.765625)"/>
      <use xlink:href="#ArialMT-5b" transform="translate(355.761719 0.765625)"/>
      <use xlink:href="#ArialMT-73" transform="translate(383.544922 0.765625)"/>
      <use xlink:href="#ArialMT-2f" transform="translate(433.544922 0.765625)"/>
      <use xlink:href="#ArialMT-6d" transform="translate(461.328125 0.765625)"/>
      <use xlink:href="#ArialMT-6d" transform="translate(544.628906 0.765625)"/>
      <use xlink:href="#DejaVuSans-32" transform="translate(628.886719 39.046875) scale(0.7)"/>
      <use xlink:href="#ArialMT-5d" transform="translate(676.157227 0.765625)"/>
     </g>
    </g>
   </g>
   <g id="matplotlib.axis_4">
    <g id="ytick_12">
     <g id="line2d_32">
      <path d="M 336.127043 299.124 
L 575.686829 299.124 
" clip-path="url(#pd709d8128b)" style="fill: none; stroke: #ffffff; stroke-linecap: round"/>
     </g>
    </g>
    <g id="ytick_13">
     <g id="line2d_33">
      <path d="M 336.127043 273.21576 
L 575.686829 273.21576 
" clip-path="url(#pd709d8128b)" style="fill: none; stroke: #ffffff; stroke-linecap: round"/>
     </g>
    </g>
    <g id="ytick_14">
     <g id="line2d_34">
      <path d="M 336.127043 247.30752 
L 575.686829 247.30752 
" clip-path="url(#pd709d8128b)" style="fill: none; stroke: #ffffff; stroke-linecap: round"/>
     </g>
    </g>
    <g id="ytick_15">
     <g id="line2d_35">
      <path d="M 336.127043 221.39928 
L 575.686829 221.39928 
" clip-path="url(#pd709d8128b)" style="fill: none; stroke: #ffffff; stroke-linecap: round"/>
     </g>
    </g>
    <g id="ytick_16">
     <g id="line2d_36">
      <path d="M 336.127043 195.49104 
L 575.686829 195.49104 
" clip-path="url(#pd709d8128b)" style="fill: none; stroke: #ffffff; stroke-linecap: round"/>
     </g>
    </g>
    <g id="ytick_17">
     <g id="line2d_37">
      <path d="M 336.127043 169.5828 
L 575.686829 169.5828 
" clip-path="url(#pd709d8128b)" style="fill: none; stroke: #ffffff; stroke-linecap: round"/>
     </g>
    </g>
    <g id="ytick_18">
     <g id="line2d_38">
      <path d="M 336.127043 143.67456 
L 575.686829 143.67456 
" clip-path="url(#pd709d8128b)" style="fill: none; stroke: #ffffff; stroke-linecap: round"/>
     </g>
    </g>
    <g id="ytick_19">
     <g id="line2d_39">
      <path d="M 336.127043 117.76632 
L 575.686829 117.76632 
" clip-path="url(#pd709d8128b)" style="fill: none; stroke: #ffffff; stroke-linecap: round"/>
     </g>
    </g>
    <g id="ytick_20">
     <g id="line2d_40">
      <path d="M 336.127043 91.85808 
L 575.686829 91.85808 
" clip-path="url(#pd709d8128b)" style="fill: none; stroke: #ffffff; stroke-linecap: round"/>
     </g>
    </g>
    <g id="ytick_21">
     <g id="line2d_41">
      <path d="M 336.127043 65.94984 
L 575.686829 65.94984 
" clip-path="url(#pd709d8128b)" style="fill: none; stroke: #ffffff; stroke-linecap: round"/>
     </g>
    </g>
    <g id="ytick_22">
     <g id="line2d_42">
      <path d="M 336.127043 40.0416 
L 575.686829 40.0416 
" clip-path="url(#pd709d8128b)" style="fill: none; stroke: #ffffff; stroke-linecap: round"/>
     </g>
    </g>
   </g>
   <g id="line2d_43">
    <path d="M 347.016124 272.783955 
L 383.313061 265.322382 
L 419.609999 259.104404 
L 455.906936 253.71549 
L 492.203873 249.15564 
L 528.50081 244.59579 
L 564.797748 240.865003 
" clip-path="url(#pd709d8128b)" style="fill: none; stroke: #e41a1c; stroke-width: 1.5; stroke-linecap: round"/>
    <g clip-path="url(#pd709d8128b)">
     <use xlink:href="#m43457a95d0" x="347.016124" y="272.783955" style="fill: #e41a1c; stroke: #e41a1c"/>
     <use xlink:href="#m43457a95d0" x="383.313061" y="265.322382" style="fill: #e41a1c; stroke: #e41a1c"/>
     <use xlink:href="#m43457a95d0" x="419.609999" y="259.104404" style="fill: #e41a1c; stroke: #e41a1c"/>
     <use xlink:href="#m43457a95d0" x="455.906936" y="253.71549" style="fill: #e41a1c; stroke: #e41a1c"/>
     <use xlink:href="#m43457a95d0" x="492.203873" y="249.15564" style="fill: #e41a1c; stroke: #e41a1c"/>
     <use xlink:href="#m43457a95d0" x="528.50081" y="244.59579" style="fill: #e41a1c; stroke: #e41a1c"/>
     <use xlink:href="#m43457a95d0" x="564.797748" y="240.865003" style="fill: #e41a1c; stroke: #e41a1c"/>
    </g>
   </g>
   <g id="line2d_44">
    <path d="M 347.016124 201.553568 
L 383.313061 185.801358 
L 419.609999 174.194467 
L 455.906936 163.416639 
L 492.203873 155.126002 
L 528.50081 146.835365 
L 564.797748 139.373792 
" clip-path="url(#pd709d8128b)" style="fill: none; stroke: #377eb8; stroke-width: 1.5; stroke-linecap: round"/>
    <g clip-path="url(#pd709d8128b)">
     <use xlink:href="#m262c1a7efc" x="347.016124" y="201.553568" style="fill: #377eb8; stroke: #377eb8; stroke-linejoin: miter"/>
     <use xlink:href="#m262c1a7efc" x="383.313061" y="185.801358" style="fill: #377eb8; stroke: #377eb8; stroke-linejoin: miter"/>
     <use xlink:href="#m262c1a7efc" x="419.609999" y="174.194467" style="fill: #377eb8; stroke: #377eb8; stroke-linejoin: miter"/>
     <use xlink:href="#m262c1a7efc" x="455.906936" y="163.416639" style="fill: #377eb8; stroke: #377eb8; stroke-linejoin: miter"/>
     <use xlink:href="#m262c1a7efc" x="492.203873" y="155.126002" style="fill: #377eb8; stroke: #377eb8; stroke-linejoin: miter"/>
     <use xlink:href="#m262c1a7efc" x="528.50081" y="146.835365" style="fill: #377eb8; stroke: #377eb8; stroke-linejoin: miter"/>
     <use xlink:href="#m262c1a7efc" x="564.797748" y="139.373792" style="fill: #377eb8; stroke: #377eb8; stroke-linejoin: miter"/>
    </g>
   </g>
   <g id="line2d_45">
    <path d="M 347.016124 253.622654 
L 383.313061 236.610883 
L 419.609999 223.774729 
L 455.906936 212.794405 
L 492.203873 203.463708 
L 528.50081 195.164024 
L 564.797748 187.27675 
" clip-path="url(#pd709d8128b)" style="fill: none; stroke: #4daf4a; stroke-width: 1.5; stroke-linecap: round"/>
    <g clip-path="url(#pd709d8128b)">
     <use xlink:href="#mfde9bb2529" x="347.016124" y="253.622654" style="fill: #4daf4a; stroke: #4daf4a; stroke-linejoin: miter"/>
     <use xlink:href="#mfde9bb2529" x="383.313061" y="236.610883" style="fill: #4daf4a; stroke: #4daf4a; stroke-linejoin: miter"/>
     <use xlink:href="#mfde9bb2529" x="419.609999" y="223.774729" style="fill: #4daf4a; stroke: #4daf4a; stroke-linejoin: miter"/>
     <use xlink:href="#mfde9bb2529" x="455.906936" y="212.794405" style="fill: #4daf4a; stroke: #4daf4a; stroke-linejoin: miter"/>
     <use xlink:href="#mfde9bb2529" x="492.203873" y="203.463708" style="fill: #4daf4a; stroke: #4daf4a; stroke-linejoin: miter"/>
     <use xlink:href="#mfde9bb2529" x="528.50081" y="195.164024" style="fill: #4daf4a; stroke: #4daf4a; stroke-linejoin: miter"/>
     <use xlink:href="#mfde9bb2529" x="564.797748" y="187.27675" style="fill: #4daf4a; stroke: #4daf4a; stroke-linejoin: miter"/>
    </g>
   </g>
   <g id="PathCollection_1">
    <defs>
     <path id="m8074c3df8c" d="M 0 -6.123724 
L -1.374862 -1.892335 
L -5.824008 -1.892335 
L -2.224573 0.722808 
L -3.599435 4.954197 
L -0 2.339054 
L 3.599435 4.954197 
L 2.224573 0.722808 
L 5.824008 -1.892335 
L 1.374862 -1.892335 
z
" style="stroke: #000000"/>
    </defs>
    <g clip-path="url(#pd709d8128b)">
     <use xlink:href="#m8074c3df8c" x="390.572449" y="264.468804" style="stroke: #000000"/>
    </g>
   </g>
   <g id="PathCollection_2">
    <g clip-path="url(#pd709d8128b)">
     <use xlink:href="#m8074c3df8c" x="390.572449" y="184.634528" style="stroke: #000000"/>
    </g>
   </g>
   <g id="PathCollection_3">
    <g clip-path="url(#pd709d8128b)">
     <use xlink:href="#m8074c3df8c" x="390.572449" y="233.930241" style="stroke: #000000"/>
    </g>
   </g>
   <g id="patch_9">
    <path d="M 336.127043 299.124 
L 336.127043 40.0416 
" style="fill: none; stroke: #ffffff; stroke-width: 1.25; stroke-linejoin: miter; stroke-linecap: square"/>
   </g>
   <g id="patch_10">
    <path d="M 575.686829 299.124 
L 575.686829 40.0416 
" style="fill: none; stroke: #ffffff; stroke-width: 1.25; stroke-linejoin: miter; stroke-linecap: square"/>
   </g>
   <g id="patch_11">
    <path d="M 336.127043 299.124 
L 575.686829 299.124 
" style="fill: none; stroke: #ffffff; stroke-width: 1.25; stroke-linejoin: miter; stroke-linecap: square"/>
   </g>
   <g id="patch_12">
    <path d="M 336.127043 40.0416 
L 575.686829 40.0416 
" style="fill: none; stroke: #ffffff; stroke-width: 1.25; stroke-linejoin: miter; stroke-linecap: square"/>
   </g>
   <g id="text_33">
    <!-- G$_{max}$ = 70 mT/m -->
    <g style="fill: #262626" transform="translate(381.606936 34.0416) scale(0.2 -0.2)">
     <use xlink:href="#ArialMT-47" transform="translate(0 0.203125)"/>
     <use xlink:href="#DejaVuSans-Oblique-6d" transform="translate(78.740234 -16.203125) scale(0.7)"/>
     <use xlink:href="#DejaVuSans-Oblique-61" transform="translate(146.928711 -16.203125) scale(0.7)"/>
     <use xlink:href="#DejaVuSans-Oblique-78" transform="translate(189.824219 -16.203125) scale(0.7)"/>
     <use xlink:href="#ArialMT-20" transform="translate(233.984375 0.203125)"/>
     <use xlink:href="#ArialMT-3d" transform="translate(261.767578 0.203125)"/>
     <use xlink:href="#ArialMT-20" transform="translate(320.166016 0.203125)"/>
     <use xlink:href="#ArialMT-37" transform="translate(347.949219 0.203125)"/>
     <use xlink:href="#ArialMT-30" transform="translate(403.564453 0.203125)"/>
     <use xlink:href="#ArialMT-20" transform="translate(459.179688 0.203125)"/>
     <use xlink:href="#ArialMT-6d" transform="translate(486.962891 0.203125)"/>
     <use xlink:href="#ArialMT-54" transform="translate(570.263672 0.203125)"/>
     <use xlink:href="#ArialMT-2f" transform="translate(631.347656 0.203125)"/>
     <use xlink:href="#ArialMT-6d" transform="translate(659.130859 0.203125)"/>
    </g>
   </g>
   <g id="legend_2">
    <g id="patch_13">
     <path d="M 460.052766 95.521131 
L 567.986829 95.521131 
Q 570.186829 95.521131 570.186829 93.321131 
L 570.186829 47.7416 
Q 570.186829 45.5416 567.986829 45.5416 
L 460.052766 45.5416 
Q 457.852766 45.5416 457.852766 47.7416 
L 457.852766 93.321131 
Q 457.852766 95.521131 460.052766 95.521131 
z
" style="fill: #eaeaf2; opacity: 0.8; stroke: #cccccc; stroke-linejoin: miter"/>
    </g>
    <g id="line2d_46">
     <path d="M 462.252766 53.965194 
L 473.252766 53.965194 
L 484.252766 53.965194 
" style="fill: none; stroke: #e41a1c; stroke-width: 1.5; stroke-linecap: round"/>
     <g>
      <use xlink:href="#m43457a95d0" x="473.252766" y="53.965194" style="fill: #e41a1c; stroke: #e41a1c"/>
     </g>
    </g>
    <g id="text_34">
     <!-- M0 -->
     <g style="fill: #262626" transform="translate(493.052766 57.815194) scale(0.11 -0.11)">
      <use xlink:href="#ArialMT-4d"/>
      <use xlink:href="#ArialMT-30" x="83.300781"/>
     </g>
    </g>
    <g id="line2d_47">
     <path d="M 462.252766 69.525038 
L 473.252766 69.525038 
L 484.252766 69.525038 
" style="fill: none; stroke: #377eb8; stroke-width: 1.5; stroke-linecap: round"/>
     <g>
      <use xlink:href="#m262c1a7efc" x="473.252766" y="69.525038" style="fill: #377eb8; stroke: #377eb8; stroke-linejoin: miter"/>
     </g>
    </g>
    <g id="text_35">
     <!-- M1 -->
     <g style="fill: #262626" transform="translate(493.052766 73.375038) scale(0.11 -0.11)">
      <use xlink:href="#ArialMT-4d"/>
      <use xlink:href="#ArialMT-31" x="83.300781"/>
     </g>
    </g>
    <g id="line2d_48">
     <path d="M 462.252766 85.084881 
L 473.252766 85.084881 
L 484.252766 85.084881 
" style="fill: none; stroke: #4daf4a; stroke-width: 1.5; stroke-linecap: round"/>
     <g>
      <use xlink:href="#mfde9bb2529" x="473.252766" y="85.084881" style="fill: #4daf4a; stroke: #4daf4a; stroke-linejoin: miter"/>
     </g>
    </g>
    <g id="text_36">
     <!-- M1 with CODE -->
     <g style="fill: #262626" transform="translate(493.052766 88.934881) scale(0.11 -0.11)">
      <use xlink:href="#ArialMT-4d"/>
      <use xlink:href="#ArialMT-31" x="83.300781"/>
      <use xlink:href="#ArialMT-20" x="138.916016"/>
      <use xlink:href="#ArialMT-77" x="166.699219"/>
      <use xlink:href="#ArialMT-69" x="238.916016"/>
      <use xlink:href="#ArialMT-74" x="261.132812"/>
      <use xlink:href="#ArialMT-68" x="288.916016"/>
      <use xlink:href="#ArialMT-20" x="344.53125"/>
      <use xlink:href="#ArialMT-43" x="372.314453"/>
      <use xlink:href="#ArialMT-4f" x="444.53125"/>
      <use xlink:href="#ArialMT-44" x="522.314453"/>
      <use xlink:href="#ArialMT-45" x="594.53125"/>
     </g>
    </g>
   </g>
  </g>
  <g id="axes_3">
   <g id="patch_14">
    <path d="M 600.596086 299.124 
L 840.155872 299.124 
L 840.155872 40.0416 
L 600.596086 40.0416 
z
" style="fill: #eaeaf2"/>
   </g>
   <g id="matplotlib.axis_5">
    <g id="xtick_15">
     <g id="line2d_49">
      <path d="M 611.485167 299.124 
L 611.485167 40.0416 
" clip-path="url(#pe31475ef9b)" style="fill: none; stroke: #ffffff; stroke-linecap: round"/>
     </g>
     <g id="text_37">
      <!-- 500 -->
      <g style="fill: #262626" transform="translate(601.475479 317.213375) scale(0.12 -0.12)">
       <use xlink:href="#ArialMT-35"/>
       <use xlink:href="#ArialMT-30" x="55.615234"/>
       <use xlink:href="#ArialMT-30" x="111.230469"/>
      </g>
     </g>
    </g>
    <g id="xtick_16">
     <g id="line2d_50">
      <path d="M 647.782104 299.124 
L 647.782104 40.0416 
" clip-path="url(#pe31475ef9b)" style="fill: none; stroke: #ffffff; stroke-linecap: round"/>
     </g>
     <g id="text_38">
      <!-- 750 -->
      <g style="fill: #262626" transform="translate(637.772417 317.213375) scale(0.12 -0.12)">
       <use xlink:href="#ArialMT-37"/>
       <use xlink:href="#ArialMT-35" x="55.615234"/>
       <use xlink:href="#ArialMT-30" x="111.230469"/>
      </g>
     </g>
    </g>
    <g id="xtick_17">
     <g id="line2d_51">
      <path d="M 684.079041 299.124 
L 684.079041 40.0416 
" clip-path="url(#pe31475ef9b)" style="fill: none; stroke: #ffffff; stroke-linecap: round"/>
     </g>
     <g id="text_39">
      <!-- 1000 -->
      <g style="fill: #262626" transform="translate(670.732791 317.213375) scale(0.12 -0.12)">
       <use xlink:href="#ArialMT-31"/>
       <use xlink:href="#ArialMT-30" x="55.615234"/>
       <use xlink:href="#ArialMT-30" x="111.230469"/>
       <use xlink:href="#ArialMT-30" x="166.845703"/>
      </g>
     </g>
    </g>
    <g id="xtick_18">
     <g id="line2d_52">
      <path d="M 720.375979 299.124 
L 720.375979 40.0416 
" clip-path="url(#pe31475ef9b)" style="fill: none; stroke: #ffffff; stroke-linecap: round"/>
     </g>
     <g id="text_40">
      <!-- 1250 -->
      <g style="fill: #262626" transform="translate(707.029729 317.213375) scale(0.12 -0.12)">
       <use xlink:href="#ArialMT-31"/>
       <use xlink:href="#ArialMT-32" x="55.615234"/>
       <use xlink:href="#ArialMT-35" x="111.230469"/>
       <use xlink:href="#ArialMT-30" x="166.845703"/>
      </g>
     </g>
    </g>
    <g id="xtick_19">
     <g id="line2d_53">
      <path d="M 756.672916 299.124 
L 756.672916 40.0416 
" clip-path="url(#pe31475ef9b)" style="fill: none; stroke: #ffffff; stroke-linecap: round"/>
     </g>
     <g id="text_41">
      <!-- 1500 -->
      <g style="fill: #262626" transform="translate(743.326666 317.213375) scale(0.12 -0.12)">
       <use xlink:href="#ArialMT-31"/>
       <use xlink:href="#ArialMT-35" x="55.615234"/>
       <use xlink:href="#ArialMT-30" x="111.230469"/>
       <use xlink:href="#ArialMT-30" x="166.845703"/>
      </g>
     </g>
    </g>
    <g id="xtick_20">
     <g id="line2d_54">
      <path d="M 792.969853 299.124 
L 792.969853 40.0416 
" clip-path="url(#pe31475ef9b)" style="fill: none; stroke: #ffffff; stroke-linecap: round"/>
     </g>
     <g id="text_42">
      <!-- 1750 -->
      <g style="fill: #262626" transform="translate(779.623603 317.213375) scale(0.12 -0.12)">
       <use xlink:href="#ArialMT-31"/>
       <use xlink:href="#ArialMT-37" x="55.615234"/>
       <use xlink:href="#ArialMT-35" x="111.230469"/>
       <use xlink:href="#ArialMT-30" x="166.845703"/>
      </g>
     </g>
    </g>
    <g id="xtick_21">
     <g id="line2d_55">
      <path d="M 829.26679 299.124 
L 829.26679 40.0416 
" clip-path="url(#pe31475ef9b)" style="fill: none; stroke: #ffffff; stroke-linecap: round"/>
     </g>
     <g id="text_43">
      <!-- 2000 -->
      <g style="fill: #262626" transform="translate(815.92054 317.213375) scale(0.12 -0.12)">
       <use xlink:href="#ArialMT-32"/>
       <use xlink:href="#ArialMT-30" x="55.615234"/>
       <use xlink:href="#ArialMT-30" x="111.230469"/>
       <use xlink:href="#ArialMT-30" x="166.845703"/>
      </g>
     </g>
    </g>
    <g id="text_44">
     <!-- b-value [s/mm$^2$] -->
     <g style="fill: #262626" transform="translate(667.575979 337.248375) scale(0.15 -0.15)">
      <use xlink:href="#ArialMT-62" transform="translate(0 0.765625)"/>
      <use xlink:href="#ArialMT-2d" transform="translate(55.615234 0.765625)"/>
      <use xlink:href="#ArialMT-76" transform="translate(88.916016 0.765625)"/>
      <use xlink:href="#ArialMT-61" transform="translate(138.916016 0.765625)"/>
      <use xlink:href="#ArialMT-6c" transform="translate(194.53125 0.765625)"/>
      <use xlink:href="#ArialMT-75" transform="translate(216.748047 0.765625)"/>
      <use xlink:href="#ArialMT-65" transform="translate(272.363281 0.765625)"/>
      <use xlink:href="#ArialMT-20" transform="translate(327.978516 0.765625)"/>
      <use xlink:href="#ArialMT-5b" transform="translate(355.761719 0.765625)"/>
      <use xlink:href="#ArialMT-73" transform="translate(383.544922 0.765625)"/>
      <use xlink:href="#ArialMT-2f" transform="translate(433.544922 0.765625)"/>
      <use xlink:href="#ArialMT-6d" transform="translate(461.328125 0.765625)"/>
      <use xlink:href="#ArialMT-6d" transform="translate(544.628906 0.765625)"/>
      <use xlink:href="#DejaVuSans-32" transform="translate(628.886719 39.046875) scale(0.7)"/>
      <use xlink:href="#ArialMT-5d" transform="translate(676.157227 0.765625)"/>
     </g>
    </g>
   </g>
   <g id="matplotlib.axis_6">
    <g id="ytick_23">
     <g id="line2d_56">
      <path d="M 600.596086 299.124 
L 840.155872 299.124 
" clip-path="url(#pe31475ef9b)" style="fill: none; stroke: #ffffff; stroke-linecap: round"/>
     </g>
    </g>
    <g id="ytick_24">
     <g id="line2d_57">
      <path d="M 600.596086 273.21576 
L 840.155872 273.21576 
" clip-path="url(#pe31475ef9b)" style="fill: none; stroke: #ffffff; stroke-linecap: round"/>
     </g>
    </g>
    <g id="ytick_25">
     <g id="line2d_58">
      <path d="M 600.596086 247.30752 
L 840.155872 247.30752 
" clip-path="url(#pe31475ef9b)" style="fill: none; stroke: #ffffff; stroke-linecap: round"/>
     </g>
    </g>
    <g id="ytick_26">
     <g id="line2d_59">
      <path d="M 600.596086 221.39928 
L 840.155872 221.39928 
" clip-path="url(#pe31475ef9b)" style="fill: none; stroke: #ffffff; stroke-linecap: round"/>
     </g>
    </g>
    <g id="ytick_27">
     <g id="line2d_60">
      <path d="M 600.596086 195.49104 
L 840.155872 195.49104 
" clip-path="url(#pe31475ef9b)" style="fill: none; stroke: #ffffff; stroke-linecap: round"/>
     </g>
    </g>
    <g id="ytick_28">
     <g id="line2d_61">
      <path d="M 600.596086 169.5828 
L 840.155872 169.5828 
" clip-path="url(#pe31475ef9b)" style="fill: none; stroke: #ffffff; stroke-linecap: round"/>
     </g>
    </g>
    <g id="ytick_29">
     <g id="line2d_62">
      <path d="M 600.596086 143.67456 
L 840.155872 143.67456 
" clip-path="url(#pe31475ef9b)" style="fill: none; stroke: #ffffff; stroke-linecap: round"/>
     </g>
    </g>
    <g id="ytick_30">
     <g id="line2d_63">
      <path d="M 600.596086 117.76632 
L 840.155872 117.76632 
" clip-path="url(#pe31475ef9b)" style="fill: none; stroke: #ffffff; stroke-linecap: round"/>
     </g>
    </g>
    <g id="ytick_31">
     <g id="line2d_64">
      <path d="M 600.596086 91.85808 
L 840.155872 91.85808 
" clip-path="url(#pe31475ef9b)" style="fill: none; stroke: #ffffff; stroke-linecap: round"/>
     </g>
    </g>
    <g id="ytick_32">
     <g id="line2d_65">
      <path d="M 600.596086 65.94984 
L 840.155872 65.94984 
" clip-path="url(#pe31475ef9b)" style="fill: none; stroke: #ffffff; stroke-linecap: round"/>
     </g>
    </g>
    <g id="ytick_33">
     <g id="line2d_66">
      <path d="M 600.596086 40.0416 
L 840.155872 40.0416 
" clip-path="url(#pe31475ef9b)" style="fill: none; stroke: #ffffff; stroke-linecap: round"/>
     </g>
    </g>
   </g>
   <g id="line2d_67">
    <path d="M 611.485167 279.711663 
L 647.782104 274.737281 
L 684.079041 270.177431 
L 720.375979 266.032112 
L 756.672916 262.715858 
L 792.969853 259.399603 
L 829.26679 256.49788 
" clip-path="url(#pe31475ef9b)" style="fill: none; stroke: #e41a1c; stroke-width: 1.5; stroke-linecap: round"/>
    <g clip-path="url(#pe31475ef9b)">
     <use xlink:href="#m43457a95d0" x="611.485167" y="279.711663" style="fill: #e41a1c; stroke: #e41a1c"/>
     <use xlink:href="#m43457a95d0" x="647.782104" y="274.737281" style="fill: #e41a1c; stroke: #e41a1c"/>
     <use xlink:href="#m43457a95d0" x="684.079041" y="270.177431" style="fill: #e41a1c; stroke: #e41a1c"/>
     <use xlink:href="#m43457a95d0" x="720.375979" y="266.032112" style="fill: #e41a1c; stroke: #e41a1c"/>
     <use xlink:href="#m43457a95d0" x="756.672916" y="262.715858" style="fill: #e41a1c; stroke: #e41a1c"/>
     <use xlink:href="#m43457a95d0" x="792.969853" y="259.399603" style="fill: #e41a1c; stroke: #e41a1c"/>
     <use xlink:href="#m43457a95d0" x="829.26679" y="256.49788" style="fill: #e41a1c; stroke: #e41a1c"/>
    </g>
   </g>
   <g id="line2d_68">
    <path d="M 611.485167 220.622033 
L 647.782104 208.186078 
L 684.079041 199.066377 
L 720.375979 190.77574 
L 756.672916 184.143231 
L 792.969853 177.510721 
L 829.26679 171.707276 
" clip-path="url(#pe31475ef9b)" style="fill: none; stroke: #377eb8; stroke-width: 1.5; stroke-linecap: round"/>
    <g clip-path="url(#pe31475ef9b)">
     <use xlink:href="#m262c1a7efc" x="611.485167" y="220.622033" style="fill: #377eb8; stroke: #377eb8; stroke-linejoin: miter"/>
     <use xlink:href="#m262c1a7efc" x="647.782104" y="208.186078" style="fill: #377eb8; stroke: #377eb8; stroke-linejoin: miter"/>
     <use xlink:href="#m262c1a7efc" x="684.079041" y="199.066377" style="fill: #377eb8; stroke: #377eb8; stroke-linejoin: miter"/>
     <use xlink:href="#m262c1a7efc" x="720.375979" y="190.77574" style="fill: #377eb8; stroke: #377eb8; stroke-linejoin: miter"/>
     <use xlink:href="#m262c1a7efc" x="756.672916" y="184.143231" style="fill: #377eb8; stroke: #377eb8; stroke-linejoin: miter"/>
     <use xlink:href="#m262c1a7efc" x="792.969853" y="177.510721" style="fill: #377eb8; stroke: #377eb8; stroke-linejoin: miter"/>
     <use xlink:href="#m262c1a7efc" x="829.26679" y="171.707276" style="fill: #377eb8; stroke: #377eb8; stroke-linejoin: miter"/>
    </g>
   </g>
   <g id="line2d_69">
    <path d="M 611.485167 276.820521 
L 647.782104 262.540946 
L 684.079041 251.50907 
L 720.375979 242.642329 
L 756.672916 234.961257 
L 792.969853 228.104998 
L 829.26679 221.867349 
" clip-path="url(#pe31475ef9b)" style="fill: none; stroke: #4daf4a; stroke-width: 1.5; stroke-linecap: round"/>
    <g clip-path="url(#pe31475ef9b)">
     <use xlink:href="#mfde9bb2529" x="611.485167" y="276.820521" style="fill: #4daf4a; stroke: #4daf4a; stroke-linejoin: miter"/>
     <use xlink:href="#mfde9bb2529" x="647.782104" y="262.540946" style="fill: #4daf4a; stroke: #4daf4a; stroke-linejoin: miter"/>
     <use xlink:href="#mfde9bb2529" x="684.079041" y="251.50907" style="fill: #4daf4a; stroke: #4daf4a; stroke-linejoin: miter"/>
     <use xlink:href="#mfde9bb2529" x="720.375979" y="242.642329" style="fill: #4daf4a; stroke: #4daf4a; stroke-linejoin: miter"/>
     <use xlink:href="#mfde9bb2529" x="756.672916" y="234.961257" style="fill: #4daf4a; stroke: #4daf4a; stroke-linejoin: miter"/>
     <use xlink:href="#mfde9bb2529" x="792.969853" y="228.104998" style="fill: #4daf4a; stroke: #4daf4a; stroke-linejoin: miter"/>
     <use xlink:href="#mfde9bb2529" x="829.26679" y="221.867349" style="fill: #4daf4a; stroke: #4daf4a; stroke-linejoin: miter"/>
    </g>
   </g>
   <g id="patch_15">
    <path d="M 600.596086 299.124 
L 600.596086 40.0416 
" style="fill: none; stroke: #ffffff; stroke-width: 1.25; stroke-linejoin: miter; stroke-linecap: square"/>
   </g>
   <g id="patch_16">
    <path d="M 840.155872 299.124 
L 840.155872 40.0416 
" style="fill: none; stroke: #ffffff; stroke-width: 1.25; stroke-linejoin: miter; stroke-linecap: square"/>
   </g>
   <g id="patch_17">
    <path d="M 600.596086 299.124 
L 840.155872 299.124 
" style="fill: none; stroke: #ffffff; stroke-width: 1.25; stroke-linejoin: miter; stroke-linecap: square"/>
   </g>
   <g id="patch_18">
    <path d="M 600.596086 40.0416 
L 840.155872 40.0416 
" style="fill: none; stroke: #ffffff; stroke-width: 1.25; stroke-linejoin: miter; stroke-linecap: square"/>
   </g>
   <g id="text_45">
    <!-- G$_{max}$ = 100 mT/m -->
    <g style="fill: #262626" transform="translate(640.475979 34.0416) scale(0.2 -0.2)">
     <use xlink:href="#ArialMT-47" transform="translate(0 0.203125)"/>
     <use xlink:href="#DejaVuSans-Oblique-6d" transform="translate(78.740234 -16.203125) scale(0.7)"/>
     <use xlink:href="#DejaVuSans-Oblique-61" transform="translate(146.928711 -16.203125) scale(0.7)"/>
     <use xlink:href="#DejaVuSans-Oblique-78" transform="translate(189.824219 -16.203125) scale(0.7)"/>
     <use xlink:href="#ArialMT-20" transform="translate(233.984375 0.203125)"/>
     <use xlink:href="#ArialMT-3d" transform="translate(261.767578 0.203125)"/>
     <use xlink:href="#ArialMT-20" transform="translate(320.166016 0.203125)"/>
     <use xlink:href="#ArialMT-31" transform="translate(347.949219 0.203125)"/>
     <use xlink:href="#ArialMT-30" transform="translate(403.564453 0.203125)"/>
     <use xlink:href="#ArialMT-30" transform="translate(459.179688 0.203125)"/>
     <use xlink:href="#ArialMT-20" transform="translate(514.794922 0.203125)"/>
     <use xlink:href="#ArialMT-6d" transform="translate(542.578125 0.203125)"/>
     <use xlink:href="#ArialMT-54" transform="translate(625.878906 0.203125)"/>
     <use xlink:href="#ArialMT-2f" transform="translate(686.962891 0.203125)"/>
     <use xlink:href="#ArialMT-6d" transform="translate(714.746094 0.203125)"/>
    </g>
   </g>
   <g id="legend_3">
    <g id="patch_19">
     <path d="M 724.521809 95.521131 
L 832.455872 95.521131 
Q 834.655872 95.521131 834.655872 93.321131 
L 834.655872 47.7416 
Q 834.655872 45.5416 832.455872 45.5416 
L 724.521809 45.5416 
Q 722.321809 45.5416 722.321809 47.7416 
L 722.321809 93.321131 
Q 722.321809 95.521131 724.521809 95.521131 
z
" style="fill: #eaeaf2; opacity: 0.8; stroke: #cccccc; stroke-linejoin: miter"/>
    </g>
    <g id="line2d_70">
     <path d="M 726.721809 53.965194 
L 737.721809 53.965194 
L 748.721809 53.965194 
" style="fill: none; stroke: #e41a1c; stroke-width: 1.5; stroke-linecap: round"/>
     <g>
      <use xlink:href="#m43457a95d0" x="737.721809" y="53.965194" style="fill: #e41a1c; stroke: #e41a1c"/>
     </g>
    </g>
    <g id="text_46">
     <!-- M0 -->
     <g style="fill: #262626" transform="translate(757.521809 57.815194) scale(0.11 -0.11)">
      <use xlink:href="#ArialMT-4d"/>
      <use xlink:href="#ArialMT-30" x="83.300781"/>
     </g>
    </g>
    <g id="line2d_71">
     <path d="M 726.721809 69.525038 
L 737.721809 69.525038 
L 748.721809 69.525038 
" style="fill: none; stroke: #377eb8; stroke-width: 1.5; stroke-linecap: round"/>
     <g>
      <use xlink:href="#m262c1a7efc" x="737.721809" y="69.525038" style="fill: #377eb8; stroke: #377eb8; stroke-linejoin: miter"/>
     </g>
    </g>
    <g id="text_47">
     <!-- M1 -->
     <g style="fill: #262626" transform="translate(757.521809 73.375038) scale(0.11 -0.11)">
      <use xlink:href="#ArialMT-4d"/>
      <use xlink:href="#ArialMT-31" x="83.300781"/>
     </g>
    </g>
    <g id="line2d_72">
     <path d="M 726.721809 85.084881 
L 737.721809 85.084881 
L 748.721809 85.084881 
" style="fill: none; stroke: #4daf4a; stroke-width: 1.5; stroke-linecap: round"/>
     <g>
      <use xlink:href="#mfde9bb2529" x="737.721809" y="85.084881" style="fill: #4daf4a; stroke: #4daf4a; stroke-linejoin: miter"/>
     </g>
    </g>
    <g id="text_48">
     <!-- M1 with CODE -->
     <g style="fill: #262626" transform="translate(757.521809 88.934881) scale(0.11 -0.11)">
      <use xlink:href="#ArialMT-4d"/>
      <use xlink:href="#ArialMT-31" x="83.300781"/>
      <use xlink:href="#ArialMT-20" x="138.916016"/>
      <use xlink:href="#ArialMT-77" x="166.699219"/>
      <use xlink:href="#ArialMT-69" x="238.916016"/>
      <use xlink:href="#ArialMT-74" x="261.132812"/>
      <use xlink:href="#ArialMT-68" x="288.916016"/>
      <use xlink:href="#ArialMT-20" x="344.53125"/>
      <use xlink:href="#ArialMT-43" x="372.314453"/>
      <use xlink:href="#ArialMT-4f" x="444.53125"/>
      <use xlink:href="#ArialMT-44" x="522.314453"/>
      <use xlink:href="#ArialMT-45" x="594.53125"/>
     </g>
    </g>
   </g>
  </g>
 </g>
 <defs>
  <clipPath id="p59d0fa2310">
   <rect x="71.658" y="40.0416" width="239.559786" height="259.0824"/>
  </clipPath>
  <clipPath id="pd709d8128b">
   <rect x="336.127043" y="40.0416" width="239.559786" height="259.0824"/>
  </clipPath>
  <clipPath id="pe31475ef9b">
   <rect x="600.596086" y="40.0416" width="239.559786" height="259.0824"/>
  </clipPath>
 </defs>
</svg>
